<svg width="22" height="15" viewBox="0 0 22 15" fill="currentColor" xmlns="http://www.w3.org/2000/svg">
<path fill-rule="evenodd" clip-rule="evenodd" d="M11 0C6 0 1.73 3.11 0 7.5C1.73 11.89 6 15 11 15C16 15 20.27 11.89 22 7.5C20.27 3.11 16 0 11 0Z" fill="currentColor"/>
<path fill-rule="evenodd" clip-rule="evenodd" d="M6.5 7.5C6.5 5.02 8.52 3 11 3C13.48 3 15.5 5.02 15.5 7.5C15.5 9.98 13.48 12 11 12C8.52 12 6.5 9.98 6.5 7.5ZM8.49998 7.50001C8.49998 8.88001 9.61998 10 11 10C12.38 10 13.5 8.88001 13.5 7.50001C13.5 6.12001 12.38 5.00001 11 5.00001C9.61998 5.00001 8.49998 6.12001 8.49998 7.50001Z" fill="white"/>
</svg>
