<svg width="115" height="40" viewBox="0 0 115 40" fill="none" xmlns="http://www.w3.org/2000/svg">
<path d="M86.22 16.0199L79 5.78992C77.84 4.13992 75.95 3.16992 73.94 3.16992H5.44C3.12 3.16992 1.25 5.04992 1.25 7.35992V31.8299C1.25 34.1499 3.13 36.0199 5.44 36.0199H73.94C75.95 36.0199 77.84 35.0399 79 33.3999L86.22 23.1699C87.73 21.0199 87.73 18.1599 86.22 16.0199ZM76.18 24.5799C73.42 24.5799 71.19 22.3399 71.19 19.5899C71.19 16.8399 73.43 14.5999 76.18 14.5999C78.93 14.5999 81.17 16.8399 81.17 19.5899C81.17 22.3399 78.93 24.5799 76.18 24.5799Z" fill="white"/>
<path d="M73.94 37.2699H5.44C2.44 37.2699 0 34.8299 0 31.8299V7.34991C0 4.34991 2.44 1.90991 5.44 1.90991H73.94C76.36 1.90991 78.63 3.08991 80.02 5.05991L87.24 15.2899C89.05 17.8599 89.05 21.3099 87.24 23.8699L80.02 34.0999C78.63 36.0899 76.36 37.2699 73.94 37.2699ZM5.44 4.40991C3.82 4.40991 2.5 5.72991 2.5 7.34991V31.8199C2.5 33.4399 3.82 34.7599 5.44 34.7599H73.94C75.54 34.7599 77.06 33.9799 77.98 32.6699L85.2 22.4399C86.4 20.7299 86.4 18.4399 85.2 16.7399L77.98 6.50991C77.06 5.19991 75.54 4.41991 73.94 4.41991H5.44V4.40991Z" fill="#D3D3D3"/>
<path d="M42.41 30.15L41.37 25.7099H35.87L34.8 30.15H31.25L36.46 9.19995H40.99L46.11 30.15H42.41ZM38.71 12.54H38.59L36.31 22.93H40.93L38.71 12.54Z" fill="#0A7CED"/>
<path d="M59.9898 15.38C59.9898 16.45 59.8298 17.38 59.4998 18.18C59.1798 18.98 58.7498 19.64 58.2198 20.18C57.6898 20.71 57.0798 21.11 56.3898 21.36C55.6998 21.62 54.9898 21.74 54.2698 21.74H51.7898V30.1399H48.2998V9.19995H54.0898C54.7598 9.19995 55.4498 9.29995 56.1598 9.49995C56.8698 9.69995 57.4998 10.04 58.0598 10.52C58.6198 11 59.0798 11.64 59.4498 12.43C59.8098 13.21 59.9898 14.2 59.9898 15.38ZM56.6398 15.43C56.6398 14.31 56.3698 13.5 55.8398 12.98C55.3098 12.47 54.6298 12.21 53.7998 12.21H51.7898V18.84H53.7998C54.6298 18.84 55.3098 18.55 55.8398 17.97C56.3798 17.4 56.6398 16.55 56.6398 15.43Z" fill="#0A7CED"/>
<path d="M62.9502 30.15V9.19995H66.5002V30.15H62.9502Z" fill="#0A7CED"/>
<path d="M76.1799 25.8301C72.7399 25.8301 69.9399 23.0301 69.9399 19.5901C69.9399 16.1501 72.7399 13.3501 76.1799 13.3501C79.6199 13.3501 82.4199 16.1501 82.4199 19.5901C82.4199 23.0301 79.6199 25.8301 76.1799 25.8301ZM76.1799 15.8501C74.1199 15.8501 72.4399 17.5301 72.4399 19.5901C72.4399 21.6501 74.1199 23.3301 76.1799 23.3301C78.2399 23.3301 79.9199 21.6501 79.9199 19.5901C79.9199 17.5301 78.2399 15.8501 76.1799 15.8501Z" fill="#C2C2C2"/>
<path d="M21.0101 27.6001H17.0901C14.0501 27.6001 11.5801 25.1301 11.5801 22.0901V17.0901C11.5801 14.0501 14.0501 11.5801 17.0901 11.5801H21.0101C21.6401 11.5801 22.1501 12.0901 22.1501 12.7201V26.4601C22.1501 27.0901 21.6401 27.6001 21.0101 27.6001Z" fill="#D3D3D3"/>
<path d="M28.5895 21.8101H23.3995V17.3601H28.5895C29.2795 17.3601 29.8395 16.8001 29.8395 16.1101C29.8395 15.4201 29.2795 14.8601 28.5895 14.8601H23.3995V12.7101C23.3995 11.3901 22.3295 10.3201 21.0095 10.3201H17.0895C13.3595 10.3201 10.3295 13.3501 10.3295 17.0801V18.3301H5.76953V20.8301H10.3195V22.0801C10.3195 25.8101 13.3495 28.8401 17.0795 28.8401H20.9995C22.3195 28.8401 23.3895 27.7701 23.3895 26.4501V24.3001H28.5795C29.2695 24.3001 29.8295 23.7401 29.8295 23.0501C29.8295 22.3601 29.2795 21.8101 28.5895 21.8101ZM20.8995 26.3501H17.0795C14.7295 26.3501 12.8195 24.4401 12.8195 22.0901V17.0901C12.8195 14.7401 14.7295 12.8301 17.0795 12.8301H20.8995V26.3501Z" fill="#6B6B6B"/>
<path d="M94.5202 0C83.7202 0 74.9302 8.79 74.9302 19.59C74.9302 20.28 75.4902 20.84 76.1802 20.84C76.8702 20.84 77.4302 20.28 77.4302 19.59C77.4302 10.17 85.1002 2.5 94.5202 2.5C103.94 2.5 111.61 10.17 111.61 19.59C111.61 29.01 103.94 36.68 94.5202 36.68C89.7802 36.68 85.2802 34.7 82.0502 31.24L80.5702 33.34C84.2402 37.06 89.2602 39.18 94.5202 39.18C105.32 39.18 114.11 30.39 114.11 19.59C114.11 8.79 105.32 0 94.5202 0Z" fill="#6B6B6B"/>
</svg>
