<svg width="63" height="60" xmlns="http://www.w3.org/2000/svg"><g fill="none" fill-rule="evenodd"><path fill="#666" d="M3.49 42.453h55.828v-3.489H3.49z"/><path fill="#B3B3B3" d="M27.915 46.524h6.978v-11.63h-6.978z"/><path d="M26.751 11.631h9.305V1a1 1 0 0 0-1-1h-7.305a1 1 0 0 0-1 1v10.631zm6.14 14.828l18.42 32.797 3.314-9.802-15.029-26.76zM8.201 49.454l3.316 9.802L29.936 26.46l-6.706-3.766z" fill="#C8C8C8"/><path d="M31.409 14.769a5.014 5.014 0 0 0-5.009 5.009 5.014 5.014 0 0 0 5.009 5.008 5.014 5.014 0 0 0 5.009-5.008 5.014 5.014 0 0 0-5.01-5.009m0 15.482c-5.774 0-10.472-4.699-10.472-10.473 0-5.775 4.698-10.473 10.473-10.473s10.473 4.698 10.473 10.473c0 5.774-4.698 10.473-10.473 10.473m31.399 10.458a4.07 4.07 0 1 1-8.142 0 4.07 4.07 0 0 1 8.142 0m-54.666 0a4.07 4.07 0 1 1-8.142 0 4.07 4.07 0 0 1 8.142 0" fill="#F4794F"/></g></svg>