<svg width="201" height="165" xmlns="http://www.w3.org/2000/svg" xmlns:xlink="http://www.w3.org/1999/xlink"><defs><path id="a" d="M17.871.415v33.157H.498V.415h17.373z"/><path id="c" d="M0 164.8h200.64V0H0z"/></defs><g fill="none" fill-rule="evenodd"><path d="M16.49 129.403l-7.023.868-5.304-42.878a3.609 3.609 0 0 1 .247-1.825l2.381-5.755 3.712 5.002c.371.501.607 1.09.684 1.709l5.304 42.879z" fill="#F2F2F2"/><path d="M6.98 81.346L5.115 85.86a2.865 2.865 0 0 0-.195 1.44l5.21 42.123 5.513-.682-5.21-42.123a2.859 2.859 0 0 0-.541-1.349l-2.91-3.922zm2.486 49.687a.761.761 0 0 1-.755-.668L3.408 87.486a4.375 4.375 0 0 1 .299-2.209l2.38-5.756a.76.76 0 0 1 1.315-.163l3.712 5.003a4.38 4.38 0 0 1 .828 2.07l5.304 42.878a.76.76 0 0 1-.662.85l-7.024.868a.743.743 0 0 1-.094.006z" fill="#979797"/><path d="M9.17 127.879l.533 4.297a3.538 3.538 0 1 0 7.023-.869l-.531-4.297-7.024.869z" fill="#88EDD9"/><path d="M10.02 128.541l.438 3.542a2.76 2.76 0 0 0 1.049 1.849 2.756 2.756 0 0 0 2.048.565 2.78 2.78 0 0 0 2.416-3.097l-.439-3.54-5.512.681zm3.185 7.501a4.268 4.268 0 0 1-2.635-.91 4.268 4.268 0 0 1-1.623-2.863l-.532-4.297a.758.758 0 0 1 .662-.849l7.024-.869a.761.761 0 0 1 .849.663l.532 4.297a4.27 4.27 0 0 1-.877 3.172 4.274 4.274 0 0 1-3.4 1.656z" fill="#2DBCA6"/><path d="M6.8 80.658a.76.76 0 0 1-.754-.668l-.427-3.452a.762.762 0 0 1 .662-.85.767.767 0 0 1 .849.663l.427 3.452a.762.762 0 0 1-.757.855M4.134 87.93a.76.76 0 0 1-.092-1.518l6.377-.788a.762.762 0 0 1 .187 1.511l-6.377.79a.75.75 0 0 1-.095.005" fill="#979797"/><path d="M43.477 16.368a2.732 2.732 0 0 0-1.987 3.303 2.729 2.729 0 0 0 3.303 1.987 2.727 2.727 0 0 0 1.986-3.302 2.73 2.73 0 0 0-3.302-1.988m.66 6.894a4.258 4.258 0 0 1-4.125-3.224 4.257 4.257 0 0 1 3.096-5.148h.002a4.255 4.255 0 0 1 5.147 3.098 4.253 4.253 0 0 1-4.12 5.274m-2.767 3.983c.156 0 .313.021.469.065a8.59 8.59 0 0 0 2.093.306c.876.022 1.604.57 1.812 1.36a.924.924 0 0 0 1.131.656l.083-.02a.914.914 0 0 0 .642-1.114 1.803 1.803 0 0 1 .826-2.024 8.43 8.43 0 0 0 1.667-1.25 1.901 1.901 0 0 1 2.261-.273.963.963 0 0 0 1.315-.345.967.967 0 0 0-.36-1.315c-.717-.413-1.053-1.282-.831-2.16a8.61 8.61 0 0 0 .259-1.866c.023-.843.632-1.589 1.478-1.814a.952.952 0 0 0 .248-1.738 1.005 1.005 0 0 0-.772-.1c-.807.21-1.68-.175-2.123-.937a8.452 8.452 0 0 0-1.061-1.447c-.608-.674-.72-1.635-.28-2.396a.948.948 0 0 0 .1-.727.952.952 0 0 0-.444-.585c-.454-.266-1.048-.1-1.325.369-.411.711-1.306 1.05-2.173.82a8.551 8.551 0 0 0-1.872-.296 1.92 1.92 0 0 1-1.787-1.449.935.935 0 0 0-.447-.575.993.993 0 0 0-.746-.095.925.925 0 0 0-.568.432.92.92 0 0 0-.096.706 1.782 1.782 0 0 1-.852 2.026h-.001a8.62 8.62 0 0 0-1.705 1.219c-.62.572-1.515.682-2.223.27a.936.936 0 0 0-1.28.336l-.045.08a.872.872 0 0 0 .31 1.209 1.774 1.774 0 0 1 .8 2.037 8.463 8.463 0 0 0-.34 2.185 1.809 1.809 0 0 1-1.355 1.684.88.88 0 0 0-.54.413.884.884 0 0 0-.092.674l.045.166a.845.845 0 0 0 1.038.61 1.77 1.77 0 0 1 1.994.87 8.466 8.466 0 0 0 1.263 1.717c.593.628.717 1.518.312 2.216-.245.42-.1.964.32 1.21l.149.087a.85.85 0 0 0 .65.086.85.85 0 0 0 .522-.398 1.779 1.779 0 0 1 1.53-.885m5.268 3.943a2.454 2.454 0 0 1-2.365-1.822c-.038-.145-.218-.224-.377-.228a10.11 10.11 0 0 1-2.464-.36.251.251 0 0 0-.276.118 2.36 2.36 0 0 1-1.447 1.105 2.365 2.365 0 0 1-1.81-.245l-.15-.087a2.412 2.412 0 0 1-.867-3.29c.07-.12.002-.294-.1-.403a9.941 9.941 0 0 1-1.49-2.027c-.058-.105-.174-.16-.277-.134a2.36 2.36 0 0 1-1.794-.244 2.353 2.353 0 0 1-1.1-1.445l-.045-.164a2.4 2.4 0 0 1 .245-1.835 2.398 2.398 0 0 1 1.471-1.12c.126-.034.216-.136.22-.25a9.944 9.944 0 0 1 .4-2.575c.033-.113-.01-.237-.105-.293a2.383 2.383 0 0 1-1.114-1.466 2.375 2.375 0 0 1 .25-1.815l.043-.079a2.464 2.464 0 0 1 3.368-.897c.124.072.3.042.427-.075a10.126 10.126 0 0 1 2.005-1.434c.097-.053.143-.18.112-.3a2.437 2.437 0 0 1 .25-1.862c.33-.567.862-.972 1.497-1.138a2.501 2.501 0 0 1 1.887.242c.582.331.997.868 1.168 1.513a.414.414 0 0 0 .378.314c.756.035 1.496.152 2.207.347.16.043.38.018.459-.117.703-1.196 2.23-1.607 3.408-.916.572.334.98.871 1.15 1.513a2.465 2.465 0 0 1-.257 1.879c-.104.18-.068.431.09.608a9.884 9.884 0 0 1 1.25 1.705c.085.146.259.27.419.228a2.52 2.52 0 0 1 1.926.258c.57.332.975.864 1.141 1.499a2.46 2.46 0 0 1-.254 1.877c-.333.573-.869.98-1.51 1.15-.199.053-.342.211-.347.384-.02.74-.123 1.48-.305 2.197-.042.17-.015.392.12.47 1.19.696 1.597 2.22.91 3.4a2.488 2.488 0 0 1-3.394.894.372.372 0 0 0-.44.052 9.932 9.932 0 0 1-1.965 1.475c-.1.057-.147.186-.113.314a2.442 2.442 0 0 1-1.731 2.977l-.086.021c-.206.055-.413.08-.618.08" fill="#2DBCA6"/><path d="M13.947 39.303a5.387 5.387 0 1 1 7.736 7.498 5.387 5.387 0 0 1-7.736-7.498zM5.374 33.53c.41.398.482 1.031.166 1.504a14.375 14.375 0 0 0-1.042 1.838c-.249.526-.827.823-1.39.682l-.971-.242a1.719 1.719 0 0 0-.838 3.333l.94.236c.55.138.926.65.885 1.216-.053.71-.053 1.425-.003 2.134.042.589-.305 1.15-.872 1.313l-.867.246a1.718 1.718 0 1 0 .94 3.306l.807-.226a1.159 1.159 0 0 1 1.368.615c.306.651.663 1.281 1.072 1.89.333.496.336 1.168-.08 1.598l-.52.54a1.71 1.71 0 0 0 .037 2.426c.682.663 1.77.647 2.43-.037l.469-.481c.405-.42 1.056-.45 1.532-.12.617.426 1.257.798 1.916 1.121.536.263.869.84.722 1.419l-.142.566a1.719 1.719 0 0 0 1.25 2.082 1.714 1.714 0 0 0 2.082-1.248l.128-.504c.145-.577.722-.913 1.314-.868a14.87 14.87 0 0 0 2.35-.013 1.189 1.189 0 0 1 1.232.871l.122.432a1.72 1.72 0 0 0 3.307-.946l-.112-.392c-.162-.57.162-1.151.695-1.415a14.785 14.785 0 0 0 2.04-1.212 1.186 1.186 0 0 1 1.513.11l.28.27a1.719 1.719 0 1 0 2.39-2.472l-.277-.269a1.188 1.188 0 0 1-.158-1.512 14.41 14.41 0 0 0 1.191-2.175 1.158 1.158 0 0 1 1.349-.637l.397.1a1.72 1.72 0 0 0 .835-3.337l-.434-.11c-.58-.143-.929-.716-.904-1.313.035-.783.008-1.57-.08-2.35a1.15 1.15 0 0 1 .84-1.228l.498-.143a1.717 1.717 0 0 0 1.182-2.123 1.72 1.72 0 0 0-2.126-1.182l-.559.158c-.564.162-1.153-.133-1.427-.655a14.518 14.518 0 0 0-1.234-1.953 1.147 1.147 0 0 1 .11-1.481l.467-.483a1.718 1.718 0 1 0-2.468-2.392l-.52.539a1.227 1.227 0 0 1-1.539.165 14.807 14.807 0 0 0-1.92-1.02c-.536-.235-.864-.806-.72-1.373l.204-.813a1.72 1.72 0 0 0-3.337-.837l-.219.876a1.21 1.21 0 0 1-1.218.917 14.879 14.879 0 0 0-2.133.06c-.585.059-1.15-.28-1.309-.839l-.266-.932a1.719 1.719 0 1 0-3.305.941l.275.965c.153.542-.079 1.127-.581 1.384-.622.316-1.226.677-1.809 1.089-.479.34-1.137.331-1.56-.078l-.737-.715a1.723 1.723 0 0 0-2.432.038 1.722 1.722 0 0 0 .04 2.433l.734.713z" fill="#A5D8F2"/><g transform="translate(182.77 66.816)"><mask id="b" fill="#fff"><use xlink:href="#a"/></mask><path d="M8.302 10.294L7.59 12.98l-2.487 9.401a5.756 5.756 0 1 0-2.93 9.696l1.36-5.15 5.646 1.494-1.363 5.15A5.761 5.761 0 0 0 11.84 29.5a5.764 5.764 0 0 0-1.87-5.888l2.474-9.346.698-2.635a5.762 5.762 0 0 0 4.537-4.192 5.76 5.76 0 0 0-1.482-5.528l-1.363 5.15L9.19 5.567 10.553.415a5.757 5.757 0 0 0-2.251 9.879" fill="#CCC" mask="url(#b)"/></g><path d="M123.253 100.733h-8.74a.761.761 0 1 1 0-1.523h8.74c1.714 0 3.3-.93 4.137-2.425l3.676-6.557a6.272 6.272 0 0 1 5.466-3.203h32.102c1.8 0 3.263-1.463 3.263-3.263v-33.31a3.269 3.269 0 0 0-3.255-3.263l-57.176-.102a.761.761 0 0 1 .001-1.523h.002l57.177.102a4.794 4.794 0 0 1 4.774 4.786v33.31a4.791 4.791 0 0 1-4.786 4.786h-32.102c-1.715 0-3.3.93-4.138 2.425l-3.674 6.557a6.273 6.273 0 0 1-5.467 3.203" fill="#C1C1C1"/><path d="M97.755 41.3c-.56 0-1.016-.454-1.016-1.015V14.962a1.016 1.016 0 0 1 2.031 0v25.323c0 .56-.455 1.016-1.015 1.016" fill="#F4B098"/><path d="M104.618 148.342v-8.51H77.11v8.51c0 4.655-3.49 8.487-7.995 9.04v.075h43.498v-.074c-4.5-.554-7.995-4.386-7.995-9.041" fill="#DFDFDF"/><path d="M73.257 156.696h35.214a9.882 9.882 0 0 1-4.614-8.354v-7.75H77.872v7.75a9.882 9.882 0 0 1-4.615 8.354zm-4.142.687h.005-.005zm43.498.836H69.115a.761.761 0 0 1-.761-.762v-.074a.76.76 0 0 1 .668-.756 8.356 8.356 0 0 0 7.327-8.285v-8.51c0-.421.341-.762.762-.762h27.507c.42 0 .762.34.762.761v8.51c0 4.21 3.15 7.772 7.326 8.286.381.046.669.37.669.756v.074a.762.762 0 0 1-.762.762z" fill="#979797"/><path d="M150.047 129.813v11.133a4.46 4.46 0 0 1-4.46 4.462H36.143a4.463 4.463 0 0 1-4.462-4.462v-11.133" fill="#F2F2F2"/><path d="M145.586 146.17H36.145a5.23 5.23 0 0 1-5.224-5.225v-11.132a.761.761 0 1 1 1.523 0v11.132c0 2.04 1.66 3.701 3.7 3.701h109.442c2.04 0 3.7-1.66 3.7-3.7v-11.133a.762.762 0 0 1 1.522 0v11.132a5.229 5.229 0 0 1-5.222 5.224" fill="#979797"/><mask id="d" fill="#fff"><use xlink:href="#c"/></mask><path d="M37.175 128.752h107.38V69.856H37.176v58.896zM36.145 64.8a4.464 4.464 0 0 0-4.463 4.46v60.385c0 2.465 2 4.462 4.462 4.462h109.442a4.461 4.461 0 0 0 4.46-4.462V69.26a4.462 4.462 0 0 0-4.46-4.46H36.144z" fill="#CCC" mask="url(#d)"/><path d="M37.936 127.99h105.858V70.619H37.936v57.373zm106.62 1.524H37.175a.761.761 0 0 1-.762-.762V69.856c0-.42.341-.761.762-.761h107.38c.421 0 .762.341.762.761v58.896a.76.76 0 0 1-.761.762zM36.144 65.56c-2.04 0-3.7 1.659-3.7 3.698v60.385c0 2.04 1.66 3.7 3.7 3.7h109.442c2.04 0 3.7-1.66 3.7-3.7V69.26a3.703 3.703 0 0 0-3.7-3.698H36.144zm109.442 69.307H36.144a5.23 5.23 0 0 1-5.224-5.224V69.26a5.229 5.229 0 0 1 5.224-5.221h109.442a5.228 5.228 0 0 1 5.222 5.221v60.385a5.229 5.229 0 0 1-5.222 5.224z" fill="#979797" mask="url(#d)"/><path d="M37.936 127.99h105.858V70.619H37.936v57.373zm106.62 1.524H37.175a.761.761 0 0 1-.762-.762V69.856c0-.42.341-.761.762-.761h107.38c.421 0 .762.341.762.761v58.896a.76.76 0 0 1-.761.762z" fill="#979797" mask="url(#d)"/><path d="M120.44 161.15a2.628 2.628 0 0 1-2.626 2.628H63.916a2.633 2.633 0 0 1-2.632-2.628v-1.066a2.63 2.63 0 0 1 2.632-2.626h53.898a2.625 2.625 0 0 1 2.625 2.626v1.066z" fill="#CCC" mask="url(#d)"/><path d="M63.916 158.219a1.87 1.87 0 0 0-1.87 1.866v1.065c0 1.03.84 1.866 1.87 1.866h53.898a1.867 1.867 0 0 0 1.864-1.866v-1.065c0-1.03-.836-1.866-1.864-1.866H63.916zm53.898 6.32H63.916a3.395 3.395 0 0 1-3.393-3.39v-1.064a3.395 3.395 0 0 1 3.393-3.39h53.898a3.391 3.391 0 0 1 3.387 3.39v1.065c0 1.869-1.52 3.39-3.387 3.39z" fill="#979797" mask="url(#d)"/><path d="M177.157 135.837c0 15.574-12.623 28.202-28.2 28.202-15.572 0-28.199-12.628-28.199-28.202 0-15.57 12.627-28.199 28.2-28.199 15.576 0 28.199 12.628 28.199 28.2" fill="#E3F1FE" mask="url(#d)"/><path d="M148.958 108.4c-15.13 0-27.438 12.308-27.438 27.437 0 15.131 12.308 27.44 27.438 27.44 15.129 0 27.437-12.309 27.437-27.44 0-15.129-12.308-27.437-27.437-27.437m0 56.4c-15.97 0-28.961-12.992-28.961-28.963 0-15.969 12.992-28.96 28.96-28.96 15.97 0 28.961 12.991 28.961 28.96 0 15.97-12.991 28.964-28.96 28.964" fill="#5AA4FD" mask="url(#d)"/><path d="M166.259 135.837c0 15.574-7.748 28.202-17.301 28.202-9.554 0-17.3-12.628-17.3-28.202 0-15.57 7.746-28.199 17.3-28.199 9.553 0 17.3 12.628 17.3 28.2" fill="#E3F1FE" mask="url(#d)"/><path d="M148.958 108.4c-9.12 0-16.539 12.308-16.539 27.437 0 15.131 7.419 27.44 16.539 27.44 9.12 0 16.54-12.309 16.54-27.44 0-15.129-7.42-27.437-16.54-27.437m0 56.4c-9.96 0-18.062-12.992-18.062-28.963 0-15.969 8.102-28.96 18.062-28.96s18.062 12.991 18.062 28.96c0 15.97-8.102 28.964-18.062 28.964" fill="#5AA4FD" mask="url(#d)"/><path d="M149.435 163.2v-55.03" fill="#E3F1FE" mask="url(#d)"/><path d="M149.435 163.962a.761.761 0 0 1-.762-.761v-55.032a.762.762 0 0 1 1.523 0V163.2c0 .42-.341.761-.761.761" fill="#5AA4FD" mask="url(#d)"/><path d="M123.14 125.914h51.719" fill="#E3F1FE" mask="url(#d)"/><path d="M174.859 126.676h-51.72a.761.761 0 1 1 0-1.523h51.72a.761.761 0 1 1 0 1.523" fill="#5AA4FD" mask="url(#d)"/><path d="M124.36 147.893h50.024" fill="#E3F1FE" mask="url(#d)"/><path d="M174.384 148.655h-50.023a.761.761 0 1 1 0-1.523h50.023a.761.761 0 1 1 0 1.523" fill="#5AA4FD" mask="url(#d)"/><path d="M70.03 122.212h41.9a1.935 1.935 0 0 0 1.936-1.935V86.192H68.098v34.087c0 1.067.865 1.933 1.932 1.933" fill="#D2EBFF" mask="url(#d)"/><path d="M113.865 78.5c0-1.135-.92-2.055-2.055-2.055H70.153c-1.135 0-2.055.92-2.055 2.055v7.692h45.767v-7.693z" fill="#5AA4FD" mask="url(#d)"/><path d="M76.424 81.445a1.875 1.875 0 1 1-3.75.002 1.875 1.875 0 0 1 3.75-.002m13.556 0a1.876 1.876 0 1 1-3.752 0 1.876 1.876 0 0 1 3.751 0m-6.776 0a1.875 1.875 0 1 1-3.751.001 1.875 1.875 0 0 1 3.75 0" fill="#E8F2FC" mask="url(#d)"/><path fill="#A1D0FF" mask="url(#d)" d="M75.917 112.756h30.137V95.488H75.917z"/><path fill="#5AA4FD" mask="url(#d)" d="M75.917 99.556h30.137v-4.068H75.917z"/><path d="M114.508 17.346a6.034 6.034 0 0 0-5.424-6.003C108.71 5.437 103.804.762 97.801.762c-5.09 0-9.392 3.362-10.811 7.985a7.333 7.333 0 0 0 .701 14.63l.052-.002v.002H108.5a6.03 6.03 0 0 0 6.008-6.031" fill="#FFC9BB" mask="url(#d)"/><path d="M88.505 22.616h19.996a5.28 5.28 0 0 0 5.246-5.27 5.253 5.253 0 0 0-4.738-5.245l-.643-.065-.042-.645c-.35-5.534-4.973-9.868-10.523-9.868a10.491 10.491 0 0 0-10.083 7.448l-.15.487-.506.047a6.54 6.54 0 0 0-5.941 6.54 6.579 6.579 0 0 0 6.623 6.568l.761.003zm-1.523 1.523v-.031c-4.132-.36-7.384-3.84-7.384-8.064a8.054 8.054 0 0 1 6.82-7.992C88.115 3.215 92.63 0 97.8 0c6.144 0 11.295 4.642 11.989 10.678a6.77 6.77 0 0 1 5.48 6.668c0 3.731-3.036 6.778-6.766 6.792l-21.522.001z" fill="#EF7C4B" mask="url(#d)"/><path fill="#FFEBBC" mask="url(#d)" d="M10.224 163.93h80.998v-10.327H10.224z"/><path d="M10.985 163.168H90.46v-8.803H10.985v8.803zm-1.523 1.523h82.521v-11.85H9.463v11.85z" fill="#EAB63D" mask="url(#d)"/><path d="M18.876 153.984v4.569" fill="#FFEBBC" mask="url(#d)"/><path fill="#EAB63D" mask="url(#d)" d="M18.115 158.553h1.523v-4.57h-1.523z"/><path d="M28.074 153.984v4.569" fill="#FFEBBC" mask="url(#d)"/><path fill="#EAB63D" mask="url(#d)" d="M27.313 158.553h1.523v-4.57h-1.523z"/><path d="M37.213 153.984v4.569" fill="#FFEBBC" mask="url(#d)"/><path fill="#EAB63D" mask="url(#d)" d="M36.451 158.553h1.523v-4.57h-1.523z"/><path d="M46.41 153.984v4.569" fill="#FFEBBC" mask="url(#d)"/><path fill="#EAB63D" mask="url(#d)" d="M45.65 158.553h1.522v-4.57H45.65z"/><path d="M55.55 153.984v4.569" fill="#FFEBBC" mask="url(#d)"/><path fill="#EAB63D" mask="url(#d)" d="M54.788 158.553h1.523v-4.57h-1.523z"/><path d="M64.747 153.984v4.569" fill="#FFEBBC" mask="url(#d)"/><path fill="#EAB63D" mask="url(#d)" d="M63.985 158.553h1.523v-4.57h-1.523z"/><path d="M73.885 153.984v4.569" fill="#FFEBBC" mask="url(#d)"/><path fill="#EAB63D" mask="url(#d)" d="M73.123 158.553h1.524v-4.57h-1.524z"/><path d="M83.083 153.984v4.569" fill="#FFEBBC" mask="url(#d)"/><path fill="#EAB63D" mask="url(#d)" d="M82.321 158.553h1.523v-4.57h-1.523z"/><path d="M188.863 46.704c0 9.464-7.672 17.136-17.134 17.136-9.465 0-17.136-7.672-17.136-17.136 0-9.462 7.67-17.135 17.136-17.135 9.462 0 17.134 7.673 17.134 17.135" fill="#DCFFF8" mask="url(#d)"/><path d="M171.729 30.33c-9.029 0-16.374 7.345-16.374 16.374s7.345 16.374 16.374 16.374c9.027 0 16.372-7.345 16.372-16.374s-7.345-16.373-16.372-16.373m0 34.27c-9.869 0-17.897-8.029-17.897-17.897 0-9.868 8.028-17.896 17.897-17.896 9.867 0 17.895 8.028 17.895 17.896S181.596 64.6 171.73 64.6" fill="#2DBCA6" mask="url(#d)"/><path d="M165.835 41.989a5.891 5.891 0 0 1 11.782 0 5.89 5.89 0 1 1-11.782 0" fill="#88EDD9" mask="url(#d)"/><path d="M171.729 36.86c-2.83 0-5.132 2.3-5.132 5.129a5.138 5.138 0 0 0 5.132 5.132 5.136 5.136 0 0 0 5.127-5.132c0-2.829-2.3-5.13-5.127-5.13m0 11.785a6.663 6.663 0 0 1-6.655-6.655 6.66 6.66 0 0 1 6.655-6.653c3.667 0 6.65 2.984 6.65 6.653 0 3.67-2.983 6.655-6.65 6.655" fill="#2DBCA6" mask="url(#d)"/><path d="M171.833 51.485c-5.245 0-9.716 3.276-11.51 7.889 3.045 2.764 7.074 4.466 11.51 4.466 4.437 0 8.466-1.702 11.508-4.466-1.79-4.613-6.262-7.89-11.508-7.89" fill="#88EDD9" mask="url(#d)"/><path d="M161.236 59.162a16.329 16.329 0 0 0 10.597 3.916 16.32 16.32 0 0 0 10.597-3.916 11.508 11.508 0 0 0-10.597-6.916c-4.635 0-8.74 2.697-10.597 6.916m10.597 5.44a17.86 17.86 0 0 1-12.021-4.664l-.387-.353.189-.487c1.978-5.088 6.774-8.375 12.22-8.375 5.446 0 10.242 3.287 12.217 8.375l.19.487-.387.352a17.85 17.85 0 0 1-12.02 4.664" fill="#2DBCA6" mask="url(#d)"/><path d="M136.335 52.5a1.911 1.911 0 0 1-1.91 1.912h-73.67a1.911 1.911 0 0 1-1.91-1.912V40.149a1.91 1.91 0 0 1 1.91-1.91h73.67a1.91 1.91 0 0 1 1.91 1.91v12.35z" fill="#EAEAEA" mask="url(#d)"/><path fill="#CCC" mask="url(#d)" d="M118.058 53.765h17.856V38.604h-17.856z"/><path d="M60.755 39a1.15 1.15 0 0 0-1.148 1.149v12.35c0 .635.515 1.15 1.148 1.15h73.67a1.15 1.15 0 0 0 1.149-1.15V40.15a1.15 1.15 0 0 0-1.15-1.149H60.756zm73.67 16.173h-73.67a2.675 2.675 0 0 1-2.67-2.673V40.149a2.674 2.674 0 0 1 2.67-2.672h73.67a2.674 2.674 0 0 1 2.672 2.672v12.35a2.675 2.675 0 0 1-2.672 2.674z" fill="#979797" mask="url(#d)"/><path d="M72.547 46.325a3.37 3.37 0 1 1-6.74-.002 3.37 3.37 0 0 1 6.74.002" fill="#979797" mask="url(#d)"/><path d="M84.676 46.325a3.37 3.37 0 1 1-6.74-.002 3.37 3.37 0 0 1 6.74.002" fill="#EF7C4B" mask="url(#d)"/><path d="M96.805 46.325a3.37 3.37 0 1 1-6.74-.002 3.37 3.37 0 0 1 6.74.002m12.129 0a3.37 3.37 0 0 1-6.739 0 3.37 3.37 0 1 1 6.74 0m9.207 8.848a.761.761 0 0 1-.761-.761V38.464a.761.761 0 1 1 1.523 0v15.948c0 .42-.341.761-.762.761" fill="#979797" mask="url(#d)"/><path d="M195.652 160.908c-.14 0-.282-.009-.424-.025a.762.762 0 0 1 .177-1.513c.71.083 1.21-.195 1.509-.443.508-.422.827-1.08.875-1.802l1.243-9.848a.762.762 0 0 1 1.511.19l-1.238 9.803c-.071 1.093-.59 2.14-1.418 2.829a3.473 3.473 0 0 1-2.235.809" fill="#EF7C4B" mask="url(#d)"/><path d="M195.288 146.772l-6.283-.737 3.26-27.764a3.227 3.227 0 0 1 .6-1.532l3.29-4.491 2.16 5.131c.217.514.296 1.075.231 1.629l-3.258 27.764z" fill="#F2F2F2" mask="url(#d)"/><path d="M189.85 145.367l4.77.56 3.17-27.008a2.478 2.478 0 0 0-.176-1.244l-1.639-3.892-2.495 3.406a2.48 2.48 0 0 0-.46 1.17l-3.17 27.008zm5.438 2.167a.745.745 0 0 1-.09-.005l-6.281-.738a.762.762 0 0 1-.668-.845l3.259-27.764c.08-.684.337-1.338.744-1.893l3.29-4.491a.762.762 0 0 1 1.316.155l2.16 5.13a4.01 4.01 0 0 1 .285 2.014l-3.259 27.764a.765.765 0 0 1-.756.673z" fill="#979797" mask="url(#d)"/><path d="M196.148 113.085a.762.762 0 0 1-.757-.85l.362-3.088a.763.763 0 0 1 1.513.177l-.363 3.088a.762.762 0 0 1-.755.673m1.845 6.416a.768.768 0 0 1-.09-.005l-5.704-.67a.763.763 0 0 1 .177-1.513l5.704.67a.762.762 0 0 1-.087 1.518" fill="#979797" mask="url(#d)"/><path d="M191.6 163.078l-2.783-.327a2.83 2.83 0 0 1-2.48-3.14l1.778-15.15a.864.864 0 0 1 .959-.757l6.686.784a.864.864 0 0 1 .758.96l-1.778 15.15a2.83 2.83 0 0 1-3.14 2.48" fill="#FFC9BB" mask="url(#d)"/><path d="M191.688 162.322a2.07 2.07 0 0 0 2.296-1.814l1.777-15.15c.006-.047-.042-.107-.09-.113l-6.686-.785c-.046-.005-.108.042-.114.09l-1.779 15.15a2.07 2.07 0 0 0 1.814 2.295l2.782.327zm.244 1.537c-.14 0-.28-.008-.422-.025l-2.782-.326a3.596 3.596 0 0 1-3.148-3.986l1.778-15.15c.05-.43.266-.817.607-1.086a1.61 1.61 0 0 1 1.198-.339l6.686.785c.432.05.818.266 1.087.607.27.341.39.766.338 1.198l-1.777 15.149a3.598 3.598 0 0 1-3.565 3.173z" fill="#EF7C4B" mask="url(#d)"/></g></svg>