<svg width="205" height="49" viewBox="0 0 205 49" fill="none" xmlns="http://www.w3.org/2000/svg">
<path fill-rule="evenodd" clip-rule="evenodd" d="M142.77 35.1499H125.49C123.84 35.1499 122.51 33.8099 122.51 32.1699C122.51 30.5199 123.85 29.1899 125.49 29.1899H142.77C144.11 29.1899 145.19 30.2799 145.19 31.6099V32.7399C145.19 34.0599 144.11 35.1499 142.77 35.1499Z" fill="#FFEBBC"/>
<path d="M142.77 36.1499H125.49C123.29 36.1499 121.51 34.3599 121.51 32.1699C121.51 29.9799 123.3 28.1899 125.49 28.1899H142.77C144.66 28.1899 146.19 29.7199 146.19 31.6099V32.7399C146.19 34.6099 144.66 36.1499 142.77 36.1499ZM125.49 30.1799C124.4 30.1799 123.51 31.0699 123.51 32.1599C123.51 33.2499 124.4 34.1399 125.49 34.1399H142.77C143.55 34.1399 144.19 33.4999 144.19 32.7199V31.5999C144.19 30.8199 143.55 30.1799 142.77 30.1799H125.49Z" fill="#EAB63D"/>
<path fill-rule="evenodd" clip-rule="evenodd" d="M142.77 22.0098H125.49C123.84 22.0098 122.51 20.6698 122.51 19.0298C122.51 17.3898 123.85 16.0498 125.49 16.0498H142.77C144.11 16.0498 145.19 17.1398 145.19 18.4698V19.5998C145.19 20.9298 144.11 22.0098 142.77 22.0098Z" fill="#FFEBBC"/>
<path d="M142.77 23.0098H125.49C123.29 23.0098 121.51 21.2198 121.51 19.0298C121.51 16.8298 123.3 15.0498 125.49 15.0498H142.77C144.66 15.0498 146.19 16.5798 146.19 18.4698V19.5998C146.19 21.4798 144.66 23.0098 142.77 23.0098ZM125.49 17.0498C124.4 17.0498 123.51 17.9398 123.51 19.0298C123.51 20.1198 124.4 21.0098 125.49 21.0098H142.77C143.55 21.0098 144.19 20.3698 144.19 19.5898V18.4598C144.19 17.6798 143.55 17.0398 142.77 17.0398H125.49V17.0498Z" fill="#EAB63D"/>
<path fill-rule="evenodd" clip-rule="evenodd" d="M130.46 10.0801H124.15C118.81 10.0801 114.36 13.9501 113.44 19.0401H111.37C109.12 19.0401 107.29 20.8701 107.29 23.1201V28.0901C107.29 30.3401 109.12 32.1701 111.37 32.1701H113.44C114.36 37.2501 118.81 41.1301 124.15 41.1301H130.46C131.51 41.1301 132.36 40.2801 132.36 39.2301V11.9701C132.36 10.9301 131.51 10.0801 130.46 10.0801Z" fill="#ECECEC"/>
<path d="M130.46 9.07979H124.15C118.61 9.07979 113.95 12.8998 112.64 18.0398H111.37C108.57 18.0398 106.29 20.3198 106.29 23.1198V24.4098H92.4301C88.6401 24.4098 85.5701 27.4898 85.5701 31.2698V38.4298C85.5701 40.8998 83.5601 42.9098 81.0901 42.9098C78.6201 42.9098 76.6101 40.8998 76.6101 38.4298V7.38978C76.6101 3.59978 73.5301 0.529785 69.7501 0.529785C65.9601 0.529785 62.8901 3.60978 62.8901 7.38978V19.8598C62.8901 22.3598 60.8501 24.3998 58.3501 24.3998H32.6001V26.7898H58.3501C62.1701 26.7898 65.2801 23.6798 65.2801 19.8598V7.38978C65.2801 4.91978 67.2901 2.90979 69.7601 2.90979C72.2301 2.90979 74.2401 4.91978 74.2401 7.38978V38.4298C74.2401 42.2198 77.3201 45.2898 81.1001 45.2898C84.8801 45.2898 87.9601 42.2098 87.9601 38.4298V31.2698C87.9601 28.7998 89.9701 26.7898 92.4401 26.7898H106.29V28.0798C106.29 30.8798 108.57 33.1598 111.37 33.1598H112.64C113.95 38.2998 118.61 42.1198 124.15 42.1198H130.46C132.06 42.1198 133.36 40.8198 133.36 39.2198V11.9698C133.36 10.3798 132.06 9.07979 130.46 9.07979ZM112.3 31.1598H111.36C109.66 31.1598 108.28 29.7798 108.28 28.0798V23.1098C108.28 21.4098 109.66 20.0298 111.36 20.0298H112.3C112.28 20.3398 112.25 20.6498 112.25 20.9698V30.2198C112.26 30.5398 112.28 30.8498 112.3 31.1598ZM131.36 39.2198C131.36 39.7098 130.96 40.1198 130.46 40.1198H124.15C118.69 40.1198 114.25 35.6798 114.25 30.2198V20.9698C114.25 15.5098 118.69 11.0698 124.15 11.0698H130.46C130.95 11.0698 131.36 11.4698 131.36 11.9698V39.2198Z" fill="#979797"/>
<path d="M127.39 15.1001H125.39V36.1001H127.39V15.1001Z" fill="#C2C2C2"/>
<path d="M122.03 18.6001H120.03V32.6001H122.03V18.6001Z" fill="#C2C2C2"/>
<path fill-rule="evenodd" clip-rule="evenodd" d="M25.8601 0.00874005C25.4201 0.02874 24.9801 0.13874 24.5801 0.32874L7.18008 8.64874C6.27008 9.08874 5.60008 9.90874 5.38008 10.8887L1.08008 29.5687C0.880082 30.4387 1.04008 31.3487 1.53008 32.0987C1.59008 32.1887 1.65008 32.2787 1.72008 32.3587L13.7701 47.3387C14.4001 48.1287 15.3601 48.5787 16.3701 48.5787H35.6901C36.7001 48.5787 37.6601 48.1187 38.2901 47.3387L50.3301 32.3587C50.9601 31.5687 51.2001 30.5487 50.9701 29.5687L46.6701 10.8887C46.4401 9.90874 45.7801 9.08874 44.8701 8.64874L27.4801 0.32874C26.9701 0.08874 26.4201 -0.02126 25.8601 0.00874005Z" fill="#326CE5"/>
<path fill-rule="evenodd" clip-rule="evenodd" d="M26.0003 30.1199C26.1403 30.1099 26.2903 30.1399 26.4303 30.2099C26.6103 30.2999 26.7503 30.4399 26.8403 30.5999H26.8603L29.5103 35.3899C29.1703 35.5099 28.8103 35.5999 28.4503 35.6899C26.4203 36.1499 24.4003 36.0099 22.5703 35.3899L25.2103 30.6099C25.3803 30.3099 25.6803 30.1299 26.0003 30.1199ZM21.4603 27.9199C21.8703 27.9299 22.2503 28.2099 22.3403 28.6299C22.3903 28.8299 22.3603 29.0199 22.2903 29.1999L22.3103 29.2199L20.2303 34.2599C18.2803 33.0099 16.7303 31.1399 15.9003 28.8399L21.2803 27.9299L21.2903 27.9399C21.3403 27.9199 21.4003 27.9099 21.4603 27.9199ZM30.5703 27.8899C30.6403 27.8899 30.7103 27.8899 30.7803 27.9099L30.7903 27.8999L36.2203 28.8199C35.4303 31.0499 33.9103 32.9799 31.8803 34.2799L29.7703 29.1899L29.7803 29.1799C29.5903 28.7299 29.7803 28.1999 30.2303 27.9899C30.3303 27.9299 30.4503 27.8999 30.5703 27.8899ZM25.2003 23.4399H26.8803L27.9203 24.7399L27.5503 26.3699L26.0503 27.0899L24.5403 26.3599L24.1703 24.7299L25.2003 23.4399ZM35.2203 19.4999C35.8303 20.4899 36.2903 21.5899 36.5603 22.7799C36.8303 23.9599 36.9003 25.1399 36.7903 26.2699L31.5203 24.7499V24.7299C31.0503 24.5999 30.7603 24.1199 30.8703 23.6399C30.9203 23.4399 31.0203 23.2799 31.1603 23.1499V23.1399L35.2203 19.4999ZM16.8203 19.4899L20.9103 23.1499V23.1699C21.2803 23.4899 21.3303 24.0499 21.0303 24.4299C20.9003 24.5899 20.7303 24.6899 20.5503 24.7399V24.7599L15.3003 26.2699C15.0403 23.8399 15.6103 21.4699 16.8203 19.4899ZM27.3403 14.4399C29.7103 14.7299 31.9003 15.7999 33.5803 17.4499L29.1303 20.6099L29.1103 20.5999C28.7103 20.8899 28.1603 20.8199 27.8503 20.4299C27.7203 20.2699 27.6603 20.0899 27.6503 19.8999L27.3403 14.4399ZM24.7303 14.4399L24.4203 19.9099L24.4003 19.9199C24.3803 20.4099 23.9803 20.7999 23.4803 20.7999C23.2803 20.7999 23.0903 20.7399 22.9403 20.6199H22.9303L18.4503 17.4399C19.8303 16.0899 21.5903 15.0799 23.6203 14.6199C23.9903 14.5499 24.3603 14.4899 24.7303 14.4399ZM26.0403 6.35986C25.4603 6.35986 25.0003 6.87986 25.0003 7.51986C25.0003 7.52986 25.0003 7.53986 25.0003 7.54986C25.0003 7.63986 24.9903 7.73986 25.0003 7.81986C25.0103 8.18986 25.0903 8.46986 25.1403 8.80986C25.2303 9.53986 25.3003 10.1399 25.2603 10.6999C25.2203 10.9099 25.0603 11.0999 24.9203 11.2399L24.9003 11.6799C24.2703 11.7299 23.6503 11.8299 23.0203 11.9699C20.3103 12.5799 17.9903 13.9799 16.2103 15.8599C16.0903 15.7799 15.8903 15.6399 15.8303 15.5899C15.6403 15.6199 15.4603 15.6699 15.2103 15.5299C14.7403 15.2199 14.3203 14.7799 13.8103 14.2599C13.5703 14.0099 13.4003 13.7699 13.1203 13.5299C13.0603 13.4799 12.9603 13.3999 12.8903 13.3499C12.6703 13.1799 12.4103 13.0799 12.1603 13.0799C11.8403 13.0699 11.5303 13.1899 11.3303 13.4499C10.9703 13.8999 11.0903 14.5899 11.5903 14.9899C11.5903 14.9899 11.6003 14.9999 11.6103 14.9999C11.6803 15.0599 11.7603 15.1299 11.8303 15.1699C12.1303 15.3899 12.4003 15.4999 12.6903 15.6799C13.3103 16.0599 13.8303 16.3799 14.2403 16.7699C14.4003 16.9399 14.4303 17.2399 14.4503 17.3699L14.7803 17.6699C12.9903 20.3599 12.1603 23.6799 12.6503 27.0699L12.2103 27.1999C12.0903 27.3499 11.9303 27.5799 11.7603 27.6499C11.2203 27.8199 10.6203 27.8799 9.89032 27.9599C9.55032 27.9899 9.25032 27.9699 8.89032 28.0399C8.81032 28.0599 8.70032 28.0799 8.61032 28.0999H8.60032C8.60032 28.0999 8.59032 28.0999 8.58032 28.0999C7.97032 28.2499 7.57032 28.8099 7.70032 29.3699C7.83032 29.9299 8.43032 30.2599 9.04032 30.1299C9.04032 30.1299 9.05032 30.1299 9.06032 30.1299C9.07032 30.1299 9.07032 30.1199 9.08032 30.1199C9.17032 30.0999 9.27032 30.0799 9.35032 30.0599C9.71032 29.9599 9.96032 29.8199 10.2903 29.6999C10.9803 29.4499 11.5503 29.2499 12.1103 29.1699C12.3403 29.1499 12.5903 29.3099 12.7103 29.3799L13.1603 29.2999C14.2103 32.5399 16.4003 35.1599 19.1703 36.7999L18.9803 37.2499C19.0503 37.4299 19.1203 37.6599 19.0703 37.8399C18.8703 38.3599 18.5203 38.9199 18.1303 39.5399C17.9403 39.8299 17.7403 40.0499 17.5703 40.3699C17.5303 40.4499 17.4803 40.5699 17.4403 40.6499C17.1703 41.2199 17.3703 41.8799 17.8803 42.1299C18.4003 42.3799 19.0403 42.1199 19.3203 41.5399C19.3603 41.4599 19.4203 41.3499 19.4503 41.2799C19.6003 40.9399 19.6503 40.6499 19.7503 40.3199C20.0303 39.6299 20.1803 38.8999 20.5603 38.4499C20.6603 38.3299 20.8303 38.2799 21.0103 38.2299L21.2503 37.7999C23.6703 38.7299 26.3703 38.9799 29.0803 38.3599C29.7003 38.2199 30.2903 38.0399 30.8703 37.8199C30.9403 37.9399 31.0603 38.1599 31.0903 38.2199C31.2703 38.2799 31.4603 38.3099 31.6203 38.5399C31.9003 39.0299 32.1003 39.5999 32.3303 40.2899C32.4303 40.6199 32.4903 40.9099 32.6303 41.2499C32.6603 41.3299 32.7203 41.4399 32.7603 41.5199C33.0403 42.0999 33.6803 42.3599 34.2003 42.1099C34.7103 41.8599 34.9103 41.1999 34.6403 40.6299C34.6003 40.5499 34.5503 40.4299 34.5003 40.3499C34.3303 40.0199 34.1303 39.7999 33.9403 39.5199C33.5503 38.8999 33.2203 38.3899 33.0203 37.8699C32.9403 37.5999 33.0303 37.4299 33.1003 37.2599C33.0603 37.2099 32.9803 36.9599 32.9303 36.8399C35.8103 35.1399 37.9403 32.4199 38.9403 29.2799C39.0703 29.2999 39.3103 29.3399 39.3903 29.3599C39.5503 29.2599 39.6903 29.1199 39.9703 29.1399C40.5303 29.2199 41.1003 29.4299 41.7903 29.6699C42.1103 29.7899 42.3703 29.9399 42.7303 30.0299C42.8103 30.0499 42.9103 30.0699 43.0003 30.0899C43.0103 30.0899 43.0103 30.0999 43.0203 30.0999C43.0203 30.0999 43.0303 30.0999 43.0403 30.0999C43.6603 30.2299 44.2603 29.8899 44.3803 29.3399C44.5103 28.7799 44.1103 28.2199 43.5003 28.0699C43.4103 28.0499 43.2803 28.0199 43.2003 27.9999C42.8403 27.9299 42.5403 27.9499 42.2003 27.9199C41.4703 27.8399 40.8703 27.7799 40.3303 27.6099C40.1103 27.5299 39.9603 27.2699 39.8803 27.1599L39.4603 27.0399C39.6803 25.4599 39.6203 23.8199 39.2403 22.1799C38.8603 20.5199 38.1903 18.9999 37.2903 17.6699C37.4003 17.5699 37.6003 17.3899 37.6603 17.3399C37.6803 17.1499 37.6603 16.9599 37.8603 16.7499C38.2703 16.3699 38.7903 16.0499 39.4103 15.6599C39.7103 15.4899 39.9803 15.3699 40.2803 15.1499C40.3503 15.0999 40.4403 15.0199 40.5103 14.9699C41.0103 14.5699 41.1203 13.8799 40.7703 13.4299C40.4103 12.9799 39.7203 12.9399 39.2203 13.3399C39.1503 13.3999 39.0503 13.4699 38.9903 13.5199C38.7103 13.7599 38.5403 13.9999 38.3003 14.2499C37.7903 14.7699 37.3603 15.2099 36.9003 15.5199C36.7003 15.6399 36.4003 15.5999 36.2703 15.5899L35.8703 15.8699C33.6103 13.4999 30.5303 11.9899 27.2203 11.6899C27.2103 11.5499 27.2003 11.2999 27.2003 11.2199C27.0603 11.0899 26.9003 10.9799 26.8603 10.6999C26.8103 10.1399 26.8903 9.53986 26.9803 8.80986C27.0303 8.46986 27.1103 8.18986 27.1203 7.81986C27.1203 7.73986 27.1203 7.60986 27.1203 7.51986C27.0803 6.87986 26.6103 6.35986 26.0403 6.35986Z" fill="white"/>
<path d="M18.2902 42.3497C18.1302 42.3497 17.9702 42.3197 17.8202 42.2397C17.2502 41.9597 17.0202 41.2297 17.3202 40.5897L17.3702 40.4897C17.4002 40.4297 17.4302 40.3597 17.4602 40.3097C17.5802 40.0897 17.7102 39.9097 17.8302 39.7397C17.8902 39.6497 17.9602 39.5597 18.0202 39.4697C18.4302 38.8297 18.7602 38.2997 18.9502 37.7997C18.9902 37.6497 18.8902 37.3897 18.8602 37.2997L18.8402 37.2497L19.0102 36.8497C16.2002 35.1597 14.1002 32.5297 13.0702 29.4397L12.6802 29.5097L12.5902 29.4597C12.4702 29.3897 12.2702 29.2797 12.1102 29.2897C11.5802 29.3697 11.0102 29.5697 10.3502 29.8097C10.2202 29.8597 10.1202 29.8997 10.0202 29.9497C9.8302 30.0297 9.6202 30.1197 9.3802 30.1897C9.3302 30.1997 9.2602 30.2197 9.1902 30.2297L9.0702 30.2597C8.3902 30.3997 7.7202 30.0197 7.5802 29.3997C7.4402 28.7797 7.8802 28.1497 8.5502 27.9797L8.6602 27.9497C8.7302 27.9297 8.8002 27.9097 8.8602 27.8997C9.1102 27.8497 9.3302 27.8397 9.5402 27.8397C9.6502 27.8397 9.7602 27.8297 9.8702 27.8197C10.5902 27.7397 11.1902 27.6797 11.7102 27.5197C11.8202 27.4797 11.9502 27.2997 12.0502 27.1697L12.1202 27.0797L12.4902 26.9697C12.0502 23.7297 12.7902 20.4397 14.5902 17.6797L14.3002 17.4197L14.2802 17.3197C14.2602 17.1797 14.2302 16.9597 14.1102 16.8397C13.7102 16.4697 13.1902 16.1497 12.5902 15.7697C12.4902 15.7097 12.4002 15.6597 12.3002 15.6097C12.1102 15.5097 11.9202 15.4097 11.7202 15.2597C11.6702 15.2197 11.6102 15.1697 11.5502 15.1297L11.5002 15.0897C11.2202 14.8697 11.0402 14.5697 10.9902 14.2497C10.9402 13.9197 11.0102 13.6097 11.2102 13.3597C11.4302 13.0797 11.7602 12.9397 12.1402 12.9497C12.4202 12.9597 12.7102 13.0697 12.9402 13.2497L13.0002 13.2997C13.0602 13.3497 13.1302 13.3997 13.1702 13.4397C13.3602 13.6097 13.5102 13.7697 13.6502 13.9297C13.7202 14.0097 13.7902 14.0897 13.8702 14.1797C14.3802 14.6997 14.8002 15.1297 15.2502 15.4297C15.4202 15.5297 15.5502 15.5097 15.7002 15.4797L15.8302 15.4597L15.8702 15.4897C15.9202 15.5197 16.0502 15.6197 16.1602 15.6897C18.0002 13.7597 20.3502 12.4297 22.9602 11.8397C23.5402 11.7097 24.1502 11.6097 24.7502 11.5597L24.7702 11.1797L24.8102 11.1497C24.9702 10.9897 25.0802 10.8197 25.1102 10.6697C25.1502 10.1397 25.0802 9.56975 24.9902 8.83975C25.0002 8.70975 24.9802 8.60975 24.9602 8.49975C24.9202 8.28975 24.8802 8.06975 24.8702 7.81975C24.8702 7.76975 24.8702 7.69975 24.8702 7.63975V7.54975C24.8702 6.80975 25.3902 6.23975 26.0402 6.23975C26.6802 6.23975 27.2102 6.81975 27.2102 7.51975V7.61975C27.2102 7.68975 27.2102 7.75975 27.2102 7.81975C27.2002 8.06975 27.1602 8.28975 27.1202 8.49975C27.1002 8.60975 27.0802 8.70975 27.0602 8.82975L27.0502 8.88975C26.9702 9.56975 26.9002 10.1597 26.9402 10.6897C26.9702 10.8797 27.0702 10.9697 27.1802 11.0797L27.2802 11.1697V11.2197C27.2802 11.2797 27.2902 11.4397 27.3002 11.5797C30.5402 11.8897 33.5702 13.3597 35.8502 15.7097L36.1902 15.4597L36.2902 15.4697C36.4202 15.4797 36.6502 15.4997 36.8002 15.4097C37.2402 15.1197 37.6602 14.6897 38.1402 14.1997L38.1802 14.1597C38.2602 14.0797 38.3302 13.9997 38.4002 13.9197C38.5402 13.7597 38.6902 13.5897 38.8802 13.4297C38.9202 13.3897 38.9802 13.3497 39.0402 13.2997L39.1102 13.2397C39.6602 12.7997 40.4402 12.8497 40.8402 13.3497C41.2402 13.8497 41.1202 14.6197 40.5602 15.0597L40.4802 15.1197C40.4302 15.1597 40.3702 15.2097 40.3202 15.2397C40.1202 15.3897 39.9202 15.4897 39.7402 15.5897C39.6402 15.6397 39.5502 15.6897 39.4502 15.7497C38.8502 16.1197 38.3202 16.4397 37.9202 16.8197C37.7902 16.9597 37.7802 17.0997 37.7702 17.2497L37.7602 17.3797L37.4302 17.6697C38.3302 19.0297 38.9702 20.5297 39.3402 22.1297C39.7002 23.7097 39.7802 25.3297 39.5702 26.9297L39.9302 27.0297L40.0002 27.1297C40.0802 27.2397 40.2002 27.4297 40.3602 27.4897C40.8702 27.6497 41.4702 27.7097 42.1702 27.7897C42.3102 27.7997 42.4202 27.8097 42.5302 27.8097C42.7402 27.8197 42.9602 27.8297 43.2102 27.8697C43.2702 27.8797 43.3402 27.8997 43.4102 27.9197L43.5102 27.9497C44.1902 28.1097 44.6302 28.7497 44.4902 29.3697C44.3502 29.9897 43.6802 30.3697 43.0002 30.2297L42.8702 30.1997C42.8102 30.1897 42.7402 30.1697 42.6902 30.1597C42.4502 30.0997 42.2402 30.0097 42.0502 29.9197C41.9502 29.8797 41.8502 29.8297 41.7402 29.7897L41.7102 29.7797C41.0502 29.5397 40.4902 29.3397 39.9502 29.2597C39.7602 29.2497 39.6502 29.3197 39.5202 29.4097L39.4102 29.4797L39.3602 29.4697C39.3002 29.4597 39.1502 29.4297 39.0302 29.4097C38.0102 32.5397 35.9002 35.1897 33.0902 36.8797C33.1002 36.8997 33.1002 36.9097 33.1102 36.9297C33.1402 37.0097 33.1902 37.1397 33.2102 37.1697L33.2602 37.2297L33.2002 37.3697C33.1402 37.5097 33.0902 37.6397 33.1502 37.8297C33.3502 38.3397 33.6802 38.8497 34.0602 39.4497C34.1202 39.5397 34.1902 39.6297 34.2502 39.7197C34.3702 39.8897 34.5002 40.0697 34.6202 40.2897C34.6502 40.3397 34.6802 40.4197 34.7202 40.4897L34.7602 40.5697C35.0602 41.1997 34.8302 41.9397 34.2602 42.2197C33.6802 42.4997 32.9602 42.2097 32.6502 41.5697L32.6102 41.4897C32.5802 41.4197 32.5402 41.3497 32.5202 41.2997C32.4202 41.0697 32.3602 40.8497 32.3002 40.6497C32.2702 40.5497 32.2402 40.4397 32.2102 40.3397L32.2002 40.2997C31.9702 39.6097 31.7802 39.0697 31.5102 38.6097C31.4002 38.4497 31.2702 38.4097 31.1202 38.3697L31.0002 38.3298L30.8002 37.9797C30.2402 38.1897 29.6702 38.3597 29.1002 38.4897C26.5002 39.0797 23.8002 38.8997 21.3002 37.9597L21.0902 38.3397L21.0402 38.3497C20.8602 38.3997 20.7302 38.4397 20.6502 38.5297C20.4002 38.8297 20.2502 39.2697 20.0902 39.7397C20.0202 39.9497 19.9502 40.1597 19.8702 40.3697C19.8402 40.4697 19.8102 40.5797 19.7802 40.6797C19.7202 40.8797 19.6702 41.0897 19.5702 41.3197C19.5502 41.3697 19.5102 41.4397 19.4802 41.4997L19.4602 41.5497L19.4702 41.5697L19.4202 41.6197C19.1902 42.0797 18.7402 42.3497 18.2902 42.3497ZM19.1102 37.2497C19.1802 37.4297 19.2502 37.6697 19.1902 37.8697C18.9802 38.3997 18.6502 38.9497 18.2302 39.5997C18.1602 39.6997 18.1002 39.7897 18.0302 39.8797C17.9002 40.0497 17.7902 40.2097 17.6802 40.4197C17.6602 40.4697 17.6302 40.5297 17.6002 40.5897L17.5502 40.6897C17.3102 41.1997 17.4802 41.7897 17.9302 41.9997C18.3702 42.2097 18.9202 41.9897 19.1802 41.5097L19.1702 41.4897L19.2102 41.4397L19.2402 41.3697C19.2702 41.3097 19.3002 41.2497 19.3202 41.1997C19.4102 40.9897 19.4602 40.7997 19.5202 40.5897C19.5502 40.4797 19.5802 40.3697 19.6202 40.2597C19.7002 40.0497 19.7702 39.8397 19.8402 39.6397C20.0102 39.1497 20.1602 38.6797 20.4502 38.3497C20.5702 38.2097 20.7502 38.1497 20.9102 38.0997L21.1702 37.6197L21.2702 37.6597C23.7502 38.6097 26.4402 38.8097 29.0202 38.2197C29.6202 38.0797 30.2102 37.8997 30.7902 37.6897L30.8902 37.6497L31.1402 38.0997L31.1602 38.1097C31.3202 38.1597 31.5302 38.2197 31.6902 38.4597C31.9802 38.9597 32.1802 39.5397 32.4102 40.2097L32.4202 40.2497C32.4602 40.3597 32.4902 40.4698 32.5102 40.5798C32.5702 40.7898 32.6202 40.9797 32.7202 41.1997C32.7402 41.2497 32.7802 41.3197 32.8102 41.3797L32.8502 41.4597C33.1002 41.9697 33.6702 42.2097 34.1202 41.9897C34.5702 41.7697 34.7402 41.1797 34.5002 40.6797L34.4602 40.5997C34.4302 40.5297 34.4002 40.4597 34.3702 40.4097C34.2602 40.1997 34.1402 40.0397 34.0202 39.8697C33.9502 39.7797 33.8902 39.6897 33.8202 39.5897C33.4302 38.9797 33.0902 38.4497 32.8802 37.9097C32.7902 37.6297 32.8702 37.4297 32.9302 37.2797L32.9402 37.2597C32.9102 37.2097 32.8902 37.1297 32.8402 37.0197C32.8202 36.9697 32.8002 36.9197 32.7902 36.8797L32.7502 36.7797L32.8402 36.7197C35.6702 35.0497 37.7902 32.3897 38.7902 29.2297L38.8202 29.1297L38.9302 29.1497C39.0402 29.1697 39.2302 29.1997 39.3302 29.2197L39.3502 29.2097C39.4902 29.1097 39.6702 28.9897 39.9502 29.0197C40.5202 29.0997 41.1002 29.3097 41.7702 29.5497L41.8002 29.5597C41.9102 29.5997 42.0202 29.6497 42.1202 29.6897C42.3102 29.7697 42.5002 29.8497 42.7302 29.9197C42.7802 29.9297 42.8302 29.9397 42.8902 29.9597L43.0202 29.9897C43.5702 30.1097 44.1102 29.8097 44.2202 29.3197C44.3302 28.8297 43.9802 28.3297 43.4302 28.1997L43.3202 28.1697C43.2502 28.1497 43.1902 28.1397 43.1302 28.1297C42.9002 28.0897 42.7002 28.0797 42.4902 28.0697C42.3802 28.0697 42.2602 28.0597 42.1402 28.0497C41.4002 27.9697 40.7902 27.9097 40.2402 27.7397C40.0002 27.6497 39.8502 27.4197 39.7602 27.2797V27.2697L39.2802 27.1297L39.2902 27.0197C39.5102 25.4097 39.4402 23.7897 39.0702 22.1997C38.7002 20.5997 38.0502 19.0897 37.1402 17.7297L37.0802 17.6397L37.4902 17.2697V17.2497C37.5002 17.0797 37.5202 16.8697 37.7102 16.6597C38.1402 16.2597 38.6702 15.9297 39.2802 15.5497C39.3902 15.4897 39.4902 15.4297 39.5902 15.3797C39.7802 15.2797 39.9502 15.1897 40.1402 15.0497C40.1802 15.0197 40.2402 14.9797 40.2902 14.9297L40.3702 14.8597C40.8202 14.4997 40.9202 13.8897 40.6102 13.4997C40.2902 13.0997 39.6802 13.0697 39.2302 13.4297L39.1502 13.4897C39.1002 13.5297 39.0402 13.5797 39.0002 13.6097C38.8202 13.7597 38.6902 13.9197 38.5502 14.0797C38.4802 14.1597 38.4102 14.2497 38.3302 14.3297L38.2902 14.3697C37.8002 14.8697 37.3702 15.2997 36.9102 15.6197C36.6902 15.7497 36.4102 15.7297 36.2502 15.7097H36.2402L35.7902 16.0297L35.7202 15.9497C33.4502 13.5697 30.4102 12.0997 27.1502 11.8097L27.0402 11.7997L27.0302 11.6897C27.0202 11.5697 27.0102 11.3797 27.0102 11.2697L26.9902 11.2497C26.8702 11.1397 26.7102 10.9897 26.6702 10.7097C26.6202 10.1497 26.7002 9.53975 26.7802 8.84975L26.7902 8.78975C26.8102 8.66975 26.8302 8.55975 26.8502 8.44975C26.8902 8.23975 26.9302 8.03975 26.9302 7.80975C26.9302 7.75975 26.9302 7.68975 26.9302 7.61975V7.50975C26.9302 6.93975 26.5202 6.47975 26.0102 6.47975C25.5002 6.47975 25.0902 6.93975 25.0902 7.50975V7.63975C25.0902 7.69975 25.0902 7.75975 25.0902 7.80975C25.1002 8.04975 25.1402 8.23975 25.1702 8.44975C25.1902 8.55975 25.2102 8.66975 25.2302 8.77975C25.3202 9.50975 25.3902 10.1297 25.3502 10.6997C25.3002 10.9397 25.1402 11.1497 25.0102 11.2797L24.9802 11.7797L24.9002 11.7997C24.2702 11.8497 23.6402 11.9497 23.0302 12.0897C20.4402 12.6797 18.1102 14.0097 16.2802 15.9397L16.2102 16.0197L16.1202 15.9597C16.0202 15.8897 15.8702 15.7797 15.7802 15.7197H15.7602C15.5902 15.7497 15.3802 15.7797 15.1302 15.6297C14.6502 15.3097 14.2202 14.8697 13.7202 14.3597L13.7002 14.3397C13.6202 14.2597 13.5502 14.1697 13.4702 14.0897C13.3302 13.9297 13.2002 13.7797 13.0202 13.6197C12.9702 13.5797 12.9102 13.5297 12.8502 13.4897L12.7902 13.4397C12.6002 13.2897 12.3702 13.1997 12.1402 13.1897C11.8502 13.1797 11.5802 13.2997 11.4102 13.5097C11.2602 13.6997 11.2002 13.9397 11.2402 14.1997C11.2802 14.4597 11.4302 14.6997 11.6402 14.8697L11.7102 14.9297C11.7602 14.9697 11.8202 15.0197 11.8702 15.0597C12.0602 15.1997 12.2302 15.2897 12.4202 15.3897C12.5202 15.4397 12.6202 15.4997 12.7202 15.5597C13.3402 15.9397 13.8702 16.2697 14.2902 16.6697C14.4602 16.8597 14.5102 17.1397 14.5302 17.2897L14.9102 17.6297L14.8502 17.7197C13.0202 20.4697 12.2702 23.7797 12.7402 27.0297L12.7602 27.1397L12.2602 27.2897L12.2402 27.3097C12.1202 27.4697 11.9702 27.6697 11.7802 27.7497C11.2302 27.9197 10.6102 27.9897 9.9002 28.0597C9.7502 28.0697 9.6402 28.0797 9.5202 28.0797C9.3102 28.0897 9.1102 28.0997 8.8802 28.1397C8.8302 28.1497 8.7602 28.1697 8.6902 28.1797L8.6102 28.1997C8.0402 28.3397 7.6902 28.8397 7.8002 29.3297C7.9102 29.8197 8.4502 30.1197 9.0002 29.9997C9.0202 29.9997 9.0302 29.9897 9.0402 29.9897L9.1302 29.9697C9.1902 29.9597 9.2602 29.9397 9.3102 29.9297C9.5402 29.8697 9.7202 29.7897 9.9202 29.7097C10.0202 29.6697 10.1302 29.6197 10.2402 29.5797C10.9402 29.3297 11.5202 29.1197 12.0802 29.0397C12.3302 29.0097 12.5702 29.1597 12.7102 29.2397H12.7202L13.2402 29.1497L13.2702 29.2497C14.2702 32.3597 16.3902 34.9997 19.2202 36.6797L19.3102 36.7397L19.1102 37.2497ZM26.0402 36.0897C24.8502 36.0897 23.6602 35.8997 22.5302 35.5097L22.3902 35.4597L25.1502 30.4797C25.3302 30.1897 25.6502 30.0097 25.9902 29.9897C26.1602 29.9797 26.3202 30.0197 26.4802 30.0897C26.6602 30.1797 26.8102 30.3097 26.9102 30.4697L26.9702 30.5297L29.6902 35.4497L29.5502 35.4997C29.2002 35.6197 28.8402 35.7197 28.4802 35.7997C27.6802 35.9997 26.8602 36.0897 26.0402 36.0897ZM22.7602 35.3197C24.5902 35.9097 26.5402 35.9997 28.4302 35.5697C28.7402 35.4997 29.0402 35.4197 29.3302 35.3197L26.7902 30.7297L26.7302 30.6597C26.6502 30.5097 26.5302 30.3997 26.3702 30.3197C26.2502 30.2597 26.1202 30.2297 26.0002 30.2397C25.7202 30.2497 25.4602 30.4097 25.3302 30.6597L25.2902 30.7297L22.7602 35.3197ZM31.8102 34.4597L29.6202 29.1697L29.6302 29.1597C29.4602 28.6597 29.6802 28.1097 30.1602 27.8697C30.2902 27.8097 30.4202 27.7697 30.5602 27.7697C30.6102 27.7697 30.6702 27.7697 30.7302 27.7797H30.8102L36.3802 28.7197L36.3302 28.8597C35.5202 31.1297 33.9602 33.0897 31.9402 34.3797L31.8102 34.4597ZM29.9102 29.1997L31.9302 34.0797C33.8102 32.8497 35.2602 31.0197 36.0502 28.9097L30.8402 28.0297H30.7602C30.7002 28.0197 30.6302 28.0097 30.5802 28.0197C30.4802 28.0197 30.3702 28.0497 30.2802 28.0997C29.9002 28.2897 29.7302 28.7397 29.8902 29.1297L29.9202 29.1997H29.9102ZM20.2802 34.4397L20.1502 34.3597C18.1102 33.0497 16.5902 31.1497 15.7702 28.8797L15.7202 28.7397L21.3202 27.7897L21.3302 27.7997C21.3702 27.7897 21.4202 27.7897 21.4602 27.7897C21.9402 27.7997 22.3502 28.1297 22.4602 28.5997C22.5002 28.7897 22.4902 28.9897 22.4302 29.1697L22.4202 29.2597L20.2802 34.4397ZM16.0602 28.9297C16.8602 31.0397 18.2702 32.8097 20.1602 34.0597L22.1602 29.2297L22.1702 29.1397C22.2402 28.9897 22.2502 28.8197 22.2102 28.6497C22.1302 28.2897 21.8102 28.0397 21.4502 28.0297C21.4002 28.0297 21.3502 28.0297 21.2902 28.0397L21.2202 28.0497L21.2102 28.0397L16.0602 28.9297ZM26.0402 27.2297L24.4202 26.4497L24.0202 24.7097L25.1402 23.3197H26.9402L28.0602 24.7197L27.6602 26.4597L26.0402 27.2297ZM24.6302 26.2797L26.0302 26.9497L27.4302 26.2797L27.7802 24.7697L26.8102 23.5597H25.2502L24.2802 24.7697L24.6302 26.2797ZM15.1902 26.4497L15.1702 26.2997C14.9102 23.9097 15.4602 21.4697 16.7102 19.4297L16.7902 19.2997L21.0502 23.1097V23.1297C21.4202 23.4997 21.4602 24.0997 21.1302 24.5197C21.0102 24.6797 20.8402 24.7897 20.6602 24.8497L20.5902 24.8897L15.1902 26.4497ZM16.8502 19.6897C15.7002 21.6197 15.1902 23.8897 15.4102 26.1297L20.5202 24.6397C20.6802 24.5997 20.8302 24.4997 20.9302 24.3697C21.2002 24.0397 21.1502 23.5597 20.8302 23.2797L20.7802 23.2297V23.2097L16.8502 19.6897ZM36.9002 26.4297L31.4102 24.8497L31.4002 24.8297C30.9002 24.6497 30.6102 24.1397 30.7302 23.6097C30.7702 23.4197 30.8702 23.2497 31.0102 23.1097L31.0602 23.0497L35.2402 19.3097L35.3202 19.4397C35.9502 20.4597 36.4102 21.5797 36.6802 22.7597C36.9502 23.9297 37.0302 25.1097 36.9102 26.2897L36.9002 26.4297ZM31.6202 24.6497L36.6702 26.1097C36.7602 25.0097 36.6802 23.8997 36.4302 22.8097C36.1802 21.7097 35.7602 20.6597 35.1802 19.6997L31.2202 23.2597C31.0902 23.3697 31.0102 23.5097 30.9702 23.6797C30.8802 24.0997 31.1202 24.5097 31.5302 24.6197L31.6002 24.6397L31.6202 24.6497ZM23.4802 20.9197C23.2802 20.9197 23.0902 20.8697 22.9302 20.7597L22.8602 20.7197L18.2602 17.4597L18.3702 17.3597C19.8102 15.9497 21.6202 14.9597 23.6002 14.5097C23.9602 14.4297 24.3402 14.3597 24.7202 14.3197L24.8702 14.2997L24.5502 19.9897L24.5202 19.9997C24.4602 20.5297 24.0202 20.9197 23.4802 20.9197ZM22.9402 20.4797L23.0102 20.5197C23.1502 20.6197 23.3102 20.6697 23.4802 20.6697C23.9102 20.6697 24.2502 20.3397 24.2702 19.9097V19.8297L24.2902 19.8197L24.5902 14.5797C24.2602 14.6197 23.9502 14.6797 23.6402 14.7497C21.7502 15.1797 20.0202 16.0997 18.6402 17.4297L22.9402 20.4797ZM28.5702 20.9097C28.2602 20.9097 27.9602 20.7697 27.7502 20.5197C27.6302 20.3597 27.5502 20.1797 27.5302 19.9897L27.5202 19.9197L27.2002 14.3097L27.3502 14.3297C29.7102 14.6197 31.9602 15.6997 33.6602 17.3697L33.7702 17.4697L29.1402 20.7497L29.1202 20.7397C28.9602 20.8497 28.7702 20.9097 28.5702 20.9097ZM27.7702 19.8197L27.7802 19.8897C27.7902 20.0597 27.8502 20.2197 27.9502 20.3497C28.2202 20.6797 28.6902 20.7497 29.0402 20.4997L29.1002 20.4597L29.1202 20.4697L33.3902 17.4397C31.7702 15.8997 29.6802 14.8897 27.4802 14.5897L27.7702 19.8197Z" fill="white"/>
<path d="M179.46 24.29L183.27 30.89H175.65L179.46 24.29Z" fill="#474747"/>
<path d="M183.27 17.6802L187.09 24.2902H179.46L183.27 17.6802Z" fill="#999999"/>
<path d="M175.65 17.6802L179.46 24.2902H171.83L175.65 17.6802Z" fill="#999999"/>
<path d="M179.46 24.29H187.09L183.27 30.89L179.46 24.29Z" fill="#757575"/>
<path d="M171.83 24.29H179.46L175.65 30.89L171.83 24.29Z" fill="#757575"/>
<path d="M175.65 17.6802H183.27L179.46 24.2902L175.65 17.6802Z" fill="#C9C9C9"/>
<path d="M179.46 2.18994L185.84 13.2399H173.08L179.46 2.18994Z" fill="#0028FC"/>
<path d="M166.7 24.29L173.08 35.33H160.33L166.7 24.29Z" fill="#0037FC"/>
<path d="M185.84 35.3301L192.22 46.3801H179.46L185.84 35.3301Z" fill="#006AE5"/>
<path d="M192.22 2.18994L198.59 13.2399H185.84L192.22 2.18994Z" fill="#39A2FC"/>
<path d="M198.59 13.2397L204.97 24.2897H192.22L198.59 13.2397Z" fill="#9EDBFC"/>
<path d="M160.33 13.2397L166.7 24.2897H153.95L160.33 13.2397Z" fill="#0037FC"/>
<path d="M173.08 35.3301H185.84L179.46 46.3801L173.08 35.3301Z" fill="#0079FC"/>
<path d="M185.84 35.3301H198.6L192.22 46.3801L185.84 35.3301Z" fill="#0079FC"/>
<path d="M153.95 24.29H166.71L160.33 35.34L153.95 24.29Z" fill="#0000D8"/>
<path d="M179.46 2.18994H192.22L185.84 13.2399L179.46 2.18994Z" fill="#0079FC"/>
<path d="M185.84 13.2397H198.6L192.22 24.2897L185.84 13.2397Z" fill="#4DBBFC"/>
<path d="M185.84 35.33L192.22 24.29H204.97L198.59 35.33H185.84Z" fill="#0059FC"/>
<path d="M179.46 46.3801L173.08 35.3301H160.33L166.7 46.3801H179.46Z" fill="#0000D8"/>
<path d="M179.46 2.18994H166.7L160.33 13.2399L166.7 24.2899L179.46 2.18994Z" fill="#0079FC"/>
</svg>