<svg width="89" height="13" xmlns="http://www.w3.org/2000/svg"><g fill="none" fill-rule="evenodd"><path d="M17.658 11.847c.677 0 1.3-.117 1.872-.351a4.1 4.1 0 0 0 1.485-1.03c.417-.454.74-1.01.97-1.668.231-.658.346-1.408.346-2.25 0-.85-.117-1.598-.35-2.245-.234-.648-.558-1.193-.972-1.636a4.052 4.052 0 0 0-1.468-1.004 4.924 4.924 0 0 0-1.851-.34c-.684 0-1.31.116-1.883.346a4.135 4.135 0 0 0-1.484 1.01c-.418.442-.743.987-.977 1.634-.234.648-.351 1.392-.351 2.234 0 .843.115 1.593.345 2.251.23.658.552 1.214.967 1.667.413.454.906.797 1.479 1.031a4.891 4.891 0 0 0 1.872.351M17.668.46c.806 0 1.551.144 2.235.432a5.033 5.033 0 0 1 1.764 1.23 5.714 5.714 0 0 1 1.156 1.922c.276.748.415 1.582.415 2.503 0 .915-.137 1.75-.41 2.505A5.793 5.793 0 0 1 21.678 11a5.132 5.132 0 0 1-1.759 1.263c-.68.298-1.43.448-2.25.448-.82 0-1.573-.15-2.256-.448a5.154 5.154 0 0 1-1.765-1.258 5.74 5.74 0 0 1-1.15-1.942c-.273-.756-.41-1.595-.41-2.516 0-.928.139-1.766.416-2.515a5.6 5.6 0 0 1 1.16-1.915A5.133 5.133 0 0 1 15.43.892 5.683 5.683 0 0 1 17.67.46M9.142 3.838a2.743 2.743 0 0 0-.442-.987 3.3 3.3 0 0 0-.81-.8 3.985 3.985 0 0 0-1.117-.533 4.593 4.593 0 0 0-1.355-.194c-.683 0-1.304.111-1.862.334a3.773 3.773 0 0 0-1.424.988c-.393.435-.694.979-.907 1.63-.212.651-.318 1.408-.318 2.271 0 .864.106 1.625.318 2.283.213.659.514 1.21.907 1.657.392.446.863.785 1.414 1.015.55.23 1.163.345 1.84.345 1.022 0 1.863-.228 2.525-.685.663-.457 1.072-1.124 1.23-2.003h.896a4.103 4.103 0 0 1-.528 1.506 3.885 3.885 0 0 1-1.004 1.117 4.43 4.43 0 0 1-1.392.69 5.891 5.891 0 0 1-1.705.239c-.835 0-1.586-.147-2.251-.438a4.78 4.78 0 0 1-1.7-1.236C.99 10.505.63 9.86.377 9.1.127 8.34 0 7.49 0 6.547c0-.935.126-1.777.378-2.525.252-.749.613-1.387 1.085-1.916.47-.529 1.04-.935 1.705-1.22C3.834.602 4.58.46 5.408.46c.568 0 1.11.083 1.624.248.514.166.977.398 1.387.696.41.3.755.655 1.036 1.069.28.414.475.869.582 1.365h-.895zM34.96.676l-4.63 11.819h-1.112L24.588.676h.96l4.23 10.74L34.01.675zM34.891 12.495L39.521.676h1.112l4.63 11.819h-.96l-4.231-10.74-4.231 10.74zM55.11 12.495H48.15V.676h.863v10.955h6.099zM66.002 12.495h-8.538V.676h8.246v.864h-7.383v4.37h6.919v.864h-6.919v4.857h7.675zM77.755 12.495h-1.133l-7.21-10.793v10.793h-.864V.676h1.188l7.156 10.772V.676h.863zM88.883 1.54H84.75v10.955h-.864V1.54h-4.09V.676h9.087z" fill="#AEAEAE"/><path fill="#EF7C4B" d="M40.503 7.207l.471.816-.471.817h-.944l-.47-.817.47-.816z"/></g></svg>