<svg width="142" height="96" viewBox="0 0 142 96" fill="none" xmlns="http://www.w3.org/2000/svg">
<path d="M111.51 94.56H40.0698V1.25H91.9698L111.51 20.79V94.56Z" fill="white"/>
<path d="M63.1301 20.1699H50.1401V28.4599H63.1301V20.1699Z" fill="#9CD7FF"/>
<path d="M62.4699 18.9199V14.5199C62.4699 11.2999 59.8499 8.68994 56.6399 8.68994C53.4199 8.68994 50.8099 11.3099 50.8099 14.5199V18.9199H48.8999V29.7099H64.3899V18.9199H62.4699ZM53.3099 14.5299C53.3099 12.6899 54.8099 11.1999 56.6399 11.1999C58.4799 11.1999 59.9699 12.6999 59.9699 14.5299V18.9299H53.2999V14.5299H53.3099ZM61.8899 27.2099H51.3899V21.4199H61.8799V27.2099H61.8899Z" fill="#0A7CED"/>
<path d="M57.8901 23.25H55.3901V25.23H57.8901V23.25Z" fill="#0A7CED"/>
<path d="M95.81 35.5601H49.23V38.0601H95.81V35.5601Z" fill="#D3D3D3"/>
<path d="M102.22 42.6499H49.23V45.1499H102.22V42.6499Z" fill="#D3D3D3"/>
<path d="M95.81 49.74H49.23V52.24H95.81V49.74Z" fill="#D3D3D3"/>
<path d="M102.22 56.8201H49.23V59.3201H102.22V56.8201Z" fill="#D3D3D3"/>
<path d="M95.81 63.9099H49.23V66.4099H95.81V63.9099Z" fill="#D3D3D3"/>
<path d="M82.9499 13.1799H71.1699V15.6799H82.9499V13.1799Z" fill="#D3D3D3"/>
<path d="M82.9499 20.26H71.1699V22.76H82.9499V20.26Z" fill="#D3D3D3"/>
<path d="M82.9499 27.3501H71.1699V29.8501H82.9499V27.3501Z" fill="#D3D3D3"/>
<path d="M95.8099 81.79H65.6699V84.29H95.8099V81.79Z" fill="#D3D3D3"/>
<path d="M110.49 20.6199H92L92.03 2.1499L110.49 20.6199Z" fill="#EFEFEF"/>
<path d="M40.0702 9.22998H30.7202V94.55H40.0702V9.22998Z" fill="#EFEFEF"/>
<path d="M112.76 93.34V20.27L92.49 0H38.82V7.98H29.47V93.34H0V95.84H141.61V93.34H112.76ZM93.02 4.07L108.76 19.81H93.02V4.07ZM31.97 10.48H38.82V93.3H31.97V10.48ZM110.26 93.31H41.32V7.98V2.5H90.52V22.3H110.26V93.31Z" fill="#D3D3D3"/>
<path d="M59.7001 94.62H27.3301V94.24C27.3301 92.04 29.1101 90.26 31.3101 90.26H55.7301C57.9301 90.26 59.7101 92.04 59.7101 94.24V94.62H59.7001Z" fill="#FFC9BB"/>
<path d="M60.9501 95.87H26.0801V94.24C26.0801 91.36 28.4301 89.01 31.3101 89.01H55.7301C58.6101 89.01 60.9601 91.36 60.9601 94.24V95.87H60.9501ZM28.7201 93.37H58.3101C57.9501 92.29 56.9201 91.51 55.7201 91.51H31.3101C30.1001 91.51 29.0801 92.29 28.7201 93.37Z" fill="#EF7C4B"/>
<path d="M69.03 93.3701H17.54V95.8701H69.03V93.3701Z" fill="#6B6B6B"/>
<path d="M46.4902 58.6001L58.8202 62.0401C58.8202 62.0401 57.6202 59.1801 60.5302 57.6001C57.9902 56.8601 47.2102 53.5701 47.2102 53.5701C47.2102 53.5701 50.1902 56.2101 46.4902 58.6001Z" fill="#F2F2F2"/>
<path d="M42.5199 72.21L54.7599 75.94C54.7599 75.94 52.2099 77.71 53.8099 80.6C51.2699 79.86 40.4199 76.83 40.4199 76.83C40.4199 76.83 44.3499 76.21 42.5199 72.21Z" fill="#F2F2F2"/>
<path d="M54.8398 83.8801C54.4098 85.3601 52.8598 86.2001 51.3898 85.7701L40.3198 82.5401C38.8398 82.1101 37.9998 80.5601 38.4298 79.0901C38.8598 77.6101 40.4098 76.7701 41.8798 77.2001L52.9498 80.4301C54.4298 80.8601 55.2698 82.4101 54.8398 83.8801Z" fill="#D3D3D3"/>
<path d="M63.0898 55.58C63.5198 54.1 62.6698 52.56 61.1998 52.13L50.1398 48.9C48.6598 48.47 47.1198 49.32 46.6898 50.79C46.2598 52.27 47.1098 53.81 48.5798 54.24L59.6498 57.47C61.1198 57.9 62.6598 57.05 63.0898 55.58Z" fill="#D3D3D3"/>
<path d="M105.49 80.05L58.6898 66.4L59.6098 63.26C59.7298 62.84 59.4898 62.4 59.0698 62.27L46.4898 58.6C46.0698 58.48 45.6298 58.72 45.4998 59.14L41.9298 71.4C41.8098 71.82 42.0498 72.26 42.4698 72.39L55.0398 76.06C55.4598 76.18 55.8998 75.94 56.0298 75.52L56.9498 72.38L103.75 86.03C105.25 86.47 106.82 85.61 107.25 84.11L107.41 83.56C107.85 82.06 106.99 80.49 105.49 80.05Z" fill="#D3D3D3"/>
<path d="M108.27 80.7999C107.75 79.8499 106.88 79.1499 105.84 78.8499L60.2402 65.5499L60.8102 63.6099C60.9602 63.0899 60.9002 62.5299 60.6402 62.0499C60.5402 61.8699 60.4202 61.7199 60.2802 61.5799C59.8802 61.1499 59.7302 60.5399 59.9002 59.9799C60.0802 59.3699 60.5702 58.9199 61.1902 58.7999L61.1802 58.7499C62.6202 58.4699 63.8602 57.4299 64.3002 55.9299C64.9202 53.7899 63.6902 51.5499 61.5602 50.9299L50.4902 47.6999C48.3502 47.0799 46.1102 48.3099 45.4902 50.4399C45.0502 51.9599 45.5502 53.5199 46.6402 54.5299L46.6302 54.5399C47.0602 54.9699 47.2202 55.6099 47.0502 56.1899C46.8702 56.7999 46.3802 57.2499 45.7602 57.3699V57.3899C45.6002 57.4299 45.4402 57.4899 45.2902 57.5699C44.8102 57.8299 44.4602 58.2699 44.3102 58.7899L40.7302 71.0499C40.5802 71.5699 40.6402 72.1299 40.9002 72.6099C40.9902 72.7699 41.1002 72.8999 41.2102 73.0299L41.1902 73.0599C41.6502 73.4999 41.8202 74.1399 41.6502 74.7499C41.4802 75.3399 41.0002 75.7799 40.4102 75.9199V75.9299C39.9802 76.0099 39.5602 76.1299 39.1702 76.3499C38.2302 76.8699 37.5402 77.7199 37.2402 78.7599C36.6202 80.8999 37.8502 83.1399 39.9802 83.7599L51.0402 86.9899C51.4202 87.0999 51.8002 87.1499 52.1702 87.1499C53.9202 87.1499 55.5302 85.9999 56.0402 84.2499C56.4802 82.7499 55.9902 81.2099 54.9202 80.1999L54.9602 80.1599C54.5002 79.7199 54.3302 79.0799 54.5002 78.4699C54.6702 77.8799 55.1502 77.4399 55.7402 77.2999L55.7302 77.2799C56.4202 77.1099 57.0002 76.6099 57.2102 75.8799L57.7802 73.9399L103.38 87.2399C103.76 87.3499 104.14 87.3999 104.52 87.3999C106.28 87.3999 107.91 86.2399 108.43 84.4699L108.59 83.9199C108.92 82.8599 108.8 81.7599 108.27 80.7999ZM49.4502 56.8899C49.5502 56.5499 49.6002 56.1999 49.6102 55.8499L57.9302 58.2799C57.7402 58.5899 57.5902 58.9299 57.4802 59.2799C57.3702 59.6699 57.3202 60.0699 57.3202 60.4599L48.9202 58.0099C49.1502 57.6699 49.3302 57.2899 49.4502 56.8899ZM47.8802 51.1399C47.9902 50.7499 48.2602 50.4199 48.6102 50.2199C48.8402 50.0899 49.0902 50.0299 49.3402 50.0299C49.4802 50.0299 49.6302 50.0499 49.7702 50.0899L60.8402 53.3199C61.2302 53.4299 61.5602 53.6999 61.7602 54.0499C61.9602 54.4099 62.0002 54.8199 61.8902 55.2199C61.7802 55.6099 61.5102 55.9399 61.1602 56.1399C60.8002 56.3399 60.3902 56.3799 59.9902 56.2699L48.9202 53.0399C48.5302 52.9299 48.2002 52.6599 48.0002 52.3099C47.8102 51.9499 47.7702 51.5299 47.8802 51.1399ZM52.1102 77.7499C52.0102 78.1099 51.9502 78.4699 51.9502 78.8399L43.6202 76.4099C43.8002 76.1099 43.9402 75.7899 44.0402 75.4399C44.1602 75.0299 44.2102 74.6099 44.2002 74.1999L52.6102 76.6499C52.4002 76.9899 52.2302 77.3499 52.1102 77.7499ZM53.6402 83.5299C53.5302 83.9199 53.2602 84.2499 52.9102 84.4499C52.5502 84.6499 52.1402 84.6899 51.7402 84.5799L40.6802 81.3499C40.2902 81.2399 39.9602 80.9699 39.7602 80.6199C39.5602 80.2599 39.5202 79.8499 39.6302 79.4499C39.7402 79.0599 40.0102 78.7299 40.3602 78.5299C40.5902 78.3999 40.8402 78.3399 41.1002 78.3399C41.2402 78.3399 41.3902 78.3599 41.5302 78.3999L52.5902 81.6299C52.9802 81.7399 53.3102 82.0099 53.5102 82.3599C53.7102 82.7199 53.7602 83.1399 53.6402 83.5299ZM54.9602 74.7299L43.2602 71.3199L46.5802 59.9299L58.2802 63.3399L54.9602 74.7299ZM106.21 83.1999L106.05 83.7499C105.81 84.5799 104.93 85.0599 104.1 84.8199L58.5002 71.5199L59.5402 67.9499L105.14 81.2499C105.54 81.3699 105.88 81.6399 106.08 81.9999C106.28 82.3799 106.33 82.7999 106.21 83.1999Z" fill="#6B6B6B"/>
<path d="M29.9901 82.9002C29.8001 82.9002 29.6101 82.8602 29.4301 82.7702L3.40008 69.7202C2.78008 69.4102 2.53008 68.6602 2.84008 68.0402C3.15008 67.4202 3.90008 67.1702 4.52008 67.4802L30.5501 80.5202C31.1701 80.8302 31.4201 81.5802 31.1101 82.2002C30.8901 82.6502 30.4401 82.9002 29.9901 82.9002Z" fill="#6B6B6B"/>
<path d="M29.4203 87.53H12.0103C11.3203 87.53 10.7603 86.97 10.7603 86.28C10.7603 85.59 11.3203 85.03 12.0103 85.03H29.4203C30.1103 85.03 30.6703 85.59 30.6703 86.28C30.6703 86.97 30.1103 87.53 29.4203 87.53Z" fill="#6B6B6B"/>
<path d="M32.7603 78.8301C32.3403 78.8301 31.9303 78.6201 31.7003 78.2401L23.0703 64.3201C22.7103 63.7301 22.8903 62.9601 23.4703 62.6001C24.0603 62.2401 24.8303 62.4201 25.1903 63.0001L33.8203 76.9201C34.1803 77.5101 34.0003 78.2801 33.4203 78.6401C33.2103 78.7701 32.9903 78.8301 32.7603 78.8301Z" fill="#6B6B6B"/>
</svg>
