<svg width="92" height="57" xmlns="http://www.w3.org/2000/svg" xmlns:xlink="http://www.w3.org/1999/xlink"><defs><path d="M14 0h64a4 4 0 0 1 4 4v47H10V4a4 4 0 0 1 4-4z" id="a"/><path d="M0 50h92v3a4 4 0 0 1-4 4H4a4 4 0 0 1-4-4v-3z" id="b"/><path d="M30 50h32a4 4 0 0 1-4 4H34a4 4 0 0 1-4-4z" id="c"/></defs><g fill="none" fill-rule="evenodd"><use fill="#F0F0F0" xlink:href="#a"/><path stroke="#979797" d="M10.5 50.5h71V4A3.5 3.5 0 0 0 78 .5H14A3.5 3.5 0 0 0 10.5 4v46.5z"/><path fill="#414141" d="M16 7h60v38H16z"/><use fill="#D8D8D8" xlink:href="#b"/><path stroke="#979797" d="M.5 50.5V53A3.5 3.5 0 0 0 4 56.5h84a3.5 3.5 0 0 0 3.5-3.5v-2.5H.5z"/><g><use fill="#EAEAEA" xlink:href="#c"/><path stroke="#979797" d="M30.535 50.5a3.5 3.5 0 0 0 3.465 3h24a3.5 3.5 0 0 0 3.465-3h-30.93z"/></g><path d="M32.396 17.542v2.74l-9.72 4.58v-2.96l6.42-3.04-6.42-2.96v-2.94l9.72 4.58zm2.16 11.9v-1.74h11.72v1.74h-11.72z" fill="#FFF"/></g></svg>