<svg width="236" height="103" viewBox="0 0 236 103" fill="none" xmlns="http://www.w3.org/2000/svg">
<path d="M14.1852 0H0.000211572L0 89.2064H14.185C16.9465 89.2064 19.185 86.9679 19.185 84.2064L19.1852 5.00001C19.1852 2.23858 16.9466 0 14.1852 0Z" transform="translate(200.224 97.5908) rotate(180)" fill="#FCFCFC"/>
<rect width="30.3497" height="4.0105" rx="2" transform="translate(195.455 87.2936)" fill="#F2F2F2"/>
<circle cx="2.6014" cy="2.6014" r="2.6014" transform="translate(187.649 86.8602)" fill="#F2F2F2"/>
<rect width="39.021" height="4.0105" rx="2" transform="translate(195.455 78.9475)" fill="#DBDBDB"/>
<circle cx="2.6014" cy="2.6014" r="2.6014" transform="translate(187.649 78.5142)" fill="#DBDBDB"/>
<rect width="30.3497" height="4.0105" rx="2" transform="translate(195.455 70.6019)" fill="#F2F2F2"/>
<circle cx="2.6014" cy="2.6014" r="2.6014" transform="translate(187.649 70.168)" fill="#F2F2F2"/>
<rect width="39.021" height="4.0105" rx="2" transform="translate(195.455 62.2557)" fill="#DBDBDB"/>
<circle cx="2.6014" cy="2.6014" r="2.6014" transform="translate(187.649 61.8213)" fill="#DBDBDB"/>
<rect width="30.3497" height="4.0105" rx="2" transform="translate(195.455 53.9097)" fill="#F2F2F2"/>
<circle cx="2.6014" cy="2.6014" r="2.6014" transform="translate(187.649 53.4746)" fill="#F2F2F2"/>
<rect width="39.021" height="4.0105" rx="2" transform="translate(195.455 45.5626)" fill="#F2F2F2"/>
<circle cx="2.6014" cy="2.6014" r="2.6014" transform="translate(187.649 45.1295)" fill="#F2F2F2"/>
<rect width="30.3497" height="4.0105" rx="2" transform="translate(195.455 37.2161)" fill="#F2F2F2"/>
<circle cx="2.6014" cy="2.6014" r="2.6014" transform="translate(187.649 36.7839)" fill="#F2F2F2"/>
<rect width="39.021" height="4.0105" rx="2" transform="translate(195.455 28.8705)" fill="#F2F2F2"/>
<circle cx="2.6014" cy="2.6014" r="2.6014" transform="translate(187.649 28.4374)" fill="#F2F2F2"/>
<rect x="1" y="1" width="55.4476" height="49.5945" rx="4" transform="translate(89.4473 30.4961)" fill="#FAFAFA" stroke="#DEDEDE" stroke-width="2"/>
<rect x="1" y="1" width="6.67134" height="6.67134" rx="1" transform="translate(94.6504 35.6992)" stroke="#DBDBDB" stroke-width="2"/>
<rect x="1" y="1" width="31.4931" height="6.67134" rx="1" transform="translate(106.791 35.699)" stroke="#DBDBDB" stroke-width="2"/>
<rect width="27.9651" height="3.46854" rx="1.73427" transform="translate(103.322 71.4695)" fill="#DBDBDB"/>
<circle cx="2.6014" cy="2.6014" r="2.6014" transform="translate(95.5176 70.6019)" fill="#DBDBDB"/>
<rect width="36.6364" height="3.46854" rx="1.73427" transform="translate(103.322 64.3153)" fill="#DBDBDB"/>
<circle cx="2.6014" cy="2.6014" r="2.6014" transform="translate(95.5176 63.448)" fill="#DBDBDB"/>
<rect width="27.9651" height="3.46854" rx="1.73427" transform="translate(103.322 57.1616)" fill="#DBDBDB"/>
<circle cx="2.6014" cy="2.6014" r="2.6014" transform="translate(95.5176 56.2939)" fill="#DBDBDB"/>
<rect width="36.6364" height="3.46854" rx="1.73427" transform="translate(103.322 50.0076)" fill="#DBDBDB"/>
<circle cx="2.6014" cy="2.6014" r="2.6014" transform="translate(95.5176 49.1405)" fill="#DBDBDB"/>
<path d="M14.185 0H0V61.7833H14.185C16.9465 61.7833 19.185 59.5447 19.185 56.7833V5C19.185 2.23858 16.9465 0 14.185 0Z" transform="translate(35.5771 37.0001)" fill="#FCFCFC"/>
<path d="M19.185 0H0V23.7833H14.185C16.9465 23.7833 19.185 21.5447 19.185 18.7833V0Z" transform="translate(35.5771)" fill="#FCFCFC"/>
<path d="M0 0H26.1081C28.8695 0 31.1081 2.23858 31.1081 5V56.7833C31.1081 59.5447 28.8695 61.7833 26.1081 61.7833H0" transform="translate(23.6543 37.0001)" stroke="#F2F2F2" stroke-width="2"/>
<path d="M30.7833 0V14.0769C30.7833 16.8384 28.5447 19.0769 25.7833 19.0769H0" transform="translate(23.9785 4.51758)" stroke="#F2F2F2" stroke-width="2"/>
<rect x="1" y="1" width="6.67134" height="6.67134" rx="1" transform="translate(1 43.0692)" stroke="#DBDBDB" stroke-width="2"/>
<rect x="1" y="1" width="32.6854" height="6.67134" rx="1" transform="translate(14.0054 43.0691)" stroke="#DBDBDB" stroke-width="2"/>
<path d="M37.8882 0H0V4.33567H37.8882C38.9927 4.33567 39.8882 3.44024 39.8882 2.33567V2C39.8882 0.89543 38.9927 0 37.8882 0Z" transform="translate(1.32422 87.2938)" fill="#F2F2F2"/>
<path d="M42.9826 0H0V4.33567H42.9826C44.0872 4.33567 44.9826 3.44024 44.9826 2.33567V2C44.9826 0.89543 44.0872 0 42.9826 0Z" transform="translate(1.32422 77.7555)" fill="#F2F2F2"/>
<path d="M37.8882 0H0V4.33567H37.8882C38.9927 4.33567 39.8882 3.44024 39.8882 2.33567V2C39.8882 0.89543 38.9927 0 37.8882 0Z" transform="translate(1.32422 68.2172)" fill="#F2F2F2"/>
<path d="M42.9826 0H0V4.33567H42.9826C44.0872 4.33567 44.9826 3.44024 44.9826 2.33567V2C44.9826 0.89543 44.0872 0 42.9826 0Z" transform="translate(1.32422 58.6788)" fill="#F2F2F2"/>
<rect x="1" y="1" width="6.67134" height="6.67134" rx="1" transform="translate(188.192 13.2627)" stroke="#F2F2F2" stroke-width="2"/>
<rect x="1" y="1" width="32.6854" height="6.67134" rx="1" transform="translate(201.199 13.2627)" stroke="#F2F2F2" stroke-width="2"/>
<path d="M7.86974e-06 0L28.1679 8.85218e-07C30.9293 9.71999e-07 33.1679 2.23858 33.1679 5L33.1679 85.0194C33.1679 87.7808 30.9293 90.0194 28.1679 90.0194H0" transform="translate(214.314 97.5908) rotate(180)" stroke="#F2F2F2" stroke-width="2"/>
<path d="M36.6959 0H0V4.33567H36.6959C37.8004 4.33567 38.6959 3.44024 38.6959 2.33567V2C38.6959 0.89543 37.8004 0 36.6959 0Z" transform="translate(0.862793 2.7832)" fill="#F2F2F2"/>
<path d="M45.3672 0H0V4.33567H45.3672C46.4718 4.33567 47.3672 3.44024 47.3672 2.33567V2C47.3672 0.89543 46.4718 0 45.3672 0Z" transform="translate(1 12.3213)" fill="#F2F2F2"/>
<path d="M0 0H13.6334C15.7312 0 17.6059 1.30951 18.3279 3.27915L30.9903 37.8227C31.7123 39.7923 33.5871 41.1018 35.6849 41.1018H48.5595" transform="translate(139.308 40.0344)" stroke="#DBDBDB" stroke-width="2"/>
<path d="M28.7345 17.05H9.7982C7.70692 17.05 5.83656 15.7485 5.10982 13.7876L0 0" transform="translate(159.22 47.5139)" stroke="#DBDBDB" stroke-width="2"/>
<path d="M0 0H13.3051C15.0397 0 16.6504 0.899066 17.5609 2.37554L30.6193 23.5511C31.5298 25.0276 33.1406 25.9267 34.8752 25.9267H47.2591" transform="translate(48.6914 47.2765)" stroke="#DBDBDB" stroke-width="2"/>
<path d="M29.2551 8.39973H8.19135C6.50265 8.39973 4.92804 7.54732 4.00479 6.13335L0 0" transform="translate(66.6963 50.4951)" stroke="#DBDBDB" stroke-width="2"/>
<path d="M21.7005 24.9556L13.4974 22.5811V31H10.8503H8.20307V22.5811L3.7558e-10 24.9556L10.8503 -2.04862e-09L21.7005 24.9556Z" transform="translate(110.177 75.4458) rotate(-42.3799)" fill="#EBEBEB"/>
<path d="M21.7005 24.9556L13.4974 22.5811V31H10.8503H8.20307V22.5811L3.7558e-10 24.9556L10.8503 -2.04862e-09L21.7005 24.9556Z" transform="translate(107.177 72.4457) rotate(-42.3799)" fill="white" stroke="#A1A1A1" stroke-width="2" stroke-miterlimit="10"/>
</svg>
