<svg width="101" height="101" xmlns="http://www.w3.org/2000/svg" xmlns:xlink="http://www.w3.org/1999/xlink"><defs><path id="a" d="M27.627.04v5.459H.171V.039h27.456z"/></defs><g fill="none" fill-rule="evenodd"><g transform="translate(73.168 47.8)"><mask id="b" fill="#fff"><use xlink:href="#a"/></mask><path d="M24.898 5.499H2.9a2.73 2.73 0 1 1 0-5.46h21.998a2.73 2.73 0 0 1 0 5.46" fill="#08A6FF" opacity=".78" mask="url(#b)"/></g><path d="M24.727 53.298H2.73a2.73 2.73 0 1 1 0-5.459h21.997a2.73 2.73 0 0 1 0 5.46" fill="#08A6FF" opacity=".32"/><path d="M93.044 29.099l-19.05 10.998a2.73 2.73 0 0 1-2.73-4.728l19.05-10.998a2.73 2.73 0 0 1 2.73 4.728" fill="#08A6FF" opacity=".85"/><path d="M29.53 65.768L10.48 76.767a2.73 2.73 0 1 1-2.73-4.728L26.802 61.04a2.73 2.73 0 1 1 2.73 4.728" fill="#08A6FF" opacity=".4"/><path d="M76.596 10.652l-10.999 19.05a2.73 2.73 0 0 1-4.727-2.73l10.998-19.05a2.73 2.73 0 0 1 4.728 2.73" fill="#08A6FF" opacity=".92"/><path d="M39.926 74.165l-10.998 19.05a2.73 2.73 0 0 1-4.728-2.73l10.998-19.05a2.73 2.73 0 1 1 4.728 2.73" fill="#08A6FF" opacity=".48"/><path d="M53.127 2.9v21.998a2.73 2.73 0 1 1-5.459 0V2.9a2.73 2.73 0 0 1 5.46 0" fill="#08A6FF"/><path d="M53.127 76.24v21.997a2.73 2.73 0 1 1-5.459 0V76.24a2.73 2.73 0 0 1 5.46 0" fill="#08A6FF" opacity=".55"/><path d="M28.928 7.922l10.998 19.05a2.73 2.73 0 1 1-4.728 2.73L24.2 10.652a2.73 2.73 0 1 1 4.728-2.73" fill="#08A6FF" opacity=".1"/><path d="M65.597 71.436l10.999 19.05a2.73 2.73 0 1 1-4.728 2.73L60.87 74.165a2.73 2.73 0 1 1 4.727-2.73" fill="#08A6FF" opacity=".62"/><path d="M10.48 24.37l19.05 11a2.73 2.73 0 0 1-2.729 4.727L7.751 29.098a2.73 2.73 0 1 1 2.73-4.727" fill="#08A6FF" opacity=".25"/><path d="M73.994 61.04l19.05 10.999a2.73 2.73 0 0 1-2.73 4.728l-19.05-10.999a2.73 2.73 0 1 1 2.73-4.728" fill="#08A6FF" opacity=".7"/></g></svg>