<svg width="108" height="104" viewBox="0 0 108 104" fill="none" xmlns="http://www.w3.org/2000/svg">
<path d="M69.96 1.25H1.25V82.01H69.96V1.25Z" fill="white"/>
<path d="M76.8301 7.30005H8.12012V88.06H76.8301V7.30005Z" fill="white"/>
<path d="M91.29 94.3801H15.48V13.6001H72.07L91.29 32.8201V94.3801Z" fill="white"/>
<path d="M38.1701 32.22H25.3901V40.38H38.1701V32.22Z" fill="#9CD7FF"/>
<path d="M37.5499 30.9699V25.6599C37.5499 23.4799 34.9699 20.8999 31.7899 20.8999C28.6099 20.8999 26.0299 23.4799 26.0299 26.6599V30.9699H24.1499V41.6299H39.4299V30.9699H37.5499ZM28.5199 26.6699C28.5199 24.8699 29.9799 23.4099 31.7799 23.4099C33.5799 23.4099 35.0399 24.8699 35.0399 26.6699V30.9799H28.5199V26.6699ZM36.9299 39.1299H26.6399V33.4699H36.9199V39.1299H36.9299Z" fill="#0A7CED"/>
<path d="M33.0298 35.25H30.5298V37.2H33.0298V35.25Z" fill="#0A7CED"/>
<path d="M75.8402 47.3501H24.4902V49.8501H75.8402V47.3501Z" fill="#D3D3D3"/>
<path d="M82.1502 54.3201H24.4902V56.8201H82.1502V54.3201Z" fill="#D3D3D3"/>
<path d="M75.8402 61.29H24.4902V63.79H75.8402V61.29Z" fill="#D3D3D3"/>
<path d="M82.1502 68.26H24.4902V70.76H82.1502V68.26Z" fill="#D3D3D3"/>
<path d="M75.8402 75.24H24.4902V77.74H75.8402V75.24Z" fill="#D3D3D3"/>
<path d="M63.1901 25.3201H46.0801V27.8201H63.1901V25.3201Z" fill="#D3D3D3"/>
<path d="M63.1901 32.29H46.0801V34.79H63.1901V32.29Z" fill="#D3D3D3"/>
<path d="M63.1901 39.26H46.0801V41.76H63.1901V39.26Z" fill="#D3D3D3"/>
<path d="M89.2999 32.66H72.0898L72.1199 15.47L89.2999 32.66Z" fill="#EFEFEF"/>
<path d="M78.08 17.85V6.05H71.21V0H0V83.26H6.87V89.31H14.23V95.63H92.54V32.31L78.08 17.85ZM88.54 31.84H73.12V16.42L88.54 31.84ZM6.87 80.76H2.5V2.5H68.71V6.05H6.87V80.76ZM9.37 86.81V8.55H75.58V15.35L72.58 12.35H14.23V86.81H9.37ZM90.04 93.13H16.73V14.85H70.62V34.34H90.04V93.13Z" fill="#D3D3D3"/>
<path d="M74.8799 66.45H60.1499V79.06H74.8799V66.45Z" fill="#D3D3D3"/>
<path d="M60.1702 61.59C60.0702 58.16 58.2102 55.06 54.7902 53.55C50.3602 51.59 45.8802 53.57 44.9002 55.89L30.2002 80.74C30.2002 80.74 34.2402 70.76 45.8802 70.96C57.5102 71.16 60.1702 84.78 60.1702 84.78V61.59V61.59Z" fill="#D3D3D3"/>
<path d="M44.5898 102.03C53.1833 102.03 60.1498 95.0635 60.1498 86.4699C60.1498 77.8764 53.1833 70.9099 44.5898 70.9099C35.9962 70.9099 29.0298 77.8764 29.0298 86.4699C29.0298 95.0635 35.9962 102.03 44.5898 102.03Z" fill="#EFEFEF"/>
<path d="M44.5898 96.2599C49.9967 96.2599 54.3798 91.8768 54.3798 86.4699C54.3798 81.0631 49.9967 76.6799 44.5898 76.6799C39.1829 76.6799 34.7998 81.0631 34.7998 86.4699C34.7998 91.8768 39.1829 96.2599 44.5898 96.2599Z" fill="#88EDD9"/>
<path d="M44.5898 97.5099C38.5098 97.5099 33.5498 92.5599 33.5498 86.4699C33.5498 80.3799 38.4998 75.4299 44.5898 75.4299C50.6798 75.4299 55.6298 80.3799 55.6298 86.4699C55.6298 92.5599 50.6798 97.5099 44.5898 97.5099ZM44.5898 77.9399C39.8798 77.9399 36.0498 81.7699 36.0498 86.4799C36.0498 91.1899 39.8798 95.0199 44.5898 95.0199C49.2998 95.0199 53.1298 91.1899 53.1298 86.4799C53.1298 81.7699 49.2998 77.9399 44.5898 77.9399Z" fill="#0EAF90"/>
<path d="M74.8599 61.59C74.9599 58.16 76.8199 55.06 80.2399 53.55C84.6699 51.59 89.1499 53.57 90.1299 55.89L104.83 80.74C104.83 80.74 100.79 70.76 89.1499 70.96C77.5199 71.16 74.8599 84.78 74.8599 84.78V61.59V61.59Z" fill="#D3D3D3"/>
<path d="M90.4501 102.03C99.0437 102.03 106.01 95.0635 106.01 86.4699C106.01 77.8764 99.0437 70.9099 90.4501 70.9099C81.8566 70.9099 74.8901 77.8764 74.8901 86.4699C74.8901 95.0635 81.8566 102.03 90.4501 102.03Z" fill="#EFEFEF"/>
<path d="M90.4501 96.2599C95.857 96.2599 100.24 91.8768 100.24 86.4699C100.24 81.0631 95.857 76.6799 90.4501 76.6799C85.0433 76.6799 80.6602 81.0631 80.6602 86.4699C80.6602 91.8768 85.0433 96.2599 90.4501 96.2599Z" fill="#88EDD9"/>
<path d="M90.4501 97.5099C84.3701 97.5099 79.4102 92.5599 79.4102 86.4699C79.4102 80.3799 84.3601 75.4299 90.4501 75.4299C96.5401 75.4299 101.49 80.3799 101.49 86.4699C101.49 92.5599 96.5301 97.5099 90.4501 97.5099ZM90.4501 77.9399C85.7401 77.9399 81.9102 81.7699 81.9102 86.4799C81.9102 91.1899 85.7401 95.0199 90.4501 95.0199C95.1601 95.0199 98.9902 91.1899 98.9902 86.4799C98.9902 81.7699 95.1501 77.9399 90.4501 77.9399Z" fill="#0EAF90"/>
<path d="M105.42 78.8699L105.44 78.8599L105.34 78.6899C105.04 78.1099 104.71 77.5499 104.34 77.0199L92.4398 57.0999C90.7298 53.7299 87.3298 51.6399 83.5598 51.6399C78.0698 51.6399 73.6098 56.0999 73.6098 61.5899V65.2099H61.4098V61.5899C61.4098 56.0999 56.9498 51.6399 51.4598 51.6399C47.6898 51.6399 44.2898 53.7299 42.6198 57.0199L30.6998 77.0099C30.3298 77.5399 30.0098 78.0999 29.6998 78.6799L29.5998 78.8499L29.6198 78.8599C28.4498 81.1499 27.7798 83.7299 27.7798 86.4699C27.7798 95.7399 35.3198 103.28 44.5898 103.28C53.8598 103.28 61.3998 95.7399 61.3998 86.4699V80.3099H73.6198V86.4699C73.6198 95.7399 81.1598 103.28 90.4298 103.28C99.6998 103.28 107.24 95.7399 107.24 86.4699C107.26 83.7299 106.59 81.1499 105.42 78.8699ZM44.5898 100.79C36.6998 100.79 30.2798 94.3699 30.2798 86.4799C30.2798 84.1099 30.8698 81.8799 31.8898 79.8999L32.7998 78.3799C35.3798 74.6299 39.6998 72.1599 44.5898 72.1599C52.4798 72.1599 58.8998 78.5799 58.8998 86.4699C58.8998 94.3699 52.4798 100.79 44.5898 100.79ZM58.9098 77.7099C55.9498 72.8899 50.6498 69.6599 44.5898 69.6599C41.8098 69.6599 39.1898 70.3499 36.8698 71.5499L44.8198 58.2299C46.0998 55.7099 48.6498 54.1399 51.4698 54.1399C55.5798 54.1399 58.9198 57.4799 58.9198 61.5899L58.9098 77.7099ZM61.4098 77.8199L61.4198 67.7099H73.6198L73.6298 77.8199H61.4098ZM76.1098 61.5899C76.1098 57.4799 79.4498 54.1399 83.5598 54.1399C86.3798 54.1399 88.9298 55.7099 90.2498 58.2999L98.1598 71.5499C95.8498 70.3499 93.2298 69.6599 90.4398 69.6599C84.3798 69.6599 79.0798 72.8899 76.1198 77.7099L76.1098 61.5899ZM90.4498 100.79C82.5598 100.79 76.1398 94.3699 76.1398 86.4799C76.1398 78.5899 82.5598 72.1699 90.4498 72.1699C95.3398 72.1699 99.6598 74.6399 102.24 78.3899L103.15 79.9099C104.17 81.8799 104.76 84.1099 104.76 86.4899C104.76 94.3699 98.3398 100.79 90.4498 100.79Z" fill="#6B6B6B"/>
</svg>
