<svg width="72" height="60" viewBox="0 0 72 60" fill="none" xmlns="http://www.w3.org/2000/svg">
<path d="M71.72 28.07C71.72 27.78 71.53 27.53 71.25 27.45C69.98 27.1 68.71 26.76 67.44 26.39C67.3 26.35 67.17 26.08 67.13 25.9C66.97 25.11 66.88 24.31 66.71 23.52C66.63 23.16 66.71 22.97 67 22.75C67.93 22.06 68.82 21.32 69.75 20.63C70.05 20.4 70.17 20.2 70.01 19.82C69.61 18.85 69.25 17.87 68.89 16.89C68.77 16.57 68.63 16.46 68.27 16.51C67.06 16.68 65.84 16.82 64.63 16.93C64.43 16.95 64.13 16.81 64.01 16.65C63.5 15.99 63.03 15.31 62.59 14.61C62.47 14.42 62.44 14.07 62.53 13.88C63.06 12.83 63.63 11.79 64.21 10.77C64.45 10.36 64.34 10.14 63.98 9.77C63.41 9.18 62.83 8.56 62.24 7.91C61.85 7.48 61.66 7.3 61.18 7.58C60.12 8.19 59.03 8.74 57.96 9.33C57.64 9.51 57.47 9.47 57.18 9.23C56.65 8.79 56.07 8.38 55.45 8.08C54.99 7.85 54.87 7.6 54.94 7.13C55.1 5.98 55.19 4.83 55.34 3.68C55.4 3.19 55.14 3.04 54.64 2.82L52.45 1.89C51.98 1.66 51.69 1.57 51.38 1.95C50.59 2.91 49.76 3.84 48.96 4.8C48.73 5.08 48.53 5.11 48.18 5.01C47.43 4.81 46.64 4.72 45.88 4.54C45.69 4.5 45.44 4.33 45.39 4.16C45.1 3.1 44.62 1.22 44.42 0.42C44.24 0.28 44.12 0.18 43.94 0.04L40.67 0C40.49 0.14 40.36 0.23 40.18 0.37C39.95 1.18 39.4 3.12 39.06 4.2C39.01 4.36 38.75 4.53 38.56 4.57C37.74 4.77 36.9 4.94 36.07 5.07C35.88 5.1 35.59 4.96 35.46 4.8C34.71 3.85 33.99 2.88 33.24 1.89C32.96 1.81 32.77 1.76 32.49 1.68C31.48 2.1 30.48 2.52 29.5 2.96C29.22 3.08 29.19 3.4 29.2 3.62C29.25 4.86 29.37 6.1 29.41 7.34C29.42 7.56 29.24 7.84 29.06 7.99C28.53 8.41 27.94 8.75 27.42 9.17C27.13 9.4 26.93 9.42 26.61 9.25C25.55 8.67 24.48 8.1 23.46 7.56C23.18 7.6 22.98 7.63 22.7 7.66C21.85 8.47 21.02 9.25 20.21 10.06C20.12 10.15 20.17 10.47 20.26 10.63C20.84 11.68 21.45 12.72 22.06 13.75C22.24 14.06 22.22 14.27 22 14.57C21.63 15.15 21.26 15.72 20.89 16.3C20.68 16.72 20.47 16.88 20.02 16.82C18.83 16.66 17.63 16.55 16.45 16.4C16 16.34 15.94 16.52 15.68 17.14C15.39 17.82 15.03 18.53 14.7 19.31C14.44 19.93 14.29 20.1 14.64 20.39C15.58 21.17 16.53 21.95 17.43 22.76C17.61 22.92 17.7 23.27 17.68 23.52C17.65 23.83 17.41 24.94 17.25 25.62C17.17 25.96 16.92 26.23 16.58 26.33C15.66 26.6 13.81 27.13 13.15 27.33C12.91 27.4 12.74 27.63 12.74 27.88V30.97C12.74 31.22 12.9 31.44 13.14 31.52C14.4 31.92 15.66 32.3 16.91 32.74C17.1 32.81 17.28 33.11 17.33 33.34C17.5 34.06 17.56 34.8 17.75 35.52C17.85 35.9 17.77 36.12 17.49 36.35C16.6 37.09 15.72 37.84 14.81 38.62C14.59 38.81 14.51 39.11 14.6 39.38C14.94 40.35 15.27 41.33 15.65 42.3C15.7 42.44 16.01 42.56 16.2 42.55C17.4 42.48 18.6 42.39 19.79 42.28C20.23 42.24 20.48 42.34 20.69 42.79C21 43.43 21.48 43.99 21.84 44.61C21.95 44.81 21.99 45.16 21.9 45.35C21.38 46.38 20.81 47.39 20.23 48.39C20 48.78 20.1 49.01 20.53 49.35C21.14 49.97 21.74 50.58 22.35 51.2C22.68 51.62 22.89 51.72 23.29 51.51C24.32 50.94 25.38 50.43 26.42 49.87C26.78 49.68 27.03 49.63 27.39 49.94C27.89 50.39 28.47 50.76 29.05 51.1C29.49 51.35 29.55 51.65 29.48 52.12C29.31 53.2 29.2 54.28 29.07 55.38C29.03 55.69 29.2 55.99 29.49 56.12C30.41 56.52 31.7 57.07 32.35 57.35C32.59 57.45 32.88 57.38 33.05 57.18C33.58 56.53 34.71 55.13 35.24 54.44C35.51 54.09 35.75 54.03 36.17 54.14C36.89 54.27 37.61 54.41 38.34 54.54C38.89 54.58 39.05 54.82 39.15 55.29C39.37 56.36 39.66 57.41 39.88 58.48C39.97 58.9 40.12 59.06 40.56 59.05C41.6 59.02 42.64 59.04 43.72 59.04C43.97 59.04 44.19 58.88 44.27 58.64C44.64 57.46 45.03 56.29 45.37 55.11C45.51 54.63 45.73 54.47 46.23 54.45C46.91 54.36 47.58 54.24 48.23 54.14C48.62 54.05 48.83 54.16 49.06 54.45C49.76 55.37 50.5 56.27 51.19 57.19C51.42 57.5 51.63 57.6 52.01 57.43C52.94 57.05 53.88 56.68 54.81 56.3C55.24 56.15 55.3 55.94 55.26 55.54C55.16 54.63 55 52.8 54.92 51.95C54.9 51.67 55.02 51.41 55.25 51.25C55.68 50.96 56.73 50.28 57.26 49.92C57.47 49.78 57.73 49.78 57.94 49.9C58.61 50.28 60.08 51.11 60.94 51.63C61.34 51.87 61.6 51.89 61.94 51.52C62.6 50.8 63.29 50.12 63.99 49.41C64.23 49.17 64.28 48.8 64.12 48.5C63.57 47.47 63.02 46.43 62.45 45.4C62.24 45.03 62.28 44.81 62.6 44.45C62.95 43.95 63.3 43.45 63.65 42.95C63.89 42.49 64.07 42.3 64.53 42.36C65.72 42.51 66.92 42.59 68.11 42.74C68.49 42.79 68.68 42.69 68.83 42.3C69.2 41.46 69.56 40.62 69.93 39.78C70.14 39.4 70.13 39.18 69.83 38.93C69.04 38.26 67.41 36.83 66.84 36.33C66.71 36.22 66.66 36.05 66.69 35.89L67.18 33.25C67.21 33.07 67.34 32.93 67.51 32.88C68.2 32.68 70.04 32.15 71.26 31.81C71.54 31.73 71.73 31.48 71.73 31.19L71.72 28.07ZM42.08 50.03C30.71 49.97 21.66 40.71 21.75 29.24C21.83 18.07 31.1 9 42.37 9.07C47.02 9.1 51.3 10.71 54.73 13.36L48.09 20C46.39 18.96 44.4 18.35 42.27 18.35C41.49 18.35 40.72 18.43 39.99 18.59L47.11 25.71C49.22 27.82 49.22 31.24 47.11 33.34L39.94 40.51C40.7 40.67 41.48 40.76 42.28 40.76C44.43 40.76 46.44 40.14 48.15 39.08L54.8 45.73C51.28 48.44 46.88 50.06 42.08 50.03ZM58.42 42.05L51.79 35.42C52.85 33.71 53.47 31.7 53.47 29.55C53.47 27.38 52.84 25.36 51.76 23.64L58.39 17C61.11 20.49 62.73 24.86 62.7 29.59C62.68 34.31 61.07 38.61 58.42 42.05Z" fill="#D3D3D3"/>
<path d="M44.64 28.3101L34.15 17.8201C33.37 17.0401 32.1 17.0401 31.32 17.8201C30.54 18.6001 30.54 19.8701 31.32 20.6501L38.4 27.7301H2C0.9 27.7301 0 28.6301 0 29.7301C0 30.8301 0.9 31.7301 2 31.7301H38.4L31.32 38.8101C30.54 39.5901 30.54 40.8601 31.32 41.6401C31.71 42.0301 32.22 42.2301 32.73 42.2301C33.24 42.2301 33.75 42.0301 34.14 41.6401L44.63 31.1501C45.01 30.7701 45.22 30.2701 45.22 29.7401C45.22 29.2101 45.01 28.6801 44.64 28.3101Z" fill="#0A7CED"/>
</svg>
