<svg width="24" height="24" viewBox="0 0 24 24" fill="none" xmlns="http://www.w3.org/2000/svg">
<path d="M12 0C18.6375 0 24 5.3625 24 12C24 18.6375 18.6375 24 12 24C5.3625 24 0 18.6375 0 12C0 5.3625 5.3625 0 12 0Z" fill="#316CFF"/>
<path d="M12 4.125C7.65 4.125 4.125 7.65 4.125 12C4.125 16.35 7.65 19.875 12 19.875V18.375C8.475 18.375 5.625 15.525 5.625 12C5.625 8.475 8.475 5.625 12 5.625C15.525 5.625 18.375 8.475 18.375 12C18.375 12.975 18.15 13.875 17.7375 14.775C17.5125 15.3 16.95 15.6375 16.35 15.525C16.0125 15.45 15.75 15.2625 15.5625 15C15.375 14.7375 15.3 14.4 15.375 14.0625L16.3125 9.075L14.85 8.8125L14.8125 9.075C14.775 9.0375 14.775 9.0375 14.7375 9C14.0625 8.325 13.2 7.9875 12.225 7.9875C11.1375 7.9875 10.05 8.4375 9.225 9.2625C7.65 10.8375 7.5375 13.3125 8.9625 14.775C9.6375 15.45 10.5 15.7875 11.475 15.7875C12.3375 15.7875 13.2 15.4875 13.9125 14.9625C14.175 15.975 14.9625 16.8375 16.0875 17.025C17.3625 17.25 18.6 16.6125 19.0875 15.45C19.6125 14.3625 19.875 13.2375 19.875 12.0375C19.875 7.65 16.35 4.125 12 4.125ZM11.475 14.2125C10.9125 14.2125 10.3875 14.025 10.0125 13.65C9.15 12.7875 9.2625 11.25 10.275 10.275C10.8 9.75 11.5125 9.45 12.1875 9.45C12.75 9.45 13.275 9.675 13.65 10.0125C14.5125 10.875 14.4 12.4125 13.3875 13.3875C12.8625 13.9125 12.15 14.2125 11.475 14.2125Z" fill="white"/>
</svg>
