<svg width="24" height="23" viewBox="0 0 24 23" fill="none" xmlns="http://www.w3.org/2000/svg">
<path d="M4.8527 14.5398C4.8527 15.8766 3.77229 16.957 2.43551 16.957C1.09872 16.957 0.0183105 15.8766 0.0183105 14.5398C0.0183105 13.2031 1.09872 12.1227 2.43551 12.1227H4.8527V14.5398Z" fill="#E01E5A"/>
<path d="M6.06128 14.5398C6.06128 13.2031 7.14169 12.1227 8.47848 12.1227C9.81526 12.1227 10.8957 13.2031 10.8957 14.5398V20.5828C10.8957 21.9196 9.81526 23 8.47848 23C7.14169 23 6.06128 21.9196 6.06128 20.5828V14.5398Z" fill="#E01E5A"/>
<path d="M8.47848 4.83439C7.14169 4.83439 6.06128 3.75398 6.06128 2.4172C6.06128 1.08041 7.14169 0 8.47848 0C9.81526 0 10.8957 1.08041 10.8957 2.4172V4.83439H8.47848Z" fill="#36C5F0"/>
<path d="M8.4785 6.06128C9.81529 6.06128 10.8957 7.14169 10.8957 8.47848C10.8957 9.81526 9.81529 10.8957 8.4785 10.8957H2.4172C1.08041 10.8957 0 9.81526 0 8.47848C0 7.14169 1.08041 6.06128 2.4172 6.06128H8.4785Z" fill="#36C5F0"/>
<path d="M18.1656 8.47848C18.1656 7.14169 19.2461 6.06128 20.5828 6.06128C21.9196 6.06128 23 7.14169 23 8.47848C23 9.81526 21.9196 10.8957 20.5828 10.8957H18.1656V8.47848Z" fill="#2EB67D"/>
<path d="M16.9571 8.4785C16.9571 9.81529 15.8767 10.8957 14.5399 10.8957C13.2031 10.8957 12.1227 9.81529 12.1227 8.4785V2.4172C12.1227 1.08041 13.2031 0 14.5399 0C15.8767 0 16.9571 1.08041 16.9571 2.4172V8.4785Z" fill="#2EB67D"/>
<path d="M14.5399 18.1656C15.8767 18.1656 16.9571 19.2461 16.9571 20.5828C16.9571 21.9196 15.8767 23 14.5399 23C13.2031 23 12.1227 21.9196 12.1227 20.5828V18.1656H14.5399Z" fill="#ECB22E"/>
<path d="M14.5399 16.957C13.2031 16.957 12.1227 15.8766 12.1227 14.5398C12.1227 13.2031 13.2031 12.1227 14.5399 12.1227H20.6012C21.938 12.1227 23.0184 13.2031 23.0184 14.5398C23.0184 15.8766 21.938 16.957 20.6012 16.957H14.5399Z" fill="#ECB22E"/>
</svg>
