<svg width="13" height="13" viewBox="0 0 13 13" fill="none" xmlns="http://www.w3.org/2000/svg">
<path d="M6.5 0C2.90426 0 0 2.90426 0 6.5C0 10.0957 2.90426 13 6.5 13C10.0957 13 13 10.0957 13 6.5C13 2.90426 10.0957 0 6.5 0ZM7.63404 2.66915L7.44043 7.64787H5.55957L5.36596 2.66915H7.63404ZM6.5 10.6766C5.86383 10.6766 5.35213 10.2064 5.35213 9.59787C5.35213 9.00319 5.86383 8.51915 6.5 8.51915C7.12234 8.51915 7.64787 8.98936 7.64787 9.59787C7.64787 10.2064 7.13617 10.6766 6.5 10.6766Z" fill="#FF5A5A"/>
</svg>
