<svg version="1.1" id="Layer_1" xmlns="http://www.w3.org/2000/svg" xmlns:xlink="http://www.w3.org/1999/xlink" x="0px" y="0px"
	 viewBox="0 0 13 13" style="enable-background:new 0 0 13 13;" xml:space="preserve">
<style type="text/css">
	.st0{fill:#FF5A5A;}
</style>
<path class="st0" d="M6.5,0C2.9,0,0,2.9,0,6.5S2.9,13,6.5,13S13,10.1,13,6.5S10.1,0,6.5,0z M6.3115,10.6807
	c-0.5889,0-1.0605-0.4434-1.0605-1.0107c0-0.5615,0.4717-1.0049,1.0605-1.0049c0.584,0,1.0615,0.4434,1.0615,1.0049
	C7.373,10.2373,6.8955,10.6807,6.3115,10.6807z M8.1367,6.4463C7.3682,6.8896,7.1543,7.1426,7.1543,7.6709v0.2637h-1.752
	L5.3857,7.71c-0.1074-0.96,0.1738-1.4658,0.9541-1.915c0.7637-0.4492,0.96-0.6846,0.96-1.1787c0-0.4551-0.3701-0.7695-0.8984-0.7695
	c-0.5391,0-0.9092,0.3594-0.9258,0.9043H3.6504c0.0166-1.4717,1.084-2.4316,2.8809-2.4316c1.707,0,2.8184,0.8984,2.8184,2.2461
	C9.3496,5.3965,8.9619,5.9692,8.1367,6.4463z"/>
</svg>