<svg width="12" height="12" viewBox="0 0 12 12" fill="none" xmlns="http://www.w3.org/2000/svg">
<path d="M1.29289 2C0.902369 2.39052 0.902369 3.02369 1.29289 3.41421L3.76777 5.88909L1.29289 8.36396C0.902369 8.75449 0.902369 9.38765 1.29289 9.77817L2 10.4853C2.39052 10.8758 3.02369 10.8758 3.41421 10.4853L5.88909 8.01041L8.36396 10.4853C8.75448 10.8758 9.38765 10.8758 9.77817 10.4853L10.4853 9.77817C10.8758 9.38765 10.8758 8.75449 10.4853 8.36396L8.01041 5.88909L10.4853 3.41421C10.8758 3.02369 10.8758 2.39052 10.4853 2L9.77817 1.29289C9.38765 0.902369 8.75449 0.902369 8.36396 1.29289L5.88909 3.76777L3.41421 1.29289C3.02369 0.902369 2.39052 0.902369 2 1.29289L1.29289 2Z" fill="#C2C2C2"/>
</svg>