<svg width="14" height="16" viewBox="0 0 14 16" fill="none" xmlns="http://www.w3.org/2000/svg">
<path d="M12.3333 16H4.5C3.94775 16 3.5 15.5522 3.5 15V4.5C3.5 3.94775 3.94775 3.5 4.5 3.5H12.3333C12.8856 3.5 13.3333 3.94775 13.3333 4.5V15C13.3333 15.5522 12.8856 16 12.3333 16ZM5.5 14H11.3333V5.5H5.5V14Z" fill="#BDBDBD"/>
<path d="M1 12.5C0.44775 12.5 0 12.0522 0 11.5V1C0 0.44775 0.44775 0 1 0H8.83333C9.38558 0 9.83333 0.44775 9.83333 1C9.83333 1.55225 9.38558 2 8.83333 2H2V11.5C2 12.0522 1.55225 12.5 1 12.5Z" fill="#BDBDBD"/>
</svg>
