<svg width="12" height="12" viewBox="0 0 12 12" fill="none" xmlns="http://www.w3.org/2000/svg">
<path fill-rule="evenodd" clip-rule="evenodd" d="M10 6C10 8.20914 8.20914 10 6 10C5.16625 10 4.39208 9.74491 3.75127 9.30853L9.30853 3.75127C9.74491 4.39208 10 5.16625 10 6ZM2.69077 8.2477L8.2477 2.69077C7.6071 2.25481 6.83331 2 6 2C3.79086 2 2 3.79086 2 6C2 6.83331 2.25481 7.6071 2.69077 8.2477ZM12 6C12 9.31371 9.31371 12 6 12C2.68629 12 0 9.31371 0 6C0 2.68629 2.68629 0 6 0C9.31371 0 12 2.68629 12 6Z" fill="#C2C2C2"/>
</svg>
