<svg width="14" height="15" viewBox="0 0 14 15" fill="none" xmlns="http://www.w3.org/2000/svg">
<path d="M12.8174 3.33528L7.06725 6.17238C6.87304 6.27371 6.63662 6.27371 6.44241 6.17238L0.68377 3.33528C0.506452 3.25084 0.506452 2.98909 0.68377 2.90465L6.44241 0.0759938C6.63662 -0.0253313 6.87304 -0.0253313 7.06725 0.0759938L12.8174 2.90465C13.0032 2.99753 13.0032 3.25084 12.8174 3.33528Z" fill="#54AA22"/>
<path d="M0 5.20135V11.6524C0 11.9141 0.151988 12.1506 0.379969 12.2688L5.46311 14.7681C5.62354 14.8441 5.8093 14.7343 5.8093 14.5486V8.106C5.8093 7.84424 5.65731 7.60782 5.42933 7.48961L0.346194 4.99026C0.185763 4.90582 0 5.02403 0 5.20135Z" fill="#54AA22"/>
<path d="M13.1636 4.98186L8.05512 7.4981C7.82714 7.60787 7.68359 7.84429 7.68359 8.0976V14.5571C7.68359 14.7344 7.86936 14.8526 8.02979 14.7766L13.1383 12.2604C13.3662 12.1506 13.5098 11.9142 13.5098 11.6609V5.2014C13.5182 5.01563 13.324 4.89742 13.1636 4.98186Z" fill="#54AA22"/>
</svg>
