<svg width="10" height="10" viewBox="0 0 10 10" fill="none" xmlns="http://www.w3.org/2000/svg">
<path d="M6.85498 0C6.83559 0.0249455 6.81859 0.0522814 6.79644 0.074483C6.42639 0.445439 6.05691 0.817001 5.68318 1.18423C5.6469 1.21988 5.58345 1.24588 5.53253 1.246C4.14939 1.24931 2.76624 1.24865 1.38308 1.24866C1.34156 1.24866 1.30003 1.24866 1.24865 1.24866C1.24865 1.28638 1.24864 1.3147 1.24865 1.34302C1.24877 3.59512 1.24866 5.84722 1.24923 8.09931C1.24933 8.48199 1.51647 8.74999 1.90039 8.75012C3.97349 8.75085 6.0466 8.75077 8.1197 8.7499C8.47945 8.74975 8.74993 8.47267 8.7501 8.10755C8.75065 6.89363 8.74994 5.67971 8.75261 4.46579C8.75271 4.41945 8.76978 4.36038 8.80085 4.32882C9.17984 3.94383 9.56284 3.56278 9.94535 3.18126C9.96052 3.16613 9.98118 3.1565 9.99929 3.14431C9.99929 4.86293 9.99929 6.58156 9.99929 8.30019C9.993 8.32174 9.98374 8.34289 9.98086 8.36489C9.8599 9.28932 9.08393 9.99265 8.15288 9.99547C6.04748 10.0019 3.94202 10.0012 1.83661 9.99536C1.02385 9.9931 0.302498 9.43199 0.0786526 8.65081C0.0457175 8.53586 0.0258927 8.41716 0 8.30019C0 5.90453 0 3.50887 0 1.1132C0.00622417 1.09498 0.0150985 1.07721 0.0182839 1.05847C0.107362 0.534595 0.476681 0.143494 0.991588 0.0283945C1.03221 0.0193131 1.07267 0.00948175 1.1132 0C3.02713 0 4.94106 0 6.85498 0Z" fill="#7B7B7B"/>
<path d="M8.43665 0C8.50416 0.0490473 8.57926 0.0904115 8.63797 0.148378C9.04326 0.548539 9.44513 0.952163 9.8481 1.35468C10.0307 1.53711 10.0309 1.7188 9.84546 1.90467C9.31901 2.43226 8.79168 2.95898 8.26467 3.48602C7.37635 4.37438 6.48788 5.26259 5.60037 6.15177C5.57539 6.1768 5.56067 6.21208 5.54579 6.23535C4.9402 5.63074 4.3557 5.04717 3.76465 4.45707C3.78576 4.43499 3.80927 4.40942 3.83381 4.38488C5.23086 2.98802 6.62736 1.59061 8.02684 0.196193C8.10522 0.118097 8.20833 0.0648255 8.29994 0C8.34551 0 8.39108 0 8.43665 0Z" fill="#7B7B7B"/>
<path d="M3.25337 4.87833C3.87239 5.49645 4.4878 6.11097 5.10855 6.73083C4.29177 6.93504 3.47191 7.14002 2.63574 7.34908C2.84494 6.5122 3.05003 5.69179 3.25337 4.87833Z" fill="#7B7B7B"/>
</svg>
