<svg width="16" height="11" viewBox="0 0 16 11" fill="none" xmlns="http://www.w3.org/2000/svg">
<path d="M15.3012 5.10034C13.936 2.01021 10.1159 0.000244141 7.89291 0.000244141C5.6699 0.000244141 1.84983 2.01021 0.484658 5.10034C0.372302 5.35467 0.372302 5.64582 0.484658 5.90015C1.84983 8.99028 5.66991 11.0002 7.89291 11.0002C10.1159 11.0002 13.936 8.99028 15.3012 5.90015C15.4135 5.64582 15.4135 5.35467 15.3012 5.10034ZM7.91026 9.47343C5.71593 9.47343 3.93707 7.69457 3.93707 5.50024C3.93707 3.30591 5.71593 1.52706 7.91026 1.52706C10.1046 1.52706 11.8834 3.30591 11.8834 5.50024C11.8834 7.69457 10.1046 9.47343 7.91026 9.47343Z" fill="#A8A8A8"/>
<path d="M7.89269 7.70385C9.11922 7.70385 10.1135 6.70955 10.1135 5.48303C10.1135 4.2565 9.11922 3.26221 7.89269 3.26221C6.66617 3.26221 5.67188 4.2565 5.67188 5.48303C5.67188 6.70955 6.66617 7.70385 7.89269 7.70385Z" fill="#A8A8A8"/>
</svg>