<svg width="14" height="16" viewBox="0 0 14 16" fill="none" xmlns="http://www.w3.org/2000/svg">
<path d="M12.13 7.31006H1.25V14.2501H12.13V7.31006Z" fill="#9CD7FF" opacity="50%"/>
<path d="M12.13 6.06H11.78V5.09C11.78 2.28 9.5 0 6.69 0C3.88 0 1.6 2.28 1.6 5.09V6.06H1.25C0.56 6.06 0 6.62 0 7.31V14.25C0 14.94 0.56 15.5 1.25 15.5H12.13C12.82 15.5 13.38 14.94 13.38 14.25V7.31C13.38 6.62 12.82 6.06 12.13 6.06ZM4.1 5.09C4.1 3.66 5.26 2.5 6.69 2.5C8.12 2.5 9.28 3.66 9.28 5.09V6.06H4.1V5.09ZM10.88 13H2.5V8.56H10.88V13Z" fill="#0A7CED" fill-opacity="50%"/>
<path d="M7.94043 9.89014H5.44043V11.5501H7.94043V9.89014Z" fill="#0A7CED" fill-opacity="50%"/>
</svg>
