<svg width="18" height="20" viewBox="0 0 18 20" fill="none" xmlns="http://www.w3.org/2000/svg">
<path d="M14 0H0V20H18V4L14 0ZM14 3L16 5H14V3ZM2 2H12V7H16V18H2V2Z" fill="#137CBD"/>
<path d="M14 15H4V17H14V15Z" fill="#137CBD"/>
<path d="M14 12H4V14H14V12Z" fill="#137CBD"/>
<path d="M9.5 5.99988V5.62988C9.5 4.24988 8.38 3.12988 7 3.12988C5.62 3.12988 4.5 4.24988 4.5 5.62988V5.99988H4V10.9999H10V5.99988H9.5ZM6.5 5.62988C6.5 5.34988 6.72 5.12988 7 5.12988C7.28 5.12988 7.5 5.34988 7.5 5.62988V5.99988H6.5V5.62988ZM8 8.99988H6V7.99988H8V8.99988Z" fill="#137CBD"/>
</svg>