<svg width="12" height="12" viewBox="0 0 12 12" fill="none" xmlns="http://www.w3.org/2000/svg">
<path d="M11.3211 7.5268L10.172 6.76863C10.2152 6.51892 10.239 6.26255 10.239 6.00049C10.239 5.73842 10.2152 5.48206 10.172 5.23235L11.3211 4.47418C11.5193 4.3434 11.5813 4.08088 11.4626 3.87525L10.4525 2.12572C10.3338 1.92009 10.0754 1.84254 9.86305 1.9488L8.63201 2.56481C8.23968 2.23664 7.79071 1.97398 7.30132 1.79474L7.2194 0.422476C7.20525 0.185458 7.0089 0.000488281 6.77147 0.000488281H4.75128C4.51384 0.000488281 4.3175 0.185458 4.30334 0.422476L4.22141 1.79473C3.73203 1.97397 3.28306 2.23663 2.89072 2.5648L1.65969 1.94879C1.44734 1.84253 1.18899 1.92009 1.07027 2.12572L0.0601705 3.87525C-0.0585489 4.08088 0.00346598 4.3434 0.201663 4.47418L1.35075 5.23235C1.30755 5.48206 1.28376 5.73842 1.28376 6.00049C1.28376 6.26255 1.30755 6.51892 1.35075 6.76863L0.201663 7.5268C0.00347495 7.65756 -0.0585489 7.92008 0.0601705 8.12572L1.07027 9.87524C1.18899 10.0809 1.44735 10.1584 1.65969 10.0522L2.89073 9.43616C3.28306 9.76432 3.73203 10.027 4.22141 10.2062L4.30334 11.5785C4.31749 11.8155 4.51384 12.0005 4.75128 12.0005H6.77147C7.0089 12.0005 7.20525 11.8155 7.21941 11.5785L7.30134 10.2062C7.79072 10.027 8.23969 9.76433 8.63202 9.43617L9.86306 10.0522C10.0754 10.1584 10.3338 10.0809 10.4525 9.87525L11.4626 8.12572C11.5813 7.92008 11.5193 7.65756 11.3211 7.5268ZM5.76137 8.32885C4.47545 8.32885 3.43301 7.2864 3.43301 6.00049C3.43301 4.71457 4.47545 3.67213 5.76137 3.67213C7.04729 3.67213 8.08973 4.71457 8.08973 6.00049C8.08973 7.2864 7.04729 8.32885 5.76137 8.32885Z" fill="#C2C2C2"/>
</svg>
