<svg width="66" height="66" viewBox="0 0 66 66" fill="none" xmlns="http://www.w3.org/2000/svg">
<mask id="mask0" mask-type="alpha" maskUnits="userSpaceOnUse" x="48" y="31" width="18" height="4">
<path fill-rule="evenodd" clip-rule="evenodd" d="M65.9975 31.2124V34.7871H48.0194V31.2124H65.9975V31.2124Z" fill="white"/>
</mask>
<g mask="url(#mask0)">
<path opacity="0.78" fill-rule="evenodd" clip-rule="evenodd" d="M64.2102 34.7871H49.8067C48.8197 34.7871 48.0194 33.9869 48.0194 32.9997C48.0194 32.0127 48.8197 31.2124 49.8067 31.2124H64.2102C65.1973 31.2124 65.9975 32.0127 65.9975 32.9997C65.9975 33.9869 65.1973 34.7871 64.2102 34.7871Z" fill="#08A6FF"/>
</g>
<path opacity="0.32" fill-rule="evenodd" clip-rule="evenodd" d="M16.1907 34.7875H1.78732C0.800138 34.7875 0 33.9873 0 33.0002C0 32.0131 0.800138 31.2128 1.78732 31.2128H16.1907C17.1778 31.2128 17.978 32.0131 17.978 33.0002C17.978 33.9873 17.1778 34.7875 16.1907 34.7875Z" fill="#08A6FF"/>
<path opacity="0.85" fill-rule="evenodd" clip-rule="evenodd" d="M60.9212 18.9414L48.4474 26.1431C47.5926 26.6366 46.4995 26.3438 46.006 25.4889C45.5125 24.634 45.8053 23.5409 46.6602 23.0474L59.1338 15.8457C59.9887 15.3522 61.0819 15.645 61.5754 16.4999C62.069 17.3548 61.776 18.4478 60.9212 18.9414Z" fill="#08A6FF"/>
<path opacity="0.4" fill-rule="evenodd" clip-rule="evenodd" d="M19.3398 42.9519L6.86606 50.1536C6.0113 50.6471 4.91811 50.3543 4.42457 49.4994C3.93103 48.6445 4.22386 47.5514 5.07885 47.0579L17.5525 39.8562C18.4074 39.3627 19.5005 39.6555 19.994 40.5104C20.4875 41.3653 20.1947 42.4583 19.3398 42.9519Z" fill="#08A6FF"/>
<path opacity="0.92" fill-rule="evenodd" clip-rule="evenodd" d="M50.1619 6.86265L42.9602 19.3364C42.4666 20.1912 41.3736 20.4841 40.5187 19.9906C39.6638 19.4971 39.371 18.404 39.8645 17.5491L47.0662 5.07532C47.5597 4.22045 48.6529 3.92762 49.5077 4.42115C50.3626 4.91469 50.6554 6.00777 50.1619 6.86265Z" fill="#08A6FF"/>
<path opacity="0.48" fill-rule="evenodd" clip-rule="evenodd" d="M26.1394 48.4504L18.9377 60.9242C18.4442 61.779 17.3511 62.0719 16.4962 61.5784C15.6413 61.0848 15.3485 59.9917 15.8421 59.1369L23.0437 46.6631C23.5373 45.8082 24.6304 45.5154 25.4852 46.0089C26.3401 46.5025 26.6329 47.5955 26.1394 48.4504Z" fill="#08A6FF"/>
<path fill-rule="evenodd" clip-rule="evenodd" d="M34.7929 1.78732V16.1907C34.7929 17.1779 33.9927 17.978 33.0056 17.978C32.0185 17.978 31.2183 17.1778 31.2183 16.1907V1.78732C31.2183 0.80025 32.0185 0 33.0056 0C33.9927 0 34.7929 0.80025 34.7929 1.78732Z" fill="#08A6FF"/>
<path opacity="0.55" fill-rule="evenodd" clip-rule="evenodd" d="M34.7929 49.8094V64.2128C34.7929 65.2 33.9928 66.0001 33.0056 66.0001C32.0185 66.0001 31.2183 65.1999 31.2183 64.2128V49.8094C31.2183 48.8223 32.0185 48.0221 33.0056 48.0221C33.9928 48.0221 34.7929 48.8223 34.7929 49.8094Z" fill="#08A6FF"/>
<path opacity="0.1" fill-rule="evenodd" clip-rule="evenodd" d="M18.9377 5.07532L26.1394 17.5491C26.6331 18.4039 26.3401 19.4969 25.4852 19.9906C24.6304 20.4841 23.5373 20.1912 23.0437 19.3363L15.8421 6.86265C15.3485 6.00777 15.6413 4.91458 16.4962 4.42115C17.3511 3.92762 18.4442 4.22045 18.9377 5.07532Z" fill="#08A6FF"/>
<path opacity="0.62" fill-rule="evenodd" clip-rule="evenodd" d="M42.9602 46.6631L50.1619 59.1369C50.6554 59.9916 50.3626 61.0847 49.5077 61.5784C48.6528 62.0719 47.5597 61.779 47.0662 60.9241L39.8645 48.4504C39.371 47.5955 39.6638 46.5025 40.5187 46.0089C41.3736 45.5154 42.4666 45.8082 42.9602 46.6631Z" fill="#08A6FF"/>
<path opacity="0.25" fill-rule="evenodd" clip-rule="evenodd" d="M6.86607 15.8457L19.3398 23.0474C20.1946 23.5409 20.4876 24.634 19.994 25.4889C19.5005 26.3437 18.4074 26.6366 17.5525 26.1431L5.07874 18.9414C4.22387 18.4478 3.93103 17.3547 4.42457 16.4999C4.91811 15.6451 6.01119 15.3522 6.86607 15.8457Z" fill="#08A6FF"/>
<path opacity="0.7" fill-rule="evenodd" clip-rule="evenodd" d="M48.4475 39.8562L60.9213 47.0579C61.776 47.5514 62.0691 48.6445 61.5754 49.4994C61.0819 50.3542 59.9888 50.6472 59.1339 50.1536L46.6602 42.9519C45.8053 42.4583 45.5125 41.3652 46.006 40.5104C46.4996 39.6556 47.5926 39.3627 48.4475 39.8562Z" fill="#08A6FF"/>
</svg>
