<svg width="10" height="13" viewBox="0 0 10 13" fill="none" xmlns="http://www.w3.org/2000/svg">
<path d="M0.419322 4.23395C3.1793 4.23395 5.92492 4.23395 8.67894 4.23395C8.68127 4.28173 8.68509 4.32363 8.6851 4.36553C8.68529 6.65551 8.68635 8.9455 8.68428 11.2355C8.68374 11.8356 8.31169 12.3166 7.74361 12.4583C7.64021 12.4841 7.53089 12.4973 7.42428 12.4975C5.50087 12.4999 3.57745 12.5011 1.65404 12.4986C0.972465 12.4977 0.417893 11.9585 0.416281 11.2798C0.410773 8.95959 0.414029 6.63941 0.414163 4.31924C0.414171 4.29403 0.417135 4.26882 0.419322 4.23395ZM2.8986 8.37092C2.8986 7.55604 2.89882 6.74115 2.89848 5.92627C2.89836 5.64515 2.72897 5.45881 2.47637 5.45997C2.22812 5.46111 2.06011 5.64352 2.05997 5.91797C2.05916 7.55206 2.0592 9.18614 2.06 10.8202C2.06002 10.8712 2.06378 10.9245 2.07888 10.9726C2.14358 11.1788 2.34244 11.2991 2.5523 11.264C2.75171 11.2307 2.89768 11.0556 2.89796 10.8414C2.89908 10.0179 2.89842 9.19443 2.8986 8.37092ZM4.96916 8.3769C4.96916 7.56197 4.97032 6.74703 4.96732 5.93211C4.96702 5.85251 4.95591 5.76637 4.92404 5.69474C4.8432 5.51302 4.64042 5.42248 4.45011 5.46788C4.25724 5.51389 4.13082 5.68072 4.1307 5.89857C4.12979 7.53705 4.12973 9.17554 4.13 10.814C4.13005 11.0834 4.3029 11.2676 4.55218 11.2676C4.79814 11.2676 4.9687 11.08 4.96874 10.8088C4.96886 9.99814 4.96878 9.18752 4.96916 8.3769ZM6.20094 8.36367C6.20074 8.36367 6.20054 8.36367 6.20034 8.36367C6.20034 9.18292 6.19983 10.0022 6.20063 10.8214C6.20089 11.0823 6.37332 11.2652 6.61717 11.2676C6.85953 11.27 7.03918 11.0842 7.03926 10.8273C7.0398 9.18877 7.03979 7.55028 7.03901 5.91179C7.03898 5.86071 7.03608 5.80745 7.02181 5.75895C6.9615 5.55386 6.76547 5.43246 6.55162 5.46269C6.35314 5.49074 6.20208 5.66586 6.20163 5.88007C6.19992 6.70793 6.20094 7.53581 6.20094 8.36367Z" fill="#7B7B7B"/>
<path d="M2.89831 2.15714C2.89831 1.89265 2.89761 1.64745 2.89845 1.40227C2.90038 0.839721 3.23809 0.502032 3.80142 0.500813C4.31882 0.499695 4.83621 0.499757 5.35361 0.500836C5.83571 0.50184 6.1971 0.860517 6.20017 1.34082C6.20187 1.60726 6.20048 1.87372 6.20048 2.14997C6.25271 2.15268 6.2943 2.15666 6.33589 2.15672C6.80154 2.15732 7.26724 2.16111 7.73285 2.15662C8.47356 2.14947 9.17135 2.72673 9.09929 3.69133C9.09174 3.79245 9.02646 3.80343 8.9457 3.80324C8.54904 3.80229 8.15236 3.80323 7.75569 3.80321C5.24202 3.8031 2.72834 3.80292 0.214669 3.80274C-4.52685e-05 3.80272 -4.52447e-05 3.80265 1.34274e-06 3.58526C0.000151458 2.87718 0.381734 2.35652 1.02468 2.19937C1.14457 2.17006 1.27167 2.16059 1.39562 2.1593C1.84829 2.15461 2.30104 2.15725 2.75376 2.15714C2.79608 2.15712 2.8384 2.15714 2.89831 2.15714ZM5.38272 2.15021C5.38272 1.91295 5.38433 1.68933 5.38195 1.46576C5.38097 1.37366 5.32806 1.31986 5.23622 1.31948C4.77956 1.31759 4.3229 1.31813 3.86624 1.3189C3.78075 1.31905 3.72094 1.36426 3.71894 1.44934C3.71349 1.68051 3.71707 1.91189 3.71707 2.15021C4.27626 2.15021 4.82116 2.15021 5.38272 2.15021Z" fill="#7B7B7B"/>
</svg>
