<svg width="18" height="16" viewBox="0 0 18 16" fill="none" xmlns="http://www.w3.org/2000/svg">
<path fill-rule="evenodd" clip-rule="evenodd" d="M7.48936 1.92492C8.26714 0.63603 10.1363 0.636031 10.9141 1.92492L17.4994 12.8377C18.3038 14.1707 17.3439 15.871 15.7871 15.871H2.61638C1.05953 15.871 0.0996377 14.1706 0.904014 12.8377L7.48936 1.92492ZM8.1515 11.0172L7.97569 5.51601H10.0401L9.86425 11.0172H8.1515ZM10.0916 12.8664C10.0916 13.4392 9.60955 13.8873 9.01973 13.8873C8.42424 13.8873 7.94217 13.4392 7.94217 12.8664C7.94217 12.2993 8.42424 11.8512 9.01973 11.8512C9.60955 11.8512 10.0916 12.2993 10.0916 12.8664Z" fill="#FF8686"/>
</svg>
