<svg width="24" height="23" xmlns="http://www.w3.org/2000/svg"><path d="M18.253 15.999L18 15.985l.138-.378c.059-.106.106-.216.125-.336.14-.304.236-.62.314-.944a.695.695 0 0 0 .074-.296 3.66 3.66 0 0 0 .186-.813l.057-.299.095-.694.012-.244c.059-.225.046-.454.042-.682l.028-.271.283-.017c.219.017.438.035.656-.011.072.042.147.03.223.011.219.017.438.035.656-.01.072.04.147.03.223.01.205.022.41.025.614-.002a.504.504 0 0 0 .265.002c.204.022.408.024.612-.002a.15.15 0 0 0 .135 0l.262.033v.897c-.1.185-.076.391-.104.588-.098.671-.277 1.324-.475 1.973-.057.108-.106.22-.124.34l-.534 1.145-.652.015-.221-.001-.659.001-.22-.001-.659.001-.22-.001-.659.001-.22-.001M.99 9.998L0 9.982v-.086c.135.063.078-.065.08-.1a11.51 11.51 0 0 1 .373-2.087l.073-.265.097-.33L1.082 6l.237-.471c.071-.118.152-.23.212-.353.062-.128.149-.187.284-.174l.207.001.618-.001.208.001.617-.001.208.001.618-.001.207.001.502.01c-.004.13-.115.219-.13.346a6.402 6.402 0 0 0-.461 1.112.984.984 0 0 0-.117.343c-.127.29-.198.6-.275.906-.026.095-.066.188-.06.291a3.667 3.667 0 0 0-.16.815.483.483 0 0 0-.038.257 3.147 3.147 0 0 0-.085.696c-.004.156-.038.23-.21.215-.19-.016-.383.002-.575.006l-.25-.002-.575.002-.25-.002-.617.002-.208-.002m22.533-2.244c.159.57.335 1.135.413 1.719.016.12.018.242.053.357.046.15-.046.167-.172.17l-.198-.002-.73.002-.247-.002-.731.002-.247-.002-.681.002-.295-.002c-.21-.003-.42-.008-.628-.008-.413.001-.413.003-.466-.35l-.035-.215c0-.19-.035-.375-.092-.557.002-.074.006-.15-.046-.215-.002-.176-.061-.344-.11-.512l-.05-.173a2.008 2.008 0 0 0-.142-.47.444.444 0 0 0-.076-.22 1.891 1.891 0 0 0-.17-.465l-.076-.176a1.694 1.694 0 0 0-.207-.468c.003-.05-.022-.091-.059-.128a1.852 1.852 0 0 0-.239-.47.305.305 0 0 0-.095-.173A1.12 1.12 0 0 0 18 5.057l.034-.055.693-.002.251.001L19.71 5l.245.001.78-.001.197.001.78-.001.198.001c.209 0 .204.196.326.276a.357.357 0 0 0 .114.163l.274.428c.012.034.013.073.057.09l.24.432c.01.046.022.09.066.122l.2.429a.31.31 0 0 0 .086.172l.185.476c.01.058.012.12.064.165M13.39.377L13 .027c.207-.068.402.01.598.045.538.099 1.054.28 1.578.433.033.045.083.046.13.051.14.076.286.134.439.177l.226.107.453.21a.22.22 0 0 0 .137.076l.442.244.07.04.418.263.186.126.336.239.123.093.384.303a.217.217 0 0 0 .115.098c.114.1.227.202.34.303l.166.156.304.302.141.151.269.294.145.172c-.006.14-.129.043-.18.09a.415.415 0 0 0-.223-.002 3.558 3.558 0 0 0-.67.002.415.415 0 0 0-.223-.002 3.558 3.558 0 0 0-.67.002.415.415 0 0 0-.223-.002 3.558 3.558 0 0 0-.67.002.415.415 0 0 0-.223-.002c-.146-.052-.322.059-.45-.085a.44.44 0 0 0-.126-.188 1.469 1.469 0 0 0-.235-.35l-.128-.177a1.673 1.673 0 0 0-.27-.36.14.14 0 0 0-.075-.095 1.946 1.946 0 0 0-.321-.401l-.128-.152a1.64 1.64 0 0 0-.316-.356.207.207 0 0 0-.098-.112 1.575 1.575 0 0 0-.307-.323.328.328 0 0 0-.134-.137 1.591 1.591 0 0 0-.315-.31.32.32 0 0 0-.135-.13 1.487 1.487 0 0 0-.304-.277.564.564 0 0 0-.186-.168m-6.73.653L7.784.542A1.37 1.37 0 0 0 8.14.417c.522-.14 1.04-.3 1.576-.386.094-.015.196-.07.284.022-.322.225-.604.498-.888.768-.721.684-1.394 1.412-1.96 2.235-.18.199-.33.421-.463.651-.11.19-.231.317-.462.29a.39.39 0 0 0-.221-.002 3.378 3.378 0 0 0-.668.003.39.39 0 0 0-.222-.003 3.382 3.382 0 0 0-.668.003.39.39 0 0 0-.221-.003 3.379 3.379 0 0 0-.668.003.39.39 0 0 0-.222-.003L3 3.968c.287-.36.58-.67.884-.968.691-.68 1.476-1.231 2.302-1.727l.474-.242m.343 2.961c-.019-.095.056-.148.103-.21C8.156 2.37 9.413 1.156 10.832.099c.034-.025.124-.214.166.007L11 .35l-.002.73.002.244-.002.73L11 2.3l-.002.73.002.244-.021.715-.736.012a.477.477 0 0 0-.25-.002 4.164 4.164 0 0 0-.749.002.477.477 0 0 0-.249-.002c-.25-.02-.5-.023-.749.002a.477.477 0 0 0-.249-.002c-.25-.02-.5-.023-.75.002l-.244-.008M12 .046c.046-.087.091-.03.134.002.138.1.274.2.41.301l.218.179.397.324a.36.36 0 0 0 .156.137c.098.116.214.214.34.3a.41.41 0 0 0 .161.15l.354.34a.393.393 0 0 0 .152.152l.338.35a.538.538 0 0 0 .17.185l.339.383.109.125.312.384a.16.16 0 0 0 .085.105l.324.44c.011.086-.065.073-.11.094A4.134 4.134 0 0 0 15.13 4a.48.48 0 0 0-.251-.002 4.12 4.12 0 0 0-.758.002.48.48 0 0 0-.251-.002 4.12 4.12 0 0 0-.757.002.48.48 0 0 0-.252-.002 4.12 4.12 0 0 0-.757.002l-.075-.008-.028-.73L12 3.014a3637.774 3637.774 0 0 0 .002-1.73L12 1.035l.002-.742L12 .046M1.262 15.908a2.142 2.142 0 0 0-.216-.432.173.173 0 0 0-.058-.124l-.181-.427-.088-.213c-.266-.77-.498-1.548-.601-2.354C.07 11.99.05 11.62.005 11.254c-.022-.173.023-.266.22-.253a.257.257 0 0 0 .183.001c.21.022.419.025.628-.002a.535.535 0 0 0 .273.002c.21.022.418.025.626-.002a.534.534 0 0 0 .274.002A16.16 16.16 0 0 0 3.734 11l.18.038.016.55c-.008.075-.013.148.024.218-.002.186 0 .372.053.553a.413.413 0 0 0 .026.22l.08.518.04.203c.03.174.055.348.123.513a.225.225 0 0 0 .046.17c.02.178.076.347.14.513l.055.179c.052.183.105.366.194.537l.034.104c.054.16.105.321.196.467.005.047.012.093.055.124.018.073-.029.09-.09.093l-.226-.001a3537.807 3537.807 0 0 1-.9 0L3.108 16l-.226-.001a3537.805 3537.805 0 0 1-.9 0l-.671-.013-.048-.078m13.691 6.653c-.578.158-1.154.325-1.75.409-.068.01-.142.07-.204-.013.329-.223.62-.489.91-.754.72-.657 1.397-1.352 1.965-2.138.47-.562.86-1.171 1.212-1.805.088-.08.073-.25.244-.258l.685-.002.23.002.684-.002.23.002.684-.002.23.002.684-.002.229.004c.047.096-.046.142-.087.2a11.516 11.516 0 0 1-3.605 3.3c-.096.057-.19.117-.285.176l-.5.257-1.19.499-.366.125m-9.19-1.038l-.427-.262a.238.238 0 0 0-.14-.088 1.947 1.947 0 0 0-.378-.263l-.194-.145-.325-.25-.2-.167-.319-.273a.363.363 0 0 0-.145-.135l-.32-.308-.141-.147-.328-.353a.203.203 0 0 0-.101-.116l-.287-.348a.14.14 0 0 0-.078-.094l-.291-.394-.09-.133.042-.046h.234L2.978 18l.235.002.701-.002.235.002L4.85 18l.235.002.65.015.05.076c.056.16.155.298.249.44l.123.186c.066.154.164.29.27.42.015.02.028.041.042.062.093.167.204.324.333.468l.047.06c.08.144.184.272.3.391l.139.172c.075.117.16.226.269.318a.439.439 0 0 0 .15.172c.078.116.17.22.28.31a.604.604 0 0 0 .181.19c.083.11.176.211.29.294a.328.328 0 0 0 .137.134c.094.117.204.22.327.309.034.056.081.1.143.13.106.123.23.23.37.32a.323.323 0 0 0 .143.124c.094.105.205.19.326.265l.096.087c-.091.097-.199.04-.298.023-.667-.111-1.307-.314-1.948-.511-.053-.047-.121-.062-.189-.077l-.468-.183a.372.372 0 0 0-.187-.086l-.404-.188a466.66 466.66 0 0 0-.205-.111l-.464-.246c-.01-.035-.042-.038-.073-.043m10.026-3.049c-.621 1.065-1.312 2.066-2.122 2.96-.482.531-.99 1.03-1.524 1.493-.055.048-.136.156-.142-.04L12 22.649l.002-.71-.002-.237.002-.711-.002-.237.002-.711-.002-.237.002-.711-.002-.237.002-.711c-.001-.098.04-.148.128-.145l.632-.002.212.002.632-.002.212.002.632-.002.211.002.633-.002.21.002.496.008-.21.464m-4.968 4.41l-.292-.252a.444.444 0 0 0-.17-.154 1.48 1.48 0 0 0-.293-.278.345.345 0 0 0-.14-.138l-.332-.338a.342.342 0 0 0-.133-.142l-.299-.332a.347.347 0 0 0-.126-.145l-.283-.34-.144-.18-.257-.336a.368.368 0 0 0-.118-.159 1.917 1.917 0 0 0-.259-.369.495.495 0 0 0-.129-.193l-.212-.331a.505.505 0 0 0-.125-.201l-.215-.372a.243.243 0 0 0-.083-.144c-.046-.17-.176-.292-.21-.468L7 18.014 7.633 18l.213.002.637-.002.213.002.638-.002.213.002.638-.002.213.002.59.013.012.133-.001.715.001.24-.001.715.001.24-.001.714.001.24-.001.715.001.24-.001.714.001.24c-.013.028-.007.069-.045.079l-.133-.116m.169-17.867L11 5.1l-.001.642.001.214-.001.642.001.215-.001.642.001.214-.001.642.001.215-.001.642.001.214c-.003.14-.017.282-.005.422.011.142-.027.202-.192.189-.162-.013-.327.003-.49.007l-.23-.002-.678.002-.23-.002-.633.002-.274-.002-.68.002-.228-.002-.68.002-.228-.002-.634.002-.274-.002L5 9.98v-.17c.088-.603.187-1.205.334-1.8a.737.737 0 0 0 .079-.297l.343-.947.152-.382.646-1.242.126-.14L7.36 5l.228.001.68-.001.228.001.68-.001.228.001.68-.001.228.001.68.016M12.139 16l-.125-.012-.013-.592L12 15.14v-4.007c-.002-.091.073-.1.14-.117.225.017.45.035.674-.011.045.035.092.033.139.002.254.037.508.04.762-.002.046.035.092.033.14.002.254.037.508.04.762-.002.046.035.092.033.14.002.253.037.508.04.762-.002.045.035.092.033.139.002.256.035.512.045.767-.007.042.042.088.036.135.007.238.049.478.015.717.018h.272c.463.016.464.016.446.462-.007.154-.02.307-.03.46l-.013.251-.117.729-.053.295-.193.81a.694.694 0 0 0-.087.298l-.357.98a1.127 1.127 0 0 0-.142.34c-.032.061-.075.12-.096.184-.04.128-.129.173-.26.165l-.226-.001-.676.001-.226-.001-.675.001-.226-.001-.676.001-.226-.001-.676.001-.226-.001-.675.001M12.806 5l.228.001.68-.001.227.001.68-.001.228.001.68-.001.227.001c.206.035.419-.032.622.04.02.06.044.116.097.157l.189.33a.612.612 0 0 0 .126.23c.047.131.107.256.188.37.01.069.038.13.087.183.046.145.102.286.183.417 0 .049.01.094.052.127.04.164.099.321.175.473a.28.28 0 0 0 .056.17l.138.47.06.22.12.509a.234.234 0 0 0 .04.171c.007.189.038.375.087.558l.018.213c.018.34.018.34-.357.352-.022 0-.044.006-.065.009l-.229-.002-.679.002-.229-.002-.678.002-.23-.002-.678.002-.229-.002a3572.711 3572.711 0 0 1-1.54.002l-.274-.002-.634.002-.13-.02-.009-.598c.001-.06.044-.128-.033-.175.07-.225.04-.453.033-.681l-.002-.215.002-.642-.002-.214.002-.642-.002-.215.002-.642-.002-.214.002-.642c.004-.056.03-.093.093-.099l.68-.001zm-3.578 6.02h.226c.223-.004.448.032.67-.02.074.041.15.03.228.01l.626.03.006.045v.894a3017.13 3017.13 0 0 0 0 1.488v.213a3017.114 3017.114 0 0 0 0 1.489v.213c-.033.193.085.454-.052.565-.118.096-.382.031-.582.037H6.54c-.14-.034-.327.066-.405-.134a.299.299 0 0 0-.084-.172 1.857 1.857 0 0 0-.182-.424l-.065-.178-.17-.46-.062-.175-.145-.466c-.005-.059 0-.12-.05-.168a2.74 2.74 0 0 0-.13-.554l-.029-.174-.084-.505a352.7 352.7 0 0 0-.035-.213l-.052-.553a.55.55 0 0 0-.028-.256c.045-.172-.103-.41.059-.505.14-.083.373-.024.565-.027h3.585" fill="#B3B3B3" fill-rule="evenodd"/></svg>