<svg width="13" height="12" viewBox="0 0 13 12" fill="none" xmlns="http://www.w3.org/2000/svg">
<path fill-rule="evenodd" clip-rule="evenodd" d="M6.22687 0.311035C3.00043 0.311035 0.384766 2.9265 0.384766 6.15315C0.384766 9.3798 3.00043 11.9953 6.22687 11.9953C9.4533 11.9953 12.069 9.3798 12.069 6.15315C12.069 2.9265 9.4533 0.311035 6.22687 0.311035ZM11.1475 5.70376H9.35506C9.31522 4.95778 9.16916 4.28367 8.97796 3.68148C9.01248 3.66351 9.04967 3.64553 9.08419 3.62755C9.41878 3.44331 9.67903 3.26356 9.85695 3.12423C9.92599 3.07032 9.9791 3.02536 10.0189 2.98943C10.6456 3.73542 11.0572 4.67464 11.1475 5.70376ZM8.654 9.46967C8.93548 9.62247 9.15587 9.77975 9.30193 9.89211C9.33114 9.91457 9.35505 9.93704 9.3816 9.95501C8.94079 10.319 8.43359 10.6111 7.8839 10.8089C7.98481 10.6651 8.08838 10.5168 8.18663 10.346C8.3433 10.0853 8.49998 9.78875 8.64868 9.46518C8.64868 9.46518 8.64869 9.46967 8.654 9.46967ZM3.80505 9.46518C3.95376 9.78875 4.11043 10.0853 4.26711 10.346C4.37067 10.5168 4.46893 10.6651 4.56984 10.8089C4.01484 10.6111 3.51294 10.3235 3.07213 9.95501C3.09338 9.93704 3.1226 9.91457 3.15181 9.89211C3.29786 9.77975 3.51825 9.62247 3.79974 9.46967C3.80505 9.46967 3.80505 9.46518 3.80505 9.46518ZM5.7781 10.8942C5.77279 10.8898 5.76747 10.8853 5.76481 10.8808C5.56565 10.6561 5.3001 10.319 5.03721 9.87862C4.89647 9.64945 4.75837 9.38878 4.62825 9.10568C4.96284 8.99332 5.35056 8.90343 5.77279 8.86748V10.8942H5.7781ZM4.30695 8.2698C4.15027 7.77097 4.03873 7.20922 3.9989 6.60254H5.7781V7.96869C5.22842 8.00914 4.73448 8.12149 4.30695 8.2698ZM3.79974 2.83663C3.51825 2.68384 3.30052 2.52655 3.15181 2.4142C3.12525 2.39173 3.09869 2.36927 3.07745 2.35129C3.51826 1.98727 4.02546 1.69517 4.5725 1.49744C4.47424 1.64123 4.37067 1.78954 4.26711 1.96032C4.11043 2.22096 3.95376 2.51755 3.80505 2.84112C3.80505 2.84112 3.80505 2.83663 3.79974 2.83663ZM5.03987 2.42769C5.30542 1.99176 5.57096 1.65023 5.76747 1.42552C5.77278 1.42104 5.77807 1.41655 5.78073 1.41206V3.43431C5.35585 3.39838 4.97347 3.30849 4.63623 3.19614C4.76103 2.91303 4.90178 2.65686 5.03987 2.42769ZM5.7781 4.33761V5.70376H3.9989C4.03873 5.09708 4.14496 4.53534 4.30695 4.0365C4.73448 4.18481 5.22842 4.29716 5.7781 4.33761ZM7.41387 9.87862C7.14832 10.3145 6.88277 10.6561 6.68626 10.8808C6.68095 10.8853 6.67566 10.8898 6.67301 10.8942V8.87199C7.09789 8.90792 7.48026 8.99781 7.81751 9.11016C7.6927 9.39327 7.55196 9.64945 7.41387 9.87862ZM6.67563 7.96869V6.60254H8.45484C8.415 7.20922 8.30878 7.77097 8.14679 8.2698C7.71925 8.12149 7.22532 8.00914 6.67563 7.96869ZM6.67563 5.70376V4.33761C7.22532 4.29716 7.71925 4.18032 8.14679 4.0365C8.30346 4.53534 8.415 5.09708 8.45484 5.70376H6.67563ZM8.64868 2.84112C8.49998 2.51755 8.3433 2.22096 8.18663 1.96032C8.08306 1.78954 7.98481 1.64123 7.8839 1.49744C8.4389 1.69517 8.94079 1.98278 9.3816 2.35129C9.36036 2.36927 9.33114 2.39173 9.30193 2.4142C9.15587 2.52655 8.93548 2.68384 8.654 2.83663C8.64869 2.83663 8.64868 2.84112 8.64868 2.84112ZM6.67563 1.41206C6.68094 1.41655 6.68627 1.42104 6.68892 1.42552C6.88809 1.65023 7.15363 1.98727 7.41653 2.42769C7.55727 2.65686 7.69537 2.91752 7.82548 3.20063C7.48558 3.30849 7.10317 3.39838 6.67563 3.43431V1.41206ZM2.43746 2.98943C2.48261 3.02988 2.53306 3.07032 2.59944 3.12423C2.78002 3.26356 3.03496 3.4478 3.3722 3.62755C3.40407 3.64553 3.44391 3.66351 3.47577 3.68148C3.28458 4.28367 3.14382 4.95778 3.09868 5.70376H1.30622C1.3965 4.67464 1.80811 3.73542 2.43746 2.98943ZM1.30622 6.60254H3.09868C3.13851 7.34853 3.28458 8.02263 3.47577 8.62482C3.44125 8.6428 3.40407 8.66077 3.36955 8.67875C3.03495 8.86299 2.7747 9.04274 2.59679 9.18208C2.52774 9.23598 2.47464 9.28094 2.4348 9.31687C1.80811 8.57088 1.3965 7.63166 1.30622 6.60254ZM10.0163 9.31687C9.97113 9.27643 9.92068 9.23598 9.85429 9.18208C9.67372 9.04274 9.41878 8.8585 9.08153 8.67875C9.04435 8.66077 9.00982 8.6428 8.97265 8.62482C9.16915 8.02263 9.30991 7.34853 9.34974 6.60254H11.1422C11.0572 7.63166 10.6456 8.57088 10.0163 9.31687Z" fill="#008BDB"/>
</svg>
