<svg width="13" height="14" viewBox="0 0 13 14" fill="none" xmlns="http://www.w3.org/2000/svg">
<path fill-rule="evenodd" clip-rule="evenodd" d="M0 1.5C0 0.947715 0.447715 0.5 1 0.5H2C2.55228 0.5 3 0.947715 3 1.5V2.5C3 3.05228 2.55228 3.5 2 3.5H1C0.447715 3.5 0 3.05228 0 2.5V1.5ZM5 1.5C5 0.947715 5.44772 0.5 6 0.5H7C7.55228 0.5 8 0.947715 8 1.5V2.5C8 3.05228 7.55228 3.5 7 3.5H6C5.44772 3.5 5 3.05228 5 2.5V1.5ZM11 0.5C10.4477 0.5 10 0.947715 10 1.5V2.5C10 3.05228 10.4477 3.5 11 3.5H12C12.5523 3.5 13 3.05228 13 2.5V1.5C13 0.947715 12.5523 0.5 12 0.5H11ZM0 6.5C0 5.94772 0.447715 5.5 1 5.5H2C2.55228 5.5 3 5.94772 3 6.5V7.5C3 8.05228 2.55228 8.5 2 8.5H1C0.447715 8.5 0 8.05228 0 7.5V6.5ZM6 5.5C5.44772 5.5 5 5.94772 5 6.5V7.5C5 8.05228 5.44772 8.5 6 8.5H7C7.55228 8.5 8 8.05228 8 7.5V6.5C8 5.94772 7.55228 5.5 7 5.5H6ZM10 6.5C10 5.94772 10.4477 5.5 11 5.5H12C12.5523 5.5 13 5.94772 13 6.5V7.5C13 8.05228 12.5523 8.5 12 8.5H11C10.4477 8.5 10 8.05228 10 7.5V6.5ZM1 10.5C0.447715 10.5 0 10.9477 0 11.5V12.5C0 13.0523 0.447715 13.5 1 13.5H2C2.55228 13.5 3 13.0523 3 12.5V11.5C3 10.9477 2.55228 10.5 2 10.5H1ZM5 11.5C5 10.9477 5.44772 10.5 6 10.5H7C7.55228 10.5 8 10.9477 8 11.5V12.5C8 13.0523 7.55228 13.5 7 13.5H6C5.44772 13.5 5 13.0523 5 12.5V11.5ZM11 10.5C10.4477 10.5 10 10.9477 10 11.5V12.5C10 13.0523 10.4477 13.5 11 13.5H12C12.5523 13.5 13 13.0523 13 12.5V11.5C13 10.9477 12.5523 10.5 12 10.5H11Z" fill="#7B7B7B"/>
</svg>
