<svg width="77" height="77" viewBox="0 0 77 77" fill="none" xmlns="http://www.w3.org/2000/svg">
<path d="M21.514 11.4448L11.5149 21.4438L25.1477 35.0766L35.1468 25.0776L21.514 11.4448Z" fill="#F2F2F2"/>
<path d="M19.3032 35.4341L21.7045 33.0328C22.092 32.6453 22.092 32.01 21.7045 31.6225L14.9771 24.895C14.5896 24.5075 13.9543 24.5075 13.5668 24.895L11.1655 27.2963C10.778 27.6838 10.778 28.3191 11.1655 28.7066L17.8993 35.4404C18.2868 35.8279 18.9094 35.8279 19.3032 35.4341Z" fill="white"/>
<path d="M33.1075 21.6309L35.5089 19.2295C35.8964 18.842 35.8964 18.2068 35.5089 17.8193L28.7814 11.0918C28.3939 10.7043 27.7586 10.7043 27.3711 11.0918L24.9698 13.4931C24.5823 13.8806 24.5823 14.5159 24.9698 14.9034L31.7036 21.6372C32.0911 22.0247 32.72 22.0184 33.1075 21.6309Z" fill="white"/>
<path d="M42.954 19.2296L41.3976 20.786C40.5908 21.5928 39.2821 21.5928 38.4753 20.786L25.8145 8.12517C25.0077 7.31839 25.0077 6.00974 25.8145 5.20295L27.3709 3.64655C28.1777 2.83976 29.4863 2.83977 30.2931 3.64655L42.954 16.3074C43.7608 17.1142 43.7608 18.4228 42.954 19.2296Z" fill="#F2F2F2"/>
<path d="M20.8595 41.3224L19.3031 42.8788C18.4963 43.6856 17.1877 43.6856 16.3809 42.8788L3.72002 30.2179C2.91323 29.4112 2.91323 28.1025 3.72002 27.2957L5.27643 25.7393C6.08321 24.9325 7.39186 24.9325 8.19864 25.7393L20.8595 38.4002C21.6663 39.207 21.6663 40.5156 20.8595 41.3224Z" fill="#F2F2F2"/>
<path d="M62.8755 61.1177L61.1857 62.8075C60.309 63.6841 58.886 63.6841 58.0094 62.8075L36.4802 41.2783L41.3464 36.4122L62.8755 57.9413C63.7522 58.818 63.7585 60.2346 62.8755 61.1177Z" fill="#F2F2F2"/>
<path d="M26.5769 2.85117L25.0205 4.40757C23.7754 5.6527 23.7754 7.67284 25.0205 8.91796L25.3763 9.27371C25.9861 9.88356 25.9925 10.8809 25.3763 11.4971C24.7601 12.1133 23.7691 12.1133 23.1528 11.4971L22.3079 10.6522C21.8696 10.2139 21.1581 10.2139 20.7198 10.6522L10.7207 20.6513C10.2824 21.0897 10.2824 21.8012 10.7207 22.2395L11.5656 23.0844C12.1755 23.6942 12.1818 24.6916 11.5656 25.3078C10.9494 25.924 9.95837 25.924 9.34216 25.3078L8.98642 24.9521C7.74129 23.707 5.72115 23.707 4.47603 24.9521L2.91963 26.5085C1.6745 27.7536 1.6745 29.7737 2.91962 31.0189L15.5805 43.6797C16.8256 44.9248 18.8457 44.9248 20.0909 43.6797L21.6473 42.1233C22.8924 40.8782 22.8924 38.858 21.6473 37.6129L21.2915 37.2572C20.6817 36.6473 20.6753 35.6499 21.2915 35.0337C21.9077 34.4175 22.8987 34.4175 23.5149 35.0337L24.3598 35.8786C24.7982 36.317 25.5097 36.317 25.948 35.8786L30.1535 31.6732L37.332 38.8517L35.693 40.4907C35.2546 40.929 35.2546 41.6405 35.693 42.0788L57.2221 63.608C58.5371 64.923 60.6716 64.923 61.9866 63.608L63.6828 61.9118C64.9978 60.5968 64.9978 58.4623 63.6828 57.1473L42.1473 35.6118C41.709 35.1735 40.9975 35.1735 40.5591 35.6118L38.9201 37.2508L31.7416 30.0723L35.9471 25.8668C36.3854 25.4285 36.3854 24.717 35.9471 24.2787L35.1022 23.4338C34.4923 22.8239 34.486 21.8266 35.1022 21.2103C35.7184 20.5941 36.7094 20.5941 37.3256 21.2103L37.6814 21.5661C38.9265 22.8112 40.9466 22.8112 42.1918 21.5661L43.7482 20.0097C44.9933 18.7646 44.9933 16.7444 43.7482 15.4993L31.0937 2.84482C29.8422 1.60605 27.8221 1.60605 26.5769 2.85117ZM20.0654 39.1947C20.4339 39.5632 20.4339 40.1603 20.0654 40.5288L18.509 42.0852C18.1406 42.4536 17.5434 42.4536 17.175 42.0852L4.51414 29.4243C4.14568 29.0559 4.14568 28.4587 4.51414 28.0903L6.07054 26.5339C6.439 26.1654 7.03614 26.1654 7.4046 26.5339L20.0654 39.1947ZM19.7033 33.4456C19.3031 33.8458 19.03 34.3095 18.8394 34.805L11.8006 27.7663C12.2898 27.5821 12.7535 27.2962 13.1538 26.896C13.554 26.4958 13.8335 26.0384 14.0241 25.5429L21.0628 32.5816C20.5673 32.7595 20.1036 33.0454 19.7033 33.4456ZM41.3469 38.0004L62.0819 58.7355C62.5203 59.1738 62.5203 59.8853 62.0819 60.3237L60.3858 62.0198C59.9474 62.4582 59.2359 62.4582 58.7976 62.0198L38.0625 41.2847L41.3469 38.0004ZM33.5585 25.0791L25.1476 33.49L13.1029 21.4454L21.5139 13.0345L33.5585 25.0791ZM34.8671 18.7646C34.378 18.9488 33.9142 19.2347 33.514 19.6349C33.1202 20.0288 32.8343 20.4925 32.6437 20.988L25.605 13.9493C26.0941 13.765 26.5579 13.4792 26.9581 13.0789C27.352 12.6851 27.6378 12.2213 27.8284 11.7258L34.8671 18.7646ZM42.16 17.1002C42.5285 17.4686 42.5285 18.0658 42.16 18.4342L40.6036 19.9906C40.2351 20.3591 39.638 20.3591 39.2695 19.9906L26.6087 7.32979C26.2402 6.96134 26.2402 6.36419 26.6087 5.99574L28.1651 4.43933C28.5336 4.07088 29.1307 4.07088 29.4992 4.43933L42.16 17.1002Z" fill="#D3D3D3"/>
</svg>
