<svg width="94" height="82" viewBox="0 0 94 82" fill="none" xmlns="http://www.w3.org/2000/svg">
<path d="M81.3443 80.56H9.9043V1.25H61.8043L81.3443 20.79V80.56Z" fill="white"/>
<path d="M82.5943 81.81H8.6543V0H62.3243L82.5943 20.27V81.81ZM11.1543 79.31H80.0943V21.31L61.2943 2.5H11.1543V79.31Z" fill="#D3D3D3"/>
<path d="M88.8743 79.25H11.9043V81.81H88.8743V79.25Z" fill="#D3D3D3"/>
<path d="M32.9744 20.1699H19.9844V28.4599H32.9744V20.1699Z" fill="#9CD7FF"/>
<path d="M32.3141 18.9204V14.5204C32.3141 11.3004 29.6941 8.69043 26.4841 8.69043C23.2741 8.69043 20.6541 11.3104 20.6541 14.5204V18.9204H18.7441V29.7104H34.2341V18.9204H32.3141ZM23.1441 14.5304C23.1441 12.6904 24.6441 11.2004 26.4741 11.2004C28.3041 11.2004 29.8041 12.7004 29.8041 14.5304V18.9304H23.1341V14.5304H23.1441ZM31.7241 27.2104H21.2341V21.4204H31.7241V27.2104Z" fill="#0A7CED"/>
<path d="M27.7246 23.25H25.2246V25.23H27.7246V23.25Z" fill="#0A7CED"/>
<path d="M65.6445 38.5703H19.0645V41.0703H65.6445V38.5703Z" fill="#D3D3D3"/>
<path d="M72.0545 45.6504H19.0645V48.1504H72.0545V45.6504Z" fill="#D3D3D3"/>
<path d="M65.6445 52.7402H19.0645V55.2402H65.6445V52.7402Z" fill="#D3D3D3"/>
<path d="M72.0545 59.8203H19.0645V62.3203H72.0545V59.8203Z" fill="#D3D3D3"/>
<path d="M65.6445 66.9102H19.0645V69.4102H65.6445V66.9102Z" fill="#D3D3D3"/>
<path d="M52.7849 13.1797H41.0049V15.6797H52.7849V13.1797Z" fill="#D3D3D3"/>
<path d="M52.7849 20.2598H41.0049V22.7598H52.7849V20.2598Z" fill="#D3D3D3"/>
<path d="M52.7849 27.3496H41.0049V29.8496H52.7849V27.3496Z" fill="#D3D3D3"/>
<path d="M79.325 20.6204H61.835L61.865 3.15039L79.325 20.6204Z" fill="#EFEFEF"/>
<path d="M81.1445 22.2995H60.3545V1.51953H62.8545V19.7995H81.1445V22.2995Z" fill="#D3D3D3"/>
<path d="M17.7243 70.6L5.36434 67.29C5.36434 67.29 6.59434 70.14 3.69434 71.75C6.24434 72.47 17.0543 75.64 17.0543 75.64C17.0543 75.64 14.0643 73.03 17.7243 70.6Z" fill="#F2F2F2"/>
<path d="M21.6745 57.1999L9.39453 53.5899C9.39453 53.5899 11.9245 51.7899 10.2945 48.9199C12.8445 49.6399 23.7245 52.5499 23.7245 52.5499C23.7245 52.5499 19.8045 53.2199 21.6745 57.1999Z" fill="#F2F2F2"/>
<path d="M25.8543 50.2199C26.2743 48.7399 25.4143 47.1999 23.9343 46.7799L12.8443 43.6299C11.3643 43.2099 9.82433 44.0699 9.40433 45.5499C8.98433 47.0299 9.84433 48.5699 11.3243 48.9899L22.4143 52.1399C23.8943 52.5599 25.4343 51.6999 25.8543 50.2199Z" fill="#D3D3D3"/>
<path d="M17.8045 78.5803C17.3845 80.0603 15.8445 80.9203 14.3645 80.5003L3.27452 77.3503C1.79452 76.9303 0.934523 75.3903 1.35452 73.9103C1.77452 72.4303 3.31452 71.5703 4.79452 71.9903L15.8845 75.1403C17.3645 75.5703 18.2245 77.1103 17.8045 78.5803Z" fill="#D3D3D3"/>
<path d="M66.7245 80.3907L19.8245 67.0707L18.9345 70.2207C18.8145 70.6407 18.3745 70.8907 17.9545 70.7707L5.35452 67.1907C4.93452 67.0707 4.68452 66.6307 4.80452 66.2107L8.29452 53.9307C8.41452 53.5107 8.85452 53.2607 9.27452 53.3807L21.8745 56.9607C22.2945 57.0807 22.5445 57.5207 22.4245 57.9407L21.5345 61.0907L68.4345 74.4107C69.9345 74.8407 70.8045 76.4007 70.3845 77.9007L70.2245 78.4507C69.7845 79.9507 68.2245 80.8207 66.7245 80.3907Z" fill="#D3D3D3"/>
<path d="M71.4146 78.7902L71.5746 78.2402C72.0846 76.4602 71.3146 74.6102 69.8246 73.6802C69.5046 73.4802 69.1546 73.3202 68.7746 73.2102L23.0646 60.2302L23.6146 58.2802C23.8246 57.5502 23.5946 56.8202 23.1046 56.3102L23.1246 56.2902C22.6946 55.8602 22.5246 55.2302 22.6946 54.6402C22.8646 54.0302 23.3646 53.5802 23.9846 53.4502L23.9746 53.3902C25.4146 53.1002 26.6446 52.0602 27.0746 50.5502C27.5746 48.7902 26.8146 46.9602 25.3346 46.0302C25.0146 45.8302 24.6646 45.6702 24.2946 45.5702L13.2046 42.4202C11.0646 41.8102 8.82462 43.0602 8.22462 45.2002C7.93462 46.2402 8.05462 47.3302 8.58462 48.2702C8.80462 48.6602 9.08462 48.9902 9.41462 49.2802L9.40462 49.2902C9.83462 49.7202 10.0046 50.3502 9.83462 50.9402C9.66462 51.5502 9.17462 52.0002 8.55462 52.1302L8.56462 52.1602C8.39462 52.2002 8.23462 52.2602 8.07462 52.3502C7.59462 52.6202 7.25462 53.0502 7.10462 53.5802L3.61462 65.8602C3.46462 66.3902 3.52462 66.9402 3.79462 67.4202C3.87462 67.5702 3.98462 67.7002 4.10462 67.8202L4.08462 67.8402C4.54462 68.2702 4.72462 68.9202 4.55462 69.5302C4.38462 70.1202 3.91462 70.5702 3.32462 70.7102V70.7202C1.84462 71.0002 0.584618 72.0502 0.154618 73.5702C-0.455382 75.7102 0.794617 77.9402 2.93462 78.5502L14.0246 81.7002C16.1646 82.3102 18.3946 81.0602 19.0046 78.9202C19.4346 77.4202 18.9346 75.8702 17.8646 74.8702L17.8946 74.8302C17.4346 74.4002 17.2546 73.7502 17.4246 73.1402C17.5846 72.5702 18.0346 72.1402 18.5946 71.9902C18.7846 71.9502 18.9746 71.8902 19.1546 71.7902C19.6346 71.5202 19.9746 71.0902 20.1246 70.5602L20.6746 68.6102L66.3746 81.6002C67.4246 81.9002 68.5246 81.7702 69.4746 81.2402C70.4246 80.7102 71.1146 79.8402 71.4146 78.7902ZM7.09462 68.9902L15.5146 71.3802C15.3046 71.7102 15.1346 72.0802 15.0246 72.4702C14.9246 72.8302 14.8746 73.2002 14.8646 73.5602L6.52462 71.1902C6.70462 70.8902 6.84462 70.5702 6.94462 70.2202C7.05462 69.8102 7.10462 69.4002 7.09462 68.9902ZM3.28462 73.3402C3.64462 73.1402 4.05462 73.0902 4.45462 73.2002L15.5446 76.3502C15.9446 76.4602 16.2646 76.7202 16.4646 77.0802C16.6646 77.4402 16.7146 77.8502 16.6046 78.2502C16.4946 78.6402 16.2346 78.9702 15.8746 79.1702C15.5146 79.3702 15.1046 79.4202 14.7046 79.3102L3.61462 76.1602C3.47462 76.1202 3.33462 76.0602 3.21462 75.9802C2.99462 75.8402 2.82462 75.6602 2.69462 75.4302C2.49462 75.0702 2.44462 74.6602 2.55462 74.2602C2.66462 73.8602 2.92462 73.5402 3.28462 73.3402ZM20.1346 55.1702L11.7046 52.7802C11.9346 52.4302 12.1146 52.0502 12.2246 51.6402C12.3246 51.3002 12.3746 50.9402 12.3746 50.6002L20.7146 52.9702C20.5246 53.2802 20.3746 53.6202 20.2746 53.9802C20.1746 54.3602 20.1246 54.7702 20.1346 55.1702ZM23.9246 50.8002C23.5646 51.0002 23.1546 51.0502 22.7546 50.9402L11.6646 47.7902C11.5246 47.7502 11.3846 47.6902 11.2646 47.6102C11.0446 47.4702 10.8746 47.2902 10.7446 47.0602C10.5446 46.7002 10.4946 46.2902 10.6046 45.8902C10.7146 45.5002 10.9746 45.1702 11.3346 44.9702C11.6946 44.7702 12.1046 44.7202 12.5046 44.8302L23.5946 47.9802C23.9946 48.0902 24.3146 48.3502 24.5146 48.7102C24.7146 49.0702 24.7646 49.4802 24.6546 49.8802C24.5446 50.2802 24.2846 50.6002 23.9246 50.8002ZM17.8546 69.4502L6.12462 66.1202L9.36462 54.7102L21.0946 58.0402L17.8546 69.4502ZM68.2546 79.0502C67.8846 79.2502 67.4646 79.3002 67.0546 79.1902L21.3646 66.2202L22.3846 62.6402L68.0746 75.6102C68.9146 75.8502 69.3946 76.7202 69.1646 77.5502L69.0046 78.1002C68.8946 78.5102 68.6246 78.8502 68.2546 79.0502Z" fill="#6B6B6B"/>
<path d="M78.3242 62.8203C86.6085 62.8203 93.3242 56.1046 93.3242 47.8203C93.3242 39.536 86.6085 32.8203 78.3242 32.8203C70.0399 32.8203 63.3242 39.536 63.3242 47.8203C63.3242 56.1046 70.0399 62.8203 78.3242 62.8203Z" fill="#38BA25"/>
<path d="M85.9443 45.7802H80.3643V40.2002H76.2843V45.7802H70.6943V49.8602H76.2843V55.4502H80.3643V49.8602H85.9443V45.7802Z" fill="white"/>
</svg>
