<svg width="106" height="76" viewBox="0 0 106 76" fill="none" xmlns="http://www.w3.org/2000/svg">
<path d="M90.97 2.77979H75.23V24.2398H90.97V2.77979Z" fill="#F2F2F2"/>
<path d="M70.35 19.9199H74.13C74.74 19.9199 75.24 19.4199 75.24 18.8099V8.21986C75.24 7.60986 74.74 7.10986 74.13 7.10986H70.35C69.74 7.10986 69.24 7.60986 69.24 8.21986V18.8199C69.24 19.4299 69.73 19.9199 70.35 19.9199Z" fill="white"/>
<path d="M92.08 19.9199H95.86C96.47 19.9199 96.97 19.4199 96.97 18.8099V8.21986C96.97 7.60986 96.47 7.10986 95.86 7.10986H92.08C91.47 7.10986 90.97 7.60986 90.97 8.21986V18.8199C90.97 19.4299 91.47 19.9199 92.08 19.9199Z" fill="white"/>
<path d="M1.25 67.1899C1.25 67.1899 1.6 61.0599 7.59 61.0599H49.9V1.66992H7.05C3.85 1.66992 1.25 4.25992 1.25 7.46992V67.1899Z" fill="#F2F2F2"/>
<path d="M10.34 1.66992H7.05C3.85 1.66992 1.25 4.25992 1.25 7.46992V67.1999C1.25 67.1999 1.6 61.0699 7.59 61.0699H10.34V1.66992Z" fill="#F2F2F2"/>
<path d="M101.72 25.78H99.27C98 25.78 96.97 24.75 96.97 23.48V3.55C96.97 2.28 98 1.25 99.27 1.25H101.72C102.99 1.25 104.02 2.28 104.02 3.55V23.48C104.02 24.75 102.99 25.78 101.72 25.78Z" fill="#F2F2F2"/>
<path d="M66.9399 25.78H64.4899C63.2199 25.78 62.1899 24.75 62.1899 23.48V3.55C62.1899 2.28 63.2199 1.25 64.4899 1.25H66.9399C68.2099 1.25 69.2399 2.28 69.2399 3.55V23.48C69.2399 24.75 68.2099 25.78 66.9399 25.78Z" fill="#F2F2F2"/>
<path d="M84.43 74.43H81.77C80.39 74.43 79.27 73.31 79.27 71.93V38.04H86.93V71.93C86.93 73.31 85.82 74.43 84.43 74.43Z" fill="#F2F2F2"/>
<path d="M101.72 0H99.2701C97.3101 0 95.7201 1.59 95.7201 3.55V4.11C95.7201 5.07 94.9401 5.86 93.9701 5.86C93.0001 5.86 92.2201 5.08 92.2201 4.11V2.78C92.2201 2.09 91.6601 1.53 90.9701 1.53H75.2301C74.5401 1.53 73.9801 2.09 73.9801 2.78V4.11C73.9801 5.07 73.2001 5.86 72.2301 5.86C71.2601 5.86 70.4801 5.08 70.4801 4.11V3.55C70.4801 1.59 68.8901 0 66.9301 0H64.4801C62.5201 0 60.9301 1.59 60.9301 3.55V23.48C60.9301 25.44 62.5201 27.03 64.4801 27.03H66.9301C68.8901 27.03 70.4801 25.44 70.4801 23.48V22.92C70.4801 21.96 71.2601 21.17 72.2301 21.17C73.2001 21.17 73.9801 21.95 73.9801 22.92V24.25C73.9801 24.94 74.5401 25.5 75.2301 25.5H81.8501V36.8H79.2701C78.58 36.8 78.0201 37.36 78.0201 38.05V71.94C78.0201 74.01 79.7001 75.69 81.7701 75.69H84.4401C86.5101 75.69 88.1901 74.01 88.1901 71.94V38.04C88.1901 37.35 87.6301 36.79 86.9401 36.79H84.3601V25.49H90.9801C91.6701 25.49 92.2301 24.93 92.2301 24.24V22.91C92.2301 21.95 93.0101 21.16 93.9801 21.16C94.9501 21.16 95.7301 21.94 95.7301 22.91V23.47C95.7301 25.43 97.3201 27.02 99.2801 27.02H101.73C103.69 27.02 105.28 25.43 105.28 23.47V3.55C105.27 1.59 103.68 0 101.72 0ZM67.9901 23.48C67.9901 24.06 67.5201 24.53 66.9401 24.53H64.4901C63.9101 24.53 63.4401 24.06 63.4401 23.48V3.55C63.4401 2.97 63.9101 2.5 64.4901 2.5H66.9401C67.5201 2.5 67.9901 2.97 67.9901 3.55V23.48ZM72.2301 18.67C71.6001 18.67 71.0201 18.82 70.4801 19.06V7.98C71.0101 8.22 71.6001 8.36 72.2301 8.36C72.8601 8.36 73.4401 8.22 73.9801 7.98V19.06C73.4501 18.81 72.8601 18.67 72.2301 18.67ZM85.6801 39.29V71.93C85.6801 72.62 85.1201 73.18 84.4301 73.18H81.7601C81.0701 73.18 80.5101 72.62 80.5101 71.93V39.29H85.6801ZM89.7201 22.99H76.4801V4.03H89.7201V22.99ZM95.7201 19.05C95.1901 18.81 94.6001 18.67 93.9701 18.67C93.3501 18.67 92.7601 18.81 92.2201 19.05V7.97C92.7501 8.21 93.3401 8.35 93.9701 8.35C94.5901 8.35 95.1801 8.21 95.7201 7.97V19.05ZM102.77 23.48C102.77 24.06 102.3 24.53 101.72 24.53H99.2701C98.69 24.53 98.2201 24.06 98.2201 23.48V3.55C98.2201 2.97 98.69 2.5 99.2701 2.5H101.72C102.3 2.5 102.77 2.97 102.77 3.55V23.48Z" fill="#D3D3D3"/>
<path d="M1.25 67.4001C1.25 63.9001 4.09 61.0601 7.59 61.0601H49.9V67.4001H1.25Z" fill="#F2F2F2"/>
<path d="M7.59 62.3099H49.9C50.59 62.3099 51.15 61.7499 51.15 61.0599V1.66992C51.15 0.979922 50.59 0.419922 49.9 0.419922H7.59C3.4 0.419922 0 3.81992 0 8.00992V67.3099C0 67.3199 0 67.3199 0 67.3299C0 67.3499 0 67.3799 0 67.3999C0 71.5799 3.4 74.9899 7.59 74.9899H49.9C50.59 74.9899 51.15 74.4299 51.15 73.7399C51.15 73.0499 50.59 72.4899 49.9 72.4899H7.59C4.79 72.4899 2.5 70.2099 2.5 67.3999C2.5 64.5899 4.78 62.3099 7.59 62.3099ZM7.59 2.91992H48.65V59.8099H7.59C5.63 59.8099 3.85 60.5599 2.5 61.7799V8.00992C2.5 5.19992 4.78 2.91992 7.59 2.91992Z" fill="#D3D3D3"/>
<path d="M40.73 10.9502H10.34V51.9702H40.73V10.9502Z" fill="white"/>
<path d="M40.73 53.2302H10.34C9.64997 53.2302 9.08997 52.6702 9.08997 51.9802V10.9502C9.08997 10.2602 9.64997 9.7002 10.34 9.7002H40.73C41.42 9.7002 41.98 10.2602 41.98 10.9502V51.9702C41.98 52.6702 41.42 53.2302 40.73 53.2302ZM11.59 50.7302H39.48V12.2002H11.59V50.7302Z" fill="#D3D3D3"/>
<path d="M33.06 33.04H18C17.31 33.04 16.75 32.48 16.75 31.79C16.75 31.1 17.31 30.54 18 30.54H33.06C33.75 30.54 34.31 31.1 34.31 31.79C34.31 32.48 33.75 33.04 33.06 33.04Z" fill="#D3D3D3"/>
<path d="M30.04 26.5498H21.11C20.42 26.5498 19.86 25.9898 19.86 25.2998C19.86 24.6098 20.42 24.0498 21.11 24.0498H30.04C30.73 24.0498 31.29 24.6098 31.29 25.2998C31.29 25.9898 30.73 26.5498 30.04 26.5498Z" fill="#D3D3D3"/>
<path d="M29.9999 39.75H21.0699C20.3799 39.75 19.8199 39.19 19.8199 38.5C19.8199 37.81 20.3799 37.25 21.0699 37.25H29.9999C30.6899 37.25 31.2499 37.81 31.2499 38.5C31.2499 39.19 30.6899 39.75 29.9999 39.75Z" fill="#D3D3D3"/>
</svg>
