<svg width="13" height="13" viewBox="0 0 13 13" fill="none" xmlns="http://www.w3.org/2000/svg">
<path fill-rule="evenodd" clip-rule="evenodd" d="M13 6.49999C13 10.0898 10.0899 13 6.50001 13C2.91015 13 0 10.0898 0 6.49999C0 2.91015 2.91015 0 6.50001 0C10.0899 0 13 2.91015 13 6.49999Z" fill="#326DE6"/>
<path fill-rule="evenodd" clip-rule="evenodd" d="M6.50168 6.04412C6.43824 6.04412 6.37482 6.04456 6.31137 6.04379C6.2946 6.04358 6.28324 6.0486 6.27261 6.06204C6.19528 6.15962 6.11746 6.25681 6.039 6.3535C6.02737 6.3678 6.02419 6.38112 6.02826 6.3986C6.05651 6.51974 6.0844 6.64097 6.1118 6.76232C6.11521 6.77733 6.12144 6.78713 6.13583 6.79398C6.25142 6.84885 6.36681 6.90423 6.48189 6.96014C6.49634 6.96717 6.50786 6.96551 6.52145 6.95895C6.63558 6.90375 6.74987 6.84885 6.86439 6.79443C6.87834 6.78781 6.88573 6.77926 6.88923 6.76365C6.91665 6.64112 6.94475 6.51873 6.97351 6.3965C6.97746 6.37979 6.97407 6.36798 6.96354 6.35495C6.88528 6.25812 6.80735 6.16098 6.73022 6.06329C6.71868 6.04866 6.70648 6.04353 6.68847 6.04379C6.62621 6.04471 6.56394 6.04415 6.50168 6.04412ZM8.40799 4.52613C8.40384 4.52022 8.40218 4.51702 8.39977 4.51461C8.38977 4.50467 8.37968 4.49482 8.36939 4.48517C8.20631 4.3327 8.02671 4.20271 7.83224 4.09347C7.56984 3.9461 7.2902 3.84565 6.99463 3.78959C6.95195 3.78149 6.90889 3.77523 6.86592 3.76879C6.83942 3.76481 6.83859 3.76591 6.83918 3.79359C6.83951 3.80888 6.84049 3.82413 6.84138 3.83939C6.84503 3.9004 6.84898 3.96139 6.85242 4.0224C6.86046 4.16672 6.86806 4.31106 6.87625 4.45541C6.88945 4.68771 6.90361 4.91996 6.9161 5.15233C6.92263 5.27376 7.01869 5.36769 7.14046 5.37003C7.19708 5.37113 7.24566 5.35193 7.29118 5.31961C7.65623 5.06033 8.02164 4.80152 8.38689 4.54251C8.39354 4.53779 8.39977 4.53254 8.40799 4.52613ZM5.0182 8.77961C5.03129 8.7661 5.03408 8.75313 5.03894 8.74135C5.19127 8.37354 5.34357 8.00571 5.49551 7.63775C5.517 7.58567 5.54121 7.53459 5.55774 7.48058C5.60808 7.31656 5.4699 7.15545 5.30208 7.18314C5.13408 7.21082 4.96629 7.23988 4.79844 7.26837C4.54029 7.31217 4.28211 7.35585 4.02401 7.40007C3.99347 7.40529 3.96193 7.40701 3.92973 7.41951C4.14556 7.99194 4.50782 8.44343 5.0182 8.77961ZM7.37832 9.07994C7.37028 9.06439 7.36515 9.05392 7.35951 9.04371C7.14611 8.65809 6.93267 8.27248 6.71918 7.88692C6.71123 7.87253 6.70322 7.85808 6.69396 7.84454C6.58018 7.67895 6.36758 7.73287 6.30051 7.85695C6.08592 8.25393 5.86498 8.6475 5.64671 9.04252C5.64122 9.05243 5.63249 9.06139 5.63365 9.07786C6.21305 9.26919 6.79275 9.26865 7.37832 9.07994ZM8.83217 5.05143C8.81873 5.05452 8.81265 5.06212 8.8057 5.06829C8.46757 5.37078 8.12929 5.67306 7.79154 5.97597C7.70073 6.05743 7.69052 6.19163 7.76531 6.28825C7.80157 6.33511 7.85089 6.35957 7.90648 6.37556C8.3353 6.49884 8.76398 6.62265 9.19274 6.74622C9.20259 6.74907 9.21239 6.75435 9.22654 6.74871C9.27773 6.14067 9.14668 5.57475 8.83217 5.05143ZM4.15874 5.05143C3.84503 5.57751 3.71582 6.14465 3.77491 6.75486C3.79292 6.76002 3.80589 6.75233 3.81895 6.74856C4.10681 6.66574 4.39452 6.58258 4.68223 6.49931C4.82892 6.45688 4.97638 6.41696 5.12186 6.37064C5.28362 6.31915 5.33238 6.11441 5.21498 5.99194C5.20118 5.97751 5.18634 5.96404 5.17145 5.95075C4.84462 5.65834 4.51774 5.36603 4.19073 5.07381C4.18218 5.06621 4.17518 5.05624 4.15874 5.05143ZM6.12488 4.45704C6.12479 4.45701 6.12473 4.45701 6.12465 4.45701C6.12761 4.40184 6.13049 4.34667 6.13361 4.2915C6.14307 4.12368 6.15269 3.95586 6.16204 3.78801C6.16331 3.76507 6.16254 3.76359 6.13862 3.76674C6.09556 3.77246 6.05256 3.77911 6.00983 3.78683C5.53714 3.87223 5.11529 4.06736 4.74496 4.37341C4.69692 4.41312 4.6505 4.45469 4.60557 4.4979C4.57952 4.52295 4.57937 4.52313 4.60726 4.54289C4.97843 4.80597 5.35006 5.06837 5.72057 5.33231C5.85972 5.43143 6.06233 5.34573 6.08286 5.16802C6.08761 5.12704 6.08844 5.086 6.09084 5.04496C6.10233 4.84897 6.11355 4.65299 6.12488 4.45704ZM7.43013 7.41017C7.42853 7.43703 7.43672 7.46611 7.44859 7.49472C7.51794 7.66177 7.58697 7.82893 7.65612 7.99607C7.76076 8.24894 7.86537 8.50181 7.97003 8.75466C7.9841 8.78855 7.98051 8.79374 8.01452 8.7703C8.0155 8.76964 8.01654 8.76908 8.01752 8.76846C8.46079 8.47184 8.79029 8.07934 9.00776 7.59271C9.03123 7.54021 9.051 7.48608 9.07269 7.43278C9.07854 7.41839 9.07489 7.41076 9.05889 7.40869C9.0391 7.4061 9.01942 7.40269 8.99974 7.39937C8.56665 7.32616 8.1334 7.25407 7.70066 7.17887C7.57842 7.15762 7.43206 7.24713 7.43013 7.41017ZM6.30148 2.70543C6.30258 2.60293 6.28919 2.50146 6.27875 2.39976C6.2707 2.32133 6.25296 2.24444 6.24278 2.16639C6.23227 2.08588 6.22568 2.00489 6.24557 1.92458C6.25854 1.87209 6.28391 1.82627 6.32213 1.78784C6.42817 1.68112 6.59151 1.6856 6.69137 1.79831C6.73912 1.85217 6.76372 1.91589 6.76814 1.98744C6.77393 2.08083 6.76158 2.17262 6.74523 2.26435C6.71938 2.40917 6.70573 2.55544 6.70006 2.7024C6.69893 2.73166 6.70255 2.7611 6.70273 2.79045C6.70303 2.84066 6.72199 2.88272 6.75983 2.91447C6.78452 2.93518 6.79553 2.95931 6.79428 2.99062C6.79387 3.00112 6.79538 3.01175 6.79586 3.02231C6.79764 3.06279 6.79764 3.06255 6.83948 3.06683C7.33677 3.11772 7.80088 3.2699 8.23219 3.52263C8.50061 3.67991 8.74349 3.86966 8.96069 4.09238C8.96478 4.0966 8.96915 4.10057 8.97291 4.10509C8.98125 4.11503 8.98941 4.11556 9.00007 4.10758C9.02262 4.09066 9.04633 4.07526 9.06886 4.05826C9.08094 4.04917 9.09307 4.04508 9.10815 4.04811C9.11845 4.05018 9.12925 4.04995 9.13967 4.05161C9.18397 4.05876 9.22332 4.04677 9.2595 4.02155C9.30105 3.99261 9.34081 3.96133 9.37817 3.92723C9.47982 3.83444 9.57879 3.73891 9.66874 3.63451C9.71726 3.57818 9.77029 3.52681 9.82934 3.4815C9.90351 3.42461 9.98529 3.39499 10.0795 3.41217C10.2294 3.4395 10.3166 3.57756 10.2787 3.72591C10.2602 3.79823 10.2184 3.85468 10.1613 3.90156C10.102 3.95029 10.0373 3.99033 9.97016 4.02718C9.82466 4.10704 9.68417 4.19474 9.55365 4.29774C9.54445 4.30501 9.53608 4.31338 9.52664 4.32039C9.47575 4.35828 9.45183 4.40983 9.45076 4.47224C9.45044 4.49031 9.44447 4.50322 9.43043 4.51441C9.41301 4.5283 9.39681 4.54382 9.38028 4.55884C9.35215 4.58439 9.35494 4.5786 9.37304 4.60629C9.4645 4.74627 9.54564 4.89195 9.6157 5.04372C9.74655 5.32701 9.8373 5.62256 9.88849 5.93039C9.92271 6.13625 9.93873 6.3434 9.93505 6.55196C9.933 6.66954 9.92478 6.78676 9.9106 6.9036C9.90333 6.96333 9.89959 6.94965 9.94986 6.96538C9.95209 6.96609 9.95425 6.96734 9.95654 6.96767C9.99601 6.97348 10.0245 6.99182 10.0431 7.02957C10.0633 7.07058 10.1008 7.09246 10.1447 7.10513C10.2445 7.13406 10.347 7.14715 10.4495 7.16086C10.558 7.17537 10.6672 7.18012 10.7762 7.18804C10.8373 7.19252 10.8973 7.20481 10.9555 7.2238C11.0262 7.24686 11.0826 7.28942 11.1215 7.35334C11.1955 7.47469 11.1602 7.62313 11.0396 7.69821C10.9658 7.74418 10.8859 7.75234 10.802 7.73516C10.7268 7.71975 10.6549 7.69477 10.5843 7.66518C10.4259 7.59879 10.2645 7.54122 10.0965 7.5038C10.0792 7.49997 10.0619 7.49674 10.0445 7.49389C9.99488 7.48582 9.95146 7.50196 9.91247 7.53092C9.89404 7.54463 9.87638 7.54983 9.8538 7.54312C9.8359 7.53784 9.81655 7.53778 9.79827 7.53357C9.77916 7.52914 9.77153 7.53636 9.76581 7.55446C9.7423 7.62838 9.71574 7.70127 9.68616 7.77296C9.39723 8.47374 8.93113 9.02388 8.2849 9.4208C8.27988 9.42386 8.27504 9.42724 8.26979 9.42988C8.25819 9.43573 8.25564 9.44339 8.26122 9.45567C8.27142 9.47811 8.27956 9.50152 8.29 9.52384C8.29706 9.53892 8.29721 9.55257 8.29009 9.56743C8.2611 9.62806 8.26662 9.68673 8.29478 9.74721C8.33814 9.84016 8.3901 9.92806 8.44387 10.015C8.4859 10.0831 8.52952 10.15 8.57745 10.2141C8.62555 10.2784 8.66511 10.3478 8.69485 10.4224C8.72236 10.4914 8.72586 10.5619 8.70253 10.6328C8.65677 10.7719 8.51465 10.8411 8.37722 10.791C8.29427 10.7608 8.23857 10.7016 8.19961 10.6238C8.16305 10.5509 8.13841 10.474 8.11577 10.396C8.07057 10.2401 8.01751 10.087 7.94706 9.94041C7.94145 9.9288 7.93466 9.91773 7.92923 9.90601C7.90543 9.85473 7.86616 9.82114 7.81168 9.80772C7.78512 9.80117 7.76889 9.78683 7.75808 9.76282C7.75084 9.7468 7.74031 9.73229 7.73307 9.71629C7.72505 9.69849 7.71458 9.69638 7.69689 9.70303C7.61991 9.73205 7.54165 9.75724 7.46257 9.77995C7.22682 9.84773 6.98673 9.89046 6.7419 9.90702C6.57029 9.91865 6.39873 9.91812 6.22744 9.90399C5.91889 9.87847 5.61916 9.81197 5.32842 9.7054C5.32067 9.70258 5.31281 9.70003 5.30539 9.69653C5.29299 9.69065 5.28583 9.69552 5.27993 9.70659C5.2672 9.73042 5.25325 9.75362 5.24096 9.77769C5.23304 9.79324 5.22313 9.80369 5.20503 9.8079C5.1411 9.82265 5.09875 9.8623 5.0694 9.92091C5.02136 10.0169 4.98414 10.1169 4.94776 10.2174C4.91814 10.2993 4.89369 10.3826 4.8701 10.4663C4.85087 10.5345 4.82363 10.5997 4.78748 10.6604C4.73715 10.7449 4.66432 10.7993 4.56455 10.8093C4.42789 10.8229 4.31251 10.7304 4.29165 10.5944C4.28268 10.5359 4.28907 10.4795 4.31111 10.4249C4.34254 10.3471 4.38581 10.276 4.43478 10.208C4.53446 10.0695 4.62571 9.92569 4.70029 9.77182C4.7059 9.76018 4.7102 9.7479 4.71599 9.73635C4.74145 9.68581 4.74314 9.63409 4.71919 9.58337C4.70729 9.55821 4.70973 9.53696 4.72133 9.51354C4.73118 9.49357 4.73786 9.47203 4.74733 9.45185C4.75433 9.43698 4.75077 9.42831 4.73676 9.42048C4.68643 9.39237 4.63874 9.36 4.59093 9.32786C4.12148 9.01204 3.75237 8.60485 3.48219 8.10798C3.38711 7.93313 3.30883 7.75083 3.2463 7.56179C3.23734 7.53463 3.23707 7.53472 3.20985 7.53917C3.20638 7.53977 3.20279 7.53995 3.19941 7.54093C3.14872 7.55597 3.10287 7.55294 3.05824 7.5181C3.02651 7.49335 2.98553 7.49564 2.94609 7.50226C2.83549 7.52089 2.72981 7.5568 2.62416 7.5928C2.54855 7.61859 2.47388 7.6469 2.40049 7.67877C2.31936 7.71409 2.23537 7.74044 2.1467 7.74842C2.09664 7.75293 2.04823 7.74465 2.00203 7.72462C1.8337 7.65159 1.79121 7.45015 1.91549 7.31509C1.9625 7.26396 2.02135 7.23416 2.088 7.21808C2.16602 7.19929 2.24525 7.19235 2.32529 7.18736C2.50246 7.17632 2.67894 7.1589 2.85154 7.1135C2.90514 7.09937 2.94541 7.07038 2.97016 7.02171C2.98253 6.9974 2.99978 6.98426 3.02589 6.97909C3.04542 6.97526 3.0642 6.96779 3.08361 6.96316C3.09792 6.95974 3.10257 6.95215 3.10062 6.93784C3.09679 6.90989 3.09418 6.88181 3.09082 6.8538C3.06459 6.63473 3.06153 6.41497 3.0799 6.19543C3.12774 5.62472 3.30716 5.0982 3.61639 4.61599C3.64245 4.57537 3.64536 4.58575 3.6082 4.55198C3.60473 4.54881 3.60143 4.54536 3.59764 4.5426C3.56707 4.52026 3.54772 4.49432 3.54769 4.45242C3.54766 4.40452 3.52193 4.36636 3.48564 4.33439C3.40231 4.261 3.30972 4.20082 3.21656 4.14132C3.1492 4.09829 3.08082 4.05695 3.00978 4.02009C2.94692 3.98748 2.88905 3.94727 2.83478 3.90189C2.76699 3.84527 2.72408 3.77505 2.71568 3.68552C2.70248 3.54488 2.80584 3.42339 2.94698 3.41363C3.0337 3.40766 3.10818 3.43651 3.17573 3.48909C3.23541 3.53557 3.28814 3.58878 3.33821 3.64522C3.44836 3.76942 3.56526 3.88679 3.69459 3.99131C3.70281 3.99792 3.7118 4.00368 3.71975 4.01063C3.76952 4.05425 3.82736 4.06648 3.8909 4.05336C3.90772 4.04989 3.92019 4.0536 3.9331 4.06348C3.95176 4.07778 3.97194 4.0901 3.99031 4.1047C4.00322 4.11497 4.01183 4.11345 4.02311 4.10191C4.06255 4.06152 4.10199 4.0211 4.14312 3.98249C4.61034 3.54388 5.15787 3.25857 5.78425 3.12404C5.9131 3.09639 6.04323 3.07754 6.17423 3.06383C6.205 3.0606 6.20794 3.05979 6.2072 3.0284C6.20592 2.97424 6.21779 2.92922 6.26311 2.89301C6.29127 2.87052 6.29952 2.83319 6.30118 2.7971C6.30258 2.76662 6.30148 2.736 6.30148 2.70543Z" fill="#FEFFFF"/>
</svg>
