<svg width="13" height="13" viewBox="0 0 13 13" fill="none" xmlns="http://www.w3.org/2000/svg">
<circle cx="6.5" cy="6.5" r="6" fill="#EFEFEF" stroke="#919191"/>
<path d="M9.5 6.5C9.5 8.22874 9.12162 9.76904 8.53464 10.8591C7.93669 11.9696 7.19442 12.5 6.5 12.5C5.80558 12.5 5.06331 11.9696 4.46536 10.8591C3.87838 9.76904 3.5 8.22874 3.5 6.5C3.5 4.77126 3.87838 3.23096 4.46536 2.14086C5.06331 1.03038 5.80558 0.5 6.5 0.5C7.19442 0.5 7.93669 1.03038 8.53464 2.14086C9.12162 3.23096 9.5 4.77126 9.5 6.5Z" stroke="#919191"/>
<path d="M1 6.5H12" stroke="#919191"/>
<path d="M2 2.2489C2.92099 2.8167 4.45427 3.49997 6.5 3.49997C8.54573 3.49997 10.079 2.8167 11 2.2489" stroke="#919191"/>
<path d="M2 10.76C2.92099 10.1922 4.45427 9.50894 6.5 9.50894C8.54573 9.50894 10.079 10.1922 11 10.76" stroke="#919191"/>
</svg>
