<svg width="83" height="85" viewBox="0 0 83 85" fill="none" xmlns="http://www.w3.org/2000/svg">
<path d="M73.44 80.56H2V1.25H53.9L73.44 20.79V80.56Z" fill="white"/>
<path d="M74.69 81.81H0.75V0H54.42L74.69 20.27V81.81ZM3.25 79.31H72.19V21.31L53.39 2.5H3.25V79.31Z" fill="#D3D3D3"/>
<path d="M25.0701 20.1699H12.0801V28.4599H25.0701V20.1699Z" fill="#9CD7FF"/>
<path d="M24.4098 18.9199V14.5199C24.4098 11.2999 21.7898 8.68994 18.5798 8.68994C15.3698 8.68994 12.7498 11.3099 12.7498 14.5199V18.9199H10.8398V29.7099H26.3298V18.9199H24.4098ZM15.2398 14.5299C15.2398 12.6899 16.7398 11.1999 18.5698 11.1999C20.3998 11.1999 21.8998 12.6999 21.8998 14.5299V18.9299H15.2298V14.5299H15.2398ZM23.8198 27.2099H13.3298V21.4199H23.8198V27.2099Z" fill="#0A7CED"/>
<path d="M19.8203 23.25H17.3203V25.23H19.8203V23.25Z" fill="#0A7CED"/>
<path d="M57.7402 38.5701H11.1602V41.0701H57.7402V38.5701Z" fill="#D3D3D3"/>
<path d="M64.1502 45.6499H11.1602V48.1499H64.1502V45.6499Z" fill="#D3D3D3"/>
<path d="M57.7402 52.74H11.1602V55.24H57.7402V52.74Z" fill="#D3D3D3"/>
<path d="M64.1502 59.8201H11.1602V62.3201H64.1502V59.8201Z" fill="#D3D3D3"/>
<path d="M57.7402 66.9099H11.1602V69.4099H57.7402V66.9099Z" fill="#D3D3D3"/>
<path d="M44.8796 13.1799H33.0996V15.6799H44.8796V13.1799Z" fill="#D3D3D3"/>
<path d="M44.8796 20.26H33.0996V22.76H44.8796V20.26Z" fill="#D3D3D3"/>
<path d="M44.8796 27.3501H33.0996V29.8501H44.8796V27.3501Z" fill="#D3D3D3"/>
<path d="M71.4197 20.6199H53.9297L53.9597 3.1499L71.4197 20.6199Z" fill="#EFEFEF"/>
<path d="M73.2392 22.3H52.4492V1.52002H54.9492V19.8H73.2392V22.3Z" fill="#D3D3D3"/>
<path d="M67.4199 84.8201C75.7042 84.8201 82.4199 78.1043 82.4199 69.8201C82.4199 61.5358 75.7042 54.8201 67.4199 54.8201C59.1357 54.8201 52.4199 61.5358 52.4199 69.8201C52.4199 78.1043 59.1357 84.8201 67.4199 84.8201Z" fill="#D46363"/>
<path d="M71.3599 62.9872L67.4142 66.9329L63.4686 62.9872L60.5836 65.8722L64.5292 69.8179L60.5765 73.7706L63.4615 76.6556L67.4142 72.7029L71.367 76.6556L74.252 73.7706L70.2992 69.8179L74.2449 65.8722L71.3599 62.9872Z" fill="white"/>
</svg>
