<svg width="83" height="85" viewBox="0 0 83 85" fill="none" xmlns="http://www.w3.org/2000/svg">
<path d="M73.44 80.56H2V1.25H53.9L73.44 20.79V80.56Z" fill="white"/>
<path d="M74.69 81.81H0.75V0H54.42L74.69 20.27V81.81ZM3.25 79.31H72.19V21.31L53.39 2.5H3.25V79.31Z" fill="#D3D3D3"/>
<path d="M25.0701 20.1699H12.0801V28.4599H25.0701V20.1699Z" fill="#9CD7FF"/>
<path d="M24.4098 18.9199V14.5199C24.4098 11.2999 21.7898 8.68994 18.5798 8.68994C15.3698 8.68994 12.7498 11.3099 12.7498 14.5199V18.9199H10.8398V29.7099H26.3298V18.9199H24.4098ZM15.2398 14.5299C15.2398 12.6899 16.7398 11.1999 18.5698 11.1999C20.3998 11.1999 21.8998 12.6999 21.8998 14.5299V18.9299H15.2298V14.5299H15.2398ZM23.8198 27.2099H13.3298V21.4199H23.8198V27.2099Z" fill="#0A7CED"/>
<path d="M19.8203 23.25H17.3203V25.23H19.8203V23.25Z" fill="#0A7CED"/>
<path d="M57.7402 38.5701H11.1602V41.0701H57.7402V38.5701Z" fill="#D3D3D3"/>
<path d="M64.1502 45.6499H11.1602V48.1499H64.1502V45.6499Z" fill="#D3D3D3"/>
<path d="M57.7402 52.74H11.1602V55.24H57.7402V52.74Z" fill="#D3D3D3"/>
<path d="M64.1502 59.8201H11.1602V62.3201H64.1502V59.8201Z" fill="#D3D3D3"/>
<path d="M57.7402 66.9099H11.1602V69.4099H57.7402V66.9099Z" fill="#D3D3D3"/>
<path d="M44.8796 13.1799H33.0996V15.6799H44.8796V13.1799Z" fill="#D3D3D3"/>
<path d="M44.8796 20.26H33.0996V22.76H44.8796V20.26Z" fill="#D3D3D3"/>
<path d="M44.8796 27.3501H33.0996V29.8501H44.8796V27.3501Z" fill="#D3D3D3"/>
<path d="M71.4197 20.6199H53.9297L53.9597 3.1499L71.4197 20.6199Z" fill="#EFEFEF"/>
<path d="M73.2392 22.3H52.4492V1.52002H54.9492V19.8H73.2392V22.3Z" fill="#D3D3D3"/>
<path d="M82.9996 69.9992C83.0269 78.1898 76.3998 84.8896 68.2002 84.9986C59.8914 85.0986 53.0826 78.4262 53.0007 70.1447C52.9189 61.7814 59.6641 55.018 67.9183 54.9998C76.2998 54.9816 82.9905 61.6541 82.9996 69.9992Z" fill="#878787"/>
<path d="M67.3268 62.6904C67.3268 63.9267 67.3268 65.0994 67.3268 66.2994C67.445 66.2994 67.5359 66.2994 67.6177 66.2994C69.2449 66.2994 70.8721 66.3267 72.4993 66.2903C75.0265 66.2357 77.0083 68.0902 76.9992 70.8719C76.9992 72.0446 76.6174 73.1173 76.1174 74.1536C75.6083 75.2172 74.9629 76.1899 74.2175 77.1081C74.1902 77.1444 74.172 77.199 74.1084 77.199C74.2447 76.6535 74.3993 76.1081 74.4993 75.5536C74.6811 74.6263 74.7265 73.7082 74.4265 72.79C74.0356 71.5901 72.9539 70.8174 71.6903 70.8083C70.3176 70.8083 68.9449 70.8083 67.5813 70.8083C67.5086 70.8083 67.4268 70.8083 67.3268 70.8083C67.3268 71.9537 67.3268 73.0991 67.3268 74.3082C64.5087 72.3537 61.7452 70.4356 58.9453 68.4902C61.7452 66.563 64.5087 64.6449 67.3268 62.6904Z" fill="white"/>
</svg>
