<svg width="94" height="82" viewBox="0 0 94 82" fill="none" xmlns="http://www.w3.org/2000/svg">
<path d="M81.3404 80.56H9.90039V1.25H61.8004L81.3404 20.79V80.56Z" fill="white"/>
<path d="M82.5904 81.81H8.65039V0H62.3204L82.5904 20.27V81.81ZM11.1504 79.31H80.0904V21.31L61.2904 2.5H11.1504V79.31Z" fill="#D3D3D3"/>
<path d="M88.8704 79.25H11.9004V81.81H88.8704V79.25Z" fill="#D3D3D3"/>
<path d="M32.97 20.1699H19.98V28.4599H32.97V20.1699Z" fill="#9CD7FF"/>
<path d="M32.3102 18.9199V14.5199C32.3102 11.2999 29.6902 8.68994 26.4802 8.68994C23.2702 8.68994 20.6502 11.3099 20.6502 14.5199V18.9199H18.7402V29.7099H34.2302V18.9199H32.3102ZM23.1402 14.5299C23.1402 12.6899 24.6402 11.1999 26.4702 11.1999C28.3002 11.1999 29.8002 12.6999 29.8002 14.5299V18.9299H23.1302V14.5299H23.1402ZM31.7202 27.2099H21.2302V21.4199H31.7202V27.2099Z" fill="#0A7CED"/>
<path d="M27.7202 23.25H25.2202V25.23H27.7202V23.25Z" fill="#0A7CED"/>
<path d="M65.6401 38.5701H19.0601V41.0701H65.6401V38.5701Z" fill="#D3D3D3"/>
<path d="M72.0501 45.6499H19.0601V48.1499H72.0501V45.6499Z" fill="#D3D3D3"/>
<path d="M65.6401 52.74H19.0601V55.24H65.6401V52.74Z" fill="#D3D3D3"/>
<path d="M72.0501 59.8201H19.0601V62.3201H72.0501V59.8201Z" fill="#D3D3D3"/>
<path d="M65.6401 66.9099H19.0601V69.4099H65.6401V66.9099Z" fill="#D3D3D3"/>
<path d="M52.78 13.1799H41V15.6799H52.78V13.1799Z" fill="#D3D3D3"/>
<path d="M52.78 20.26H41V22.76H52.78V20.26Z" fill="#D3D3D3"/>
<path d="M52.78 27.3501H41V29.8501H52.78V27.3501Z" fill="#D3D3D3"/>
<path d="M79.3201 20.6199H61.8301L61.8601 3.1499L79.3201 20.6199Z" fill="#EFEFEF"/>
<path d="M81.1401 22.3H60.3501V1.52002H62.8501V19.8H81.1401V22.3Z" fill="#D3D3D3"/>
<path d="M17.7204 70.6L5.36043 67.29C5.36043 67.29 6.59043 70.14 3.69043 71.75C6.24043 72.47 17.0504 75.64 17.0504 75.64C17.0504 75.64 14.0604 73.03 17.7204 70.6Z" fill="#F2F2F2"/>
<path d="M21.6701 57.1999L9.39014 53.5899C9.39014 53.5899 11.9201 51.7899 10.2901 48.9199C12.8401 49.6399 23.7201 52.5499 23.7201 52.5499C23.7201 52.5499 19.8001 53.2199 21.6701 57.1999Z" fill="#F2F2F2"/>
<path d="M25.8504 50.2199C26.2704 48.7399 25.4104 47.1999 23.9304 46.7799L12.8404 43.6299C11.3604 43.2099 9.82042 44.0699 9.40042 45.5499C8.98042 47.0299 9.84042 48.5699 11.3204 48.9899L22.4104 52.1399C23.8904 52.5599 25.4304 51.6999 25.8504 50.2199Z" fill="#D3D3D3"/>
<path d="M17.8001 78.58C17.3801 80.06 15.8401 80.92 14.3601 80.5L3.27013 77.35C1.79013 76.93 0.930129 75.39 1.35013 73.91C1.77013 72.43 3.31013 71.57 4.79013 71.99L15.8801 75.14C17.3601 75.57 18.2201 77.11 17.8001 78.58Z" fill="#D3D3D3"/>
<path d="M66.7201 80.39L19.8201 67.07L18.9301 70.22C18.8101 70.64 18.3701 70.89 17.9501 70.77L5.35012 67.19C4.93012 67.07 4.68012 66.63 4.80012 66.21L8.29012 53.93C8.41012 53.51 8.85012 53.26 9.27012 53.38L21.8701 56.96C22.2901 57.08 22.5401 57.52 22.4201 57.94L21.5301 61.09L68.4301 74.41C69.9301 74.84 70.8001 76.4 70.3801 77.9L70.2201 78.45C69.7801 79.95 68.2201 80.82 66.7201 80.39Z" fill="#D3D3D3"/>
<path d="M71.4102 78.79L71.5702 78.24C72.0802 76.46 71.3102 74.61 69.8202 73.68C69.5002 73.48 69.1502 73.32 68.7702 73.21L23.0602 60.23L23.6102 58.28C23.8202 57.55 23.5902 56.82 23.1002 56.31L23.1202 56.29C22.6902 55.86 22.5202 55.23 22.6902 54.64C22.8602 54.03 23.3602 53.58 23.9802 53.45L23.9702 53.39C25.4102 53.1 26.6402 52.06 27.0702 50.55C27.5702 48.79 26.8102 46.96 25.3302 46.03C25.0102 45.83 24.6602 45.67 24.2902 45.57L13.2002 42.42C11.0602 41.81 8.82022 43.06 8.22022 45.2C7.93022 46.24 8.05022 47.33 8.58022 48.27C8.80022 48.66 9.08022 48.99 9.41022 49.28L9.40022 49.29C9.83022 49.72 10.0002 50.35 9.83022 50.94C9.66022 51.55 9.17022 52 8.55022 52.13L8.56022 52.16C8.39022 52.2 8.23022 52.26 8.07022 52.35C7.59022 52.62 7.25022 53.05 7.10022 53.58L3.61022 65.86C3.46022 66.39 3.52022 66.94 3.79022 67.42C3.87022 67.57 3.98022 67.7 4.10022 67.82L4.08022 67.84C4.54022 68.27 4.72022 68.92 4.55022 69.53C4.38022 70.12 3.91022 70.57 3.32022 70.71V70.72C1.84022 71 0.580223 72.05 0.150223 73.57C-0.459777 75.71 0.790223 77.94 2.93022 78.55L14.0202 81.7C16.1602 82.31 18.3902 81.06 19.0002 78.92C19.4302 77.42 18.9302 75.87 17.8602 74.87L17.8902 74.83C17.4302 74.4 17.2502 73.75 17.4202 73.14C17.5802 72.57 18.0302 72.14 18.5902 71.99C18.7802 71.95 18.9702 71.89 19.1502 71.79C19.6302 71.52 19.9702 71.09 20.1202 70.56L20.6702 68.61L66.3702 81.6C67.4202 81.9 68.5202 81.77 69.4702 81.24C70.4202 80.71 71.1102 79.84 71.4102 78.79ZM7.09022 68.99L15.5102 71.38C15.3002 71.71 15.1302 72.08 15.0202 72.47C14.9202 72.83 14.8702 73.2 14.8602 73.56L6.52022 71.19C6.70022 70.89 6.84022 70.57 6.94022 70.22C7.05022 69.81 7.10022 69.4 7.09022 68.99ZM3.28022 73.34C3.64022 73.14 4.05022 73.09 4.45022 73.2L15.5402 76.35C15.9402 76.46 16.2602 76.72 16.4602 77.08C16.6602 77.44 16.7102 77.85 16.6002 78.25C16.4902 78.64 16.2302 78.97 15.8702 79.17C15.5102 79.37 15.1002 79.42 14.7002 79.31L3.61022 76.16C3.47022 76.12 3.33022 76.06 3.21022 75.98C2.99022 75.84 2.82022 75.66 2.69022 75.43C2.49022 75.07 2.44022 74.66 2.55022 74.26C2.66022 73.86 2.92022 73.54 3.28022 73.34ZM20.1302 55.17L11.7002 52.78C11.9302 52.43 12.1102 52.05 12.2202 51.64C12.3202 51.3 12.3702 50.94 12.3702 50.6L20.7102 52.97C20.5202 53.28 20.3702 53.62 20.2702 53.98C20.1702 54.36 20.1202 54.77 20.1302 55.17ZM23.9202 50.8C23.5602 51 23.1502 51.05 22.7502 50.94L11.6602 47.79C11.5202 47.75 11.3802 47.69 11.2602 47.61C11.0402 47.47 10.8702 47.29 10.7402 47.06C10.5402 46.7 10.4902 46.29 10.6002 45.89C10.7102 45.5 10.9702 45.17 11.3302 44.97C11.6902 44.77 12.1002 44.72 12.5002 44.83L23.5902 47.98C23.9902 48.09 24.3102 48.35 24.5102 48.71C24.7102 49.07 24.7602 49.48 24.6502 49.88C24.5402 50.28 24.2802 50.6 23.9202 50.8ZM17.8502 69.45L6.12022 66.12L9.36022 54.71L21.0902 58.04L17.8502 69.45ZM68.2502 79.05C67.8802 79.25 67.4602 79.3 67.0502 79.19L21.3602 66.22L22.3802 62.64L68.0702 75.61C68.9102 75.85 69.3902 76.72 69.1602 77.55L69.0002 78.1C68.8902 78.51 68.6202 78.85 68.2502 79.05Z" fill="#6B6B6B"/>
<path d="M78.3203 62.8201C86.6003 62.8201 93.3203 56.1001 93.3203 47.8201C93.3203 39.5401 86.6003 32.8201 78.3203 32.8201C70.0403 32.8201 63.3203 39.5401 63.3203 47.8201C63.3203 56.1001 70.0403 62.8201 78.3203 62.8201Z" fill="#2F6FCC"/>
<path d="M75.75 53.1836L83.521 45.4126L80.7987 42.6903L73.0276 50.4613L75.75 53.1836Z" fill="white"/>
<path d="M72.2103 51.28L74.9303 54L71.4003 55.36C71.0503 55.49 70.7103 55.15 70.8403 54.8L72.2103 51.28Z" fill="white"/>
<path d="M81.6201 41.8599L82.7201 40.7599C83.2301 40.2499 84.0501 40.2499 84.5601 40.7599L85.4501 41.6499C85.9601 42.1599 85.9601 42.9799 85.4501 43.4899L84.3501 44.5899L81.6201 41.8599Z" fill="white"/>
</svg>