<svg width="101" height="76" xmlns="http://www.w3.org/2000/svg"><g fill="none"><rect width="79.055" height="71" rx="5" fill="#FAFAFA"/><rect x="1.5" y="1.5" width="76.055" height="68" rx="3.5" stroke="#6B6B6B" stroke-width="3"/><rect width="11.933" height="11.933" rx="2" transform="translate(7.16 7.16)" fill="#FFC9BB"/><g transform="translate(7.16 7.16)"><mask id="a" fill="#fff"><rect width="11.933" height="11.933" rx="2"/></mask><g mask="url(#a)"><rect width="11.933" height="11.933" rx="2" stroke="#F18153" stroke-width="6"/></g></g><rect width="46.09" height="11.933" rx="2" transform="translate(23.866 7.16)" fill="#FFC9BB"/><g transform="translate(23.866 7.16)"><mask id="b" fill="#fff"><rect width="46.09" height="11.933" rx="2"/></mask><g mask="url(#b)"><rect width="46.09" height="11.933" rx="2" stroke="#F18153" stroke-width="6"/></g></g><rect width="48.483" height="4.773" rx="2" transform="translate(19.093 56.384)" fill="#D3D3D3"/><circle cx="3.58" cy="3.58" r="3.58" transform="translate(8.353 55.19)" fill="#979797"/><rect width="50.416" height="4.773" rx="2" transform="translate(19.093 46.54)" fill="#D3D3D3"/><circle cx="3.58" cy="3.58" r="3.58" transform="translate(8.353 45.346)" fill="#979797"/><rect width="38.483" height="4.773" rx="2" transform="translate(19.093 36.695)" fill="#D3D3D3"/><circle cx="3.58" cy="3.58" r="3.58" transform="translate(8.353 35.5)" fill="#979797"/><rect width="50.416" height="4.773" rx="2" transform="translate(19.093 26.85)" fill="#D3D3D3"/><circle cx="3.58" cy="3.58" r="3.58" transform="translate(8.353 25.657)" fill="#979797"/><g transform="translate(55 30)"><mask id="c" fill="#fff"><path fill-rule="evenodd" clip-rule="evenodd" d="M20.736 0a5 5 0 0 0-5 5v10.737H5a5 5 0 0 0-5 5v4.527a5 5 0 0 0 5 5h10.736V41a5 5 0 0 0 5 5h4.527a5 5 0 0 0 5-5V30.264H41a5 5 0 0 0 5-5v-4.527a5 5 0 0 0-5-5H30.263V5a5 5 0 0 0-5-5h-4.527z"/></mask><path fill-rule="evenodd" clip-rule="evenodd" d="M20.736 0a5 5 0 0 0-5 5v10.737H5a5 5 0 0 0-5 5v4.527a5 5 0 0 0 5 5h10.736V41a5 5 0 0 0 5 5h4.527a5 5 0 0 0 5-5V30.264H41a5 5 0 0 0 5-5v-4.527a5 5 0 0 0-5-5H30.263V5a5 5 0 0 0-5-5h-4.527z" fill="#ABE590"/><g mask="url(#c)"><path d="M15.736 15.737v3h3v-3h-3zm0 14.527h3v-3h-3v3zm14.527 0v-3h-3v3h3zm0-14.527h-3v3h3v-3zM18.736 5a2 2 0 0 1 2-2v-6a8 8 0 0 0-8 8h6zm0 10.737V5h-6v10.737h6zM5 18.737h10.736v-6H5v6zm-2 2a2 2 0 0 1 2-2v-6a8 8 0 0 0-8 8h6zm0 4.527v-4.527h-6v4.527h6zm2 2a2 2 0 0 1-2-2h-6a8 8 0 0 0 8 8v-6zm10.736 0H5v6h10.736v-6zm3 13.736V30.264h-6V41h6zm2 2a2 2 0 0 1-2-2h-6a8 8 0 0 0 8 8v-6zm4.527 0h-4.527v6h4.527v-6zm2-2a2 2 0 0 1-2 2v6a8 8 0 0 0 8-8h-6zm0-10.736V41h6V30.264h-6zm13.737-3H30.263v6H41v-6zm2-2a2 2 0 0 1-2 2v6a8 8 0 0 0 8-8h-6zm0-4.527v4.527h6v-4.527h-6zm-2-2a2 2 0 0 1 2 2h6a8 8 0 0 0-8-8v6zm-10.737 0H41v-6H30.263v6zM27.263 5v10.737h6V5h-6zm-2-2a2 2 0 0 1 2 2h6a8 8 0 0 0-8-8v6zm-4.527 0h4.527v-6h-4.527v6z" fill="#3FC433"/></g></g></g></svg>