<svg width="30" height="30" xmlns="http://www.w3.org/2000/svg"><defs><linearGradient x1="50%" y1="100%" x2="50%" y2="0%" id="a"><stop stop-color="#F4794F" offset="0%"/><stop stop-color="#FF9676" offset="100%"/></linearGradient></defs><g fill="none" fill-rule="evenodd"><rect fill="url(#a)" width="30" height="30" rx="2"/><g fill="#FFF"><path d="M5 19.62h20v-1.25H5z"/><path d="M13.75 21h2.5v-4h-2.5zm-.38-11.962h3.25V6a1 1 0 0 0-1-1h-1.25a1 1 0 0 0-1 1v3.038zm2.23 5.149l6.395 11.388 1.151-3.404-5.218-9.292zm-8.752 7.984l1.15 3.404 6.396-11.388-2.328-1.308z"/><path d="M14.995 10.091c-.956 0-1.734.778-1.734 1.734s.778 1.734 1.734 1.734 1.734-.778 1.734-1.734-.778-1.734-1.734-1.734m0 5.359a3.63 3.63 0 0 1-3.625-3.625A3.63 3.63 0 0 1 14.995 8.2a3.63 3.63 0 0 1 3.625 3.625 3.63 3.63 0 0 1-3.625 3.625M26 19a1.5 1.5 0 1 1-3 0 1.5 1.5 0 0 1 3 0M7 19a1.5 1.5 0 1 1-3 0 1.5 1.5 0 0 1 3 0"/></g></g></svg>