<svg width="15" height="17" xmlns="http://www.w3.org/2000/svg"><g fill="none" fill-rule="evenodd"><path d="M2.514 1H9.49a2 2 0 0 1 1.414.586l2.497 2.497a2 2 0 0 1 .585 1.414v9.177a1 1 0 0 1-1 1H2.514a1 1 0 0 1-1-1V2a1 1 0 0 1 1-1z" stroke="#CACACA" stroke-width="1.5" fill="#E8E8E8"/><path d="M6.7 9.215l-.274.273c-.126.126-.252.254-.38.38-.03.028-.032.048-.006.08.34.43.78.692 1.317.786a2.103 2.103 0 0 0 1.539-.3c.377-.24.65-.572.811-.99.019-.048.041-.06.09-.06.36.002.72.001 1.081.001.075 0 .076 0 .057.072-.297 1.108-.972 1.885-2.038 2.311-.57.228-1.164.27-1.767.159a3.345 3.345 0 0 1-1.947-1.109c-.032-.038-.049-.04-.084-.004-.195.198-.393.394-.59.59-.015.016-.028.036-.051.043-.015-.016-.008-.035-.008-.052v-2.12c0-.039-.003-.064.052-.064.717.002 1.434.001 2.151.001l.047.003m4.328-3.29v.063l.001 2.126c0 .043-.005.06-.055.06l-2.179-.002s.424-.44.617-.634c.06-.06.06-.06.005-.128a2.02 2.02 0 0 0-1.142-.724c-.869-.196-1.608.032-2.193.715a1.767 1.767 0 0 0-.315.55c-.015.04-.034.05-.075.05a98.92 98.92 0 0 0-1.1 0c-.055.001-.066-.01-.053-.063a3.3 3.3 0 0 1 .71-1.383 3.207 3.207 0 0 1 1.965-1.108 3.324 3.324 0 0 1 2.156.374c.358.193.668.444.931.753.03.037.047.03.076 0 .2-.202.401-.402.603-.603.011-.012.024-.023.048-.046" fill="#969696"/></g></svg>