<svg width="27" height="20" xmlns="http://www.w3.org/2000/svg" xmlns:xlink="http://www.w3.org/1999/xlink"><defs><path id="a" d="M0 3h22v16H0z"/><path id="b" d="M3 13h9v3H3z"/><path id="c" d="M3 8h5v3H3z"/><path id="d" d="M15 3h7v16h-7z"/></defs><g fill="none" fill-rule="evenodd"><g transform="translate(0 1)"><use fill="#FFF" xlink:href="#a"/><path stroke="#979797" d="M.5 3.5h21v15H.5z"/></g><g transform="translate(0 1)"><use fill="#FFF" xlink:href="#b"/><path stroke="#979797" d="M3.5 13.5h8v2h-8z"/></g><g transform="translate(0 1)"><use fill="#FFF" xlink:href="#c"/><path stroke="#979797" d="M3.5 8.5h4v2h-4z"/></g><g transform="translate(0 1)"><use fill="#D8D8D8" xlink:href="#d"/><path stroke="#979797" d="M15.5 3.5h6v15h-6z"/></g><path d="M23.727 6.839c-.271 0-.528.059-.764.16a5.42 5.42 0 0 0 .077-.89C23.04 3.287 20.89 1 18.236 1c-1.933 0-3.595 1.217-4.358 2.967-.147-.02-.293-.048-.446-.048C11.537 3.92 10 5.553 10 7.57c0 2.015 1.537 3.648 3.432 3.648h10.295c1.137 0 2.059-.98 2.059-2.189 0-1.21-.922-2.19-2.06-2.19" stroke="#A0A0A0" fill="#EDEDED"/></g></svg>