<svg width="122" height="86" xmlns="http://www.w3.org/2000/svg" xmlns:xlink="http://www.w3.org/1999/xlink"><defs><circle id="a" cx="11.353" cy="11.353" r="11.353"/></defs><g fill="none" fill-rule="evenodd"><g fill="#BFBFBF"><path d="M85.745 31.037h16.504v19.135H85.745z"/><path d="M121.655 40.627l-19.406 18.201V22.426z"/></g><path d="M78.212 4.992c0-2.757-2.247-4.992-5-4.992H1.79h3.5a3.002 3.002 0 0 1 3.006 2.994v72.197h69.915v-70.2z" fill="#ECECEC"/><path d="M.383 2.993A2.995 2.995 0 0 1 3.375 0h1.93a2.991 2.991 0 0 1 2.992 2.993v10.198H.383V2.993zm85.744 79.745a3.001 3.001 0 0 1-2.992 3.007h-1.93a2.995 2.995 0 0 1-2.993-3.007V71.234h7.915v11.504z" fill="#D9D9D9"/><path d="M8.297 80.753c0 2.757 2.247 4.992 5 4.992h69.866-1.956a2.992 2.992 0 0 1-2.995-2.994V10.553H8.297v70.2z" fill="#EDEDED"/><path fill="#D2D2D2" d="M19.787 69.915h17.149v3.957H19.787zm0-10.553h17.149v3.957H19.787zm0-10.553h17.149v3.957H19.787zm0-13.192h43.532v3.957H19.787zm0-10.553h43.532v3.957H19.787z"/><path fill="#C3C3C3" d="M19.787 10.553h43.532v6.596H19.787z"/><path fill="#D2D2D2" d="M49.718 59.178h15.61V77.39l-7.805-4.047-7.805 4.047z"/><g transform="translate(46.17 46.17)"><use fill="#D3D3D3" xlink:href="#a"/><circle stroke="#BCBCBC" stroke-width="3" cx="11.353" cy="11.353" r="9.853"/></g></g></svg>