<svg width="17" height="12" xmlns="http://www.w3.org/2000/svg" xmlns:xlink="http://www.w3.org/1999/xlink"><use xlink:href="#path0_fill" transform="translate(1 5)" fill="#C4C4C4"/><use xlink:href="#path1_fill" transform="rotate(-45 7.366 2.599)" fill="#C4C4C4"/><use xlink:href="#path1_fill" transform="rotate(45 -4.712 4.398)" fill="#C4C4C4"/><defs><path id="path0_fill" d="M0 1a1 1 0 0 1 1-1h14a1 1 0 1 1 0 2H1a1 1 0 0 1-1-1z"/><path id="path1_fill" d="M0 1a1 1 0 0 1 1-1h6a1 1 0 0 1 0 2H1a1 1 0 0 1-1-1z"/></defs></svg>