<svg width="18" height="20" viewBox="0 0 18 20" fill="none" xmlns="http://www.w3.org/2000/svg">
<path d="M16.82 8.88989H0.75V18.5599H16.82V8.88989Z" fill="#9CD7FF"/>
<path d="M4.4502 9.14V5.83C4.4502 3.44 6.39019 1.5 8.78019 1.5C11.1702 1.5 13.1102 3.44 13.1102 5.83V9.14H14.6102V5.83C14.6102 2.62 12.0002 0 8.78019 0C5.56019 0 2.9502 2.61 2.9502 5.83V9.14H4.4502Z" fill="#979797"/>
<path d="M0 8.13989V19.3099H17.57V8.13989H0ZM16.06 17.8099H1.5V9.63989H16.07V17.8099H16.06Z" fill="#0A7CED"/>
<path d="M10.1399 13.2101C10.1399 12.4601 9.52992 11.8501 8.77992 11.8501C8.02992 11.8501 7.41992 12.4601 7.41992 13.2101C7.41992 13.6301 7.61992 14.0101 7.91992 14.2601V16.0201H9.64992V14.2601C9.94992 14.0001 10.1399 13.6301 10.1399 13.2101Z" fill="#0A7CED"/>
</svg>