<svg width="91" height="66" viewBox="0 0 91 66" fill="none" xmlns="http://www.w3.org/2000/svg">
<path d="M38.1209 33L43.8009 42.86H32.3809L38.1209 33Z" fill="#474747"/>
<path d="M43.7794 23.14L49.4594 33H38.1094L43.7794 23.14Z" fill="#999999"/>
<path d="M32.3792 23.14L38.1192 33H26.6992L32.3792 23.14Z" fill="#999999"/>
<path d="M38.1094 33H49.4594L43.7794 42.86L38.1094 33Z" fill="#757575"/>
<path d="M26.6992 33H38.1192L32.3792 42.86L26.6992 33Z" fill="#757575"/>
<path d="M32.3809 23.14H43.8009L38.1209 33L32.3809 23.14Z" fill="#C9C9C9"/>
<path d="M38.1103 0L28.5703 16.53H47.6003L38.1103 0Z" fill="#0028FC"/>
<path d="M19.0308 33L28.5708 49.53H9.55078L19.0308 33Z" fill="#0037FC"/>
<path d="M38.1094 66H57.1394L47.5994 49.53L38.1094 66Z" fill="#006AE5"/>
<path d="M63.7509 8.23001L73.2909 24.76H54.2109L63.7509 8.23001Z" fill="#4DBBFC"/>
<path d="M69 31.94L88.03 32L78.49 48.47L69 31.94Z" fill="#9EDBFC"/>
<path d="M0 33H19.03L9.54 16.53L0 33Z" fill="#0000D8"/>
<path d="M28.5703 49.53L38.1103 66L47.5903 49.53H28.5703Z" fill="#0079FC"/>
<path d="M47.5996 49.53L57.1496 66L66.6896 49.53H47.5996Z" fill="#0079FC"/>
<path d="M0 33L9.54 49.53L19.03 33H0Z" fill="#0000D8"/>
<path d="M38.1094 0L47.5894 16.53L57.1294 0H38.1094Z" fill="#0079FC"/>
<path d="M71.8008 1.5L81.2808 18.03L90.8308 1.5H71.8008Z" fill="#39A2FC"/>
<path d="M9.55078 49.53L19.0308 66H38.1208L28.5808 49.53H9.55078Z" fill="#0000D8"/>
<path d="M19.0308 0L9.55078 16.53L19.0308 33L38.1208 0H19.0308Z" fill="#0079FC"/>
<path d="M57.1496 33L66.6896 49.53H47.5996L57.1496 33Z" fill="#0059FC"/>
</svg>