<svg width="18" height="21" viewBox="0 0 18 21" fill="none" xmlns="http://www.w3.org/2000/svg">
<path d="M17.34 4.62997C16.95 4.40997 16.48 4.40997 16.09 4.62997L8.98 8.72997L1.87 4.62997C1.48 4.40997 1.01 4.40997 0.62 4.62997C0.24 4.84997 0 5.26997 0 5.70997V14.64C0 15.09 0.24 15.5 0.62 15.72L8.35 20.18C8.54 20.29 8.76 20.35 8.97 20.35C9.18 20.35 9.4 20.29 9.59 20.18L17.32 15.72C17.71 15.5 17.94 15.08 17.94 14.64V5.70997C17.96 5.26997 17.72 4.84997 17.34 4.62997ZM2.5 7.87997L7.73 10.9V16.94L2.5 13.92V7.87997ZM15.46 13.92L10.23 16.94V10.9L15.46 7.87997V13.92Z" fill="#A0A0A0"/>
<path d="M16.71 5.71L8.98 10.17L1.25 5.71L8.98 1.25L16.71 5.71Z" fill="#9CD7FF"/>
<path d="M8.98 11.43C8.76 11.43 8.55 11.37 8.36 11.26L0.62 6.8C0.24 6.57 0 6.16 0 5.71C0 5.26 0.24 4.85 0.62 4.63L8.35 0.170005C8.74 -0.0499951 9.21 -0.0499951 9.6 0.170005L17.33 4.63C17.72 4.85 17.95 5.27 17.95 5.71C17.95 6.15 17.71 6.57 17.33 6.79L9.6 11.25C9.41 11.37 9.2 11.43 8.98 11.43ZM3.75 5.71L8.98 8.73L14.21 5.71L8.98 2.69L3.75 5.71Z" fill="#0A7CED"/>
</svg>
