<svg width="16" height="18" fill="none" xmlns="http://www.w3.org/2000/svg"><path d="M15.028 3.965a1.249 1.249 0 0 0-1.25 0L7.827 7.4 1.875 3.965A1.249 1.249 0 0 0 0 5.047v7.594c0 .447.238.86.625 1.083l6.577 3.797a1.248 1.248 0 0 0 1.25 0l6.576-3.797a1.25 1.25 0 0 0 .625-1.083V5.047c0-.447-.238-.86-.625-1.082zM2.5 7.212l4.077 2.354v4.707L2.5 11.92V7.212zm10.653 4.708l-4.076 2.353V9.566l4.076-2.354v4.708z" fill="#A0A0A0"/><path d="M14.403 5.047L7.827 8.844 1.25 5.047 7.827 1.25l6.576 3.797z" fill="#9CD7FF"/><path d="M7.827 10.094c-.216 0-.432-.056-.625-.167L.625 6.13a1.25 1.25 0 0 1 0-2.165L7.202.168a1.249 1.249 0 0 1 1.25 0l6.576 3.797a1.25 1.25 0 0 1 0 2.165L8.452 9.927c-.194.111-.41.167-.625.167zM3.75 5.047l4.077 2.354 4.076-2.354-4.076-2.353L3.75 5.047z" fill="#0A7CED"/></svg>