<svg width="18" height="21" viewBox="0 0 18 21" fill="none" xmlns="http://www.w3.org/2000/svg">
<path d="M17.34 4.62984C16.95 4.40984 16.48 4.40984 16.09 4.62984L8.98 8.72984L1.87 4.62984C1.48 4.40984 1.01 4.40984 0.62 4.62984C0.24 4.84984 0 5.26984 0 5.70984V14.6398C0 15.0898 0.24 15.4998 0.62 15.7198L8.35 20.1798C8.54 20.2898 8.76 20.3498 8.97 20.3498C9.18 20.3498 9.4 20.2898 9.59 20.1798L17.32 15.7198C17.71 15.4998 17.94 15.0798 17.94 14.6398V5.70984C17.96 5.26984 17.72 4.84984 17.34 4.62984ZM2.5 7.87984L7.73 10.8998V16.9398L2.5 13.9198V7.87984ZM15.46 13.9198L10.23 16.9398V10.8998L15.46 7.87984V13.9198Z" fill="#C2C2C2"/>
<path d="M8.98 11.4298C8.76 11.4298 8.55 11.3698 8.36 11.2598L0.62 6.79976C0.24 6.56976 0 6.15976 0 5.70976C0 5.25976 0.24 4.84976 0.62 4.62976L8.35 0.169761C8.74 -0.0502393 9.21 -0.0502393 9.6 0.169761L17.33 4.62976C17.72 4.84976 17.95 5.26976 17.95 5.70976C17.95 6.14976 17.71 6.56976 17.33 6.78976L9.6 11.2498C9.41 11.3698 9.2 11.4298 8.98 11.4298ZM3.75 5.70976L8.98 8.72976L14.21 5.70976L8.98 2.68976L3.75 5.70976Z" fill="#C2C2C2"/>
</svg>
