<svg width="29" height="33" viewBox="0 0 29 33" fill="none" xmlns="http://www.w3.org/2000/svg">
<path fill-rule="evenodd" clip-rule="evenodd" d="M14.24 1.24988L27.22 8.74988V23.7399L14.24 31.2399L1.25 23.7399V8.74988L14.24 1.24988Z" fill="#EFEFEF"/>
<path d="M14.24 32.4899C14.02 32.4899 13.81 32.4299 13.62 32.3199L0.63 24.8199C0.24 24.5999 0 24.1899 0 23.7399V8.73988C0 8.29988 0.24 7.88988 0.62 7.66988L13.61 0.169883C14 -0.0501172 14.47 -0.0501172 14.86 0.169883L27.85 7.66988C28.24 7.88988 28.47 8.30988 28.47 8.74988V23.7499C28.47 24.1999 28.23 24.6099 27.85 24.8299L14.86 32.3299C14.67 32.4299 14.45 32.4899 14.24 32.4899ZM2.5 23.0199L14.24 29.7999L25.98 23.0199V9.46988L14.24 2.68988L2.5 9.46988V23.0199Z" fill="#979797"/>
<path d="M14.32 8.3999C17.26 8.3999 19.23 10.0999 19.23 12.4599C19.23 14.0999 18.41 15.2499 16.95 16.1199C15.54 16.9399 15.15 17.4999 15.15 18.5699V19.1899H12.66L12.65 18.4299C12.55 16.8399 13.18 15.8699 14.66 14.9999C15.99 14.1899 16.44 13.6099 16.44 12.5499C16.44 11.4099 15.54 10.5799 14.18 10.5799C12.79 10.5799 11.9 11.4299 11.82 12.7599H9.29004C9.38004 10.2499 11.13 8.3999 14.32 8.3999ZM12.37 22.7199C12.37 21.8699 13.07 21.2099 13.94 21.2099C14.81 21.2099 15.5 21.8799 15.5 22.7199C15.5 23.5599 14.81 24.2499 13.94 24.2499C13.07 24.2499 12.37 23.5699 12.37 22.7199Z" fill="#979797"/>
</svg>
