<svg width="23" height="25" xmlns="http://www.w3.org/2000/svg" xmlns:xlink="http://www.w3.org/1999/xlink"><defs><rect id="a" x="9" y="10" width="5" height="5" rx="1"/><rect id="b" x="9" width="5" height="5" rx="1"/><rect id="c" x="18" y="15" width="5" height="5" rx="1"/><rect id="d" x="9" y="20" width="5" height="5" rx="1"/><rect id="e" x="18" y="5" width="5" height="5" rx="1"/><rect id="f" y="15" width="5" height="5" rx="1"/><rect id="g" y="5" width="5" height="5" rx="1"/></defs><g fill="none" fill-rule="evenodd"><path stroke="#F4794F" d="M2.475 17.54l8.885-5.047-8.885-4.999 8.885-5.05m.551 20.125l8.781-5.057-9.246-5.019 9.246-5.026"/><use fill="#FFCBB9" xlink:href="#a"/><rect stroke="#F4794F" x="9.5" y="10.5" width="4" height="4" rx="1"/><use fill="#FFCBB9" xlink:href="#b"/><rect stroke="#F4794F" x="9.5" y=".5" width="4" height="4" rx="1"/><use fill="#FFCBB9" xlink:href="#c"/><rect stroke="#F4794F" x="18.5" y="15.5" width="4" height="4" rx="1"/><use fill="#FFCBB9" xlink:href="#d"/><rect stroke="#F4794F" x="9.5" y="20.5" width="4" height="4" rx="1"/><use fill="#FFCBB9" xlink:href="#e"/><rect stroke="#F4794F" x="18.5" y="5.5" width="4" height="4" rx="1"/><use fill="#FFCBB9" xlink:href="#f"/><rect stroke="#F4794F" x=".5" y="15.5" width="4" height="4" rx="1"/><use fill="#FFCBB9" xlink:href="#g"/><rect stroke="#F4794F" x=".5" y="5.5" width="4" height="4" rx="1"/></g></svg>