<svg width="29" height="34" viewBox="0 0 29 34" fill="none" xmlns="http://www.w3.org/2000/svg">
<path d="M14.2396 3.69012L18.3796 6.08012L19.6296 3.91012L14.8696 1.16012C14.4796 0.940117 14.0096 0.940117 13.6196 1.16012L8.84961 3.92012L10.0996 6.09012L14.2396 3.69012Z" fill="#C2C2C2"/>
<path d="M27.8501 8.66992L23.0901 5.91992L21.8401 8.08992L24.7301 9.75992L17.0801 14.1799L18.3301 16.3499L25.9801 11.9299V15.2599H28.4801V9.75992C28.4701 9.29992 28.2301 8.88992 27.8501 8.66992Z" fill="#C2C2C2"/>
<path d="M25.9701 24.02L21.8301 26.41L23.0801 28.58L27.8401 25.83C28.2301 25.61 28.4601 25.19 28.4601 24.75V19.25H25.9601V24.02H25.9701Z" fill="#C2C2C2"/>
<path d="M15.4896 30.08V21.25H12.9896V30.08L10.0996 28.41L8.84961 30.58L13.6096 33.33C13.7996 33.44 14.0196 33.5 14.2296 33.5C14.4396 33.5 14.6596 33.44 14.8496 33.33L19.6096 30.58L18.3596 28.41L15.4896 30.08Z" fill="#C2C2C2"/>
<path d="M2.5 19.2402H0V24.7402C0 25.1902 0.24 25.6002 0.62 25.8202L5.38 28.5702L6.63 26.4002L2.5 24.0202V19.2402Z" fill="#C2C2C2"/>
<path d="M2.5 11.9099L10.14 16.3199L11.39 14.1499L3.75 9.74992L6.64 8.07992L5.39 5.91992L0.62 8.66992C0.24 8.88992 0 9.29992 0 9.74992V15.2499H2.5V11.9099Z" fill="#C2C2C2"/>
</svg>
