<svg width="29" height="33" viewBox="0 0 29 33" fill="none" xmlns="http://www.w3.org/2000/svg">
<path fill-rule="evenodd" clip-rule="evenodd" d="M14.2363 1.2503L27.2223 8.7479V23.7429L14.2363 31.2404L1.25018 23.7429V8.7479L14.2363 1.2503Z" fill="#EFEFEF"/>
<path d="M27.8472 7.6653L14.8613 0.1677C14.4746 -0.0559 13.998 -0.0559 13.6113 0.1677L0.625 7.6653C0.2383 7.8884 0 8.301 0 8.7478V23.7429C0 24.1897 0.2383 24.6023 0.625 24.8254L13.6113 32.323C13.8047 32.4348 14.0205 32.4905 14.2363 32.4905C14.4521 32.4905 14.6679 32.4348 14.8613 32.323L27.8471 24.8254C28.2338 24.6023 28.4721 24.1897 28.4721 23.7429V8.7478C28.4722 8.301 28.2339 7.8884 27.8472 7.6653ZM14.2363 2.6936L24.7222 8.7478L14.2363 14.802L3.75 8.7478L14.2363 2.6936ZM2.5 10.9128L12.9863 16.967V29.0754L2.5 23.0212V10.9128ZM15.4863 29.0754V16.967L25.9721 10.9129V23.0212L15.4863 29.0754Z" fill="#C2C2C2"/>
</svg>
