<svg width="29" height="33" viewBox="0 0 29 33" fill="none" xmlns="http://www.w3.org/2000/svg">
<path fill-rule="evenodd" clip-rule="evenodd" d="M14.236 1.25027L27.2221 8.74787V23.7429L14.236 31.2404L1.25 23.7429V8.74787L14.236 1.25027Z" fill="#C8F4AB"/>
<path d="M27.8472 7.66533L14.8608 0.167731C14.4741 -0.0558695 13.9975 -0.0558695 13.6108 0.167731L0.625 7.66533C0.2383 7.88843 0 8.30103 0 8.74783V23.7429C0 24.1897 0.2383 24.6023 0.625 24.8254L13.6108 32.323C13.8042 32.4348 14.02 32.4905 14.2358 32.4905C14.4516 32.4905 14.6674 32.4348 14.8608 32.323L27.8471 24.8254C28.2338 24.6023 28.4721 24.1897 28.4721 23.7429V8.74783C28.4722 8.30103 28.2339 7.88843 27.8472 7.66533ZM14.2358 2.69363L24.7221 8.74783L14.2358 14.802L3.7499 8.74783L14.2358 2.69363ZM2.5 10.9129L12.9858 16.967V29.0754L2.5 23.0212V10.9129ZM15.4858 29.0754V16.967L25.9721 10.9128V23.0212L15.4858 29.0754Z" fill="#54A82D"/>
</svg>
