<svg width="53" height="51" xmlns="http://www.w3.org/2000/svg" xmlns:xlink="http://www.w3.org/1999/xlink"><use xlink:href="#path0_fill" transform="translate(1.9 33.21)" fill="#C2C2C2"/><use xlink:href="#path1_fill" transform="translate(46.15 31.32)" fill="#EF7C4B"/><use xlink:href="#path1_fill" transform="translate(0 31.32)" fill="#EF7C4B"/><use xlink:href="#path2_fill" transform="translate(23.9 29.67)" fill="#979797"/><use xlink:href="#path3_fill" transform="translate(8.24 18.13)" fill="#ECECEC"/><use xlink:href="#path4_fill" transform="translate(6.84 16.73)" fill="#979797"/><use xlink:href="#path5_fill" transform="translate(28.02 18.13)" fill="#ECECEC"/><use xlink:href="#path6_fill" transform="translate(26.62 16.73)" fill="#979797"/><use xlink:href="#path7_fill" transform="translate(22.25)" fill="#979797"/><use xlink:href="#path8_fill" transform="translate(18.96 9.07)" fill="#FFC9BB"/><use xlink:href="#path9_fill" transform="translate(17.56 7.66)" fill="#EF7C4B"/><defs><path id="path0_fill" d="M47.554 2.8H1.401a1.4 1.4 0 1 1 0-2.8h46.153a1.4 1.4 0 1 1 0 2.8z"/><path id="path1_fill" d="M3.297 6.593a3.297 3.297 0 1 0 0-6.593 3.297 3.297 0 0 0 0 6.593z"/><path id="path2_fill" d="M3.939 9.89H1.006C.45 9.89 0 9.44 0 8.884V1.006C0 .45.45 0 1.006 0H3.94c.555 0 1.006.45 1.006 1.006v7.878c0 .555-.45 1.006-1.006 1.006z"/><path id="path3_fill" d="M16.483 4.945L1.648 31.318 0 23.076 11.538 0l4.945 4.945z"/><path id="path4_fill" d="M3.05 34.122a1.401 1.401 0 0 1-1.374-1.125L.027 24.755a1.402 1.402 0 0 1 .12-.901L11.686.777a1.406 1.406 0 0 1 1.03-.757c.443-.078.897.075 1.214.393l4.945 4.945c.444.444.54 1.13.232 1.678L4.27 33.409c-.25.446-.72.713-1.22.713zm-.18-9.446l.812 4.063 12.46-22.15-2.82-2.821L2.87 24.676z"/><path id="path5_fill" d="M0 4.945l14.835 26.373 1.648-8.242L4.945 0 0 4.945z"/><path id="path6_fill" d="M16.236 34.122c-.5 0-.97-.267-1.222-.713L.18 7.036a1.402 1.402 0 0 1 .232-1.678L5.356.413A1.38 1.38 0 0 1 6.57.02c.445.073.827.354 1.03.757l11.538 23.077c.139.278.18.595.12.901l-1.65 8.242a1.4 1.4 0 0 1-1.372 1.125zM3.143 6.588l12.46 22.151.813-4.063L5.963 3.768l-2.82 2.82z"/><path id="path7_fill" d="M7.966 9.89H.276A.276.276 0 0 1 0 9.614v-8.17C0 .646.646 0 1.444 0h5.354c.797 0 1.444.646 1.444 1.444v8.17a.276.276 0 0 1-.276.276z"/><path id="path8_fill" d="M7.417 0a7.417 7.417 0 1 0 0 14.835A7.417 7.417 0 0 0 7.417 0zm0 9.89a2.473 2.473 0 1 1 0-4.945 2.473 2.473 0 0 1 0 4.945z"/><path id="path9_fill" d="M8.818 17.637C3.955 17.637 0 13.682 0 8.819 0 3.956 3.955 0 8.818 0c4.863 0 8.818 3.956 8.818 8.819 0 4.863-3.955 8.818-8.818 8.818zm0-14.835A6.024 6.024 0 0 0 2.8 8.819c0 3.317 2.7 6.017 6.017 6.017 3.318 0 6.017-2.7 6.017-6.017 0-3.318-2.7-6.017-6.017-6.017zm0 9.89a3.877 3.877 0 0 1-3.873-3.873 3.877 3.877 0 0 1 3.873-3.873 3.877 3.877 0 0 1 3.873 3.873 3.877 3.877 0 0 1-3.873 3.873zm0-4.945c-.59 0-1.072.48-1.072 1.072 0 .59.481 1.072 1.072 1.072.59 0 1.072-.482 1.072-1.072 0-.591-.481-1.072-1.072-1.072z"/></defs></svg>