<svg width="32" height="31" xmlns="http://www.w3.org/2000/svg" xmlns:xlink="http://www.w3.org/1999/xlink"><use xlink:href="#path0_fill" transform="translate(1.15 20.15)" fill="#DADADA"/><use xlink:href="#path1_fill" transform="translate(28 19)" fill="#C7C7C7"/><use xlink:href="#path1_fill" transform="translate(0 19)" fill="#C7C7C7"/><use xlink:href="#path2_fill" transform="translate(14.5 18)" fill="#C7C7C7"/><use xlink:href="#path3_fill" transform="translate(5 11)" fill="#ECECEC"/><use xlink:href="#path4_fill" transform="translate(4.15 10.15)" fill="#C7C7C7"/><use xlink:href="#path5_fill" transform="translate(17 11)" fill="#ECECEC"/><use xlink:href="#path6_fill" transform="translate(16.15 10.15)" fill="#C7C7C7"/><use xlink:href="#path7_fill" transform="translate(13.5)" fill="#C7C7C7"/><use xlink:href="#path8_fill" transform="translate(11.5 5.5)" fill="#F1F1F1"/><use xlink:href="#path9_fill" transform="translate(10.65 4.65)" fill="#DADADA"/><defs><path id="path0_fill" d="M28.85 1.7h-28a.85.85 0 1 1 0-1.7h28a.849.849 0 1 1 0 1.7z"/><path id="path1_fill" d="M2 4a2 2 0 1 0 0-4 2 2 0 0 0 0 4z"/><path id="path2_fill" d="M2.39 6H.61A.61.61 0 0 1 0 5.39V.61A.61.61 0 0 1 .61 0h1.78A.61.61 0 0 1 3 .61v4.78a.61.61 0 0 1-.61.61z"/><path id="path3_fill" d="M10 3L1 19l-1-5L7 0l3 3z"/><path id="path4_fill" d="M1.85 20.701a.85.85 0 0 1-.834-.683l-1-5a.85.85 0 0 1 .074-.547l7-14a.853.853 0 0 1 .624-.459.836.836 0 0 1 .736.239l3 3a.85.85 0 0 1 .141 1.017l-9 16a.848.848 0 0 1-.741.433zm-.11-5.73l.494 2.464 7.56-13.438-1.712-1.711L1.741 14.97z"/><path id="path5_fill" d="M0 3l9 16 1-5L3 0 0 3z"/><path id="path6_fill" d="M9.85 20.7a.85.85 0 0 1-.741-.432l-9-16a.85.85 0 0 1 .14-1.017l3-3A.852.852 0 0 1 4.61.47l7 14c.085.17.11.362.073.547l-1 5a.85.85 0 0 1-.833.683zM1.907 3.998l7.56 13.438.492-2.464L3.618 2.285l-1.711 1.71z"/><path id="path7_fill" d="M4.833 6H.167A.167.167 0 0 1 0 5.833V.876C0 .392.392 0 .876 0h3.248C4.608 0 5 .392 5 .876v4.957A.167.167 0 0 1 4.833 6z"/><path id="path8_fill" d="M4.5 0a4.5 4.5 0 1 0 0 9 4.5 4.5 0 0 0 0-9zm0 6a1.5 1.5 0 1 1 0-3 1.5 1.5 0 0 1 0 3z"/><path id="path9_fill" d="M5.35 10.7C2.4 10.7 0 8.3 0 5.35 0 2.4 2.4 0 5.35 0 8.3 0 10.7 2.4 10.7 5.35c0 2.95-2.4 5.35-5.35 5.35zm0-9A3.655 3.655 0 0 0 1.7 5.35 3.655 3.655 0 0 0 5.35 9 3.655 3.655 0 0 0 9 5.35 3.655 3.655 0 0 0 5.35 1.7zm0 6A2.352 2.352 0 0 1 3 5.35 2.352 2.352 0 0 1 5.35 3 2.352 2.352 0 0 1 7.7 5.35 2.352 2.352 0 0 1 5.35 7.7zm0-3a.651.651 0 0 0 0 1.3.651.651 0 0 0 0-1.3z"/></defs></svg>