<svg width="61" height="60" viewBox="0 0 61 60" fill="none" xmlns="http://www.w3.org/2000/svg">
<path fill-rule="evenodd" clip-rule="evenodd" d="M30.2402 11.2849L50.5302 23.0049V46.4349L30.2402 58.1449L9.9502 46.4349V23.0049L30.2402 11.2849Z" fill="#EFEFEF"/>
<path d="M30.2402 9.84497L8.7002 22.285V47.155L30.2402 59.595L51.7802 47.155V22.285L30.2402 9.84497ZM30.2402 12.735L49.2802 23.725V37.575L36.6602 30.285L35.4102 32.455L48.0302 39.745L31.4902 49.295V34.245H28.9902V49.295L12.4502 39.745L25.0702 32.455L23.8202 30.285L11.2002 37.575V23.725L30.2402 12.735ZM11.2002 41.905L28.9902 52.175V55.985L11.2002 45.715V41.905ZM31.4902 55.985V52.175L49.2802 41.905V45.715L31.4902 55.985Z" fill="#D3D3D3"/>
<path fill-rule="evenodd" clip-rule="evenodd" d="M50.5302 23.0049L30.2402 34.7149L9.9502 23.0049L30.2402 11.2849L50.5302 23.0049Z" fill="#9CD7FF"/>
<path d="M30.2402 35.965C30.0202 35.965 29.8102 35.905 29.6202 35.795L9.3202 24.085C8.9302 23.865 8.7002 23.445 8.7002 23.005C8.7002 22.565 8.9402 22.145 9.3202 21.925L29.6102 10.205C30.0002 9.98504 30.4702 9.98504 30.8602 10.205L51.1502 21.925C51.5402 22.145 51.7702 22.565 51.7702 23.005C51.7702 23.445 51.5302 23.865 51.1502 24.085L30.8602 35.795C30.6702 35.915 30.4502 35.965 30.2402 35.965ZM12.4502 23.005L30.2402 33.275L48.0302 23.005L30.2402 12.735L12.4502 23.005Z" fill="#0A7CED"/>
<path fill-rule="evenodd" clip-rule="evenodd" d="M30.24 1.24512L38.93 6.26512V16.3051L30.24 21.3251L21.54 16.3051V6.26512L30.24 1.24512Z" fill="#FFC9BB"/>
<path d="M39.56 5.185L30.86 0.165C30.47 -0.055 30 -0.055 29.61 0.165L20.91 5.185C20.52 5.405 20.29 5.825 20.29 6.265V16.305C20.29 16.755 20.53 17.165 20.91 17.385L29.61 22.405C29.8 22.515 30.02 22.575 30.23 22.575C30.44 22.575 30.66 22.515 30.85 22.405L39.55 17.385C39.94 17.165 40.17 16.745 40.17 16.305V6.265C40.18 5.815 39.95 5.405 39.56 5.185ZM30.24 2.685L36.44 6.265L30.24 9.845L24.04 6.265L30.24 2.685ZM22.79 8.435L28.99 12.015V19.175L22.79 15.595V8.435ZM31.49 19.165V12.005L37.69 8.425V15.585L31.49 19.165Z" fill="#EF7C4B"/>
<path fill-rule="evenodd" clip-rule="evenodd" d="M50.5301 36.395L59.2301 41.415V51.455L50.5301 56.475L41.8301 51.455V41.415L50.5301 36.395Z" fill="#FFC9BB"/>
<path d="M59.8501 40.3249L51.1501 35.3049C50.7601 35.0849 50.2901 35.0849 49.9001 35.3049L41.2001 40.3249C40.8101 40.5449 40.5801 40.9649 40.5801 41.4049V51.4449C40.5801 51.8949 40.8201 52.3049 41.2001 52.5249L49.9001 57.5449C50.0901 57.6549 50.3101 57.7149 50.5201 57.7149C50.7301 57.7149 50.9501 57.6549 51.1401 57.5449L59.8401 52.5249C60.2301 52.3049 60.4601 51.8849 60.4601 51.4449V41.4149C60.4801 40.9649 60.2401 40.5549 59.8501 40.3249ZM50.5301 37.8349L56.7301 41.4149L50.5301 44.9949L44.3301 41.4149L50.5301 37.8349ZM43.0801 43.5749L49.2801 47.1549V54.3149L43.0801 50.7349V43.5749ZM51.7801 54.3049V47.1449L57.9801 43.5649V50.7149L51.7801 54.3049Z" fill="#EF7C4B"/>
<path fill-rule="evenodd" clip-rule="evenodd" d="M9.95 36.395L18.64 41.415V51.455L9.95 56.475L1.25 51.455V41.415L9.95 36.395Z" fill="#FFC9BB"/>
<path d="M19.27 40.3249L10.57 35.3049C10.18 35.0849 9.71 35.0849 9.32 35.3049L0.62 40.3249C0.24 40.5549 0 40.9649 0 41.4149V51.4549C0 51.9049 0.24 52.3149 0.62 52.5349L9.32 57.5549C9.51 57.6649 9.73 57.7249 9.94 57.7249C10.15 57.7249 10.37 57.6649 10.56 57.5549L19.26 52.5349C19.65 52.3149 19.88 51.8949 19.88 51.4549V41.4149C19.89 40.9649 19.65 40.5549 19.27 40.3249ZM9.95 37.8349L16.15 41.4149L9.95 44.9949L3.75 41.4149L9.95 37.8349ZM2.5 43.5749L8.7 47.1549V54.3149L2.5 50.7349V43.5749ZM11.2 54.3049V47.1449L17.4 43.5649V50.7149L11.2 54.3049Z" fill="#EF7C4B"/>
</svg>
