<svg width="20" height="22" xmlns="http://www.w3.org/2000/svg" xmlns:xlink="http://www.w3.org/1999/xlink"><use xlink:href="#path0_fill" transform="translate(0 1)" fill="#FFD6CB"/><g transform="translate(1.34 1)"><use xlink:href="#path1_fill" fill="#FFF5F2"/><use xlink:href="#path2_stroke" fill="#FCAB88"/></g><use xlink:href="#path3_stroke" transform="translate(8.89 11)" fill="#FCAB88"/><use xlink:href="#path4_stroke" transform="translate(0 1)" fill="#EF7C4B"/><defs><path id="path0_fill" fill-rule="evenodd" d="M10 0l8.66 5v10L10 20l-8.66-5V5L10 0z"/><path id="path1_fill" fill-rule="evenodd" d="M8.66 0l8.66 5-8.66 5L0 5l8.66-5z"/><path id="path2_stroke" d="M8.66 0l.25-.433a.5.5 0 0 0-.5 0L8.66 0zm8.66 5l.25.433a.5.5 0 0 0 0-.866L17.32 5zm-8.66 5l-.25.433a.5.5 0 0 0 .5 0L8.66 10zM0 5l-.25-.433a.5.5 0 0 0 0 .866L0 5zM8.41.433l8.66 5 .5-.866-8.66-5-.5.866zm8.66 4.134l-8.66 5 .5.866 8.66-5-.5-.866zm-8.16 5l-8.66-5-.5.866 8.66 5 .5-.866zM.25 5.433l8.66-5-.5-.866-8.66 5 .5.866z"/><path id="path3_stroke" d="M1.611 10V0h-1v10h1z"/><path id="path4_stroke" d="M10 0l.3-.52a.6.6 0 0 0-.6 0L10 0zm8.66 5h.6a.6.6 0 0 0-.3-.52l-.3.52zm0 10l.3.52a.6.6 0 0 0 .3-.52h-.6zM10 20l-.3.52a.6.6 0 0 0 .6 0L10 20zm-8.66-5h-.6a.6.6 0 0 0 .3.52l.3-.52zm0-10l-.3-.52a.6.6 0 0 0-.3.52h.6zM9.7.52l8.66 5 .6-1.04-8.66-5L9.7.52zM18.06 5v10h1.2V5h-1.2zm.3 9.48l-8.66 5 .6 1.04 8.66-5-.6-1.04zm-8.06 5l-8.66-5-.6 1.04 8.66 5 .6-1.04zM1.94 15V5H.74v10h1.2zm-.3-9.48l8.66-5-.6-1.04-8.66 5 .6 1.04z"/></defs></svg>