<svg version="1.1" id="Layer_1" xmlns="http://www.w3.org/2000/svg" x="0" y="0" viewBox="0 0 33 33" xml:space="preserve"><style>.st3{fill:#979797}.st4{fill:#ef7c4b}.st5{fill:#c2c2c2}</style><path d="M28 24H12.957a1 1 0 0 1-1-1V3.826a1 1 0 0 1 1-1H28a1 1 0 0 1 1 1V23a1 1 0 0 1-1 1z" fill="#ececec"/><path d="M28 25H12.957c-1.104 0-2-.897-2-2V3.826c0-1.103.896-2 2-2H28c1.103 0 2 .897 2 2V23c0 1.102-.898 2-2 2zM12.957 3.826V23h15.045L28 3.826H12.957z" fill="#c7c7c7"/><path d="M23 30H5a1 1 0 0 1-1-1V9a1 1 0 0 1 1-1h18a1 1 0 0 1 1 1v20a1 1 0 0 1-1 1z" fill="#fff"/><path class="st3" d="M23 31H5c-1.103 0-2-.897-2-2V9c0-1.103.897-2 2-2h18c1.103 0 2 .897 2 2v20c0 1.102-.898 2-2 2zM5 9v20h18.002L23 9H5z"/><circle class="st4" cx="9" cy="19.075" r="2"/><circle class="st3" cx="9" cy="13.075" r="2"/><circle class="st4" cx="9" cy="25.075" r="2"/><path class="st5" d="M13.5 12h7v2h-7zM13.5 18h7v2h-7zM13.5 24h7v2h-7z"/></svg>