<svg width="63" height="66" xmlns="http://www.w3.org/2000/svg" xmlns:xlink="http://www.w3.org/1999/xlink"><defs><circle id="a" cx="6.75" cy="6.75" r="6"/><circle id="b" cx="6.75" cy="6.75" r="6"/><circle id="c" cx="6.75" cy="6.75" r="6"/></defs><g transform="translate(1 1)" fill="none" fill-rule="evenodd"><rect stroke="#393838" stroke-width="1.5" fill="#262626" x="8" width="53" height="56" rx="1"/><rect stroke="#5E5E5E" stroke-width="1.5" fill="#262626" y="8" width="53" height="56" rx="1"/><g transform="translate(5 44)"><rect fill="#3E3E3E" x="18" y="8" width="15" height="3" rx="1"/><rect fill="#6C4242" x="18" y="2" width="22" height="3" rx="1"/><use fill="#4D2E2E" xlink:href="#a"/><circle stroke="#A95656" stroke-width="1.5" cx="6.75" cy="6.75" r="5.25"/><path fill="#E75E5E" d="M4.25 6h5v1.5h-5z"/></g><g transform="translate(5 29)"><rect fill="#3E3E3E" x="18" y="8" width="15" height="3" rx="1"/><rect fill="#3E562A" x="18" y="2" width="22" height="3" rx="1"/><use fill="#353D2E" xlink:href="#b"/><circle stroke="#5E8D37" stroke-width="1.5" cx="6.75" cy="6.75" r="5.25"/><path fill="#7ABA46" d="M4.25 6h5v1.5h-5z"/><path fill="#7ABA46" d="M6 4.25h1.5v5H6z"/></g><g transform="translate(5 14)"><rect fill="#3E3E3E" x="18" y="8" width="15" height="3" rx="1"/><rect fill="#3E562A" x="18" y="2" width="22" height="3" rx="1"/><use fill="#353D2E" xlink:href="#c"/><circle stroke="#5E8D37" stroke-width="1.5" cx="6.75" cy="6.75" r="5.25"/><path fill="#7ABA46" d="M4.25 6h5v1.5h-5z"/><path fill="#7ABA46" d="M6 4.25h1.5v5H6z"/></g></g></svg>