<svg width="107" height="80" xmlns="http://www.w3.org/2000/svg" xmlns:xlink="http://www.w3.org/1999/xlink"><defs><rect id="a" x=".587" y=".515" width="54.519" height="54.519" rx="5"/><mask id="b" x="0" y="0" width="54.519" height="54.519" fill="#fff"><use xlink:href="#a"/></mask><rect id="c" x="12.359" y="12.288" width="54.519" height="54.519" rx="5"/><rect id="d" x="44.291" y="54.471" width="26.549" height="8.496" rx="4.248"/></defs><g fill="none" fill-rule="evenodd"><g transform="rotate(-45 43.703 21.546)"><use stroke="#323131" mask="url(#b)" stroke-width="4" stroke-dasharray="5" xlink:href="#a"/><use fill="#2B2B2B" xlink:href="#c"/><rect stroke="#393939" stroke-width="2" x="13.359" y="13.288" width="52.519" height="52.519" rx="5"/></g><g transform="translate(38 10)"><path stroke="#4F4F4F" stroke-width="2" d="M40.06 40.992l18.772 18.773"/><circle stroke="#5A5A5A" stroke-width="2" fill="#2C2C2C" cx="25.487" cy="25.487" r="25.487"/><g transform="rotate(45 57.566 58.719)"><use fill="#2C2C2C" xlink:href="#d"/><rect stroke="#5A5A5A" stroke-width="2" x="45.291" y="55.471" width="24.549" height="6.496" rx="3.248"/></g></g><path d="M58.684 31.638h1.841c.184-2.237 1.756-3.653 4.022-3.653 2.28 0 3.88 1.458 3.88 3.469 0 1.529-.694 2.52-2.464 3.696-1.983 1.288-2.804 2.478-2.79 4.347v1.33h1.883v-1.061c0-1.572.524-2.38 2.38-3.569 1.94-1.246 2.987-2.733 2.987-4.828 0-2.889-2.393-5.07-5.805-5.07-3.654 0-5.764 2.337-5.934 5.339zm5.452 15.42c.765 0 1.345-.594 1.345-1.345 0-.765-.58-1.345-1.345-1.345-.75 0-1.345.58-1.345 1.345 0 .75.595 1.345 1.345 1.345z" fill="#5B5B5B"/></g></svg>