<svg width="56" height="43" xmlns="http://www.w3.org/2000/svg"><g transform="translate(1 1)" fill="none" fill-rule="evenodd"><path d="M6 8.007C6 6.9 6.895 6 8.001 6H52c1.104 0 2 .9 2 2.007v30.986A2.004 2.004 0 0 1 51.999 41H8c-1.104 0-2-.9-2-2.007V8.007z" stroke="#D7D7D7" stroke-width="2" fill="#F3F3F3"/><path d="M0 2.007C0 .9.895 0 2.001 0H46c1.104 0 2 .9 2 2.007v30.986A2.004 2.004 0 0 1 45.999 35H2c-1.104 0-2-.9-2-2.007V2.007z" stroke="#D7D7D7" stroke-width="2" fill="#F3F3F3"/><rect width="8" height="2" rx="1" transform="translate(5 16.5)" fill="#DADADA"/><g transform="translate(5 22.5)" fill="#BFBFBF"><rect y="3" width="8" height="2" rx="1"/><rect x="3" width="2" height="8" rx="1"/></g><g fill="#BFBFBF" transform="translate(5 4.5)"><rect y="3" width="8" height="2" rx="1"/><rect x="3" width="2" height="8" rx="1"/></g><rect fill="#CBCBCB" x="18" y="7" width="23" height="3" rx="1.5"/><rect fill="#E1E1E1" x="18" y="16" width="16" height="3" rx="1.5"/><rect fill="#CBCBCB" x="18" y="25" width="23" height="3" rx="1.5"/></g></svg>