<svg width="20" height="20" fill="none" xmlns="http://www.w3.org/2000/svg"><path d="M10.25 18.75a9 9 0 1 0 0-18 9 9 0 0 0 0 18z" fill="#fff"/><path d="M10.25 19.5C4.87 19.5.5 15.13.5 9.75S4.87 0 10.25 0 20 4.37 20 9.75s-4.37 9.75-9.75 9.75zm0-18C5.7 1.5 2 5.2 2 9.75S5.7 18 10.25 18s8.25-3.7 8.25-8.25-3.7-8.25-8.25-8.25z" fill="#979797"/><path d="M10.25 16.86c-.41 0-.75-.34-.75-.75v-1.27c0-.41.34-.75.75-.75s.75.34.75.75v1.27c0 .41-.34.75-.75.75zM10.25 5.41c-.41 0-.75-.34-.75-.75V3.39c0-.41.34-.75.75-.75s.75.34.75.75v1.27c0 .41-.34.75-.75.75zM5.16 10.5H3.89c-.41 0-.75-.34-.75-.75S3.48 9 3.89 9h1.27c.41 0 .75.34.75.75s-.34.75-.75.75zM16.61 10.5h-1.27c-.41 0-.75-.34-.75-.75s.34-.75.75-.75h1.27c.41 0 .75.34.75.75s-.34.75-.75.75z" fill="#979797"/><path d="M11.31 10.81l-5.3 3.18 3.18-5.3 2.12 2.12z" fill="#DDD"/><path d="M6.01 14.74c-.19 0-.39-.08-.53-.22a.754.754 0 0 1-.11-.92l3.18-5.3c.12-.2.32-.33.55-.36.23-.02.46.06.62.22l2.12 2.12a.75.75 0 0 1-.15 1.17l-5.3 3.18a.67.67 0 0 1-.38.11zM9.34 9.9L8.2 11.81l1.91-1.14-.77-.77z" fill="#979797"/><path d="M9.19 8.69l5.3-3.18-3.18 5.3-2.12-2.12z" fill="#FCB5AB"/><path d="M11.31 11.56a.75.75 0 0 1-.53-.22L8.66 9.22a.744.744 0 0 1-.21-.62c.02-.23.16-.43.35-.55l5.3-3.18c.29-.18.67-.13.92.11.24.24.29.62.11.92l-3.18 5.3a.75.75 0 0 1-.55.36h-.09zm-.91-2.72l.76.76 1.14-1.91-1.9 1.15z" fill="#F36350"/></svg>