<svg width="20" height="20" fill="none" xmlns="http://www.w3.org/2000/svg"><path d="M9.59 9.11l-1.93 3.22 3.24-1.95 1.93-3.22-3.24 1.95z" fill="#DCDCDC"/><path d="M10.25 19.5C4.87 19.5.5 15.13.5 9.75S4.87 0 10.25 0 20 4.37 20 9.75s-4.37 9.75-9.75 9.75zm0-18C5.7 1.5 2 5.2 2 9.75S5.7 18 10.25 18s8.25-3.7 8.25-8.25-3.7-8.25-8.25-8.25z" fill="#C7C7C7"/><path d="M10.25 16.86c-.41 0-.75-.34-.75-.75v-1.27c0-.41.34-.75.75-.75s.75.34.75.75v1.27c0 .41-.34.75-.75.75zM10.25 5.41c-.41 0-.75-.34-.75-.75V3.39c0-.41.34-.75.75-.75s.75.34.75.75v1.27c0 .41-.34.75-.75.75zM5.16 10.5H3.89c-.41 0-.75-.34-.75-.75S3.48 9 3.89 9h1.27c.41 0 .75.34.75.75s-.34.75-.75.75zM16.61 10.5h-1.27c-.41 0-.75-.34-.75-.75s.34-.75.75-.75h1.27c.41 0 .75.34.75.75s-.34.75-.75.75zM6.04 14.7c-.19 0-.39-.08-.53-.22a.754.754 0 0 1-.11-.92l3.15-5.25c.06-.09.15-.18.26-.25l5.27-3.16c.29-.18.67-.13.92.11.24.24.29.62.11.92l-3.15 5.25a.72.72 0 0 1-.26.26L6.43 14.6c-.12.07-.25.1-.39.1zm3.7-5.45l-1.51 2.51 2.53-1.52 1.51-2.51-2.53 1.52z" fill="#C7C7C7"/></svg>