<svg width="122" height="98" viewBox="0 0 122 98" fill="none" xmlns="http://www.w3.org/2000/svg">
<path d="M54.32 70.2801C67.7736 70.2801 78.68 59.3737 78.68 45.9201C78.68 32.4664 67.7736 21.5601 54.32 21.5601C40.8663 21.5601 29.96 32.4664 29.96 45.9201C29.96 59.3737 40.8663 70.2801 54.32 70.2801Z" fill="white"/>
<path d="M51.3276 51.3508L36.4546 62.2356L37.9311 64.2531L52.8041 53.3683L51.3276 51.3508Z" fill="#9CD7FF"/>
<path d="M48.7641 43.9292L29.9092 44.667L30.0069 47.165L48.8618 46.4272L48.7641 43.9292Z" fill="#9CD7FF"/>
<path d="M40.7155 25.4703L38.9253 27.2153L50.212 38.7947L52.0022 37.0497L40.7155 25.4703Z" fill="#9CD7FF"/>
<path d="M72.0112 29.4814L66.4668 36.2764L68.4038 37.8569L73.9482 31.0619L72.0112 29.4814Z" fill="#9CD7FF"/>
<path d="M70.9417 44.295L70.8232 46.7922L78.6147 47.162L78.7332 44.6647L70.9417 44.295Z" fill="#9CD7FF"/>
<path d="M59.0801 31.5701L71.3101 38.6301V52.7501L59.0801 59.8101L46.8501 52.7501V38.6301L59.0801 31.5701Z" fill="#C5EAFF"/>
<path d="M59.0801 31.5701L71.3101 38.6301L59.0801 45.6901L46.8501 38.6301L59.0801 31.5701Z" fill="#9CD7FF"/>
<path d="M71.9301 37.55L59.7001 30.49C59.3101 30.27 58.8401 30.27 58.4501 30.49L46.2201 37.55C45.8301 37.77 45.6001 38.19 45.6001 38.63C45.6001 39.07 45.8401 39.49 46.2201 39.71L57.8201 46.41V59.81H60.3201V46.41L71.9201 39.71C72.3101 39.49 72.5401 39.07 72.5401 38.63C72.5401 38.19 72.3201 37.77 71.9301 37.55ZM59.0801 44.25L49.3501 38.63L59.0801 33.0099L68.8101 38.63L59.0801 44.25Z" fill="#4AA7F4"/>
<path d="M59.0799 61.06C58.8599 61.06 58.6499 61 58.4599 60.89L46.2299 53.83C45.8399 53.61 45.6099 53.19 45.6099 52.75V38.63C45.6099 38.18 45.8499 37.77 46.2299 37.55L58.4599 30.49C58.8499 30.27 59.3199 30.27 59.7099 30.49L71.9399 37.55C72.3299 37.77 72.5599 38.19 72.5599 38.63V52.75C72.5599 53.2 72.3199 53.61 71.9399 53.83L59.7099 60.89C59.5099 61.01 59.2999 61.06 59.0799 61.06ZM48.0999 52.03L59.0799 58.37L70.0599 52.03V39.3499L59.0799 33.0099L48.0999 39.3499V52.03Z" fill="#0A7CED"/>
<path d="M87.3798 83.4999L76.9198 73.0399C75.8698 71.9899 75.8698 70.2899 76.9198 69.2399C77.9698 68.1899 79.6698 68.1899 80.7198 69.2399L91.1798 79.6999C92.2298 80.7499 92.2298 82.4499 91.1798 83.4999C90.1298 84.5499 88.4298 84.5499 87.3798 83.4999Z" fill="#D3D3D3"/>
<path d="M116.83 45.4799C115.74 45.4799 114.78 46.02 114.19 46.84L99.5498 43.3699C99.5498 43.3199 99.5598 43.27 99.5598 43.22C99.5598 40.17 97.0898 37.7 94.0398 37.7C91.5398 37.7 89.4298 39.36 88.7498 41.63L78.7898 40.75L78.5698 43.24L88.5898 44.11C89.0198 46.73 91.2898 48.74 94.0298 48.74C94.2198 48.74 94.4098 48.7299 94.5898 48.7099L98.5898 59.83C97.9298 60.43 97.5198 61.28 97.5198 62.24C97.5198 64.05 98.9798 65.51 100.79 65.51C102.6 65.51 104.06 64.05 104.06 62.24C104.06 60.49 102.68 59.07 100.95 58.99L96.9498 47.9C97.7798 47.38 98.4598 46.65 98.9098 45.79L113.6 49.27C113.85 50.83 115.19 52.02 116.82 52.02C118.63 52.02 120.09 50.56 120.09 48.75C120.1 46.94 118.63 45.4799 116.83 45.4799Z" fill="#9CD7FF"/>
<path d="M35.72 1.25C33.91 1.25 32.45 2.71 32.45 4.52C32.45 5.15 32.64 5.74 32.95 6.24L26.33 15.46C25.68 15.19 24.96 15.04 24.21 15.04C21.94 15.04 20 16.4 19.15 18.36L7.72 16.23C7.41 14.75 6.1 13.64 4.52 13.64C2.71 13.64 1.25 15.1 1.25 16.91C1.25 18.72 2.71 20.18 4.52 20.18C5.67 20.18 6.67 19.58 7.26 18.69L18.69 20.8C18.82 23.73 21.24 26.07 24.2 26.07C25.22 26.07 26.18 25.79 27 25.3L33.61 32.23L35.42 30.51L28.81 23.58C29.38 22.71 29.72 21.67 29.72 20.55C29.72 19.16 29.2 17.89 28.35 16.91L34.97 7.69C35.21 7.75 35.46 7.78 35.71 7.78C37.52 7.78 38.98 6.32 38.98 4.51C38.98 2.71 37.52 1.25 35.72 1.25Z" fill="#9CD7FF"/>
<path d="M94.0298 50C90.2898 50 87.2598 46.96 87.2598 43.23C87.2598 39.5 90.2998 36.46 94.0298 36.46C97.7598 36.46 100.8 39.5 100.8 43.23C100.8 46.96 97.7598 50 94.0298 50ZM94.0298 38.95C91.6698 38.95 89.7598 40.87 89.7598 43.22C89.7598 45.57 91.6798 47.49 94.0298 47.49C96.3798 47.49 98.2998 45.57 98.2998 43.22C98.2998 40.87 96.3898 38.95 94.0298 38.95Z" fill="#0A7CED"/>
<path d="M24.2002 27.32C20.4602 27.32 17.4302 24.28 17.4302 20.55C17.4302 16.82 20.4702 13.78 24.2002 13.78C27.9302 13.78 30.9702 16.82 30.9702 20.55C30.9702 24.28 27.9302 27.32 24.2002 27.32ZM24.2002 16.28C21.8402 16.28 19.9302 18.2 19.9302 20.55C19.9302 22.9 21.8502 24.82 24.2002 24.82C26.5502 24.82 28.4702 22.9 28.4702 20.55C28.4702 18.2 26.5602 16.28 24.2002 16.28Z" fill="#0A7CED"/>
<path d="M31.5602 53.89L31.2502 51.41L13.1102 53.67C12.3302 51.56 10.3102 50.05 7.93016 50.05C4.88016 50.05 2.41016 52.52 2.41016 55.57C2.41016 58.62 4.88016 61.09 7.93016 61.09C10.7802 61.09 13.1302 58.9201 13.4202 56.1501L31.5602 53.89Z" fill="#D3D3D3"/>
<path d="M7.93016 62.34C4.19016 62.34 1.16016 59.3 1.16016 55.57C1.16016 51.84 4.20016 48.8 7.93016 48.8C11.6602 48.8 14.7002 51.84 14.7002 55.57C14.7002 59.3 11.6702 62.34 7.93016 62.34ZM7.93016 51.3C5.57016 51.3 3.66016 53.22 3.66016 55.57C3.66016 57.92 5.58016 59.84 7.93016 59.84C10.2802 59.84 12.2002 57.92 12.2002 55.57C12.2002 53.22 10.2902 51.3 7.93016 51.3Z" fill="#6B6B6B"/>
<path d="M100.79 66.76C98.3 66.76 96.27 64.73 96.27 62.24C96.27 59.75 98.3 57.72 100.79 57.72C103.28 57.72 105.31 59.75 105.31 62.24C105.31 64.73 103.28 66.76 100.79 66.76ZM100.79 60.22C99.68 60.22 98.77 61.13 98.77 62.24C98.77 63.35 99.68 64.26 100.79 64.26C101.9 64.26 102.81 63.35 102.81 62.24C102.81 61.13 101.9 60.22 100.79 60.22Z" fill="#0A7CED"/>
<path d="M116.83 53.26C114.34 53.26 112.31 51.23 112.31 48.74C112.31 46.25 114.34 44.22 116.83 44.22C119.32 44.22 121.35 46.25 121.35 48.74C121.35 51.23 119.32 53.26 116.83 53.26ZM116.83 46.73C115.72 46.73 114.81 47.64 114.81 48.75C114.81 49.86 115.72 50.77 116.83 50.77C117.94 50.77 118.85 49.86 118.85 48.75C118.85 47.64 117.94 46.73 116.83 46.73Z" fill="#0A7CED"/>
<path d="M35.7202 9.04C33.2302 9.04 31.2002 7.01 31.2002 4.52C31.2002 2.03 33.2202 0 35.7202 0C38.2102 0 40.2402 2.03 40.2402 4.52C40.2402 7.01 38.2102 9.04 35.7202 9.04ZM35.7202 2.5C34.6102 2.5 33.7002 3.41 33.7002 4.52C33.7002 5.63 34.6102 6.54 35.7202 6.54C36.8302 6.54 37.7402 5.63 37.7402 4.52C37.7402 3.41 36.8302 2.5 35.7202 2.5Z" fill="#0A7CED"/>
<path d="M4.52 21.4299C2.03 21.4299 0 19.3999 0 16.9099C0 14.4199 2.03 12.3899 4.52 12.3899C7.01 12.3899 9.04 14.4199 9.04 16.9099C9.04 19.3999 7.01 21.4299 4.52 21.4299ZM4.52 14.8899C3.41 14.8899 2.5 15.7999 2.5 16.9099C2.5 18.0199 3.41 18.9299 4.52 18.9299C5.63 18.9299 6.54 18.0199 6.54 16.9099C6.54 15.7999 5.63 14.8899 4.52 14.8899Z" fill="#0A7CED"/>
<path d="M87.1401 6.05005H76.3301V15.84L67.8701 25.5201L69.7501 27.16L78.7701 16.85H87.1401V6.05005Z" fill="#D3D3D3"/>
<path d="M52.5802 89.02L34.5202 78.05V75.96L43.5102 68.15L41.8802 66.26L33.1402 73.85H27.4702V77.16L14.7102 81.16V80.06H7.66016V87.1H14.7102V83.78L27.4702 79.78V80.89H34.3802L52.4502 91.87V96.07H59.4902V89.02H52.5802Z" fill="#D3D3D3"/>
<path d="M88.3898 18.1H75.0898V4.80005H88.3898V18.1ZM77.5798 15.6H85.8798V7.30005H77.5798V15.6Z" fill="#6B6B6B"/>
<path d="M35.7702 82.1401H26.2202V72.6001H35.7702V82.1401ZM28.7202 79.6401H33.2702V75.1001H28.7202V79.6401V79.6401Z" fill="#6B6B6B"/>
<path d="M60.7402 97.32H51.2002V87.77H60.7502V97.32H60.7402ZM53.7002 94.82H58.2502V90.27H53.7002V94.82Z" fill="#6B6B6B"/>
<path d="M15.9602 88.35H6.41016V78.8H15.9602V88.35ZM8.91016 85.85H13.4602V81.3H8.91016V85.85Z" fill="#6B6B6B"/>
<path d="M92.06 78.82L81.6 68.35C80.38 67.13 78.42 66.93 76.94 67.71L72.82 63.59C77.22 58.99 79.93 52.76 79.93 45.91C79.93 31.79 68.44 20.3 54.32 20.3C40.2 20.3 28.71 31.8 28.71 45.92C28.71 60.04 40.2 71.52 54.32 71.52C60.69 71.52 66.52 69.18 71.01 65.31L75.23 69.53C75.01 70.03 74.88 70.57 74.88 71.13C74.88 72.18 75.29 73.1701 76.03 73.9101L86.49 84.3701C87.26 85.1401 88.27 85.5201 89.27 85.5201C90.28 85.5201 91.29 85.1401 92.05 84.3701C93.6 82.8501 93.6 80.35 92.06 78.82ZM31.21 45.92C31.21 33.18 41.58 22.81 54.32 22.81C67.06 22.81 77.43 33.18 77.43 45.92C77.43 58.66 67.06 69.02 54.32 69.02C41.57 69.02 31.21 58.66 31.21 45.92ZM90.29 82.6201C89.73 83.1801 88.82 83.1801 88.26 82.6201L77.8 72.1501C77.53 71.8801 77.38 71.52 77.38 71.13C77.38 70.74 77.53 70.3901 77.8 70.1101C78.34 69.5701 79.29 69.5701 79.83 70.1101L90.29 80.57C90.85 81.14 90.85 82.0601 90.29 82.6201Z" fill="#6B6B6B"/>
</svg>