<svg width="34" height="13" viewBox="0 0 34 13" fill="none" xmlns="http://www.w3.org/2000/svg">
<path d="M0 6C0 5.44772 0.447715 5 1 5H9C9.55228 5 10 5.44772 10 6V12C10 12.5523 9.55229 13 9 13H1C0.447716 13 0 12.5523 0 12V6Z" fill="#C4C4C4"/>
<path fill-rule="evenodd" clip-rule="evenodd" d="M11 0C8.79086 0 7 1.79086 7 4V5H1C0.447715 5 0 5.44772 0 6V12C0 12.5523 0.447716 13 1 13H9C9.55229 13 10 12.5523 10 12V6C10 5.44772 9.55228 5 9 5V4C9 2.89543 9.89543 2 11 2C12.1046 2 13 2.89543 13 4V6H15V4C15 1.79086 13.2091 0 11 0ZM2 11V7H8V11H2Z" fill="#7B7B7B"/>
<path d="M28.3201 2.68343L32.8547 6.46227C33.1905 6.74213 33.1905 7.25792 32.8547 7.53778L28.3201 11.3166C27.9944 11.588 27.5 11.3564 27.5 10.9325V8.00002H20C19.4477 8.00002 19 7.55231 19 7.00002C19 6.44774 19.4477 6.00002 20 6.00002H27.5V3.06755C27.5 2.64363 27.9944 2.41205 28.3201 2.68343Z" fill="#7B7B7B"/>
</svg>
