<svg width="29" height="13" viewBox="0 0 29 13" fill="none" xmlns="http://www.w3.org/2000/svg">
<path d="M0 6C0 5.44772 0.447715 5 1 5H9C9.55228 5 10 5.44772 10 6V12C10 12.5523 9.55229 13 9 13H1C0.447716 13 0 12.5523 0 12V6Z" fill="#C8DCE9"/>
<path fill-rule="evenodd" clip-rule="evenodd" d="M9 5C9.55228 5 10 5.44772 10 6V12C10 12.5523 9.55229 13 9 13H1C0.447716 13 0 12.5523 0 12V6C0 5.44772 0.447715 5 1 5V4C1 1.79086 2.79086 0 5 0C7.20914 0 9 1.79086 9 4V5ZM7 5V4C7 2.89543 6.10457 2 5 2C3.89543 2 3 2.89543 3 4V5H7ZM2 11V7H8V11H2Z" fill="#137CBD"/>
<path d="M23.3201 2.68343L27.8547 6.46227C28.1905 6.74213 28.1905 7.25792 27.8547 7.53778L23.3201 11.3166C22.9944 11.588 22.5 11.3564 22.5 10.9325V8.00002H15C14.4477 8.00002 14 7.55231 14 7.00002C14 6.44774 14.4477 6.00002 15 6.00002H22.5V3.06755C22.5 2.64363 22.9944 2.41205 23.3201 2.68343Z" fill="#137CBD"/>
</svg>
