<svg width="39" height="32" xmlns="http://www.w3.org/2000/svg"><g fill="none" fill-rule="evenodd"><path d="M21.569 1.429c-1.143-1.894-2.99-1.903-4.138 0L1.069 28.543c-1.143 1.893-.28 3.428 1.937 3.428h32.988c2.212 0 3.085-1.525 1.937-3.428L21.569 1.429z" fill="#EFEFEF"/><path d="M18.823 13.309l.15 8.472h1.459l.15-8.472h-1.759zm.888 12.85c.357 0 .649-.115.874-.344.226-.228.339-.521.339-.878 0-.364-.113-.66-.339-.888-.225-.229-.517-.343-.874-.343s-.65.114-.879.343c-.228.228-.343.524-.343.888 0 .357.115.65.343.878.229.229.522.343.879.343z" fill="#9E9E9E"/></g></svg>