<svg width="112" height="73" viewBox="0 0 112 73" fill="none" xmlns="http://www.w3.org/2000/svg">
<path d="M2.24023 35.5957V34.8574C8.51562 34.2012 11.1406 31.5352 11.1406 25.4648V12.791C11.1406 5.08008 13.8887 2.66016 19.877 2.66016H20.6562V0.814453H19.8359C12.043 0.814453 9.13086 4.0957 9.13086 12.791V24.0293C9.13086 30.9609 6.75195 33.4219 0.189453 33.4219V37.1133C6.75195 37.1133 9.13086 39.5332 9.13086 46.3828V59.918C9.13086 68.8184 12.166 72.2637 19.8359 72.2637H20.6562V70.377H19.877C14.1758 70.377 11.1406 67.6289 11.1406 59.877V44.9473C11.1406 38.877 8.51562 36.2109 2.24023 35.5957Z" fill="#C1C1C1"/>
<path d="M109.783 35.5957C103.508 36.2109 100.883 38.877 100.883 44.9473V59.877C100.883 67.6289 97.8477 70.377 92.1465 70.377H91.3262V72.2637H92.1875C99.8574 72.2637 102.852 68.8184 102.852 59.918V46.3828C102.852 39.5332 105.23 37.1133 111.793 37.1133V33.4219C105.23 33.4219 102.852 30.9609 102.852 24.0293V12.791C102.852 4.0957 99.9395 0.814453 92.1875 0.814453H91.3262V2.66016H92.1465C98.1348 2.66016 100.883 5.08008 100.883 12.791V25.4648C100.883 31.5352 103.467 34.2012 109.783 34.8574V35.5957Z" fill="#C1C1C1"/>
<path fill-rule="evenodd" clip-rule="evenodd" d="M45 36.5C45 38.433 43.433 40 41.5 40C39.567 40 38 38.433 38 36.5C38 34.567 39.567 33 41.5 33C43.433 33 45 34.567 45 36.5ZM59 36.5C59 38.433 57.433 40 55.5 40C53.567 40 52 38.433 52 36.5C52 34.567 53.567 33 55.5 33C57.433 33 59 34.567 59 36.5ZM69.5 40C71.433 40 73 38.433 73 36.5C73 34.567 71.433 33 69.5 33C67.567 33 66 34.567 66 36.5C66 38.433 67.567 40 69.5 40Z" fill="#C4C4C4"/>
</svg>
