<svg width="43" height="41" fill="none" xmlns="http://www.w3.org/2000/svg"><path fill="#000" fill-opacity="0" d="M0 0h42.381v40.29H0z"/><path d="M24.442.031c.814.126 1.566.376 2.256.815.626.439 1.128 1.003 1.378 1.755.188.752.188 1.504-.188 2.256-.25.501-.626.752-1.128.877-.626.188-1.253.188-1.88-.063-.564-.188-.877-.626-1.002-1.128-.251-.877-.063-1.692.564-2.381.125-.125.188-.25.313-.376.188-.188.125-.376-.125-.501-.188-.063-.314-.126-.44-.126-.751-.062-1.503-.125-2.255.251-.627.313-1.128.815-1.567 1.379-.564.814-.94 1.754-1.19 2.694-.377 1.504-.627 3.008-1.003 4.513l-.564 2.444c-.063.25-.063.313.25.313h3.572c.189 0 .314.063.189.25-.063.189-.126.44-.189.627-.062.188-.125.25-.313.25h-3.572c-.188 0-.313.064-.313.252-.125.689-.25 1.316-.376 2.005-.188.877-.376 1.817-.564 2.695-.126.689-.25 1.316-.376 2.005-.188 1.003-.376 2.005-.627 2.945a30.762 30.762 0 0 1-.69 2.57c-.313 1.065-.626 2.193-1.002 3.258-.564 1.567-1.19 3.071-1.943 4.513-.752 1.441-1.566 2.82-2.757 4.01l-.188.188a9.008 9.008 0 0 1-1.567 1.128c-.689.376-1.441.564-2.193.752h-.125c-.502.063-1.066.126-1.567.063-1.128-.125-2.13-.564-2.82-1.567-.502-.689-.69-2.068.063-2.882.626-.69 1.316-.815 2.193-.69.313.063.627.188.877.376.376.314.564.69.564 1.128.063.502 0 1.066-.313 1.504-.063.063-.125.126-.125.251-.126.439.062.752.5.815 1.004.125 1.818-.251 2.508-1.003.626-.627.94-1.441 1.253-2.256.439-1.19.752-2.381 1.065-3.572.376-1.567.627-3.07 1.003-4.638l.752-3.948c.25-1.128.501-2.318.69-3.446l.751-3.948c.126-.69.251-1.38.44-2.006v-.188c.062-.188-.064-.25-.252-.25H8.524c-.313 0-.313 0-.25-.314.062-.188.125-.376.125-.564 0-.188.125-.25.313-.25h4.01c.251 0 .314-.126.377-.314.25-1.003.564-1.943.94-2.883.752-2.13 1.63-4.136 2.945-5.89.877-1.191 1.943-2.256 3.321-2.946 1.191-.626 2.507-.877 3.886-.752h.251zM36.224 30.3H35.22c-1.003-.063-1.755-.564-2.319-1.316-.5-.69-.752-1.442-.94-2.256a51.762 51.762 0 0 1-.689-3.322c0-.062 0-.188-.125-.25-.188.25-.376.438-.502.752l-.062.062c-.502.627-.94 1.254-1.442 1.88-.626.878-1.316 1.755-1.942 2.633-.564.752-1.316 1.378-2.256 1.691-1.191.44-2.382 0-2.883-1.127-.627-1.442.376-2.946 1.817-2.883.376 0 .752.188 1.003.438l.627.627c.188.188.313.125.501.063.313-.188.564-.439.815-.69 1.19-1.316 2.318-2.694 3.509-4.01.313-.376.376-.752.25-1.191a35.44 35.44 0 0 1-.5-2.507c-.314-1.378-.565-2.82-1.129-4.136a1.364 1.364 0 0 0-.313-.501c-.188-.25-.376-.313-.69-.188-.375.125-.689.438-1.002.69-1.003 1.065-1.817 2.255-2.57 3.509-.125.25-.25.25-.438.125-.125-.063-.313-.125-.439-.188-.125-.063-.125-.125-.062-.25.877-1.505 1.817-3.009 3.07-4.262.878-.877 1.88-1.441 3.071-1.63h.125c.376 0 .815-.062 1.191 0 1.19.126 2.005.69 2.444 1.755.376.815.564 1.63.752 2.507.063.313.125.69.188 1.003 0 .062 0 .125.063.125.062 0 .062-.063.125-.063 1.003-1.19 1.943-2.444 2.945-3.635.502-.626 1.066-1.253 1.88-1.504.815-.313 1.63-.313 2.382.189.501.313.627.814.69 1.316.062.563-.063 1.002-.44 1.44-.062.064-.062.126-.062.126l-.063.063c-.25.188-.438.376-.752.439-.627.188-1.19.062-1.692-.251-.25-.188-.501-.376-.815-.501-.25-.126-.438-.126-.689 0-.439.188-.69.564-1.003.877-.752.815-1.44 1.692-2.005 2.695-.125.25-.188.501-.125.752.188 1.002.438 2.005.627 2.945.188.94.375 1.817.563 2.757.189.878.377 1.755.94 2.57.314.438.69.564 1.191.313.376-.188.69-.439.94-.752.94-1.003 1.63-2.193 2.256-3.447.126-.313.126-.313.439-.125.063 0 .063.063.125.063.502.313.439.188.25.689-.5 1.128-1.127 2.256-1.88 3.259-.751.94-1.629 1.755-2.757 2.256-.376.188-.814.25-1.19.313.063.063 0 .063 0 .063z" fill="#C5C5C5"/></svg>