<svg width="110" height="110" xmlns="http://www.w3.org/2000/svg" xmlns:xlink="http://www.w3.org/1999/xlink"><use xlink:href="#path0_fill" transform="translate(15.135 23.65)" fill="#D3D3D3"/><use xlink:href="#path1_fill" fill="#D3D3D3"/><use xlink:href="#path2_fill" transform="rotate(-45 105.822 5.35)" fill="#FFC9BB"/><use xlink:href="#path3_fill" transform="rotate(-45 105.822 5.35)" fill="#EF7C4B"/><use xlink:href="#path4_fill" transform="rotate(-45 95.452 -26.446)" fill="#979797"/><use xlink:href="#path5_fill" transform="rotate(135 5.704 43.572)" fill="#EF7C4B"/><use xlink:href="#path6_fill" transform="rotate(-135 54.195 28.856)" fill="#F2F2F2"/><use xlink:href="#path7_fill" transform="rotate(-135 54.195 28.856)" fill="#979797"/><use xlink:href="#path8_fill" transform="rotate(135 13.206 29.337)" fill="#979797"/><use xlink:href="#path9_fill" transform="rotate(135 21.224 51.878)" fill="#D5D5D5"/><defs><path id="path0_fill" d="M85.075 0l-1.76 1.21c6.05 8.91 9.35 19.25 9.35 30.14 0 29.15-23.65 52.8-52.8 52.8-10.23 0-20.13-2.97-28.71-8.47l2.31-2.97c.11-.11.11-.22.22-.44.11-.55-.22-1.21-.88-1.32l-11.44-2.42c-.22-.11-.55 0-.77.11-.55.33-.77.99-.44 1.54l5.5 10.23.33.33c.44.33 1.21.22 1.54-.22l2.31-3.08c8.91 5.83 19.25 8.91 30.03 8.91 30.36 0 55-24.64 55-55 0-11.33-3.41-22.11-9.79-31.35z"/><path id="path1_fill" d="M55 2.2c10.34 0 20.35 2.97 28.93 8.58l-2.2 2.97c-.11.11-.11.22-.22.44-.11.55.22 1.21.88 1.32l11.33 2.42c.22.11.55 0 .77-.11.55-.33.77-.99.44-1.54l-5.5-10.23-.33-.33c-.44-.33-1.21-.22-1.54.22l-2.31 3.08C76.23 3.19 65.78 0 55 0 24.64 0 0 24.64 0 55c0 11 3.3 21.67 9.46 30.8l1.87-1.21C5.28 75.79 2.2 65.56 2.2 55 2.2 25.85 25.85 2.2 55 2.2z"/><path id="path2_fill" d="M2.2 0h15.07c.77 0 1.43.66 1.43 1.43L22.55 0h1.87c.66 0 1.1.44 1.1 1.1v6.6c0 .66-.44 1.1-1.1 1.1h-1.87L18.7 7.37c0 .77-.77 1.43-1.54 1.43H2.2C.99 8.8 0 7.81 0 6.6V2.2C0 .99.99 0 2.2 0z"/><path id="path3_fill" d="M.66 8.14C.22 7.81 0 7.26 0 6.6V2.2C0 .99.99 0 2.2 0h15.07c.77 0 1.43.66 1.43 1.43L22.66 0h1.76c.33 0 .55.11.77.33.22.22.33.44.33.77v6.6c0 .66-.44 1.1-1.1 1.1h-1.98L18.7 7.37c0 .44-.11.77-.44 1.1-.33.33-.66.44-1.1.44H2.2C1.54 8.8.99 8.58.66 8.14zm16.61-6.71H2.2c-.44 0-.77.33-.77.77v4.4c0 .44.33.77.77.77h14.96s.11 0 .11-.11V5.17l5.61 2.2h1.21V1.43h-1.32l-5.61 1.98.11-1.98z"/><path id="path4_fill" d="M0 .99h32.34L34.32 0l8.8.99v2.97l-8.8.88-1.98-.88H0V.99z"/><path id="path5_fill" d="M9.79 0H0v1.43h9.79V0z"/><path id="path6_fill" d="M4.95 4.95h46.09L55.99 0h6.82l4.95 5.83H59.4v7.92h8.36l-4.95 5.94h-6.82l-4.95-4.95H4.95A4.93 4.93 0 0 1 0 9.79c0-2.75 2.2-4.84 4.95-4.84zm0 5.83c.55 0 .99-.44.99-.99s-.44-.99-.99-.99-.99.44-.99.99.44.99.99.99z"/><path id="path7_fill" d="M1.43 6.38c.88-.88 2.2-1.43 3.52-1.43h46.09L55.99 0h6.82l4.95 5.83H59.4v7.92h8.36l-4.95 5.94h-6.82l-4.95-4.95H4.95A4.93 4.93 0 0 1 0 9.79c0-1.32.55-2.53 1.43-3.41zm55.11-4.95l-4.95 4.95H4.84c-1.87 0-3.52 1.65-3.52 3.52s1.54 3.52 3.52 3.52h46.75l4.95 4.95h5.5l2.53-3.08h-6.71V4.4h6.71l-2.53-2.97h-5.5zM3.19 8.14c.44-.44 1.1-.66 1.76-.66.66 0 1.21.22 1.65.66.44.44.66 1.1.66 1.65 0 1.32-1.1 2.42-2.42 2.42-1.32 0-2.42-1.1-2.42-2.42.11-.66.33-1.21.77-1.65zm2.42 2.42c.22-.22.33-.44.33-.66 0-.22-.11-.55-.33-.66-.22-.33-.44-.44-.66-.44-.55 0-.99.44-.99.99s.44.99.99.99c.22 0 .44-.11.66-.22z"/><path id="path8_fill" d="M5.94 0H0v2.97h5.94V0z"/><path id="path9_fill" d="M1.43 0H0v39.27h1.43V0z"/></defs></svg>