<svg width="19" height="22" viewBox="0 0 19 22" fill="none" xmlns="http://www.w3.org/2000/svg">
<path d="M17.9198 5.78007V15.6901L9.33977 20.6501L0.759766 15.6901V5.78007L9.33977 0.820068L17.9198 5.78007Z" fill="#F1F1F1"/>
<path d="M9.33 0.77002L0.75 5.72002L9.33 10.68L17.92 5.72002L9.33 0.77002Z" fill="#DCDCDC"/>
<path d="M10.0801 10.1101H8.58008V20.4101H10.0801V10.1101Z" fill="#DADADA"/>
<path d="M9.33 0L0 5.39V16.17L9.33 21.56L18.66 16.17V5.39L9.33 0ZM16.25 5.72L9.33 9.71L2.41 5.72L9.33 1.73L16.25 5.72ZM9.33 19.82L1.5 15.3V6.93L9.33 11.45L17.16 6.93V15.3L9.33 19.82Z" fill="#C7C7C7"/>
</svg>