<svg width="19" height="22" viewBox="0 0 19 22" fill="none" xmlns="http://www.w3.org/2000/svg">
<path d="M17.91 5.83012V15.7401L9.33 20.7001L0.75 15.7401V5.83012L9.33 0.870117L17.91 5.83012Z" fill="white"/>
<path d="M9.33 0.860107L0.75 5.82011L9.33 10.7701L17.91 5.82011L9.33 0.860107Z" fill="#FFC9BB"/>
<path d="M9.33 0L0 5.39V16.17L9.33 21.56L18.66 16.17V5.39L9.33 0ZM9.33 1.73L16.25 5.72L9.33 9.71L2.41 5.72L9.33 1.73ZM1.5 6.93L8.58 11.02V19.39L1.5 15.3V6.93ZM17.16 15.3L10.08 19.39V11.02L17.16 6.93V15.3Z" fill="#979797"/>
<path d="M9.33 11.45L18.66 6.06V5.39L9.33 0L0 5.39V6.06L9.33 11.45ZM9.33 1.73L16.25 5.72L9.33 9.71L2.41 5.72L9.33 1.73Z" fill="#EF7C4B"/>
</svg>