<svg width="32" height="13" viewBox="0 0 32 13" fill="none" xmlns="http://www.w3.org/2000/svg">
<path d="M17 6C17 5.44772 17.4477 5 18 5H26C26.5523 5 27 5.44772 27 6V12C27 12.5523 26.5523 13 26 13H18C17.4477 13 17 12.5523 17 12V6Z" fill="#C4C4C4"/>
<path fill-rule="evenodd" clip-rule="evenodd" d="M28 0C25.7909 0 24 1.79086 24 4V5H18C17.4477 5 17 5.44772 17 6V12C17 12.5523 17.4477 13 18 13H26C26.5523 13 27 12.5523 27 12V6C27 5.44772 26.5523 5 26 5V4C26 2.89543 26.8954 2 28 2C29.1046 2 30 2.89543 30 4V6H32V4C32 1.79086 30.2091 0 28 0ZM19 11V7H25V11H19Z" fill="#7B7B7B"/>
<path d="M9.32009 2.68343L13.8547 6.46227C14.1905 6.74213 14.1905 7.25792 13.8547 7.53778L9.32009 11.3166C8.99443 11.588 8.5 11.3564 8.5 10.9325V8.00002H1C0.447715 8.00002 0 7.55231 0 7.00002C0 6.44774 0.447715 6.00002 1 6.00002H8.5V3.06755C8.5 2.64363 8.99443 2.41205 9.32009 2.68343Z" fill="#7B7B7B"/>
</svg>
