<svg width="28" height="13" viewBox="0 0 28 13" fill="none" xmlns="http://www.w3.org/2000/svg">
<path d="M18 6C18 5.44772 18.4477 5 19 5H27C27.5523 5 28 5.44772 28 6V12C28 12.5523 27.5523 13 27 13H19C18.4477 13 18 12.5523 18 12V6Z" fill="#C8DCE9"/>
<path fill-rule="evenodd" clip-rule="evenodd" d="M27 5C27.5523 5 28 5.44772 28 6V12C28 12.5523 27.5523 13 27 13H19C18.4477 13 18 12.5523 18 12V6C18 5.44772 18.4477 5 19 5V4C19 1.79086 20.7909 0 23 0C25.2091 0 27 1.79086 27 4V5ZM25 5V4C25 2.89543 24.1046 2 23 2C21.8954 2 21 2.89543 21 4V5H25ZM20 11V7H26V11H20Z" fill="#137CBD"/>
<path d="M9.32009 2.68343L13.8547 6.46227C14.1905 6.74213 14.1905 7.25792 13.8547 7.53778L9.32009 11.3166C8.99443 11.588 8.5 11.3564 8.5 10.9325V8.00002H1C0.447715 8.00002 0 7.55231 0 7.00002C0 6.44774 0.447715 6.00002 1 6.00002H8.5V3.06755C8.5 2.64363 8.99443 2.41205 9.32009 2.68343Z" fill="#137CBD"/>
</svg>
