<svg width="116" height="82" xmlns="http://www.w3.org/2000/svg"><g fill="none" fill-rule="evenodd"><path stroke="#CFCFCF" stroke-width="2" fill="#ECECEC" d="M114.213 1.192h-113v79h113z"/><g transform="translate(48 56)"><rect fill="#585858" opacity=".5" x="16.213" y="8.192" width="21" height="2.5" rx="1"/><rect fill="#95C56E" x="16.213" y=".192" width="34" height="2.5" rx="1"/></g><g transform="translate(48 36)"><rect fill="#585858" opacity=".5" x="16.213" y="8.192" width="21" height="2.5" rx="1"/><rect fill="#95C56E" x="16.213" y=".192" width="34" height="2.5" rx="1"/></g><g transform="translate(48 16)"><rect fill="#585858" opacity=".5" x="16.213" y="8.192" width="21" height="2.5" rx="1"/><rect fill="#95C56E" x="16.213" y=".192" width="34" height="2.5" rx="1"/></g><g transform="translate(18 18)"><path stroke="#95C56E" stroke-width="2" fill="#DEF6CA" d="M7.233 19.835h17.574L26.9 45.224l-10.88-5.642-10.881 5.642z"/><circle stroke="#E8AD8F" stroke-width="2" fill="#FFF7F3" cx="15.979" cy="15.979" r="15.979"/><path stroke="#7DC740" stroke-width="2.5" d="M9.298 16.708l4.124 3.936 8.507-8.449"/></g></g></svg>