<svg width="18" height="23" viewBox="0 0 18 23" fill="none" xmlns="http://www.w3.org/2000/svg">
<path d="M5.7998 19.0801V21.8001H11.6598V19.0801C11.5698 19.0801 8.5898 19.8401 5.7998 19.0801Z" fill="white"/>
<path d="M13.9752 1.05732L3.17773 11.8547L5.29903 13.976L16.0965 3.17862L13.9752 1.05732Z" fill="white"/>
<path d="M11.4021 2.21709L4.33105 9.28809L7.86655 12.8236L14.9376 5.75259L11.4021 2.21709Z" fill="#DCDCDC"/>
<path d="M16.13 12.9C16.13 10.95 15.36 9.11 14.01 7.74L16 5.75L15.29 5.04L17.15 3.18L13.97 0L12.11 1.86L11.4 1.15L3.27 9.28L3.98 9.99L2.12 11.85L5.3 15.03L7.16 13.17L7.87 13.88L12.95 8.8C14.02 9.89 14.63 11.35 14.63 12.9C14.63 16.12 12.01 18.75 8.78 18.75C7.63 18.75 6.55 18.42 5.62 17.82H8.22V16.32H0V17.82H3.37C3.83 18.32 4.33 18.78 4.89 19.13V21.14H1.84V22.64H15.34V21.14H12.59V19.17C14.71 17.87 16.13 15.55 16.13 12.9ZM13.97 2.12L15.03 3.18L14.23 3.98L13.17 2.92L13.97 2.12ZM5.3 12.91L4.24 11.85L5.04 11.05L6.1 12.11L5.3 12.91ZM7.86 11.76L5.39 9.28L11.4 3.27L13.87 5.75L7.86 11.76ZM11.08 21.13H6.4V19.84C7.15 20.1 7.95 20.24 8.78 20.24C9.58 20.24 10.35 20.11 11.08 19.87V21.13Z" fill="#C7C7C7"/>
</svg>