<svg width="18" height="23" viewBox="0 0 18 23" fill="none" xmlns="http://www.w3.org/2000/svg">
<path d="M5.80957 19.0901V21.8101H11.6696V19.0901C11.5696 19.0901 8.58957 19.8501 5.80957 19.0901Z" fill="white"/>
<path d="M4.90039 22.0901V18.8101H6.41039V21.8501L4.90039 22.0901Z" fill="#979797"/>
<path d="M11.0898 22.3701V18.3501H12.5998V22.1301L11.0898 22.3701Z" fill="#979797"/>
<path d="M8.79015 20.25C6.46015 20.25 4.32016 19.18 2.91016 17.31L4.86015 17.23C5.93015 18.2 7.31015 18.74 8.79015 18.74C12.0102 18.74 14.6402 16.12 14.6402 12.89C14.6402 11.14 13.8602 9.48997 12.5102 8.37997L13.4702 7.21997C15.1702 8.61997 16.1402 10.69 16.1402 12.89C16.1302 16.96 12.8402 20.25 8.79015 20.25Z" fill="#979797"/>
<path d="M15.3398 21.1399H1.83984V22.6399H15.3398V21.1399Z" fill="#979797"/>
<path d="M8.23 16.3201H0V17.8201H8.23V16.3201V16.3201Z" fill="#0097BF"/>
<path d="M13.9703 1.06367L3.17285 11.8611L5.29415 13.9824L16.0916 3.18497L13.9703 1.06367Z" fill="white"/>
<path d="M5.30012 15.04L2.12012 11.86L13.9801 0L17.1601 3.18L5.30012 15.04ZM4.24012 11.86L5.30012 12.92L15.0401 3.18L13.9801 2.12L4.24012 11.86Z" fill="#979797"/>
<path d="M11.404 2.21635L4.33301 9.28735L7.86851 12.8229L14.9395 5.75185L11.404 2.21635Z" fill="#7BE6FF"/>
<path d="M7.86953 13.8899L3.26953 9.28991L11.3995 1.15991L15.9995 5.75991L7.86953 13.8899ZM5.38953 9.28991L7.85953 11.7599L13.8695 5.74991L11.3995 3.26991L5.38953 9.28991Z" fill="#0097BF"/>
</svg>