<svg width="30" height="30" xmlns="http://www.w3.org/2000/svg" xmlns:xlink="http://www.w3.org/1999/xlink"><use xlink:href="#path0_fill" fill="url(#paint0_linear)"/><use xlink:href="#path1_fill" transform="translate(5 18.37)" fill="#FFF"/><use xlink:href="#path2_fill" transform="translate(13.75 17)" fill="#FFF"/><use xlink:href="#path3_fill" transform="translate(13.37 5)" fill="#FFF"/><use xlink:href="#path4_fill" transform="translate(15.6 12.88)" fill="#FFF"/><use xlink:href="#path5_fill" transform="translate(6.85 12.88)" fill="#FFF"/><use xlink:href="#path6_fill" transform="translate(11.37 8.2)" fill="#FFF"/><use xlink:href="#path7_fill" transform="translate(23 17.5)" fill="#FFF"/><use xlink:href="#path7_fill" transform="translate(4 17.5)" fill="#FFF"/><defs><linearGradient id="paint0_linear" x2="1" gradientUnits="userSpaceOnUse" gradientTransform="matrix(0 -30 30 0 0 30)"><stop offset="0" stop-color="#F4794F"/><stop offset="1" stop-color="#FF9676"/></linearGradient><path id="path0_fill" d="M28 0H2a2 2 0 0 0-2 2v26a2 2 0 0 0 2 2h26a2 2 0 0 0 2-2V2a2 2 0 0 0-2-2z"/><path id="path1_fill" fill-rule="evenodd" d="M0 1.25h20V0H0v1.25z"/><path id="path2_fill" fill-rule="evenodd" d="M0 4h2.5V0H0v4z"/><path id="path3_fill" fill-rule="evenodd" d="M0 4.038h3.25V1a1 1 0 0 0-1-1H1a1 1 0 0 0-1 1v3.038z"/><path id="path4_fill" fill-rule="evenodd" d="M0 1.307l6.395 11.388 1.151-3.403L2.328 0 0 1.307z"/><path id="path5_fill" fill-rule="evenodd" d="M0 9.292l1.151 3.403L7.546 1.307 5.218 0 0 9.292z"/><path id="path6_fill" fill-rule="evenodd" d="M3.625 1.891c-.956 0-1.734.778-1.734 1.734s.778 1.734 1.734 1.734 1.734-.778 1.734-1.734-.778-1.734-1.734-1.734zm0 5.359A3.63 3.63 0 0 1 0 3.625 3.63 3.63 0 0 1 3.625 0 3.63 3.63 0 0 1 7.25 3.625 3.63 3.63 0 0 1 3.625 7.25z"/><path id="path7_fill" fill-rule="evenodd" d="M3 1.5a1.5 1.5 0 1 1-3 0 1.5 1.5 0 0 1 3 0z"/></defs></svg>