<svg width="21" height="22" viewBox="0 0 21 22" fill="none" xmlns="http://www.w3.org/2000/svg">
<path d="M16.9639 8.06759L13.4143 4.51794L8.57774 9.35451L12.1274 12.9041L16.9639 8.06759Z" fill="#F2ECE7"/>
<path d="M16.8013 7.90492L13.5769 4.68054L8.74034 9.51711L11.9647 12.7415L16.8013 7.90492Z" fill="#F2F2F2"/>
<path d="M1.11 20.3701C0.63 19.8901 0.63 19.1201 1.11 18.6401L7.07 12.6801L8.8 14.4101L2.84 20.3701C2.36 20.8501 1.58 20.8501 1.11 20.3701Z" fill="#DCDCDC"/>
<path fill="#007af5" d="M17.3299 7.38012L14.0999 4.15012C13.8099 3.86012 13.3299 3.86012 13.0399 4.15012L8.20994 8.99012C8.05994 9.13012 7.98994 9.32012 7.98994 9.52012C7.98994 9.72012 8.06994 9.91012 8.20994 10.0501L9.28994 11.1301L7.92994 12.4901L7.59994 12.1601C7.30994 11.8701 6.82994 11.8701 6.53994 12.1601L0.579941 18.1201C-0.190059 18.8901 -0.190059 20.1401 0.579941 20.9101C0.959941 21.2901 1.46994 21.4901 1.96994 21.4901C2.46994 21.4901 2.97994 21.3001 3.35994 20.9101L9.31994 14.9501C9.60994 14.6601 9.60994 14.1801 9.31994 13.8901L8.98994 13.5601L10.3499 12.2001L11.4299 13.2801C11.5799 13.4301 11.7699 13.5001 11.9599 13.5001C12.1499 13.5001 12.3399 13.4301 12.4899 13.2801L17.3299 8.44012C17.4699 8.30012 17.5499 8.11012 17.5499 7.91012C17.5499 7.71012 17.4699 7.52012 17.3299 7.38012ZM2.29994 19.8401C2.11994 20.0201 1.81994 20.0201 1.62994 19.8401C1.44994 19.6601 1.44994 19.3601 1.62994 19.1701L7.05994 13.7401L7.72994 14.4101L2.29994 19.8401ZM11.9599 11.6801L9.79994 9.52012L13.5799 5.74012L15.7499 7.91012L11.9599 11.6801Z" />
<path d="M6.12004 7.5901C5.68004 7.1501 5.68004 6.4401 6.12004 6.0001L10.06 2.0601C10.5 1.6201 11.21 1.6201 11.65 2.0601C12.09 2.5001 12.09 3.2101 11.65 3.6501L7.71004 7.5901C7.27004 8.0301 6.56004 8.0301 6.12004 7.5901Z" fill="#DCDCDC"/>
<path d="M6.91004 8.67006C6.41004 8.67006 5.94004 8.48006 5.58004 8.12006C5.23004 7.77006 5.04004 7.30006 5.04004 6.80006C5.04004 6.30006 5.24004 5.83006 5.59004 5.47006L9.53004 1.53006C10.24 0.820059 11.47 0.820059 12.18 1.53006C12.53 1.88006 12.73 2.35006 12.73 2.86006C12.73 3.37006 12.54 3.83006 12.18 4.19006L8.24004 8.12006C7.88004 8.48006 7.41004 8.67006 6.91004 8.67006ZM10.85 2.48006C10.79 2.48006 10.68 2.49006 10.59 2.59006L6.65004 6.53006C6.55004 6.63006 6.54004 6.74006 6.54004 6.79006C6.54004 6.84006 6.55004 6.96006 6.65004 7.05006C6.84004 7.24006 6.99004 7.24006 7.18004 7.05006L11.12 3.11006C11.22 3.01006 11.23 2.90006 11.23 2.84006C11.23 2.78006 11.22 2.67006 11.12 2.58006C11.02 2.50006 10.91 2.48006 10.85 2.48006Z" fill="#007af5" />
<path d="M13.8901 15.36C13.4501 14.92 13.4501 14.21 13.8901 13.77L17.8301 9.83C18.2701 9.39 18.9801 9.39 19.4201 9.83C19.8601 10.27 19.8601 10.98 19.4201 11.42L15.4801 15.36C15.0401 15.8 14.3301 15.8 13.8901 15.36Z" fill="#DCDCDC"/>
<path d="M14.68 16.4401C14.18 16.4401 13.71 16.2501 13.35 15.8901C13 15.5401 12.8 15.0701 12.8 14.5601C12.8 14.0501 13 13.5901 13.35 13.2301L17.3 9.30006C18.03 8.57006 19.22 8.57006 19.95 9.30006C20.68 10.0301 20.68 11.2201 19.95 11.9501L16.01 15.8901C15.66 16.2501 15.18 16.4401 14.68 16.4401ZM18.62 10.2501C18.52 10.2501 18.43 10.2901 18.35 10.3601L14.41 14.3001C14.31 14.4001 14.3 14.5101 14.3 14.5701C14.3 14.6301 14.31 14.7401 14.41 14.8301C14.6 15.0201 14.75 15.0201 14.94 14.8301L18.88 10.8901C19.03 10.7401 19.03 10.5101 18.88 10.3601C18.82 10.2901 18.72 10.2501 18.62 10.2501Z" fill="#007af5" />
</svg>
