<svg width="30" height="32" viewBox="0 0 30 32" fill="none" xmlns="http://www.w3.org/2000/svg">
<path d="M28.39 31H1V1H17.96L28.39 11.43V31Z" fill="white"/>
<path d="M28.39 11.43H17.96V1" fill="#ECECEC"/>
<path d="M29.39 32H0V0H18.37L29.39 11.02V32ZM2 30H27.39V11.85L17.54 2H2V30Z" fill="#979797"/>
<path d="M28.39 12.43H16.96V1H18.96V10.43H28.39V12.43Z" fill="#979797"/>
<path d="M24.9599 17.21H4.41992V19.21H24.9599V17.21Z" fill="#C2C2C2"/>
<path d="M24.9599 21.2998H4.41992V23.2998H24.9599V21.2998Z" fill="#C2C2C2"/>
<path d="M24.9599 25.3999H4.41992V27.3999H24.9599V25.3999Z" fill="#C2C2C2"/>
<path d="M12.8699 13.5602H5.6499V7.54018C5.6499 5.55018 7.2699 3.93018 9.2599 3.93018C11.2499 3.93018 12.8699 5.55018 12.8699 7.54018V13.5602ZM7.6499 11.5602H10.8699V7.54018C10.8699 6.65018 10.1499 5.93018 9.2599 5.93018C8.3699 5.93018 7.6499 6.65018 7.6499 7.54018V11.5602Z" fill="#EF7C4B"/>
<path d="M13.1801 9.18994H5.3501V14.4099H13.1801V9.18994Z" fill="#FFC9BB"/>
<path d="M14.1701 15.4099H4.3501V8.18994H14.1801V15.4099H14.1701ZM6.3501 13.4099H12.1801V10.1899H6.3501V13.4099Z" fill="#EF7C4B"/>
<path d="M10.24 11.1499H8.28003V12.4499H10.24V11.1499Z" fill="#EF7C4B"/>
</svg>
