<svg width="34" height="42" viewBox="0 0 34 42" fill="none" xmlns="http://www.w3.org/2000/svg">
<path d="M33 36.05H1V1H20.81L33 13.19V36.05Z" fill="white"/>
<path d="M33.0005 13.19H20.8105V1" fill="#ECECEC"/>
<path d="M34 37.05H0V0H21.22L34 12.78V37.05ZM2 35.05H32V13.6L20.4 2H2V35.05Z" fill="#979797"/>
<path d="M33.0005 14.19H19.8105V1H21.8105V12.19H33.0005V14.19Z" fill="#979797"/>
<path d="M29 20.1101H5V22.1101H29V20.1101Z" fill="#C2C2C2"/>
<path d="M29 24.8901H5V26.8901H29V24.8901Z" fill="#C2C2C2"/>
<path d="M29 29.6702H5V31.6702H29V29.6702Z" fill="#C2C2C2"/>
<path d="M14.6996 15.5001H6.59961V8.64009C6.59961 6.41009 8.41961 4.59009 10.6496 4.59009C12.8796 4.59009 14.6996 6.40009 14.6996 8.64009V15.5001ZM8.59961 13.5001H12.6996V8.64009C12.6996 7.51009 11.7796 6.59009 10.6496 6.59009C9.51961 6.59009 8.59961 7.51009 8.59961 8.64009V13.5001Z" fill="#EF7C4B"/>
<path d="M15.2201 10.5701H6.08008V16.6701H15.2201V10.5701Z" fill="#FFC9BB"/>
<path d="M16.2201 17.6701H5.08008V9.57007H16.2201V17.6701ZM7.08008 15.6701H14.2201V11.5701H7.08008V15.6701Z" fill="#EF7C4B"/>
<path d="M11.7998 12.8601H9.50977V14.3801H11.7998V12.8601Z" fill="#EF7C4B"/>
<path d="M15.4202 38.4202L9.54021 40.6802C9.46021 40.7102 9.37021 40.6302 9.41021 40.5502L11.6702 34.6702" fill="white"/>
<path d="M22.8455 23.4788L11.6309 34.6934L15.3856 38.4481L26.6002 27.2335L22.8455 23.4788Z" fill="#9CD7FF"/>
<path d="M15.3895 39.46C15.1195 39.46 14.8695 39.35 14.6795 39.17L10.9195 35.41C10.5295 35.02 10.5295 34.39 10.9195 34L22.1395 22.78C22.3295 22.59 22.5795 22.49 22.8495 22.49C23.1195 22.49 23.3695 22.6 23.5595 22.78L27.3195 26.54C27.7095 26.93 27.7095 27.56 27.3195 27.95L16.0895 39.16C15.9095 39.35 15.6495 39.46 15.3895 39.46ZM13.0395 34.7L15.3795 37.04L25.1795 27.24L22.8395 24.9L13.0395 34.7Z" fill="#0A7CED"/>
<path d="M9.49937 41.68C9.20937 41.68 8.92937 41.57 8.71937 41.35C8.40937 41.04 8.31937 40.58 8.46937 40.17L10.7294 34.29L12.5994 35.01L11.0594 39.01L15.0594 37.47L15.7794 39.34L9.89937 41.61C9.76937 41.66 9.63937 41.68 9.49937 41.68ZM10.3394 40.89C10.3394 40.9 10.3394 40.9 10.3394 40.89V40.89Z" fill="#0A7CED"/>
<path d="M27.8798 25.96L26.5998 27.24L22.8398 23.48L24.1198 22.2C24.7498 21.57 25.7798 21.57 26.4098 22.2L27.8798 23.67C28.5198 24.3 28.5198 25.33 27.8798 25.96Z" fill="white"/>
<path d="M26.5997 28.6501L21.4297 23.4801L23.4197 21.4901C24.4397 20.4701 26.0997 20.4701 27.1197 21.4901L28.5897 22.9601C29.0797 23.4501 29.3597 24.1101 29.3597 24.8101C29.3597 25.5101 29.0897 26.1701 28.5897 26.6601L26.5997 28.6501ZM24.2597 23.4801L26.5997 25.8201L27.1697 25.2501C27.2897 25.1301 27.3497 24.9801 27.3497 24.8101C27.3497 24.6401 27.2897 24.4901 27.1697 24.3701L25.6997 22.9001C25.4697 22.6701 25.0597 22.6701 24.8297 22.9001L24.2597 23.4801Z" fill="#0A7CED"/>
<path d="M10.529 37.5701L9.39902 40.5101C9.35902 40.6201 9.46902 40.7301 9.57902 40.6901L12.509 39.5601L10.529 37.5701Z" fill="#0A7CED"/>
</svg>
