<svg width="58" height="41" xmlns="http://www.w3.org/2000/svg"><g fill="none" fill-rule="evenodd"><path d="M0 2.985A2.985 2.985 0 0 1 2.982 0h24.272c1.647 0 3.786 1.067 4.777 2.385l2.698 3.584H0V2.985z" fill="#484848"/><path d="M0 5.48h56.004c1.102 0 1.996.892 1.996 1.99v30.723a1.99 1.99 0 0 1-1.996 1.99H1.996A1.994 1.994 0 0 1 0 38.193V5.48z" fill="#3E3E3E"/><g transform="translate(32.744 14.151)" fill="#545454"><rect x=".133" y="15.073" width="15.99" height="2.74" rx="1"/><rect x=".133" y="7.767" width="11.648" height="2.74" rx="1"/><rect x=".133" y=".461" width="15.99" height="2.74" rx="1"/></g><g transform="translate(7.608 11.522)"><path fill="#5C5C5C" d="M3.351 8.57h10.96v14.612L9 21.012l-5.649 2.17z"/><circle fill="#727171" cx="8.704" cy="8.704" r="8.704"/><circle fill="#555" cx="8.704" cy="8.704" r="5.699"/></g></g></svg>