<svg width="30" height="32" viewBox="0 0 30 32" fill="none" xmlns="http://www.w3.org/2000/svg">
<path d="M28.39 31H1V1H17.96L28.39 11.43V31Z" fill="white"/>
<path d="M28.39 11.43H17.96V1" fill="#ECECEC"/>
<path d="M18.37 0H0V32H29.39V11.02L18.37 0ZM18.96 3.41L25.98 10.43H18.96V3.41ZM2 30V2H16.96V12.43H27.39V30H2Z" fill="#C7C7C7"/>
<path d="M24.9599 17.21H4.41992V19.21H24.9599V17.21Z" fill="#E6E6E6"/>
<path d="M24.9599 21.2998H4.41992V23.2998H24.9599V21.2998Z" fill="#E6E6E6"/>
<path d="M24.9599 25.3999H4.41992V27.3999H24.9599V25.3999Z" fill="#E6E6E6"/>
<path d="M13.1801 9.18994H5.3501V14.4099H13.1801V9.18994Z" fill="#ECECEC"/>
<path d="M12.8701 8.19018V7.54018C12.8701 5.55018 11.2501 3.93018 9.2601 3.93018C7.2701 3.93018 5.6501 5.55018 5.6501 7.54018V8.20018H4.3501V15.4202H14.1801V8.19018H12.8701ZM7.6501 7.54018C7.6501 6.65018 8.3701 5.93018 9.2601 5.93018C10.1501 5.93018 10.8701 6.65018 10.8701 7.54018V8.20018H7.6501V7.54018ZM12.1701 13.4102H6.3501V10.1902H12.1801V13.4102H12.1701Z" fill="#C7C7C7"/>
<path d="M10.24 11.1499H8.28003V12.4499H10.24V11.1499Z" fill="#C7C7C7"/>
</svg>