<svg width="25" height="39" fill="none" xmlns="http://www.w3.org/2000/svg"><path d="M18.917 24.615H5.133V12.8l6.892-6.892 6.892 6.892v11.815z" fill="#fff"/><path d="M18.425 11.8h-12.8v2h12.8v-2z" fill="#DADADA"/><path d="M13.025 1.97h-2v4.922h2V1.97z" fill="#C7C7C7"/><path d="M12.025 21.169a2.461 2.461 0 1 0 0-4.923 2.461 2.461 0 0 0 0 4.923z" fill="#F1F1F1"/><path d="M12.025 22.019a3.315 3.315 0 0 1-3.311-3.312 3.315 3.315 0 0 1 3.311-3.312 3.315 3.315 0 0 1 3.312 3.312 3.315 3.315 0 0 1-3.312 3.312zm0-4.923c-.888 0-1.612.722-1.612 1.611s.724 1.612 1.612 1.612c.89 0 1.613-.723 1.613-1.612 0-.889-.724-1.611-1.613-1.611zM12.025 3.938a1.97 1.97 0 1 0 0-3.938 1.97 1.97 0 0 0 0 3.938z" fill="#DADADA"/><path d="M14.486 33.476c0 1.36-2.461 3.939-2.461 3.939s-2.462-2.58-2.462-3.939a2.461 2.461 0 1 1 4.923 0z" fill="#F1F1F1"/><path d="M12.025 38.645l-.615-.644c-.45-.471-2.696-2.907-2.696-4.525a3.315 3.315 0 0 1 3.311-3.311 3.315 3.315 0 0 1 3.312 3.311c0 1.618-2.246 4.054-2.696 4.526l-.616.643zm0-6.78c-.888 0-1.612.722-1.612 1.611 0 .493.754 1.645 1.612 2.664.858-1.02 1.613-2.172 1.613-2.664 0-.889-.724-1.611-1.613-1.611z" fill="#C7C7C7"/><path d="M17.277 28.553H6.774L9.4 24.615h5.251l2.626 3.938zM5.133 24.615v-5.907s-5.907 1.969-3.846 9.845c1.282-1.969 3.846-3.938 3.846-3.938zM18.918 24.615v-5.907s5.908 1.969 3.846 9.845c-1.282-1.969-3.846-3.938-3.846-3.938z" fill="#F1F1F1"/><path d="M19.768 18.16V12.8a.847.847 0 0 0-.25-.601l-6.892-6.892a.849.849 0 0 0-1.201 0l-6.893 6.892a.846.846 0 0 0-.249.6v5.36c-1.565.794-5.654 3.596-3.818 10.61a.85.85 0 0 0 1.534.248c.972-1.493 2.802-3.041 3.43-3.552h2.383l-1.745 2.617a.848.848 0 0 0 .707 1.321h10.502a.85.85 0 0 0 .707-1.32l-1.744-2.618h2.382c.629.51 2.458 2.06 3.43 3.552a.85.85 0 0 0 1.535-.248c1.836-7.014-2.253-9.816-3.818-10.61zM1.77 26.567c-.428-3.72 1.292-5.604 2.513-6.454v4.093a24.098 24.098 0 0 0-2.513 2.361zm13.918 1.136H8.363l1.492-2.238h4.342l1.492 2.238zm2.38-3.938H5.982V13.152l6.043-6.042 6.043 6.042v10.613zm4.213 2.804a23.897 23.897 0 0 0-2.513-2.363V20.1c1.225.839 2.955 2.713 2.513 6.47z" fill="#C7C7C7"/></svg>