<svg width="31" height="31" fill="none" xmlns="http://www.w3.org/2000/svg"><path d="M17.052 23.738l-10-10 8.572-8.572h10v10l-8.572 8.572z" fill="#ECECEC"/><path d="M25.992 14.084l-9.286-9.286-1.451 1.45 9.286 9.287 1.45-1.451z" fill="#C2C2C2"/><path d="M29.207 3.035l-1.451-1.451-3.572 3.571 1.451 1.451 3.572-3.571z" fill="#979797"/><path d="M14.552 16.238a2.525 2.525 0 1 0 3.572-3.571 2.525 2.525 0 0 0-3.572 3.571z" fill="#FFC9BB"/><path d="M13.935 16.855a3.402 3.402 0 0 1 0-4.805 3.402 3.402 0 0 1 4.806 0 3.402 3.402 0 0 1 0 4.805 3.402 3.402 0 0 1-4.806 0zm3.572-3.572a1.656 1.656 0 0 0-2.339 0 1.656 1.656 0 0 0 0 2.339 1.656 1.656 0 0 0 2.34 0 1.656 1.656 0 0 0 0-2.339zM27.052 3.738A2.02 2.02 0 1 0 29.91.88a2.02 2.02 0 0 0-2.858 2.858z" fill="#EF7C4B"/><path d="M7.41 26.953c-.987.986-4.644 1.071-4.644 1.071s.085-3.656 1.072-4.643a2.525 2.525 0 1 1 3.571 3.572z" fill="#FFC9BB"/><path d="M1.873 28.917l.02-.913c.016-.669.154-4.065 1.328-5.24a3.401 3.401 0 0 1 4.805 0 3.401 3.401 0 0 1 0 4.805c-1.174 1.174-4.57 1.312-5.24 1.327l-.913.021zm4.92-4.92a1.656 1.656 0 0 0-2.34 0c-.357.358-.646 1.74-.762 3.103 1.362-.118 2.745-.407 3.102-.763a1.656 1.656 0 0 0 0-2.34z" fill="#EF7C4B"/><path d="M13.005 25.405l-7.62-7.62 4.763-.951 3.81 3.81-.953 4.761zM7.052 13.738l4.286-4.286s-5.715-2.857-9.934 4.353c2.36-.499 5.648-.067 5.648-.067zM17.052 23.738l4.286-4.286s2.857 5.715-4.353 9.934c.499-2.359.067-5.648.067-5.648z" fill="#D8D8D8"/><path d="M22.352 19.672l3.889-3.889a.869.869 0 0 0 .255-.616V5.166a.87.87 0 0 0-.872-.871h-10a.868.868 0 0 0-.617.255l-3.888 3.888C9.407 7.878 4.408 6.945.652 13.365a.872.872 0 0 0 .932 1.293c1.789-.378 4.24-.174 5.066-.088l1.728 1.728-3.164.633a.87.87 0 0 0-.445 1.472l7.619 7.619a.871.871 0 0 0 1.471-.446l.633-3.164 1.729 1.728c.085.827.289 3.277-.089 5.066a.872.872 0 0 0 1.294.933c6.42-3.757 5.486-8.756 4.926-10.467zM3.196 12.715c2.389-3.01 5.003-3.128 6.505-2.86l-2.969 2.97c-.685-.07-2.085-.181-3.536-.11zm9.273 10.921l-5.315-5.315 2.706-.541 3.15 3.15-.54 2.706zm4.584-1.13l-8.768-8.769 7.7-7.7 8.767.002v8.767l-7.699 7.7zm1.022 5.09a24.518 24.518 0 0 0-.11-3.538l2.98-2.978c.28 1.497.175 4.111-2.87 6.517z" fill="#979797"/></svg>