<svg width="20" height="25" xmlns="http://www.w3.org/2000/svg" xmlns:xlink="http://www.w3.org/1999/xlink"><use xlink:href="#path0_fill" transform="translate(.42 .58)" fill="#D1D1D1"/><g transform="translate(-5362 -5007)"><use xlink:href="#path1_fill" transform="translate(5365.75 5007.58)" fill="#ECECEC"/><mask id="a"><use xlink:href="#path1_fill" fill="#fff" transform="translate(5365.75 5007.58)"/></mask><g mask="url(#a)"><use xlink:href="#path2_stroke_2x" transform="translate(5365.75 5007.58)" fill="#BDBDBD"/></g></g><use xlink:href="#path3_fill" transform="translate(8.19 5.32)" fill="#BDBDBD"/><use xlink:href="#path4_fill" transform="translate(.42 13.78)" fill="#BDBDBD"/><use xlink:href="#path5_fill" transform="translate(13.6 13.78)" fill="#BDBDBD"/><defs><path id="path0_fill" d="M18.829 16.435l-3.206-3.231C18.491 4.649 9.771 0 9.771 0S1.017 4.649 3.917 13.204l-3.205 3.23a2.453 2.453 0 0 0-.589 2.496l1.42 4.303a1.115 1.115 0 0 0 1.83.456l2.99-2.866.57 1.449c.162.412.56.682 1.002.682h3.67c.443 0 .84-.27 1.002-.682l.57-1.45 2.99 2.867a1.115 1.115 0 0 0 1.83-.456l1.42-4.303a2.453 2.453 0 0 0-.588-2.495z"/><path id="path1_fill" d="M12.295 13.204C15.163 4.649 6.442 0 6.442 0S-2.31 4.649.59 13.204l2.446 7.619.57 1.449c.162.412.56.682 1.002.682h3.67c.443 0 .84-.27 1.002-.682l.57-1.45 2.446-7.618z"/><path id="path2_stroke_2x" d="M12.295 13.204l-1.137-.382-.003.008-.002.007 1.142.367zM6.442 0l.565-1.059-.563-.3-.564.3L6.442 0zM.59 13.204l1.142-.367-.003-.01-.003-.008-1.136.385zm2.446 7.619l-1.143.366.012.037.014.036 1.117-.44zm.57 1.449l1.117-.44-1.117.44zm5.674 0l1.117.44-1.117-.44zm.57-1.45l1.117.44.014-.036.012-.037-1.143-.366zm3.584-7.237c1.601-4.777-.059-8.5-2.059-10.95a16.131 16.131 0 0 0-4.327-3.672 4.095 4.095 0 0 0-.035-.02H7.01l-.001-.001L6.442 0a150.006 150.006 0 0 1-.565 1.058h-.001a1.17 1.17 0 0 1 .068.038 12.943 12.943 0 0 1 1.105.73c.716.528 1.636 1.31 2.466 2.327 1.643 2.013 2.909 4.891 1.643 8.67l2.275.762zM6.443 0l-.564-1.06-.002.001-.003.002a3.662 3.662 0 0 0-.123.069 15.369 15.369 0 0 0-1.341.881 16.129 16.129 0 0 0-2.91 2.74C-.506 5.086-2.168 8.81-.548 13.59l2.273-.77c-1.28-3.776-.014-6.653 1.632-8.665a13.73 13.73 0 0 1 3.639-3.089l.01-.006h.001c-.001 0-.002 0-.565-1.059zM-.555 13.57l2.446 7.62 2.285-.734-2.446-7.619-2.285.734zm2.472 7.692l.57 1.45 2.234-.88-.57-1.449-2.234.879zm.57 1.45a2.276 2.276 0 0 0 2.119 1.442v-2.4c.05 0 .096.031.115.079l-2.234.878zm2.119 1.442h3.67v-2.4h-3.67v2.4zm3.67 0c.936 0 1.776-.572 2.119-1.443l-2.234-.878a.124.124 0 0 1 .115-.079v2.4zm2.119-1.443l.57-1.45-2.233-.878-.57 1.45 2.233.878zm.596-1.522l2.446-7.618-2.285-.734-2.446 7.619 2.285.733z"/><path id="path3_fill" d="M1.998 3.996a1.998 1.998 0 1 0 0-3.996 1.998 1.998 0 0 0 0 3.996z"/><path id="path4_fill" d="M3.917 0L.712 3.23a2.453 2.453 0 0 0-.589 2.496l1.42 4.304a1.115 1.115 0 0 0 1.83.455l2.99-2.866L3.917 0z"/><path id="path5_fill" d="M5.651 3.23L2.446 0 0 7.619l2.99 2.866a1.115 1.115 0 0 0 1.83-.455l1.42-4.304a2.453 2.453 0 0 0-.589-2.495z"/></defs></svg>