<svg width="95" height="99" viewBox="0 0 95 99" fill="none" xmlns="http://www.w3.org/2000/svg">
<path d="M41.3202 37.6227L41.8202 31.4627L36.6202 26.2627L30.4102 26.8227L35.0402 31.4527L29.1202 37.3727L24.4902 32.7427L23.9302 38.9527L29.1302 44.1527L35.2902 43.6527L63.2802 71.6427C64.9402 73.3027 67.6402 73.3027 69.3002 71.6427C70.9602 69.9827 70.9602 67.2827 69.3002 65.6227L41.3202 37.6227Z" fill="#D3D3D3"/>
<path d="M52.0299 46.5626L64.1599 34.4326L66.7299 34.1726L72.3599 27.1226L69.6999 24.4626L62.6499 30.0926L62.3899 32.6626L50.2599 44.7926L42.6099 37.1426L43.1099 30.9826L37.0899 24.9626L27.6299 25.8126L33.2699 31.4526L29.1199 35.6026L23.4799 29.9626L22.6299 39.4226L28.6499 45.4426L34.8099 44.9426L42.4599 52.5926L36.7599 58.2926L38.5299 60.0626L44.2299 54.3626L62.3999 72.5226C63.4699 73.5926 64.8799 74.1326 66.2999 74.1326C67.7199 74.1326 69.1199 73.5926 70.1999 72.5226C72.3499 70.3726 72.3499 66.8826 70.1999 64.7326L52.0299 46.5626ZM68.4299 70.7526C67.2599 71.9226 65.3499 71.9226 64.1799 70.7526L35.7799 42.3526L29.6199 42.8526L25.2499 38.4826L25.5199 35.5126L29.1499 39.1426L36.8299 31.4626L33.1999 27.8326L36.1699 27.5626L40.5399 31.9326L40.0399 38.0926L68.4399 66.4926C69.5999 67.6726 69.5999 69.5826 68.4299 70.7526Z" fill="#6B6B6B"/>
<path d="M38.3136 36.2204L36.5459 34.4526L32.1265 38.872L33.8943 40.6398L38.3136 36.2204Z" fill="#666666"/>
<path d="M40.861 41.4146L39.0933 43.1824L62.4488 66.5379L64.2165 64.7701L40.861 41.4146Z" fill="#C2C2C2"/>
<path d="M66.27 69.8525C66.9604 69.8525 67.52 69.2929 67.52 68.6025C67.52 67.9122 66.9604 67.3525 66.27 67.3525C65.5797 67.3525 65.02 67.9122 65.02 68.6025C65.02 69.2929 65.5797 69.8525 66.27 69.8525Z" fill="#666666"/>
<path d="M38.6301 62.8026L42.8601 60.9925L44.7201 59.1325L37.6901 52.1125L35.8401 53.9626L34.0301 58.1926L32.8101 56.9826L22.1401 67.6625L29.1701 74.6826L39.8401 64.0125L38.6301 62.8026Z" fill="#9CD7FF"/>
<path d="M27.3724 67.6915L29.1401 69.4592L34.3161 64.2833L32.5484 62.5155L27.3724 67.6915Z" fill="#0A7CED"/>
<path d="M29.1699 76.4525L20.3799 67.6625L32.8199 55.2225L33.6099 56.0125L34.7899 53.2525L37.6999 50.3425L46.4899 59.1325L43.5799 62.0425L40.8199 63.2225L41.6099 64.0125L29.1699 76.4525ZM23.9099 67.6625L29.1699 72.9225L38.0799 64.0125L36.4499 62.3825L42.1599 59.9425L42.9599 59.1425L37.6999 53.8825L36.8999 54.6825L34.4599 60.3925L32.8299 58.7625L23.9099 67.6625Z" fill="#0A7CED"/>
<path d="M36.95 89.2025C36.17 88.5625 35 88.9125 34.69 89.8625L33.91 92.2825C15.61 86.5325 2.5 69.2325 2.5 49.5725C2.5 27.6225 18.84 8.59254 40.52 5.32254L40.15 2.85254C17.26 6.31254 0 26.3925 0 49.5725C0 70.3125 13.83 88.5725 33.13 94.6525L32.35 97.0425C32.04 97.9925 32.79 98.9625 33.79 98.9025L44.13 98.2925C45.42 98.2125 45.95 96.5925 44.95 95.7725L36.95 89.2025Z" fill="#C2C2C2"/>
<path d="M60.7402 4.29265L61.5302 1.86265C61.8402 0.912648 61.0902 -0.0573521 60.0902 0.0026479L49.7502 0.602648C48.4602 0.682648 47.9302 2.30265 48.9302 3.12265L56.9402 9.69265C57.7202 10.3326 58.8902 9.98265 59.2002 9.03265L59.9702 6.65265C78.6002 12.2226 92.0002 29.6927 92.0002 49.5727C92.0002 71.5227 75.6602 90.5527 53.9802 93.8226L54.3502 96.2926C77.2402 92.8427 94.5002 72.7527 94.5002 49.5727C94.5002 28.6027 80.3802 10.1726 60.7402 4.29265Z" fill="#C2C2C2"/>
</svg>
