<svg width="52" height="52" viewBox="0 0 52 52" fill="none" xmlns="http://www.w3.org/2000/svg">
<path d="M20.9501 13.16L21.4501 6.99999L16.2501 1.79999L10.0401 2.35999L14.6701 6.98999L8.75007 12.91L4.13007 8.27999L3.57007 14.49L8.77007 19.69L14.9301 19.19L42.9201 47.18C44.5801 48.84 47.2801 48.84 48.9401 47.18C50.6001 45.52 50.6001 42.82 48.9401 41.16L20.9501 13.16Z" fill="#D3D3D3"/>
<path d="M31.66 22.1L43.79 9.97L46.36 9.71L51.99 2.66L49.33 0L42.28 5.63L42.02 8.2L29.89 20.33L22.24 12.68L22.74 6.52L16.72 0.5L7.27002 1.35L12.91 6.99L8.76002 11.14L3.12002 5.5L2.27002 14.96L8.29002 20.98L14.45 20.48L22.1 28.13L16.4 33.83L18.17 35.6L23.87 29.9L42.03 48.06C43.1 49.13 44.51 49.67 45.93 49.67C47.35 49.67 48.75 49.13 49.83 48.06C51.98 45.91 51.98 42.42 49.83 40.27L31.66 22.1ZM48.05 46.29C46.88 47.46 44.97 47.46 43.8 46.29L15.4 17.89L9.24002 18.39L4.87002 14.02L5.14002 11.05L8.77002 14.68L16.45 7L12.82 3.37L15.79 3.1L20.16 7.47L19.66 13.63L48.06 42.03C49.23 43.2 49.23 45.11 48.05 46.29Z" fill="#6B6B6B"/>
<path d="M18.26 38.33L22.49 36.52L24.35 34.67L17.32 27.64L15.46 29.5L13.65 33.73L12.44 32.52L1.77002 43.19L8.79002 50.22L19.47 39.55L18.26 38.33Z" fill="#C2E6FF"/>
<path d="M8.79 51.99L0 43.19L12.44 30.75L13.23 31.54L14.41 28.78L17.32 25.87L26.11 34.66L23.2 37.57L20.44 38.75L21.23 39.54L8.79 51.99ZM3.54 43.19L8.8 48.45L17.71 39.54L16.08 37.91L21.79 35.47L22.59 34.67L17.33 29.41L16.53 30.21L14.09 35.92L12.46 34.29L3.54 43.19Z" fill="#5AA4FD"/>
<path d="M7.00081 43.2207L8.76855 44.9884L13.9445 39.8125L12.1768 38.0447L7.00081 43.2207Z" fill="#5AA4FD"/>
<path d="M17.9477 11.7516L16.1799 9.98389L11.7606 14.4033L13.5283 16.171L17.9477 11.7516Z" fill="#666666"/>
<path d="M20.486 16.9563L18.7183 18.724L42.0738 42.0795L43.8415 40.3118L20.486 16.9563Z" fill="#C2C2C2"/>
<path d="M45.8999 45.38C46.5903 45.38 47.1499 44.8204 47.1499 44.13C47.1499 43.4396 46.5903 42.88 45.8999 42.88C45.2095 42.88 44.6499 43.4396 44.6499 44.13C44.6499 44.8204 45.2095 45.38 45.8999 45.38Z" fill="#666666"/>
</svg>
