<?xml version="1.0" encoding="utf-8"?>
<svg xmlns="http://www.w3.org/2000/svg">
<symbol id="arrow-down" viewBox="0 0 444.819 444.819">
<g>
	<path d="M434.252,114.203l-21.409-21.416c-7.419-7.04-16.084-10.561-25.975-10.561c-10.095,0-18.657,3.521-25.7,10.561
		L222.41,231.549L83.653,92.791c-7.042-7.04-15.606-10.561-25.697-10.561c-9.896,0-18.559,3.521-25.979,10.561l-21.128,21.416
		C3.615,121.436,0,130.099,0,140.188c0,10.277,3.619,18.842,10.848,25.693l185.864,185.865c6.855,7.23,15.416,10.848,25.697,10.848
		c10.088,0,18.75-3.617,25.977-10.848l185.865-185.865c7.043-7.044,10.567-15.608,10.567-25.693
		C444.819,130.287,441.295,121.629,434.252,114.203z"/>
</g>
<g>
</g>
<g>
</g>
<g>
</g>
<g>
</g>
<g>
</g>
<g>
</g>
<g>
</g>
<g>
</g>
<g>
</g>
<g>
</g>
<g>
</g>
<g>
</g>
<g>
</g>
<g>
</g>
<g>
</g>

</symbol>
<symbol id="check" viewBox="0 0 12 9">
<path fill-rule="evenodd" clip-rule="evenodd" d="M11.37 0.352447C11.8657 0.832933 11.878 1.62429 11.3976 2.12L5.58177 8.12C5.34632 8.3629 5.02249 8.5 4.68421 8.5C4.34593 8.5 4.0221 8.3629 3.78666 8.12L1.10245 5.35077C0.62196 4.85506 0.634298 4.0637 1.13 3.58322C1.62571 3.10273 2.41707 3.11507 2.89756 3.61077L4.68421 5.45402L9.60245 0.380003C10.0829 -0.115702 10.8743 -0.12804 11.37 0.352447Z" fill="#7CB147"/>

</symbol>
<symbol id="circle-info" viewBox="0 0 14 14">
<path fill-rule="evenodd" clip-rule="evenodd" d="M14 7C14 10.866 10.866 14 7 14C3.13401 14 0 10.866 0 7C0 3.13401 3.13401 0 7 0C10.866 0 14 3.13401 14 7ZM8 6V11H6V6H8ZM7 5C7.55229 5 8 4.55228 8 4C8 3.44772 7.55229 3 7 3C6.44772 3 6 3.44772 6 4C6 4.55228 6.44772 5 7 5Z" fill="#C2C2C2"/>

</symbol>
<symbol id="circle-ok" viewBox="0 0 13 13">
<path d="M6.5 0C2.90426 0 0 2.90426 0 6.5C0 10.0957 2.90426 13 6.5 13C10.0957 13 13 10.0957 13 6.5C13 2.90426 10.0957 0 6.5 0ZM5.51809 9.76383L2.40638 6.47234L3.70638 5.24149L5.58723 7.21915L9.50106 3.5266L10.7319 4.84043L5.51809 9.76383Z" fill="#54AA22"/>

</symbol>
<symbol id="circle-question" viewBox="0 0 13 13">
<style type="text/css">
	.st0{fill:#FF5A5A;}
</style>
<path class="st0" d="M6.5,0C2.9,0,0,2.9,0,6.5S2.9,13,6.5,13S13,10.1,13,6.5S10.1,0,6.5,0z M6.3115,10.6807
	c-0.5889,0-1.0605-0.4434-1.0605-1.0107c0-0.5615,0.4717-1.0049,1.0605-1.0049c0.584,0,1.0615,0.4434,1.0615,1.0049
	C7.373,10.2373,6.8955,10.6807,6.3115,10.6807z M8.1367,6.4463C7.3682,6.8896,7.1543,7.1426,7.1543,7.6709v0.2637h-1.752
	L5.3857,7.71c-0.1074-0.96,0.1738-1.4658,0.9541-1.915c0.7637-0.4492,0.96-0.6846,0.96-1.1787c0-0.4551-0.3701-0.7695-0.8984-0.7695
	c-0.5391,0-0.9092,0.3594-0.9258,0.9043H3.6504c0.0166-1.4717,1.084-2.4316,2.8809-2.4316c1.707,0,2.8184,0.8984,2.8184,2.2461
	C9.3496,5.3965,8.9619,5.9692,8.1367,6.4463z"/>

</symbol>
<symbol id="circle-warn" viewBox="0 0 13 13">
<path d="M6.5 0C2.90426 0 0 2.90426 0 6.5C0 10.0957 2.90426 13 6.5 13C10.0957 13 13 10.0957 13 6.5C13 2.90426 10.0957 0 6.5 0ZM7.63404 2.66915L7.44043 7.64787H5.55957L5.36596 2.66915H7.63404ZM6.5 10.6766C5.86383 10.6766 5.35213 10.2064 5.35213 9.59787C5.35213 9.00319 5.86383 8.51915 6.5 8.51915C7.12234 8.51915 7.64787 8.98936 7.64787 9.59787C7.64787 10.2064 7.13617 10.6766 6.5 10.6766Z" fill="#FF5A5A"/>

</symbol>
<symbol id="close" viewBox="0 0 12 12">
<path d="M1.29289 2C0.902369 2.39052 0.902369 3.02369 1.29289 3.41421L3.76777 5.88909L1.29289 8.36396C0.902369 8.75449 0.902369 9.38765 1.29289 9.77817L2 10.4853C2.39052 10.8758 3.02369 10.8758 3.41421 10.4853L5.88909 8.01041L8.36396 10.4853C8.75448 10.8758 9.38765 10.8758 9.77817 10.4853L10.4853 9.77817C10.8758 9.38765 10.8758 8.75449 10.4853 8.36396L8.01041 5.88909L10.4853 3.41421C10.8758 3.02369 10.8758 2.39052 10.4853 2L9.77817 1.29289C9.38765 0.902369 8.75449 0.902369 8.36396 1.29289L5.88909 3.76777L3.41421 1.29289C3.02369 0.902369 2.39052 0.902369 2 1.29289L1.29289 2Z" fill="#C2C2C2"/>

</symbol>
<symbol id="connector" viewBox="0 0 23 10">
<rect y="4" width="23" height="2" rx="1"/>
<circle cx="11.5" cy="5" r="4.5"/>

</symbol>
<symbol id="copy" viewBox="0 0 14 16">
<path d="M12.3333 16H4.5C3.94775 16 3.5 15.5522 3.5 15V4.5C3.5 3.94775 3.94775 3.5 4.5 3.5H12.3333C12.8856 3.5 13.3333 3.94775 13.3333 4.5V15C13.3333 15.5522 12.8856 16 12.3333 16ZM5.5 14H11.3333V5.5H5.5V14Z" fill="#BDBDBD"/>
<path d="M1 12.5C0.44775 12.5 0 12.0522 0 11.5V1C0 0.44775 0.44775 0 1 0H8.83333C9.38558 0 9.83333 0.44775 9.83333 1C9.83333 1.55225 9.38558 2 8.83333 2H2V11.5C2 12.0522 1.55225 12.5 1 12.5Z" fill="#BDBDBD"/>

</symbol>
<symbol id="crossed-circle" viewBox="0 0 12 12">
<path fill-rule="evenodd" clip-rule="evenodd" d="M10 6C10 8.20914 8.20914 10 6 10C5.16625 10 4.39208 9.74491 3.75127 9.30853L9.30853 3.75127C9.74491 4.39208 10 5.16625 10 6ZM2.69077 8.2477L8.2477 2.69077C7.6071 2.25481 6.83331 2 6 2C3.79086 2 2 3.79086 2 6C2 6.83331 2.25481 7.6071 2.69077 8.2477ZM12 6C12 9.31371 9.31371 12 6 12C2.68629 12 0 9.31371 0 6C0 2.68629 2.68629 0 6 0C9.31371 0 12 2.68629 12 6Z" fill="#C2C2C2"/>

</symbol>
<symbol id="cube" viewBox="0 0 14 15">
<path d="M12.8174 3.33528L7.06725 6.17238C6.87304 6.27371 6.63662 6.27371 6.44241 6.17238L0.68377 3.33528C0.506452 3.25084 0.506452 2.98909 0.68377 2.90465L6.44241 0.0759938C6.63662 -0.0253313 6.87304 -0.0253313 7.06725 0.0759938L12.8174 2.90465C13.0032 2.99753 13.0032 3.25084 12.8174 3.33528Z" fill="#54AA22"/>
<path d="M0 5.20135V11.6524C0 11.9141 0.151988 12.1506 0.379969 12.2688L5.46311 14.7681C5.62354 14.8441 5.8093 14.7343 5.8093 14.5486V8.106C5.8093 7.84424 5.65731 7.60782 5.42933 7.48961L0.346194 4.99026C0.185763 4.90582 0 5.02403 0 5.20135Z" fill="#54AA22"/>
<path d="M13.1636 4.98186L8.05512 7.4981C7.82714 7.60787 7.68359 7.84429 7.68359 8.0976V14.5571C7.68359 14.7344 7.86936 14.8526 8.02979 14.7766L13.1383 12.2604C13.3662 12.1506 13.5098 11.9142 13.5098 11.6609V5.2014C13.5182 5.01563 13.324 4.89742 13.1636 4.98186Z" fill="#54AA22"/>

</symbol>
<symbol id="document" viewBox="0 0 10 12">
<path fill-rule="evenodd" clip-rule="evenodd" d="M0 0H6.02954L9.78461 3.75508V12H0V0ZM7.632 3.69231L6.09231 2.15262V3.69231H7.632ZM1.47692 1.47692V10.5231H8.30769V5.16923H4.61538V1.47692H1.47692ZM7.19999 6.0924H2.5846V7.56932H7.19999V6.0924ZM7.19999 8.12301H2.5846V9.59993H7.19999V8.12301Z" fill="#7B7B7B"/>

</symbol>
<symbol id="download" viewBox="0 0 14 14">
<rect x="5.5" width="3" height="12" rx="1.5" fill="#5C7080"/>
<path d="M2 7L7 12L12 7" stroke="#5C7080" stroke-width="3" stroke-linecap="round" stroke-linejoin="round"/>

</symbol>
<symbol id="edit" viewBox="0 0 10 10">
<path d="M6.85498 0C6.83559 0.0249455 6.81859 0.0522814 6.79644 0.074483C6.42639 0.445439 6.05691 0.817001 5.68318 1.18423C5.6469 1.21988 5.58345 1.24588 5.53253 1.246C4.14939 1.24931 2.76624 1.24865 1.38308 1.24866C1.34156 1.24866 1.30003 1.24866 1.24865 1.24866C1.24865 1.28638 1.24864 1.3147 1.24865 1.34302C1.24877 3.59512 1.24866 5.84722 1.24923 8.09931C1.24933 8.48199 1.51647 8.74999 1.90039 8.75012C3.97349 8.75085 6.0466 8.75077 8.1197 8.7499C8.47945 8.74975 8.74993 8.47267 8.7501 8.10755C8.75065 6.89363 8.74994 5.67971 8.75261 4.46579C8.75271 4.41945 8.76978 4.36038 8.80085 4.32882C9.17984 3.94383 9.56284 3.56278 9.94535 3.18126C9.96052 3.16613 9.98118 3.1565 9.99929 3.14431C9.99929 4.86293 9.99929 6.58156 9.99929 8.30019C9.993 8.32174 9.98374 8.34289 9.98086 8.36489C9.8599 9.28932 9.08393 9.99265 8.15288 9.99547C6.04748 10.0019 3.94202 10.0012 1.83661 9.99536C1.02385 9.9931 0.302498 9.43199 0.0786526 8.65081C0.0457175 8.53586 0.0258927 8.41716 0 8.30019C0 5.90453 0 3.50887 0 1.1132C0.00622417 1.09498 0.0150985 1.07721 0.0182839 1.05847C0.107362 0.534595 0.476681 0.143494 0.991588 0.0283945C1.03221 0.0193131 1.07267 0.00948175 1.1132 0C3.02713 0 4.94106 0 6.85498 0Z" fill="#7B7B7B"/>
<path d="M8.43665 0C8.50416 0.0490473 8.57926 0.0904115 8.63797 0.148378C9.04326 0.548539 9.44513 0.952163 9.8481 1.35468C10.0307 1.53711 10.0309 1.7188 9.84546 1.90467C9.31901 2.43226 8.79168 2.95898 8.26467 3.48602C7.37635 4.37438 6.48788 5.26259 5.60037 6.15177C5.57539 6.1768 5.56067 6.21208 5.54579 6.23535C4.9402 5.63074 4.3557 5.04717 3.76465 4.45707C3.78576 4.43499 3.80927 4.40942 3.83381 4.38488C5.23086 2.98802 6.62736 1.59061 8.02684 0.196193C8.10522 0.118097 8.20833 0.0648255 8.29994 0C8.34551 0 8.39108 0 8.43665 0Z" fill="#7B7B7B"/>
<path d="M3.25337 4.87833C3.87239 5.49645 4.4878 6.11097 5.10855 6.73083C4.29177 6.93504 3.47191 7.14002 2.63574 7.34908C2.84494 6.5122 3.05003 5.69179 3.25337 4.87833Z" fill="#7B7B7B"/>

</symbol>
<symbol id="eye" viewBox="0 0 16 11">
<path d="M15.3012 5.10034C13.936 2.01021 10.1159 0.000244141 7.89291 0.000244141C5.6699 0.000244141 1.84983 2.01021 0.484658 5.10034C0.372302 5.35467 0.372302 5.64582 0.484658 5.90015C1.84983 8.99028 5.66991 11.0002 7.89291 11.0002C10.1159 11.0002 13.936 8.99028 15.3012 5.90015C15.4135 5.64582 15.4135 5.35467 15.3012 5.10034ZM7.91026 9.47343C5.71593 9.47343 3.93707 7.69457 3.93707 5.50024C3.93707 3.30591 5.71593 1.52706 7.91026 1.52706C10.1046 1.52706 11.8834 3.30591 11.8834 5.50024C11.8834 7.69457 10.1046 9.47343 7.91026 9.47343Z" fill="#A8A8A8"/>
<path d="M7.89269 7.70385C9.11922 7.70385 10.1135 6.70955 10.1135 5.48303C10.1135 4.2565 9.11922 3.26221 7.89269 3.26221C6.66617 3.26221 5.67188 4.2565 5.67188 5.48303C5.67188 6.70955 6.66617 7.70385 7.89269 7.70385Z" fill="#A8A8A8"/>

</symbol>
<symbol id="lock" viewBox="0 0 14 16">
<path d="M12.13 7.31006H1.25V14.2501H12.13V7.31006Z" fill="#9CD7FF" opacity="50%"/>
<path d="M12.13 6.06H11.78V5.09C11.78 2.28 9.5 0 6.69 0C3.88 0 1.6 2.28 1.6 5.09V6.06H1.25C0.56 6.06 0 6.62 0 7.31V14.25C0 14.94 0.56 15.5 1.25 15.5H12.13C12.82 15.5 13.38 14.94 13.38 14.25V7.31C13.38 6.62 12.82 6.06 12.13 6.06ZM4.1 5.09C4.1 3.66 5.26 2.5 6.69 2.5C8.12 2.5 9.28 3.66 9.28 5.09V6.06H4.1V5.09ZM10.88 13H2.5V8.56H10.88V13Z" fill="#0A7CED" fill-opacity="50%"/>
<path d="M7.94043 9.89014H5.44043V11.5501H7.94043V9.89014Z" fill="#0A7CED" fill-opacity="50%"/>

</symbol>
<symbol id="minus" viewBox="0 0 401.991 401.991">
<g>
	<path d="M394,154.174c-5.331-5.33-11.806-7.995-19.417-7.995H27.406c-7.611,0-14.084,2.665-19.414,7.995
		C2.662,159.503,0,165.972,0,173.587v54.82c0,7.617,2.662,14.086,7.992,19.41c5.33,5.332,11.803,7.994,19.414,7.994h347.176
		c7.611,0,14.086-2.662,19.417-7.994c5.325-5.324,7.991-11.793,7.991-19.41v-54.82C401.991,165.972,399.332,159.5,394,154.174z"/>
</g>
<g>
</g>
<g>
</g>
<g>
</g>
<g>
</g>
<g>
</g>
<g>
</g>
<g>
</g>
<g>
</g>
<g>
</g>
<g>
</g>
<g>
</g>
<g>
</g>
<g>
</g>
<g>
</g>
<g>
</g>

</symbol>
<symbol id="next-arrow" viewBox="0 0 11 10">
<path fill-rule="evenodd" clip-rule="evenodd" d="M9.26758 3.53583L5.73218 3.09503e-05L4.31787 1.41425L6.85376 3.95004L-5.20143e-07 3.95004L-3.45297e-07 5.95004L6.85327 5.95004L4.31787 8.48557L5.73218 9.89978L9.26782 6.36398L10.6819 4.94977L9.26758 3.53583Z" fill="white"/>

</symbol>
<symbol id="plus" viewBox="0 0 401.994 401.994">
<g>
	<path d="M394,154.175c-5.331-5.33-11.806-7.994-19.417-7.994H255.811V27.406c0-7.611-2.666-14.084-7.994-19.414
		C242.488,2.666,236.02,0,228.398,0h-54.812c-7.612,0-14.084,2.663-19.414,7.993c-5.33,5.33-7.994,11.803-7.994,19.414v118.775
		H27.407c-7.611,0-14.084,2.664-19.414,7.994S0,165.973,0,173.589v54.819c0,7.618,2.662,14.086,7.992,19.411
		c5.33,5.332,11.803,7.994,19.414,7.994h118.771V374.59c0,7.611,2.664,14.089,7.994,19.417c5.33,5.325,11.802,7.987,19.414,7.987
		h54.816c7.617,0,14.086-2.662,19.417-7.987c5.332-5.331,7.994-11.806,7.994-19.417V255.813h118.77
		c7.618,0,14.089-2.662,19.417-7.994c5.329-5.325,7.994-11.793,7.994-19.411v-54.819C401.991,165.973,399.332,159.502,394,154.175z"/>
</g>
<g>
</g>
<g>
</g>
<g>
</g>
<g>
</g>
<g>
</g>
<g>
</g>
<g>
</g>
<g>
</g>
<g>
</g>
<g>
</g>
<g>
</g>
<g>
</g>
<g>
</g>
<g>
</g>
<g>
</g>

</symbol>
<symbol id="policy" viewBox="0 0 18 20">
<path d="M14 0H0V20H18V4L14 0ZM14 3L16 5H14V3ZM2 2H12V7H16V18H2V2Z" fill="#137CBD"/>
<path d="M14 15H4V17H14V15Z" fill="#137CBD"/>
<path d="M14 12H4V14H14V12Z" fill="#137CBD"/>
<path d="M9.5 5.99988V5.62988C9.5 4.24988 8.38 3.12988 7 3.12988C5.62 3.12988 4.5 4.24988 4.5 5.62988V5.99988H4V10.9999H10V5.99988H9.5ZM6.5 5.62988C6.5 5.34988 6.72 5.12988 7 5.12988C7.28 5.12988 7.5 5.34988 7.5 5.62988V5.99988H6.5V5.62988ZM8 8.99988H6V7.99988H8V8.99988Z" fill="#137CBD"/>

</symbol>
<symbol id="prev-arrow" viewBox="0 0 11 10">
<path fill-rule="evenodd" clip-rule="evenodd" d="M1.73218 3.58603L5.26782 0.0502319L6.68213 1.46445L4.14673 3.99998H11V5.99998H4.14624L6.68213 8.53578L5.26782 9.94999L1.73242 6.4142L0.318115 4.99998L1.73218 3.58603Z" fill="white"/>

</symbol>
<symbol id="settings" viewBox="0 0 12 12">
<path d="M11.3211 7.5268L10.172 6.76863C10.2152 6.51892 10.239 6.26255 10.239 6.00049C10.239 5.73842 10.2152 5.48206 10.172 5.23235L11.3211 4.47418C11.5193 4.3434 11.5813 4.08088 11.4626 3.87525L10.4525 2.12572C10.3338 1.92009 10.0754 1.84254 9.86305 1.9488L8.63201 2.56481C8.23968 2.23664 7.79071 1.97398 7.30132 1.79474L7.2194 0.422476C7.20525 0.185458 7.0089 0.000488281 6.77147 0.000488281H4.75128C4.51384 0.000488281 4.3175 0.185458 4.30334 0.422476L4.22141 1.79473C3.73203 1.97397 3.28306 2.23663 2.89072 2.5648L1.65969 1.94879C1.44734 1.84253 1.18899 1.92009 1.07027 2.12572L0.0601705 3.87525C-0.0585489 4.08088 0.00346598 4.3434 0.201663 4.47418L1.35075 5.23235C1.30755 5.48206 1.28376 5.73842 1.28376 6.00049C1.28376 6.26255 1.30755 6.51892 1.35075 6.76863L0.201663 7.5268C0.00347495 7.65756 -0.0585489 7.92008 0.0601705 8.12572L1.07027 9.87524C1.18899 10.0809 1.44735 10.1584 1.65969 10.0522L2.89073 9.43616C3.28306 9.76432 3.73203 10.027 4.22141 10.2062L4.30334 11.5785C4.31749 11.8155 4.51384 12.0005 4.75128 12.0005H6.77147C7.0089 12.0005 7.20525 11.8155 7.21941 11.5785L7.30134 10.2062C7.79072 10.027 8.23969 9.76433 8.63202 9.43617L9.86306 10.0522C10.0754 10.1584 10.3338 10.0809 10.4525 9.87525L11.4626 8.12572C11.5813 7.92008 11.5193 7.65756 11.3211 7.5268ZM5.76137 8.32885C4.47545 8.32885 3.43301 7.2864 3.43301 6.00049C3.43301 4.71457 4.47545 3.67213 5.76137 3.67213C7.04729 3.67213 8.08973 4.71457 8.08973 6.00049C8.08973 7.2864 7.04729 8.32885 5.76137 8.32885Z" fill="#C2C2C2"/>

</symbol>
<symbol id="spinner" viewBox="0 0 66 66">
<mask id="mask0" mask-type="alpha" maskUnits="userSpaceOnUse" x="48" y="31" width="18" height="4">
<path fill-rule="evenodd" clip-rule="evenodd" d="M65.9975 31.2124V34.7871H48.0194V31.2124H65.9975V31.2124Z" fill="white"/>
</mask>
<g mask="url(#mask0)">
<path opacity="0.78" fill-rule="evenodd" clip-rule="evenodd" d="M64.2102 34.7871H49.8067C48.8197 34.7871 48.0194 33.9869 48.0194 32.9997C48.0194 32.0127 48.8197 31.2124 49.8067 31.2124H64.2102C65.1973 31.2124 65.9975 32.0127 65.9975 32.9997C65.9975 33.9869 65.1973 34.7871 64.2102 34.7871Z" fill="#08A6FF"/>
</g>
<path opacity="0.32" fill-rule="evenodd" clip-rule="evenodd" d="M16.1907 34.7875H1.78732C0.800138 34.7875 0 33.9873 0 33.0002C0 32.0131 0.800138 31.2128 1.78732 31.2128H16.1907C17.1778 31.2128 17.978 32.0131 17.978 33.0002C17.978 33.9873 17.1778 34.7875 16.1907 34.7875Z" fill="#08A6FF"/>
<path opacity="0.85" fill-rule="evenodd" clip-rule="evenodd" d="M60.9212 18.9414L48.4474 26.1431C47.5926 26.6366 46.4995 26.3438 46.006 25.4889C45.5125 24.634 45.8053 23.5409 46.6602 23.0474L59.1338 15.8457C59.9887 15.3522 61.0819 15.645 61.5754 16.4999C62.069 17.3548 61.776 18.4478 60.9212 18.9414Z" fill="#08A6FF"/>
<path opacity="0.4" fill-rule="evenodd" clip-rule="evenodd" d="M19.3398 42.9519L6.86606 50.1536C6.0113 50.6471 4.91811 50.3543 4.42457 49.4994C3.93103 48.6445 4.22386 47.5514 5.07885 47.0579L17.5525 39.8562C18.4074 39.3627 19.5005 39.6555 19.994 40.5104C20.4875 41.3653 20.1947 42.4583 19.3398 42.9519Z" fill="#08A6FF"/>
<path opacity="0.92" fill-rule="evenodd" clip-rule="evenodd" d="M50.1619 6.86265L42.9602 19.3364C42.4666 20.1912 41.3736 20.4841 40.5187 19.9906C39.6638 19.4971 39.371 18.404 39.8645 17.5491L47.0662 5.07532C47.5597 4.22045 48.6529 3.92762 49.5077 4.42115C50.3626 4.91469 50.6554 6.00777 50.1619 6.86265Z" fill="#08A6FF"/>
<path opacity="0.48" fill-rule="evenodd" clip-rule="evenodd" d="M26.1394 48.4504L18.9377 60.9242C18.4442 61.779 17.3511 62.0719 16.4962 61.5784C15.6413 61.0848 15.3485 59.9917 15.8421 59.1369L23.0437 46.6631C23.5373 45.8082 24.6304 45.5154 25.4852 46.0089C26.3401 46.5025 26.6329 47.5955 26.1394 48.4504Z" fill="#08A6FF"/>
<path fill-rule="evenodd" clip-rule="evenodd" d="M34.7929 1.78732V16.1907C34.7929 17.1779 33.9927 17.978 33.0056 17.978C32.0185 17.978 31.2183 17.1778 31.2183 16.1907V1.78732C31.2183 0.80025 32.0185 0 33.0056 0C33.9927 0 34.7929 0.80025 34.7929 1.78732Z" fill="#08A6FF"/>
<path opacity="0.55" fill-rule="evenodd" clip-rule="evenodd" d="M34.7929 49.8094V64.2128C34.7929 65.2 33.9928 66.0001 33.0056 66.0001C32.0185 66.0001 31.2183 65.1999 31.2183 64.2128V49.8094C31.2183 48.8223 32.0185 48.0221 33.0056 48.0221C33.9928 48.0221 34.7929 48.8223 34.7929 49.8094Z" fill="#08A6FF"/>
<path opacity="0.1" fill-rule="evenodd" clip-rule="evenodd" d="M18.9377 5.07532L26.1394 17.5491C26.6331 18.4039 26.3401 19.4969 25.4852 19.9906C24.6304 20.4841 23.5373 20.1912 23.0437 19.3363L15.8421 6.86265C15.3485 6.00777 15.6413 4.91458 16.4962 4.42115C17.3511 3.92762 18.4442 4.22045 18.9377 5.07532Z" fill="#08A6FF"/>
<path opacity="0.62" fill-rule="evenodd" clip-rule="evenodd" d="M42.9602 46.6631L50.1619 59.1369C50.6554 59.9916 50.3626 61.0847 49.5077 61.5784C48.6528 62.0719 47.5597 61.779 47.0662 60.9241L39.8645 48.4504C39.371 47.5955 39.6638 46.5025 40.5187 46.0089C41.3736 45.5154 42.4666 45.8082 42.9602 46.6631Z" fill="#08A6FF"/>
<path opacity="0.25" fill-rule="evenodd" clip-rule="evenodd" d="M6.86607 15.8457L19.3398 23.0474C20.1946 23.5409 20.4876 24.634 19.994 25.4889C19.5005 26.3437 18.4074 26.6366 17.5525 26.1431L5.07874 18.9414C4.22387 18.4478 3.93103 17.3547 4.42457 16.4999C4.91811 15.6451 6.01119 15.3522 6.86607 15.8457Z" fill="#08A6FF"/>
<path opacity="0.7" fill-rule="evenodd" clip-rule="evenodd" d="M48.4475 39.8562L60.9213 47.0579C61.776 47.5514 62.0691 48.6445 61.5754 49.4994C61.0819 50.3542 59.9888 50.6472 59.1339 50.1536L46.6602 42.9519C45.8053 42.4583 45.5125 41.3652 46.006 40.5104C46.4996 39.6556 47.5926 39.3627 48.4475 39.8562Z" fill="#08A6FF"/>

</symbol>
<symbol id="three-dots" viewBox="0 0 18 4">
<circle cx="2" cy="2" r="2" fill="#C4C4C4"/>
<circle cx="9" cy="2" r="2" fill="#C4C4C4"/>
<circle cx="16" cy="2" r="2" fill="#C4C4C4"/>

</symbol>
<symbol id="trash" viewBox="0 0 10 13">
<path d="M0.419322 4.23395C3.1793 4.23395 5.92492 4.23395 8.67894 4.23395C8.68127 4.28173 8.68509 4.32363 8.6851 4.36553C8.68529 6.65551 8.68635 8.9455 8.68428 11.2355C8.68374 11.8356 8.31169 12.3166 7.74361 12.4583C7.64021 12.4841 7.53089 12.4973 7.42428 12.4975C5.50087 12.4999 3.57745 12.5011 1.65404 12.4986C0.972465 12.4977 0.417893 11.9585 0.416281 11.2798C0.410773 8.95959 0.414029 6.63941 0.414163 4.31924C0.414171 4.29403 0.417135 4.26882 0.419322 4.23395ZM2.8986 8.37092C2.8986 7.55604 2.89882 6.74115 2.89848 5.92627C2.89836 5.64515 2.72897 5.45881 2.47637 5.45997C2.22812 5.46111 2.06011 5.64352 2.05997 5.91797C2.05916 7.55206 2.0592 9.18614 2.06 10.8202C2.06002 10.8712 2.06378 10.9245 2.07888 10.9726C2.14358 11.1788 2.34244 11.2991 2.5523 11.264C2.75171 11.2307 2.89768 11.0556 2.89796 10.8414C2.89908 10.0179 2.89842 9.19443 2.8986 8.37092ZM4.96916 8.3769C4.96916 7.56197 4.97032 6.74703 4.96732 5.93211C4.96702 5.85251 4.95591 5.76637 4.92404 5.69474C4.8432 5.51302 4.64042 5.42248 4.45011 5.46788C4.25724 5.51389 4.13082 5.68072 4.1307 5.89857C4.12979 7.53705 4.12973 9.17554 4.13 10.814C4.13005 11.0834 4.3029 11.2676 4.55218 11.2676C4.79814 11.2676 4.9687 11.08 4.96874 10.8088C4.96886 9.99814 4.96878 9.18752 4.96916 8.3769ZM6.20094 8.36367C6.20074 8.36367 6.20054 8.36367 6.20034 8.36367C6.20034 9.18292 6.19983 10.0022 6.20063 10.8214C6.20089 11.0823 6.37332 11.2652 6.61717 11.2676C6.85953 11.27 7.03918 11.0842 7.03926 10.8273C7.0398 9.18877 7.03979 7.55028 7.03901 5.91179C7.03898 5.86071 7.03608 5.80745 7.02181 5.75895C6.9615 5.55386 6.76547 5.43246 6.55162 5.46269C6.35314 5.49074 6.20208 5.66586 6.20163 5.88007C6.19992 6.70793 6.20094 7.53581 6.20094 8.36367Z" fill="#7B7B7B"/>
<path d="M2.89831 2.15714C2.89831 1.89265 2.89761 1.64745 2.89845 1.40227C2.90038 0.839721 3.23809 0.502032 3.80142 0.500813C4.31882 0.499695 4.83621 0.499757 5.35361 0.500836C5.83571 0.50184 6.1971 0.860517 6.20017 1.34082C6.20187 1.60726 6.20048 1.87372 6.20048 2.14997C6.25271 2.15268 6.2943 2.15666 6.33589 2.15672C6.80154 2.15732 7.26724 2.16111 7.73285 2.15662C8.47356 2.14947 9.17135 2.72673 9.09929 3.69133C9.09174 3.79245 9.02646 3.80343 8.9457 3.80324C8.54904 3.80229 8.15236 3.80323 7.75569 3.80321C5.24202 3.8031 2.72834 3.80292 0.214669 3.80274C-4.52685e-05 3.80272 -4.52447e-05 3.80265 1.34274e-06 3.58526C0.000151458 2.87718 0.381734 2.35652 1.02468 2.19937C1.14457 2.17006 1.27167 2.16059 1.39562 2.1593C1.84829 2.15461 2.30104 2.15725 2.75376 2.15714C2.79608 2.15712 2.8384 2.15714 2.89831 2.15714ZM5.38272 2.15021C5.38272 1.91295 5.38433 1.68933 5.38195 1.46576C5.38097 1.37366 5.32806 1.31986 5.23622 1.31948C4.77956 1.31759 4.3229 1.31813 3.86624 1.3189C3.78075 1.31905 3.72094 1.36426 3.71894 1.44934C3.71349 1.68051 3.71707 1.91189 3.71707 2.15021C4.27626 2.15021 4.82116 2.15021 5.38272 2.15021Z" fill="#7B7B7B"/>

</symbol>
<symbol id="triangle-danger" viewBox="0 0 18 16">
<path fill-rule="evenodd" clip-rule="evenodd" d="M7.48936 1.92492C8.26714 0.63603 10.1363 0.636031 10.9141 1.92492L17.4994 12.8377C18.3038 14.1707 17.3439 15.871 15.7871 15.871H2.61638C1.05953 15.871 0.0996377 14.1706 0.904014 12.8377L7.48936 1.92492ZM8.1515 11.0172L7.97569 5.51601H10.0401L9.86425 11.0172H8.1515ZM10.0916 12.8664C10.0916 13.4392 9.60955 13.8873 9.01973 13.8873C8.42424 13.8873 7.94217 13.4392 7.94217 12.8664C7.94217 12.2993 8.42424 11.8512 9.01973 11.8512C9.60955 11.8512 10.0916 12.2993 10.0916 12.8664Z" fill="#FF8686"/>

</symbol></svg>