<svg width="19" height="20" viewBox="0 0 19 20" fill="none" xmlns="http://www.w3.org/2000/svg">
<path d="M17.75 7.25H0.75V18.27H17.75V7.25Z" fill="#C9C9C9"/>
<path d="M17.75 19.01H0.75C0.34 19.01 0 18.68 0 18.26V7.25C0 6.84 0.34 6.5 0.75 6.5H17.75C18.16 6.5 18.5 6.84 18.5 7.25V18.27C18.5 18.68 18.16 19.01 17.75 19.01ZM1.5 17.51H17V8H1.5V17.51Z" fill="#7B7B7B"/>
<path d="M12.73 11.23H11.18C10.77 11.23 10.43 11.57 10.43 11.98C10.43 12.39 10.77 12.73 11.18 12.73H11.2V13.24C11.2 13.42 11.05 13.57 10.87 13.57H7.63002C7.45002 13.57 7.30002 13.42 7.30002 13.24V12.73H7.32002C7.73002 12.73 8.07002 12.39 8.07002 11.98C8.07002 11.57 7.73002 11.23 7.32002 11.23H5.77002C5.36002 11.23 5.02002 11.57 5.02002 11.98C5.02002 12.39 5.36002 12.73 5.77002 12.73H5.80002V13.24C5.80002 14.25 6.62002 15.07 7.63002 15.07H10.87C11.88 15.07 12.7 14.25 12.7 13.24V12.73H12.72C13.13 12.73 13.47 12.39 13.47 11.98C13.47 11.57 13.14 11.23 12.73 11.23Z" fill="#7B7B7B"/>
<path d="M16.59 5H1.91003C1.50003 5 1.16003 4.66 1.16003 4.25C1.16003 3.84 1.50003 3.5 1.91003 3.5H16.59C17 3.5 17.34 3.84 17.34 4.25C17.34 4.66 17 5 16.59 5Z" fill="#7B7B7B"/>
<path d="M14.97 2H3.54004C3.13004 2 2.79004 1.66 2.79004 1.25C2.79004 0.84 3.12004 0.5 3.54004 0.5H14.98C15.39 0.5 15.73 0.84 15.73 1.25C15.73 1.66 15.39 2 14.97 2Z" fill="#7B7B7B"/>
</svg>
